<svg xmlns="http://www.w3.org/2000/svg" width="40.87" height="27.3" viewBox="0 0 40.87 27.3"><path d="M253,120.75a4.85,4.85,0,0,1-2-1.1,1.75,1.75,0,0,1-.41-1.23v-.15a16.73,16.73,0,0,0,0-3.91l-.37-4.41a86.44,86.44,0,0,1-.38-8.92c0-.37,0-.79.06-1.22A2.12,2.12,0,0,1,251,98a2.59,2.59,0,0,1,1.34-.34h.43l.05,0,.27,0h0a5.89,5.89,0,0,1,3.57,1.4,6.32,6.32,0,0,1,2.06,3.16,8.49,8.49,0,0,1,.31,1.88,8.73,8.73,0,0,1-.13,1.91,5.89,5.89,0,0,1-.72,1.92,5.39,5.39,0,0,1-.43.63,6.53,6.53,0,0,1,2.45,5.48,6.32,6.32,0,0,1-.63,2.85,5.51,5.51,0,0,1-1.78,2.07,10.06,10.06,0,0,1-4.51,1.71H253Zm1-9.14c.17,1.75.27,3.1.3,4.11,0,.28,0,.55,0,.81a4.18,4.18,0,0,0,1.48-.81,2.38,2.38,0,0,0,.81-1.93,3.41,3.41,0,0,0-.34-1.63,2.61,2.61,0,0,0-1.07-1,3.73,3.73,0,0,0-1.27-.42Zm-.54-10.22c0,1.08.06,3,.21,5.71a2.28,2.28,0,0,0,.79-.2,1.73,1.73,0,0,0,.52-.57,2.42,2.42,0,0,0,.37-1,4,4,0,0,0-.5-2.9A2.28,2.28,0,0,0,253.48,101.39Z" transform="translate(-248.9 -96.64)" fill="currentColor"/><path d="M252.32,98.64h.16l.08,0h.12l.14,0a.45.45,0,0,0,.16,0,4.92,4.92,0,0,1,3,1.16,5.39,5.39,0,0,1,1.74,2.68,7.68,7.68,0,0,1,.27,1.65,7.91,7.91,0,0,1-.11,1.68,5.36,5.36,0,0,1-.6,1.6,4.81,4.81,0,0,1-1.14,1.32,5.48,5.48,0,0,1,3,5.29,5.17,5.17,0,0,1-.53,2.4,4.27,4.27,0,0,1-1.45,1.69,9,9,0,0,1-4.08,1.55H253a.72.72,0,0,1-.71-.44.86.86,0,0,1-.53-.3.81.81,0,0,1-.17-.56,17.9,17.9,0,0,0,0-4.17c0-.1,0-.41-.07-.92s-.08-.91-.1-1.21,0-.55-.07-.88,0-.61-.07-.84,0-.41-.05-.57a84.33,84.33,0,0,1-.38-8.81c0-.37,0-.75.06-1.16a1.16,1.16,0,0,1,.51-1,1.59,1.59,0,0,1,.84-.21m.42,9.5.29,0h.52a3.6,3.6,0,0,0,1.41-.35,2.49,2.49,0,0,0,.88-.89,3.41,3.41,0,0,0,.52-1.36,4.92,4.92,0,0,0-.65-3.6,3.29,3.29,0,0,0-2.78-1.62,2.91,2.91,0,0,1-.39,0h0a7.37,7.37,0,0,0,0,.84c0,1.13.06,3.48.26,7m.37,1.65-.27,0c0,.16,0,.46.09.91l.09,1c.17,1.7.27,3,.3,4a15,15,0,0,1-.07,2.07,6.41,6.41,0,0,0,3.22-1.35,3.35,3.35,0,0,0,1.15-2.68,4.2,4.2,0,0,0-.48-2.13,3.59,3.59,0,0,0-1.45-1.35,4.82,4.82,0,0,0-2-.57l-.31,0-.29,0m-.79-13.15a3.62,3.62,0,0,0-1.87.49A3.13,3.13,0,0,0,249,99.76c0,.41-.06.85-.06,1.27a85.64,85.64,0,0,0,.39,9l0,.28,0,.29,0,.53,0,.31.05.51,0,.36,0,.6.05.61.06.76v.16a15.27,15.27,0,0,1,0,3.65l0,.14v.15a2.79,2.79,0,0,0,.63,1.91,2.94,2.94,0,0,0,.82.67,2.7,2.7,0,0,0,2,.79h.37a11,11,0,0,0,5-1.9,6.3,6.3,0,0,0,2.08-2.42,7.34,7.34,0,0,0,.74-3.3,7.76,7.76,0,0,0-2.13-5.65,6.8,6.8,0,0,0,.81-2.2,9,9,0,0,0,.14-2.13,9.29,9.29,0,0,0-.33-2.1,7.4,7.4,0,0,0-2.38-3.67,6.88,6.88,0,0,0-4.11-1.62l-.09,0-.08,0-.41,0Zm3,18.2c0-.71-.1-1.56-.19-2.54a1.22,1.22,0,0,1,.32.37,2.22,2.22,0,0,1,.21,1.12,1.44,1.44,0,0,1-.34,1Z" transform="translate(-248.9 -96.64)" fill="#fff"/><path d="M266.71,119.9a1.86,1.86,0,0,1-.86-.22,1.66,1.66,0,0,1-.87-1.11l-.55-1.76c-.07.48-.13,1-.19,1.42a1.77,1.77,0,0,1-.74,1.21,1.79,1.79,0,0,1-1,.32h-.24a1.73,1.73,0,0,1-1.18-.68,1.82,1.82,0,0,1-.37-1.27,51.65,51.65,0,0,1,1.73-7.81l-.27-.79-.55-1.55a10.73,10.73,0,0,1-.54-1.68,15.9,15.9,0,0,1-.44-1.69,1.83,1.83,0,0,1,.3-1.36,1.78,1.78,0,0,1,1.13-.73,1.69,1.69,0,0,1,.34,0,1.82,1.82,0,0,1,1.77,1.46,8.29,8.29,0,0,0,.19.91,11.88,11.88,0,0,0,.35-1.3,1.83,1.83,0,0,1,1.77-1.44,1.6,1.6,0,0,1,.3,0,1.87,1.87,0,0,1,1.17.78,1.71,1.71,0,0,1,.23,1.39,21,21,0,0,1-1.12,3.56l-.56,1.47-.33,1,.6,2.19,1.64,5.42a1.81,1.81,0,0,1-.13,1.34,1.69,1.69,0,0,1-1.08.89A2,2,0,0,1,266.71,119.9Z" transform="translate(-248.9 -96.64)" fill="currentColor"/><path d="M266.46,102.78l.14,0a.81.81,0,0,1,.5.35.7.7,0,0,1,.09.58,20.34,20.34,0,0,1-1.08,3.45l-.57,1.47-.43,1.33.68,2.47.89,3,.76,2.5a.83.83,0,0,1-.07.6.65.65,0,0,1-.44.37l-.22,0a.87.87,0,0,1-.39-.1.7.7,0,0,1-.37-.47l-1.75-5.61a48.72,48.72,0,0,0-.95,5.39.7.7,0,0,1-.32.5.75.75,0,0,1-.46.15h-.12a.71.71,0,0,1-.51-.29.85.85,0,0,1-.17-.58,51.48,51.48,0,0,1,1.79-7.91l-.37-1.09-.27-.76-.29-.81a9.47,9.47,0,0,1-.51-1.58,14.58,14.58,0,0,1-.42-1.64.72.72,0,0,1,.13-.59.8.8,0,0,1,.51-.34h.14a.77.77,0,0,1,.46.15.82.82,0,0,1,.33.51,22.74,22.74,0,0,0,1.11,3.78l.37-1.06.43-1.09a15.76,15.76,0,0,0,.6-2,.73.73,0,0,1,.33-.49.72.72,0,0,1,.45-.15m0-2a2.79,2.79,0,0,0-1.6.51,2.59,2.59,0,0,0-.61.58,1.78,1.78,0,0,0-.27-.21,2.77,2.77,0,0,0-1.6-.51,3.42,3.42,0,0,0-.45,0h-.08a2.85,2.85,0,0,0-1.76,1.14,2.78,2.78,0,0,0-.47,2.06v.07a15.5,15.5,0,0,0,.47,1.81,11,11,0,0,0,.57,1.76l.26.75.28.77.15.44a52.5,52.5,0,0,0-1.67,7.61v.11a2.81,2.81,0,0,0,.57,2,2.77,2.77,0,0,0,1.85,1.06l.37,0a2.84,2.84,0,0,0,2.06-.9,2.52,2.52,0,0,0,.85.7,2.74,2.74,0,0,0,2,.25,2.66,2.66,0,0,0,1.76-1.42,2.78,2.78,0,0,0,.21-2v-.09l-.76-2.5-.88-2.92L267.2,110l.23-.71.55-1.42a22.17,22.17,0,0,0,1.17-3.76,2.71,2.71,0,0,0-.38-2.09,2.86,2.86,0,0,0-1.69-1.2l-.08,0h-.09a3.42,3.42,0,0,0-.45,0Z" transform="translate(-248.9 -96.64)" fill="#fff"/><path d="M273.46,119.94a3.77,3.77,0,0,1-1.8-.43c-.87-.46-1.46-1.56-1.76-3.36a30.91,30.91,0,0,1-.39-4.16,34.71,34.71,0,0,1,.11-4.32,7.56,7.56,0,0,1,.83-3.3,2.81,2.81,0,0,1,1.8-1.29,3.92,3.92,0,0,1,.71,0h.44a1.74,1.74,0,0,1,1.26.5l.26.15a3.59,3.59,0,0,1,.6.44,3.79,3.79,0,0,1,.77,1.33,11,11,0,0,1,.55,2.8c.12,1.22.19,2.55.21,3.95a22.6,22.6,0,0,1-.22,3.93,4.71,4.71,0,0,1-1.38,3.22,3.23,3.23,0,0,1-1.93.58ZM273.19,108a31.7,31.7,0,0,0-.1,3.89,25.48,25.48,0,0,0,.29,3.33,30,30,0,0,0-.07-6.46c0-.33-.07-.61-.11-.85A.28.28,0,0,1,273.19,108Z" transform="translate(-248.9 -96.64)" fill="currentColor"/><path d="M273.4,104a.77.77,0,0,1,.65.31l.36.2a2.46,2.46,0,0,1,.4.29,2.7,2.7,0,0,1,.54,1,9.48,9.48,0,0,1,.49,2.54c.13,1.21.2,2.5.21,3.86a21.69,21.69,0,0,1-.21,3.77,3.88,3.88,0,0,1-1,2.6,2.25,2.25,0,0,1-1.29.35h0a2.73,2.73,0,0,1-1.31-.3c-.61-.32-1-1.2-1.27-2.65a28.21,28.21,0,0,1-.38-4,37,37,0,0,1,.1-4.2,7,7,0,0,1,.68-2.84,1.81,1.81,0,0,1,1.15-.86,5,5,0,0,1,.52,0h.44m.07,13.35a1.62,1.62,0,0,0,.38,0,.88.88,0,0,0,.18-.4,6,6,0,0,0,.28-1.19,29.43,29.43,0,0,0,0-7.09,11.92,11.92,0,0,0-.41-2.24l-.16-.44-.1,0-.46-.29a.09.09,0,0,1-.06,0h-.35l-.07.07a.47.47,0,0,0-.09.12,5.87,5.87,0,0,0-.41,2.11,31.48,31.48,0,0,0-.11,4,25.11,25.11,0,0,0,.36,3.77,4.56,4.56,0,0,0,.32,1.25,1.33,1.33,0,0,0,.18.35,1.45,1.45,0,0,0,.52.08M273.4,102H273a5.17,5.17,0,0,0-.91.06,3.74,3.74,0,0,0-2.42,1.7,8.34,8.34,0,0,0-1,3.77,37,37,0,0,0-.11,4.45,30.67,30.67,0,0,0,.41,4.33c.34,2.07,1.09,3.4,2.27,4a4.68,4.68,0,0,0,2.25.55h.08a4.2,4.2,0,0,0,2.44-.71l.06,0,.06-.05a5.55,5.55,0,0,0,1.74-3.88,24.1,24.1,0,0,0,.23-4.06c0-1.42-.09-2.78-.22-4a11.35,11.35,0,0,0-.62-3.08,3.77,3.77,0,0,0-1.76-2.24l-.2-.11a2.74,2.74,0,0,0-1.85-.69Z" transform="translate(-248.9 -96.64)" fill="#fff"/><path d="M279.24,122.94a1.73,1.73,0,0,1-1.27-.53,1.76,1.76,0,0,1-.51-1.26c0-.09,0-.55-.11-1.35a6.57,6.57,0,0,1,.06-1.6,2.75,2.75,0,0,1,.53-1.22,2.55,2.55,0,0,1,.68-.56,1,1,0,0,1,.28-.27c.48-.42,1.28-1.71,1.5-5.71,0-1.14,0-2.33,0-3.5,0-.83,0-1.14,0-1.31a2.64,2.64,0,0,1,.49-1.61,1.53,1.53,0,0,1,.69-.55l.12-.12h.32l.26,0h.11a17,17,0,0,1,1.8-.2,2.76,2.76,0,0,1,.44,0h.24a1.19,1.19,0,0,1,.47.09,1.67,1.67,0,0,1,.69.41,2.41,2.41,0,0,1,.71,1.5,3.23,3.23,0,0,1,0,.48v.2c.13,1.22.19,3.23.19,5.86,0,1,0,1.84,0,2.65s0,1.39,0,1.84a2,2,0,0,1,.65.31,3.4,3.4,0,0,1,1.09,2.41c0,.08,0,.24,0,.46s0,.28,0,.35,0,.22,0,.28h0v.21a1.82,1.82,0,0,1-.37,1.27,1.72,1.72,0,0,1-1.18.67l-.24,0a1.87,1.87,0,0,1-1.05-.33,1.74,1.74,0,0,1-.71-1.17l0-.08v-.08c0-.17,0-.48-.05-.91l-1.9,0H280.9c0,.2,0,.48.07.85s.06.77.06.8a1.79,1.79,0,0,1-1.79,1.79Zm4.12-7c0-.11,0-1,0-1a10,10,0,0,1-.32,1Z" transform="translate(-248.9 -96.64)" fill="currentColor"/><path d="M284.92,104.06a.17.17,0,0,1,.12,0,.7.7,0,0,1,.34.18,1.46,1.46,0,0,1,.42,1,2,2,0,0,1,0,.32v.2q.19,1.94.19,5.86c0,.94,0,1.82,0,2.63,0,1.62-.05,2.54-.05,2.76a1,1,0,0,1,.3,0h.27l.13,0a1,1,0,0,1,.36.16,2.57,2.57,0,0,1,.7,1.73c0,.07,0,.2,0,.38s0,.32,0,.41a1.91,1.91,0,0,0,0,.48.85.85,0,0,1-.17.58.74.74,0,0,1-.51.29H287a.78.78,0,0,1-.47-.15.76.76,0,0,1-.31-.51c0-.23,0-.67-.08-1.33l-.09-.53a4.77,4.77,0,0,1-.61,0c-.38,0-1.1,0-2.17,0h-2.18a5.69,5.69,0,0,0-.74,0h-.21a.61.61,0,0,0-.16.12,6.16,6.16,0,0,0,0,1.81c0,.44.06.67.06.7a.77.77,0,0,1-.23.56.79.79,0,0,1-.56.23.77.77,0,0,1-.56-.23.76.76,0,0,1-.22-.56c0-.07,0-.55-.11-1.43a5.51,5.51,0,0,1,0-1.34,1.63,1.63,0,0,1,.31-.76,2.13,2.13,0,0,1,.6-.45.65.65,0,0,1,.2-.23q1.62-1.34,1.89-6.45c0-1.16.05-2.35,0-3.56,0-.67,0-1.08,0-1.24a1.74,1.74,0,0,1,.28-1.06.53.53,0,0,1,.27-.22h.05l.06,0,.06,0,.13,0,.15,0,.17,0a15.41,15.41,0,0,1,1.73-.18,1.55,1.55,0,0,1,.33,0h.24m-3.41,12.88h2.84c0-.23,0-.67,0-1.32s0-1.12,0-1.42c0-.81,0-1.68,0-2.62,0-2.47-.07-4.36-.2-5.68v-.21l-.57,0-.64.08a10.39,10.39,0,0,0,0,1.08c0,1.24,0,2.47,0,3.67a13.92,13.92,0,0,1-1.46,6.37m3.41-14.88h-.24a3.16,3.16,0,0,0-.55,0,18.31,18.31,0,0,0-1.86.2l-.07,0-.24,0h-.66l-.29.31a2.57,2.57,0,0,0-.88.78,3.62,3.62,0,0,0-.68,2.15c0,.22,0,.57,0,1.34,0,1.19,0,2.36,0,3.5-.21,3.84-1,4.78-1.14,4.94a2.68,2.68,0,0,0-.3.28,3.27,3.27,0,0,0-.78.69,3.55,3.55,0,0,0-.75,1.65,7.76,7.76,0,0,0-.08,1.86c.07.76.1,1.2.11,1.34a2.78,2.78,0,0,0,4.75,1.93,2.74,2.74,0,0,0,.82-2c0-.09,0-.11,0-.66h2.21v.09l0,.16a2.75,2.75,0,0,0,1.13,1.82,2.83,2.83,0,0,0,1.62.51l.35,0a2.8,2.8,0,0,0,2.44-3l0-.23v-.27c0-.06,0-.17,0-.31s0-.43,0-.53a4.35,4.35,0,0,0-1.45-3.07l-.26-.17c0-.34,0-.73,0-1.18q0-1.23,0-2.67c0-2.64-.06-4.59-.19-5.95v-.11a3,3,0,0,0-.05-.63,3.36,3.36,0,0,0-1-2.06,2.76,2.76,0,0,0-1.07-.65,2.38,2.38,0,0,0-.8-.14Z" transform="translate(-248.9 -96.64)" fill="#fff"/></svg>