<svg xmlns="http://www.w3.org/2000/svg" width="63.19" height="24.64" viewBox="0 0 63.19 24.64"><path d="M197.52,153.49a1.81,1.81,0,0,1-1.78-1.46c-.08-.6-.16-1.37-.23-2.4l-.21-2.2c0-.3-.11-.78-.23-1.44a3.79,3.79,0,0,0-.39-1.26,1.25,1.25,0,0,0-.43-.45,1.5,1.5,0,0,0-.43-.11l.08,6.94a1.78,1.78,0,0,1-1.79,1.8,1.73,1.73,0,0,1-1.27-.53,1.79,1.79,0,0,1-.51-1.26c0-.06,0-2.15-.05-6.25,0-3.82-.05-6.23,0-7.18,0-.13,0-.55.14-2.5,0-.85.05-1.6,0-2.22a1.7,1.7,0,0,1,.43-1.27,1.68,1.68,0,0,1,1.25-.6h.12a1.77,1.77,0,0,1,1.15.43,1.71,1.71,0,0,1,.62,1.26c0,.77,0,1.64,0,2.59-.08,1.21-.14,2.57-.16,4.07a2.05,2.05,0,0,0,.15-.44,13.77,13.77,0,0,0,.14-1.68c0-1.07,0-1.79.09-2.19a8.6,8.6,0,0,1,.43-1.75l.28-.71.16-.44a1.71,1.71,0,0,1,.09-.22,1.61,1.61,0,0,1,.23-.39l.15-.16a2,2,0,0,1,.33-.26l.25-.12a2,2,0,0,1,.69-.13,1.64,1.64,0,0,1,.69.14,1.78,1.78,0,0,1,.95,2.36l-.26.62a6.7,6.7,0,0,0-.35.94c0,.14-.07.32-.1.52s0,.89-.07,1.88a12,12,0,0,1-.31,2.73,4.78,4.78,0,0,1-.69,1.48c1.09.93,1.81,2.56,2.16,4.94.12.91.22,1.85.3,2.8s.14,1.62.21,2a1.77,1.77,0,0,1-.31,1.35,1.8,1.8,0,0,1-1.14.73Z" transform="translate(-189.24 -129.95)" fill="currentColor"/><path d="M196.78,132a.85.85,0,0,1,.31.06.74.74,0,0,1,.42.43.68.68,0,0,1,0,.59l-.27.65a7.48,7.48,0,0,0-.4,1.08c0,.18-.08.39-.12.62s-.05,1-.08,2a10.46,10.46,0,0,1-.28,2.5,3.52,3.52,0,0,1-1,1.66,2.08,2.08,0,0,1-.38.3,1.82,1.82,0,0,1,.47.21q1.78,1,2.32,4.65c.12.89.21,1.8.29,2.74s.15,1.68.23,2.11a.8.8,0,0,1-.14.6.87.87,0,0,1-.52.33h-.15a.83.83,0,0,1-.46-.14.84.84,0,0,1-.34-.52c-.07-.52-.14-1.27-.21-2.27,0-.08,0-.22,0-.4q-.14-1.35-.18-1.83c0-.31-.11-.82-.23-1.52a4.83,4.83,0,0,0-.52-1.59,2.1,2.1,0,0,0-.81-.81,4.43,4.43,0,0,0-1.92-.31l.09,8a.77.77,0,0,1-.23.56.79.79,0,0,1-.56.23.77.77,0,0,1-.56-.23.8.8,0,0,1-.22-.56s0-2.11-.05-6.26q-.06-5.75,0-7.15c0-.21.05-1,.13-2.46a23.18,23.18,0,0,0,0-2.32.76.76,0,0,1,.18-.58.71.71,0,0,1,.54-.25h.08a.76.76,0,0,1,.5.19.71.71,0,0,1,.27.54c0,.74,0,1.57,0,2.51-.11,1.6-.17,3.48-.17,5.64a2.48,2.48,0,0,0,1.47-.5,2.31,2.31,0,0,0,.67-1.26,12,12,0,0,0,.15-1.85c0-1.05.06-1.76.1-2.14a6.52,6.52,0,0,1,.37-1.48l.27-.71.09-.24c0-.11.06-.18.08-.22s0-.09.06-.16a.51.51,0,0,1,.08-.14l.09-.1a.47.47,0,0,1,.12-.09l.16-.08a.71.71,0,0,1,.29-.05m0-2a2.75,2.75,0,0,0-1,.19h0l0,0a2.75,2.75,0,0,0-.33.15,3,3,0,0,0-.57.43l-.23.25c0,.06-.09.13-.14.2a3,3,0,0,0-.43-.45,2.75,2.75,0,0,0-1.79-.66H192a2.71,2.71,0,0,0-1.93.94,2.79,2.79,0,0,0-.67,2c0,.59,0,1.31,0,2.12-.12,1.92-.14,2.38-.14,2.56,0,.93,0,3.29,0,7.17,0,4.08.05,6.17.05,6.25a2.78,2.78,0,0,0,2.78,2.78,2.8,2.8,0,0,0,2-.81,2.84,2.84,0,0,0,.66-1v.16a2.81,2.81,0,0,0,2.76,2.26,2.28,2.28,0,0,0,.45,0h.08a2.8,2.8,0,0,0,2.25-3.2c-.05-.28-.12-.82-.21-2-.07-1-.18-1.94-.3-2.85a9.67,9.67,0,0,0-1.9-5,5.57,5.57,0,0,0,.4-1.08,12.21,12.21,0,0,0,.35-3c0-1.08.05-1.58.07-1.81a3.82,3.82,0,0,1,.08-.39h0s.06-.21.29-.77l.27-.63a2.68,2.68,0,0,0,0-2.15,2.74,2.74,0,0,0-1.5-1.51,2.88,2.88,0,0,0-1.08-.21Z" transform="translate(-189.24 -129.95)" fill="#fff"/><path d="M203.88,153.2a3.48,3.48,0,0,1-1.95-.69,5.63,5.63,0,0,1-1.93-3.84,16.67,16.67,0,0,1-.06-5.28,9,9,0,0,1,1.76-4.6,3.78,3.78,0,0,1,3-1.49,4.8,4.8,0,0,1,2.06.51,1.82,1.82,0,0,1,.89,1,2,2,0,0,1,.12.67h0a1.29,1.29,0,0,1,.15.56l-1,.15,1,0v.53l.08,1.58v1c.07.63.11,1.53.13,2.58a28.29,28.29,0,0,0,.16,3.51c0,.14,0,.25,0,.34l.22.14a1.41,1.41,0,0,1,.34.32s.05.07.1.16a1.58,1.58,0,0,1,.16.35,2.55,2.55,0,0,1,.07.32,1.77,1.77,0,0,1-.3,1.3,1.8,1.8,0,0,1-1.14.74l-.32,0a1.81,1.81,0,0,1-.77-.17h-.06l-.33-.22-.06-.05,0,0-.05,0-.08-.06.07,0a2.44,2.44,0,0,1-.33-.23,2.92,2.92,0,0,1-1.29.79A2.83,2.83,0,0,1,203.88,153.2Zm.29-11.73a7.24,7.24,0,0,0-.7,2.4,12.34,12.34,0,0,0,0,4,8.65,8.65,0,0,0,.25,1.19,10,10,0,0,0,.41-1.85,30.89,30.89,0,0,0,.27-3.67l0-.33A16.78,16.78,0,0,1,204.17,141.47Z" transform="translate(-189.24 -129.95)" fill="currentColor"/><path d="M204.67,138.3a3.83,3.83,0,0,1,1.64.42.73.73,0,0,1,.37.42.78.78,0,0,1,0,.58l.17.22a.35.35,0,0,1,0,.12v.37c0,.12,0,.21,0,.27l.08,1.6v.91c.07.7.11,1.57.13,2.6a28.52,28.52,0,0,0,.17,3.64,6,6,0,0,0,.16.87h0l.2.11.17.09.12.08.11.08.06.1.06.13s0,.1,0,.16a.81.81,0,0,1-.13.59.79.79,0,0,1-.52.33h-.12a.84.84,0,0,1-.47-.14l0,0-.08-.05a.38.38,0,0,0-.13-.09,1.86,1.86,0,0,1-.85-1.14l-.16.33a2.34,2.34,0,0,1-1.39,1.25,1.35,1.35,0,0,1-.44.07,2.46,2.46,0,0,1-1.38-.51A4.8,4.8,0,0,1,201,148.5a15.6,15.6,0,0,1,0-5,8.16,8.16,0,0,1,1.54-4.1,2.81,2.81,0,0,1,2.2-1.13m-.83,12.34h.07a1.19,1.19,0,0,0,.42-.46,8.38,8.38,0,0,0,.8-2.84,32.17,32.17,0,0,0,.28-3.87l0-.4a16.48,16.48,0,0,1-.21-1.93,1.31,1.31,0,0,0,0-.27,2.62,2.62,0,0,1,0-.91,1.72,1.72,0,0,0-.44-.06,1.34,1.34,0,0,0-1.05.54,6.87,6.87,0,0,0-1.18,3.29,13.46,13.46,0,0,0,0,4.3,3.83,3.83,0,0,0,.92,2.43.91.91,0,0,0,.42.19m.83-14.34h0a4.76,4.76,0,0,0-3.73,1.84,10,10,0,0,0-2,5.11,17.51,17.51,0,0,0,.06,5.6c.38,2.16,1.14,3.62,2.33,4.47a4.49,4.49,0,0,0,2.54.88,3.7,3.7,0,0,0,1-.14,3.92,3.92,0,0,0,1.06-.49l.39.26h.16a2.87,2.87,0,0,0,1,.17l.35,0h.08l.09,0a2.78,2.78,0,0,0,2.22-3.2c0-.13-.05-.28-.08-.4a3,3,0,0,0-.27-.6l-.15-.24h0a2.36,2.36,0,0,0-.44-.45,26.57,26.57,0,0,1-.14-3.25c0-1.07-.06-2-.13-2.7v-.91l-.08-1.59V140a2.28,2.28,0,0,0-.16-.8,3.19,3.19,0,0,0-.17-.79,2.73,2.73,0,0,0-1.36-1.51,5.93,5.93,0,0,0-2.53-.63Z" transform="translate(-189.24 -129.95)" fill="#fff"/><path d="M213.68,153.47a4.06,4.06,0,0,1-1.8-.45,4.78,4.78,0,0,1-2.3-3.36,20.26,20.26,0,0,1-.48-5.34,29,29,0,0,1,.55-5,8.57,8.57,0,0,1,1.34-3.56,5.59,5.59,0,0,1,1.78-1.44l1.38-.67a1,1,0,0,0,.28-.2s0-.12-.05-.29a1.77,1.77,0,0,1,.31-1.36,1.79,1.79,0,0,1,1.46-.78,1.76,1.76,0,0,1,1,.34,1.9,1.9,0,0,1,.73,1.1,3.93,3.93,0,0,1-.31,2.65,4.36,4.36,0,0,1-1.78,1.69l-.73.37a5.76,5.76,0,0,0-1,.54,2.39,2.39,0,0,0-.28.29,2.62,2.62,0,0,0-.25.57h0a3.59,3.59,0,0,1,1.65.4,5.3,5.3,0,0,1,2.1,2.17,9.76,9.76,0,0,1,1.21,4.41,10.54,10.54,0,0,1-.61,4.52,5.7,5.7,0,0,1-1.24,2.05,4.41,4.41,0,0,1-2.09,1.26A3.22,3.22,0,0,1,213.68,153.47Zm-1-9.66c0,.16,0,.36,0,.6a19.78,19.78,0,0,0,.3,4.06,4.22,4.22,0,0,0,.37,1.08,1,1,0,0,0,.24.34h.07a.37.37,0,0,0,.22-.09,2.05,2.05,0,0,0,.7-1,7.7,7.7,0,0,0,.38-3.08,6.66,6.66,0,0,0-.75-2.88c-.35-.61-.58-.72-.63-.74a1,1,0,0,0-.4.39,2.68,2.68,0,0,0-.4,1A1.07,1.07,0,0,1,212.68,143.81Z" transform="translate(-189.24 -129.95)" fill="currentColor"/><path d="M216.15,132a.73.73,0,0,1,.44.15.84.84,0,0,1,.34.52,2.87,2.87,0,0,1-.2,1.93,3.39,3.39,0,0,1-1.39,1.3l-.7.36a6.34,6.34,0,0,0-1.16.62,2.79,2.79,0,0,0-.46.46,7.07,7.07,0,0,0-.89,2.62c.16-.08.35-.18.57-.27a2.57,2.57,0,0,1,.85-.14,2.64,2.64,0,0,1,1.18.29,4.33,4.33,0,0,1,1.69,1.77,8.87,8.87,0,0,1,1.09,4,9.52,9.52,0,0,1-.55,4.09,4.53,4.53,0,0,1-1,1.73,3.44,3.44,0,0,1-1.62,1,2.57,2.57,0,0,1-.62.08,3.12,3.12,0,0,1-1.36-.35,3.81,3.81,0,0,1-1.77-2.71,19,19,0,0,1-.45-5.07,28,28,0,0,1,.53-4.85,7.73,7.73,0,0,1,1.15-3.14,4.55,4.55,0,0,1,1.46-1.18l1.35-.65a1.82,1.82,0,0,0,.73-.63,1.41,1.41,0,0,0,0-1,.8.8,0,0,1,.14-.58A.9.9,0,0,1,216,132h.13m-2.51,18.93h.1a1.76,1.76,0,0,0,.69-.27,3.16,3.16,0,0,0,1.08-1.52,8.55,8.55,0,0,0,.43-3.48,7.43,7.43,0,0,0-.87-3.3c-.48-.83-1-1.25-1.5-1.25a.91.91,0,0,0-.35.07,1.9,1.9,0,0,0-.87.74,3.65,3.65,0,0,0-.57,1.42.43.43,0,0,1-.08.21q0,.3,0,.87a20.3,20.3,0,0,0,.32,4.26,5.37,5.37,0,0,0,.47,1.36,1.8,1.8,0,0,0,.61.72,1.14,1.14,0,0,0,.57.17M216.15,130a3.89,3.89,0,0,0-.47,0h-.06l-.06,0a2.85,2.85,0,0,0-1.69,1.14,2.73,2.73,0,0,0-.52,1.69l-1,.47,0,0,0,0a6.52,6.52,0,0,0-2.1,1.73,9.4,9.4,0,0,0-1.53,4,30.9,30.9,0,0,0-.56,5.19,21.41,21.41,0,0,0,.51,5.61,5.74,5.74,0,0,0,2.81,4,5.19,5.19,0,0,0,2.26.56,4.35,4.35,0,0,0,1.14-.15,5.47,5.47,0,0,0,2.56-1.54,7,7,0,0,0,1.46-2.42,11.56,11.56,0,0,0,.66-4.9,10.82,10.82,0,0,0-1.36-4.88,6.11,6.11,0,0,0-2.49-2.52l-.08,0,.76-.39a5.33,5.33,0,0,0,2.15-2.08,4.83,4.83,0,0,0,.42-3.24v-.11a2.88,2.88,0,0,0-1.12-1.68,2.75,2.75,0,0,0-1.61-.53Zm-2.31,17.68a20.56,20.56,0,0,1-.17-3.23v-.29a6.82,6.82,0,0,1,.28,1.63,7.64,7.64,0,0,1-.11,1.89Z" transform="translate(-189.24 -129.95)" fill="#fff"/><path d="M220.59,153.43a2,2,0,0,1-.79-.17,1.86,1.86,0,0,1-1.05-2.06,1.68,1.68,0,0,1,.05-.41c0-.17,0-.63,0-1.83a16.17,16.17,0,0,0,0-1.63q0-2.55-.49-8.69a1.78,1.78,0,0,1,1.68-1.9h.12a1.76,1.76,0,0,1,1.15.42,1.73,1.73,0,0,1,.62,1.27c0,.68.08,1.32.12,1.93,0,0,.09-.34.09-.34.07-.27.12-.52.15-.71a2.58,2.58,0,0,1,.1-.4,1.56,1.56,0,0,1,.17-.5,1.49,1.49,0,0,1,.41-.53,1.66,1.66,0,0,1,1.11-.43,1.53,1.53,0,0,1,.47.07,2,2,0,0,1,1.23,1,2.75,2.75,0,0,1,.27.73,14.94,14.94,0,0,1,.24,1.85c0,.3,0,.46,0,.55v.43c.09,1.14.13,2.7.13,4.56v2.44c0,.7,0,1.45,0,2.26a1.73,1.73,0,0,1-.53,1.27,1.76,1.76,0,0,1-1.25.51,1.74,1.74,0,0,1-1.26-.52,1.77,1.77,0,0,1-.51-1.26v-.57a3.62,3.62,0,0,1-.13.42l-.24.68a2.3,2.3,0,0,1-.19.47,1.28,1.28,0,0,1-.24.34,1.88,1.88,0,0,1-1,.67A1.59,1.59,0,0,1,220.59,153.43Z" transform="translate(-189.24 -129.95)" fill="currentColor"/><path d="M220.17,137.74a.78.78,0,0,1,.77.73c.28,4.37.44,7.16.49,8.34q1.15-4.08,1.4-5.15l.06-.28.09-.51c0-.08,0-.19.06-.32s.06-.22.07-.25a7.91,7.91,0,0,0,.18-.86,1.32,1.32,0,0,1,.09-.3.55.55,0,0,1,.09-.29.43.43,0,0,1,.15-.2.69.69,0,0,1,.47-.2.69.69,0,0,1,.2,0,1,1,0,0,1,.63.53,1.89,1.89,0,0,1,.17.49,16.39,16.39,0,0,1,.22,1.67,4.83,4.83,0,0,0,0,.62v.29c.09,1.19.13,2.71.13,4.56v2.44c0,.68,0,1.44,0,2.26a.77.77,0,0,1-.23.56.8.8,0,0,1-1.1,0,.8.8,0,0,1-.22-.56c0-4.7,0-7.22,0-7.56l-1,3.51c-.41,1.44-.73,2.5-.95,3.16,0,.14-.08.27-.12.4l-.14.39a2.25,2.25,0,0,1-.09.26,1.81,1.81,0,0,1-.15.38.43.43,0,0,1-.12.16.91.91,0,0,1-.48.36l-.24,0a.92.92,0,0,1-.39-.09.85.85,0,0,1-.45-1.05.62.62,0,0,1,.05-.33v-.11c0-.24,0-.86,0-1.85s0-1.54,0-1.75q0-2.5-.49-8.68a.75.75,0,0,1,.72-.83h.08m0-2H220a2.76,2.76,0,0,0-2.59,3c.29,4.05.45,6.93.48,8.55v.13a13.71,13.71,0,0,1,0,1.51c0,1,0,1.48,0,1.78a3.92,3.92,0,0,0-.05.42,2.83,2.83,0,0,0,1.57,3l0,0h0a2.86,2.86,0,0,0,1.2.26,2.81,2.81,0,0,0,.82-.12,2.89,2.89,0,0,0,1.38-.91,2.78,2.78,0,0,0,4.65-2.06c0-.8,0-1.54,0-2.21v-2.49c0-1.85,0-3.41-.13-4.63v-.36l0-.14V141a18.27,18.27,0,0,0-.24-1.9v-.07l0-.07a3.94,3.94,0,0,0-.39-1,3,3,0,0,0-1.81-1.45,3.14,3.14,0,0,0-.74-.1,2.66,2.66,0,0,0-1.6.54,2.47,2.47,0,0,0-.53-.59,2.75,2.75,0,0,0-1.79-.66Z" transform="translate(-189.24 -129.95)" fill="#fff"/><path d="M229.51,153a1.79,1.79,0,0,1-1.26-.51,1.7,1.7,0,0,1-.53-1.27c0-1.43-.07-3.82-.21-7.11l-.24-5.65a1.86,1.86,0,0,1,.48-1.28,1.71,1.71,0,0,1,1.28-.58,1.77,1.77,0,0,1,1.25.5,1.68,1.68,0,0,1,.56,1.27c0,.46.08,2,.21,4.64h.51c0-1.51.06-3.12.17-4.81a1.79,1.79,0,0,1,3.14-1.06,1.73,1.73,0,0,1,.42,1.31,92.17,92.17,0,0,0,.06,12.41,1.81,1.81,0,0,1-.42,1.29,1.74,1.74,0,0,1-1.27.61h0a1.81,1.81,0,0,1-1.27-.45,1.79,1.79,0,0,1-.6-1.21c-.08-1.54-.14-3.06-.17-4.52h-.41c.06,2,.09,3.51.09,4.64a1.78,1.78,0,0,1-1.78,1.78Z" transform="translate(-189.24 -129.95)" fill="currentColor"/><path d="M233.53,137.51h0a.72.72,0,0,1,.55.27.8.8,0,0,1,.19.58,92.37,92.37,0,0,0,0,12.55.77.77,0,0,1-.19.58.7.7,0,0,1-.54.26h0a.73.73,0,0,1-.53-.2.78.78,0,0,1-.27-.54c-.1-1.87-.16-3.69-.18-5.47l-2.43.06q.12,3.65.12,5.61a.77.77,0,0,1-.23.56.74.74,0,0,1-.55.22.76.76,0,0,1-.56-.22.77.77,0,0,1-.23-.56c0-1.45-.07-3.83-.21-7.16l-.24-5.64a.8.8,0,0,1,.22-.57.69.69,0,0,1,.54-.25.81.81,0,0,1,.57.23.71.71,0,0,1,.24.54c0,.55.1,2.43.25,5.64h.43c.41,0,1.1,0,2,0,0-1.76,0-3.67.16-5.72a.74.74,0,0,1,.26-.54.8.8,0,0,1,.54-.2m0-2a2.81,2.81,0,0,0-1.86.7,2.61,2.61,0,0,0-.42.46,2.7,2.7,0,0,0-.28-.31,2.82,2.82,0,0,0-1.94-.77,2.7,2.7,0,0,0-2,.91,2.8,2.8,0,0,0-.73,1.91v.08l.24,5.65c.14,3.28.21,5.66.21,7.07a2.79,2.79,0,0,0,4.76,2,1.54,1.54,0,0,0,.17-.19.23.23,0,0,1,.07.07,2.8,2.8,0,0,0,1.86.69h.12a2.71,2.71,0,0,0,2-1,2.78,2.78,0,0,0,.65-2,91,91,0,0,1-.05-12.23,2.79,2.79,0,0,0-.65-2,2.76,2.76,0,0,0-2-1h-.11Z" transform="translate(-189.24 -129.95)" fill="#fff"/><path d="M240,153.1a3,3,0,0,1-1.19-.24,4,4,0,0,1-1-.51,3.37,3.37,0,0,1-.8-.84,7.72,7.72,0,0,1-.46-.83,5.33,5.33,0,0,1-.33-1.06c-.07-.36-.14-.69-.18-1s-.1-.64-.15-1.09a20.56,20.56,0,0,1,.07-6.88,5.11,5.11,0,0,1,1.52-3,3,3,0,0,1,1.8-.67,3,3,0,0,1,1.84.69,5.72,5.72,0,0,1,1.63,2.31,8.11,8.11,0,0,1,.64,2.87,3.6,3.6,0,0,1-1.1,3,2.64,2.64,0,0,1-1.61.53c-.2,0-.61,0-1.2,0h-.15a12,12,0,0,0,.47,2.74,1.92,1.92,0,0,0,.14.31,1.84,1.84,0,0,1,1.15-.56h.15a1.77,1.77,0,0,1,1.17.45,1.8,1.8,0,0,1,.61,1.21,1.73,1.73,0,0,1-.45,1.31,3.49,3.49,0,0,1-1.78,1.14A3.46,3.46,0,0,1,240,153.1Zm-.13-10.28a4.46,4.46,0,0,0-.34-1.41l0-.07a11.89,11.89,0,0,0-.19,1.48A5.22,5.22,0,0,0,239.86,142.82Z" transform="translate(-189.24 -129.95)" fill="currentColor"/><path d="M239.32,138h.05a1.9,1.9,0,0,1,1.17.46,4.71,4.71,0,0,1,1.32,1.92,6.94,6.94,0,0,1,.57,2.51,2.61,2.61,0,0,1-.75,2.18,1.83,1.83,0,0,1-1,.29c-.2,0-.58,0-1.13,0s-.91,0-1.22,0a15.5,15.5,0,0,0,.6,4.08,1.42,1.42,0,0,0,.8,1,.77.77,0,0,0,.32.07.86.86,0,0,0,.66-.36.8.8,0,0,1,.54-.28h.06a.69.69,0,0,1,.5.2.8.8,0,0,1,.28.54.73.73,0,0,1-.2.57,2.44,2.44,0,0,1-1.87.91,2,2,0,0,1-.8-.16,3.34,3.34,0,0,1-.75-.4,2.22,2.22,0,0,1-.55-.59,4.26,4.26,0,0,1-.38-.68,4.17,4.17,0,0,1-.27-.86c-.07-.35-.13-.65-.18-.93s-.09-.62-.14-1a19.94,19.94,0,0,1,.05-6.54,4.19,4.19,0,0,1,1.19-2.45,1.89,1.89,0,0,1,1.16-.45m.2,5.84c.43,0,.76,0,1,0a.51.51,0,0,0,.21,0,1.36,1.36,0,0,0,.13-.83,5.42,5.42,0,0,0-.41-1.89,3.5,3.5,0,0,0-.88-1.39.49.49,0,0,0-.24-.11h0a.16.16,0,0,0-.11.07,2.64,2.64,0,0,0-.67,1.48,13.44,13.44,0,0,0-.24,2.71c.49,0,.9,0,1.24,0m-.2-7.84h0a3.84,3.84,0,0,0-2.37.86l0,0,0,0a6.05,6.05,0,0,0-1.88,3.59,21.86,21.86,0,0,0-.08,7.19c.06.46.11.84.16,1.13s.11.65.2,1a6,6,0,0,0,.39,1.25,8.64,8.64,0,0,0,.54,1,4,4,0,0,0,1,1.09,5,5,0,0,0,1.19.65,4.06,4.06,0,0,0,1.54.3,4.4,4.4,0,0,0,3.39-1.61,2.68,2.68,0,0,0,.67-2,2.81,2.81,0,0,0-.93-1.86,2.71,2.71,0,0,0-1.84-.71h-.23a2.57,2.57,0,0,0-.47.08c0-.18-.07-.38-.1-.6l.35,0a3.59,3.59,0,0,0,2.16-.77,4.52,4.52,0,0,0,1.44-3.75,9,9,0,0,0-.72-3.22,6.64,6.64,0,0,0-1.92-2.71,3.88,3.88,0,0,0-2.36-.9Z" transform="translate(-189.24 -129.95)" fill="#fff"/><path d="M247,153.59a1.77,1.77,0,0,1-1.15-.43,1.71,1.71,0,0,1-.62-1.26,103.75,103.75,0,0,1,.12-11.23h0a2,2,0,0,1-1.26-.41,1.58,1.58,0,0,1-.62-1.26,2,2,0,0,1,.46-1.27,1.69,1.69,0,0,1,1.31-.62l1.87-.08h.15l2.4-.14a1.77,1.77,0,0,1,1.18.46,1.82,1.82,0,0,1,.59,1.29,1.84,1.84,0,0,1-.39,1.28,1.73,1.73,0,0,1-1.29.68H249a104.87,104.87,0,0,0-.13,11.1,1.72,1.72,0,0,1-.43,1.29,1.7,1.7,0,0,1-1.25.6Z" transform="translate(-189.24 -129.95)" fill="currentColor"/><path d="M249.66,137.89a.73.73,0,0,1,.51.21.81.81,0,0,1,.26.58.87.87,0,0,1-.18.63.7.7,0,0,1-.54.29l-1,0H248a112.72,112.72,0,0,0-.19,12.18.76.76,0,0,1-.18.58.73.73,0,0,1-.54.25H247a.78.78,0,0,1-.5-.19.71.71,0,0,1-.27-.54,111.46,111.46,0,0,1,.17-12.21c-.51,0-.89,0-1.13,0a.88.88,0,0,1-.57-.2.61.61,0,0,1-.25-.48.91.91,0,0,1,.23-.62.68.68,0,0,1,.54-.27l1.91-.08h.11l2.33-.13h.07m0-2h-.23l-2.23.13h-.13l-1.89.08a2.63,2.63,0,0,0-2,1,2.9,2.9,0,0,0-.7,1.91,2.57,2.57,0,0,0,1,2,3,3,0,0,0,.85.48,100,100,0,0,0-.06,10.47,2.67,2.67,0,0,0,1,1.94,2.75,2.75,0,0,0,1.79.66h.2a2.77,2.77,0,0,0,2.6-3,95.39,95.39,0,0,1,.09-10,2.69,2.69,0,0,0,1.91-1,2.88,2.88,0,0,0,.61-2,2.81,2.81,0,0,0-.91-1.95,2.73,2.73,0,0,0-1.86-.73Z" transform="translate(-189.24 -129.95)" fill="#fff"/></svg>