<svg xmlns="http://www.w3.org/2000/svg" width="63.58" height="30.22" viewBox="0 0 63.58 30.22"><path d="M429.77,121.25a1.79,1.79,0,0,1-1-.32,1.73,1.73,0,0,1-.75-1.14c-.09-.6-.16-1.36-.24-2.4l-.21-2.2c0-.31-.1-.78-.22-1.44a4.07,4.07,0,0,0-.4-1.27,1.25,1.25,0,0,0-.43-.45,1.5,1.5,0,0,0-.43-.11l.08,7a1.79,1.79,0,0,1-1.8,1.8,1.73,1.73,0,0,1-1.27-.53,1.79,1.79,0,0,1-.5-1.26q0-.09-.06-6.26c0-4,0-6.25,0-7.19,0-.14,0-.57.13-2.51,0-.84.05-1.6,0-2.22a1.74,1.74,0,0,1,1.68-1.87h.11a1.77,1.77,0,0,1,1.15.42,1.74,1.74,0,0,1,.63,1.27c0,.77,0,1.64,0,2.6-.09,1.21-.14,2.57-.16,4.08a2,2,0,0,0,.15-.45,13.77,13.77,0,0,0,.14-1.68c0-1.07.05-1.79.09-2.2a7.94,7.94,0,0,1,.44-1.75l.27-.71.16-.45.09-.21a1.49,1.49,0,0,1,.23-.39,1.78,1.78,0,0,1,.14-.14,1.41,1.41,0,0,1,.36-.28l.23-.12a2,2,0,0,1,.69-.13,1.89,1.89,0,0,1,.7.13,1.78,1.78,0,0,1,1,1,1.68,1.68,0,0,1,0,1.37l-.27.63c-.22.54-.31.81-.35.94s-.06.33-.1.53,0,.88-.06,1.88a11.82,11.82,0,0,1-.32,2.73,4.73,4.73,0,0,1-.69,1.49c1.1.92,1.82,2.55,2.16,4.94.12.89.22,1.83.3,2.81.09,1.16.17,1.74.22,2a1.82,1.82,0,0,1-.31,1.35,1.8,1.8,0,0,1-1.15.73Z" transform="translate(-421.49 -97.68)" fill="currentColor"/><path d="M429,99.68a.91.91,0,0,1,.32.06.74.74,0,0,1,.42.43.68.68,0,0,1,0,.59l-.28.65c-.2.48-.33.85-.4,1.08s-.08.39-.11.62-.06,1-.08,2a10.86,10.86,0,0,1-.29,2.5,3.59,3.59,0,0,1-.95,1.66,2.55,2.55,0,0,1-.39.3,2.9,2.9,0,0,1,.47.21c1.19.66,2,2.21,2.32,4.66.12.89.22,1.81.3,2.75s.15,1.68.22,2.11a.79.79,0,0,1-.13.6.87.87,0,0,1-.53.33h-.15a.86.86,0,0,1-.46-.14.84.84,0,0,1-.34-.52c-.07-.52-.14-1.28-.21-2.27,0-.09,0-.22,0-.41-.09-.9-.14-1.51-.17-1.82s-.11-.83-.24-1.53a4.83,4.83,0,0,0-.52-1.59,2.2,2.2,0,0,0-.81-.82,4.51,4.51,0,0,0-1.93-.3l.1,8a.77.77,0,0,1-.23.56.81.81,0,0,1-.57.23.77.77,0,0,1-.77-.79s0-2.12-.06-6.27q0-5.74,0-7.16c0-.21,0-1,.13-2.47,0-.89.05-1.66,0-2.32a.81.81,0,0,1,.19-.58.69.69,0,0,1,.54-.25h.07a.8.8,0,0,1,.51.19.71.71,0,0,1,.27.54c0,.74,0,1.58,0,2.51-.11,1.61-.17,3.5-.17,5.65a2.48,2.48,0,0,0,1.47-.5,2.31,2.31,0,0,0,.67-1.25,13.51,13.51,0,0,0,.16-1.87c0-1,.05-1.76.09-2.14a6.83,6.83,0,0,1,.37-1.47l.27-.72.09-.24c0-.11.07-.18.08-.22l.07-.16a.34.34,0,0,1,.08-.14l.09-.1a.47.47,0,0,1,.12-.09l.15-.08a.77.77,0,0,1,.29,0m0-2a2.79,2.79,0,0,0-1,.19h0l0,0a2.82,2.82,0,0,0-.34.16,2.68,2.68,0,0,0-.54.4l0,0,0,0-.18.2a1.84,1.84,0,0,0-.17.22,3,3,0,0,0-.43-.45,2.76,2.76,0,0,0-1.8-.66h-.19a2.77,2.77,0,0,0-2.6,2.94c0,.59,0,1.3,0,2.11-.12,1.93-.13,2.38-.13,2.57,0,.92,0,3.21,0,7.18l.05,5.09v1.17a2.8,2.8,0,0,0,.79,2,2.77,2.77,0,0,0,2,.83,2.81,2.81,0,0,0,2-.81,2.87,2.87,0,0,0,.66-1V120a2.81,2.81,0,0,0,2.76,2.26,3.55,3.55,0,0,0,.46,0h.08a2.82,2.82,0,0,0,1.77-1.13,2.85,2.85,0,0,0,.48-2.07c-.05-.29-.12-.83-.21-2s-.18-2-.3-2.86a9.63,9.63,0,0,0-1.91-5,6.34,6.34,0,0,0,.41-1.08,12.89,12.89,0,0,0,.35-3c0-1.09.05-1.59.06-1.82s.05-.26.08-.38a8.32,8.32,0,0,1,.3-.78l.27-.63a2.66,2.66,0,0,0,0-2.14,2.78,2.78,0,0,0-1.51-1.52,2.88,2.88,0,0,0-1.08-.21Z" transform="translate(-421.49 -97.68)" fill="#fff"/><path d="M436.54,121.44a3.73,3.73,0,0,1-1.79-.44c-.88-.46-1.46-1.56-1.76-3.36a29.5,29.5,0,0,1-.39-4.16,34.71,34.71,0,0,1,.11-4.32,7.46,7.46,0,0,1,.83-3.29,2.79,2.79,0,0,1,1.8-1.3,3.92,3.92,0,0,1,.71,0h.44a1.75,1.75,0,0,1,1.26.51,1.51,1.51,0,0,1,.26.15,3,3,0,0,1,.6.44,3.75,3.75,0,0,1,.77,1.33,10.78,10.78,0,0,1,.55,2.79c.12,1.23.19,2.55.21,4a23.56,23.56,0,0,1-.22,3.93,4.68,4.68,0,0,1-1.38,3.22,3.19,3.19,0,0,1-1.92.59Zm-.26-11.92a31.54,31.54,0,0,0-.1,3.88,25.16,25.16,0,0,0,.29,3.33,30,30,0,0,0-.07-6.46c0-.33-.07-.61-.11-.84A.28.28,0,0,1,436.28,109.52Z" transform="translate(-421.49 -97.68)" fill="currentColor"/><path d="M436.49,105.53a.78.78,0,0,1,.65.32,2.16,2.16,0,0,1,.36.19,2.39,2.39,0,0,1,.4.3,2.64,2.64,0,0,1,.54,1,9.57,9.57,0,0,1,.49,2.54c.13,1.21.19,2.5.21,3.87a21.57,21.57,0,0,1-.21,3.76,3.88,3.88,0,0,1-1,2.6,2.18,2.18,0,0,1-1.29.36h-.05a2.61,2.61,0,0,1-1.31-.31c-.61-.31-1-1.2-1.27-2.65a28.07,28.07,0,0,1-.38-4,37.12,37.12,0,0,1,.1-4.2,6.91,6.91,0,0,1,.68-2.84,1.79,1.79,0,0,1,1.15-.85,2.79,2.79,0,0,1,.52,0h.44m.06,13.35a1.67,1.67,0,0,0,.39,0,.88.88,0,0,0,.18-.39,6.33,6.33,0,0,0,.28-1.19,29.44,29.44,0,0,0,0-7.09,11.91,11.91,0,0,0-.41-2.25l-.16-.43-.1-.06-.47-.29a.06.06,0,0,1-.05,0h-.35a.15.15,0,0,0-.07.06l-.09.12a5.93,5.93,0,0,0-.41,2.11,31.48,31.48,0,0,0-.11,4,25,25,0,0,0,.36,3.77,4.55,4.55,0,0,0,.32,1.26,1.23,1.23,0,0,0,.18.34,1.43,1.43,0,0,0,.51.08m-.06-15.35h-.44a5.17,5.17,0,0,0-.91.06,3.78,3.78,0,0,0-2.42,1.7,8.35,8.35,0,0,0-1,3.78,36.78,36.78,0,0,0-.11,4.44,30.52,30.52,0,0,0,.41,4.33c.34,2.07,1.09,3.41,2.27,4a4.8,4.8,0,0,0,2.25.55h.08a4.14,4.14,0,0,0,2.44-.72l.06,0,.06-.05a5.6,5.6,0,0,0,1.74-3.88,24.29,24.29,0,0,0,.23-4.07c0-1.42-.09-2.78-.22-4a11.35,11.35,0,0,0-.62-3.08,4.59,4.59,0,0,0-1-1.65,4.51,4.51,0,0,0-.78-.58l-.2-.12a2.79,2.79,0,0,0-1.85-.69Z" transform="translate(-421.49 -97.68)" fill="#fff"/><path d="M443.5,126.89a1.78,1.78,0,0,1-1.66-1.92,57.83,57.83,0,0,0-.16-9c0-.12,0-.33,0-.67s-.05-.75-.09-1.09l-.17-2c-.11-1.31-.19-2.6-.21-3.84,0-.38,0-1,0-1.82a1.78,1.78,0,0,1,1.78-1.78,1.82,1.82,0,0,1,.89.23,2.5,2.5,0,0,1,.82-.4,3,3,0,0,1,1-.18,2.88,2.88,0,0,1,.59.06,10.16,10.16,0,0,1,1,.34l.09,0,.25.14a1.64,1.64,0,0,1,.88.91,1.78,1.78,0,0,1,.14.81,11.2,11.2,0,0,1,.78,4.21,50.49,50.49,0,0,1-.33,6.36,4.7,4.7,0,0,1-.83,2.42,3.15,3.15,0,0,1-1.88,1.32,2.66,2.66,0,0,1-.45,0,2.19,2.19,0,0,1-.36,0c0,1.65,0,3.08-.1,4.26a1.71,1.71,0,0,1-.6,1.22,1.77,1.77,0,0,1-1.16.43Zm2.12-17.65a17.83,17.83,0,0,0-.16,3,24.59,24.59,0,0,0,.19,2.53c.07-.85.11-1.59.13-2.23a18.4,18.4,0,0,0-.12-3C445.65,109.4,445.63,109.32,445.62,109.24Z" transform="translate(-421.49 -97.68)" fill="currentColor"/><path d="M445.65,105.36a1.47,1.47,0,0,1,.36,0,7.62,7.62,0,0,1,.84.29l.25.13a.78.78,0,0,1,.42.42.68.68,0,0,1,0,.56,9.52,9.52,0,0,1,.83,4.09,48.29,48.29,0,0,1-.32,6.23,3.68,3.68,0,0,1-.66,1.94,2.12,2.12,0,0,1-1.26.93l-.25,0a2,2,0,0,1-1.27-.52.34.34,0,0,1-.14-.15,51.63,51.63,0,0,1,0,5.82.74.74,0,0,1-.26.55.75.75,0,0,1-.5.18h-.07a.78.78,0,0,1-.55-.26.8.8,0,0,1-.19-.59,59.62,59.62,0,0,0-.16-9.18s0-.27,0-.67-.06-.77-.09-1.12l-.17-2q-.18-1.95-.21-3.78,0-.6,0-1.8a.74.74,0,0,1,.22-.55.8.8,0,0,1,1.12,0,.75.75,0,0,1,.23.55v.15l0-.08a2,2,0,0,1,1.16-1.06,2.3,2.3,0,0,1,.75-.14m.2,13.07.16-.15a2.36,2.36,0,0,0,.46-1.32c.17-1.78.27-3.25.31-4.4a19.35,19.35,0,0,0-.13-3.2,4.49,4.49,0,0,0-.72-2.15,1,1,0,0,1-.11-.23.74.74,0,0,0-.24,0,.4.4,0,0,0-.15,0,.65.65,0,0,0-.32.35,6.35,6.35,0,0,0-.37,1.19,16.5,16.5,0,0,0-.28,3.74,21.88,21.88,0,0,0,.44,4,4.47,4.47,0,0,0,.73,2,.38.38,0,0,0,.22.15m-.2-15.07a4.18,4.18,0,0,0-1.38.24,4.06,4.06,0,0,0-.55.23,2.72,2.72,0,0,0-.8-.12,2.77,2.77,0,0,0-2.78,2.78c0,.85,0,1.47,0,1.89,0,1.21.1,2.52.22,3.86l.17,2c0,.36.06.71.09,1.09s0,.47,0,.56V116a58.21,58.21,0,0,1,.16,8.87,2.72,2.72,0,0,0,.68,2.06,2.69,2.69,0,0,0,1.93,1h.19a2.72,2.72,0,0,0,1.81-.67,2.76,2.76,0,0,0,1-1.93c.07-1,.11-2.08.11-3.34h0a4.13,4.13,0,0,0,2.48-1.71,5.78,5.78,0,0,0,1-2.93,52.05,52.05,0,0,0,.33-6.47,12.49,12.49,0,0,0-.78-4.38,2.88,2.88,0,0,0-.21-1A2.81,2.81,0,0,0,448,104l-.21-.1-.08,0-.09,0a9.65,9.65,0,0,0-1-.35l-.05,0h-.06a3.66,3.66,0,0,0-.81-.09Z" transform="translate(-421.49 -97.68)" fill="#fff"/><path d="M452.9,121.17a4.43,4.43,0,0,1-.8-.08,3.25,3.25,0,0,1-1.65-.91,3.18,3.18,0,0,1-.88-1.75,7.68,7.68,0,0,1-.08-.9c0-.25,0-.55,0-.89,0-.17,0-.32,0-.45A1.81,1.81,0,0,1,450,115a1.71,1.71,0,0,1,1.28-.56,1.79,1.79,0,0,1,1.78,1.8c0,.33,0,.68,0,1a.71.71,0,0,0,0,.14,3.6,3.6,0,0,0,.2-.53,4.33,4.33,0,0,0,.21-1.28,2.59,2.59,0,0,0-.07-.57l-.19,0a1.86,1.86,0,0,1-1.18-.76,1.68,1.68,0,0,1-.22-1.7h-.31a1.64,1.64,0,0,1-1.22-.6,1.72,1.72,0,0,1-.42-1.32v-.08l0-.07v-.15c0-.22,0-.4,0-.55v-.43a6.85,6.85,0,0,1,1.1-4.21,3,3,0,0,1,1.9-1.07,3.9,3.9,0,0,1,.58,0,3.73,3.73,0,0,1,1.56.35,3.46,3.46,0,0,1,1.6,1.44,8,8,0,0,1,.65,3.74,8.68,8.68,0,0,1-.68,3.7,6.15,6.15,0,0,1,.43,2.35,8.39,8.39,0,0,1-.39,2.49,4.56,4.56,0,0,1-1.3,2.15A3.62,3.62,0,0,1,452.9,121.17Zm.7-13.33a9,9,0,0,0-.13,1.55v1.23l-.07.17a2.41,2.41,0,0,1-.07.48l.2,0c0-.07,0-.16,0-.28a12.28,12.28,0,0,0,.06-3Z" transform="translate(-421.49 -97.68)" fill="currentColor"/><path d="M453.47,105a2.79,2.79,0,0,1,1.15.26,2.47,2.47,0,0,1,1.14,1,7.35,7.35,0,0,1,.52,3.25,7.79,7.79,0,0,1-.57,3.24l-.28.37a4.61,4.61,0,0,1,.6,2.45,7.33,7.33,0,0,1-.34,2.18,3.68,3.68,0,0,1-1,1.7,2.63,2.63,0,0,1-1.78.72,3,3,0,0,1-.59-.06,2.29,2.29,0,0,1-1.15-.63,2.25,2.25,0,0,1-.61-1.22c0-.35-.07-.6-.07-.73s0-.49,0-.8,0-.39,0-.54a.84.84,0,0,1,.21-.57.71.71,0,0,1,.54-.23.77.77,0,0,1,.56.23.8.8,0,0,1,.22.57c0,.31,0,.64,0,1a2.12,2.12,0,0,0,0,.81.67.67,0,0,0,.57.59l.19,0a1.22,1.22,0,0,0,.8-.34,2.72,2.72,0,0,0,.57-1.13,5.27,5.27,0,0,0,.25-1.56,4.84,4.84,0,0,0-.17-1.14,3.63,3.63,0,0,0-.22-.54.18.18,0,0,1-.1,0,1,1,0,0,1-.41.09l-.19,0a.84.84,0,0,1-.55-.36.72.72,0,0,1-.07-.78.94.94,0,0,1,.67-.58l.36,0h.35a1.14,1.14,0,0,0,.21-.28,2.63,2.63,0,0,0,.23-.87,13.22,13.22,0,0,0,.05-3.2,2.25,2.25,0,0,0-.31-1,1.36,1.36,0,0,0-.86-.36h-.11a.43.43,0,0,0-.36.14,5.08,5.08,0,0,0-.51,2.7v1a.9.9,0,0,0-.06.36.71.71,0,0,1-.26.55.75.75,0,0,1-.51.19h-.07a.74.74,0,0,1-.54-.26.77.77,0,0,1-.19-.58,1.67,1.67,0,0,0,0-.39c0-.2,0-.36,0-.49v-.49a6.07,6.07,0,0,1,.88-3.59,2.35,2.35,0,0,1,1.7-.74m0-2a4.49,4.49,0,0,0-.73.06,4,4,0,0,0-2.51,1.41,7.83,7.83,0,0,0-1.34,4.83v.4c0,.18,0,.38,0,.61v.23a2.77,2.77,0,0,0,.66,2,2.67,2.67,0,0,0,1.16.8.34.34,0,0,0,0,.1,2.58,2.58,0,0,0-1.39.82,2.72,2.72,0,0,0-.74,1.91c0,.1,0,.22,0,.36,0,.38,0,.69,0,1a6.9,6.9,0,0,0,.09,1v.1a4.22,4.22,0,0,0,3.31,3.45,5,5,0,0,0,1,.11,4.61,4.61,0,0,0,3.11-1.23,5.56,5.56,0,0,0,1.59-2.6,9.29,9.29,0,0,0,.43-2.77,7.38,7.38,0,0,0-.35-2.32,10.46,10.46,0,0,0,.6-3.69,8.92,8.92,0,0,0-.77-4.26,4.48,4.48,0,0,0-2.06-1.88,4.75,4.75,0,0,0-2-.44Z" transform="translate(-421.49 -97.68)" fill="#fff"/><path d="M459.35,121.19a1.88,1.88,0,0,1-.79-.17,1.85,1.85,0,0,1-1.05-2.06,2,2,0,0,1,.05-.41c0-.17,0-.63,0-1.83s0-1.58,0-1.64q0-2.58-.49-8.7a1.74,1.74,0,0,1,1.68-1.9h.12a1.76,1.76,0,0,1,1.15.42,1.71,1.71,0,0,1,.62,1.27c0,.69.08,1.33.12,1.94,0,0,.09-.32.1-.36a6.62,6.62,0,0,0,.14-.7,3.33,3.33,0,0,1,.1-.4,1.85,1.85,0,0,1,.17-.5,1.36,1.36,0,0,1,.42-.53,1.64,1.64,0,0,1,1.11-.43,1.58,1.58,0,0,1,.47.07,2,2,0,0,1,1.22,1,2.85,2.85,0,0,1,.28.73,16.39,16.39,0,0,1,.24,1.86c0,.29,0,.45,0,.55v.42c.08,1.15.13,2.71.13,4.57v2.44c0,.71,0,1.46,0,2.27a1.76,1.76,0,0,1-.52,1.27,1.77,1.77,0,0,1-3-1.27v-.64s0,.05,0,.07a3.62,3.62,0,0,1-.13.42l-.24.68a2.3,2.3,0,0,1-.19.47,1.28,1.28,0,0,1-.24.34,1.88,1.88,0,0,1-1,.67A1.59,1.59,0,0,1,459.35,121.19Z" transform="translate(-421.49 -97.68)" fill="currentColor"/><path d="M458.92,105.48a.76.76,0,0,1,.78.73c.28,4.38.44,7.17.49,8.35q1.15-4.08,1.4-5.16l.06-.27.09-.52a2.12,2.12,0,0,1,.07-.32,1.44,1.44,0,0,1,.07-.25c.08-.35.14-.64.17-.86a1.32,1.32,0,0,1,.09-.3.48.48,0,0,1,.1-.29.33.33,0,0,1,.15-.2.67.67,0,0,1,.47-.2l.2,0a1,1,0,0,1,.62.53,2,2,0,0,1,.18.49,13.84,13.84,0,0,1,.21,1.67,4.37,4.37,0,0,0,0,.62v.29c.09,1.2.13,2.72.13,4.57v2.44c0,.69,0,1.45,0,2.27a.75.75,0,0,1-.78.78.73.73,0,0,1-.54-.22.76.76,0,0,1-.22-.56c0-4.71,0-7.23,0-7.58l-1,3.52c-.41,1.45-.72,2.5-.95,3.16a2.77,2.77,0,0,1-.12.41l-.14.39a2.25,2.25,0,0,1-.09.26,1.81,1.81,0,0,1-.15.38.43.43,0,0,1-.12.16.86.86,0,0,1-.48.36,1,1,0,0,1-.24,0,.92.92,0,0,1-.39-.09.85.85,0,0,1-.45-1,.62.62,0,0,1,.05-.33v-.11c0-.24,0-.86,0-1.86s0-1.54,0-1.75q0-2.49-.48-8.69a.73.73,0,0,1,.18-.57.7.7,0,0,1,.54-.26h.07m0-2h-.19a2.77,2.77,0,0,0-1.93.94,2.82,2.82,0,0,0-.67,2c.3,4.05.46,6.94.49,8.57v.14s0,.31,0,1.51c0,1,0,1.48,0,1.78a3.92,3.92,0,0,0-.05.42,2.83,2.83,0,0,0,1.57,3l0,0,0,0a3,3,0,0,0,1.19.25,2.81,2.81,0,0,0,.82-.12,2.89,2.89,0,0,0,1.38-.91,2.78,2.78,0,0,0,1.87.72,2.77,2.77,0,0,0,2.78-2.78q0-1.2,0-2.22v-2.49c0-1.85,0-3.41-.13-4.64v-.35l0-.14a2.94,2.94,0,0,1,0-.35v-.13a18.27,18.27,0,0,0-.24-1.9l0-.07v-.07a3.94,3.94,0,0,0-.39-1,3,3,0,0,0-1.82-1.45,3.06,3.06,0,0,0-.73-.1,2.69,2.69,0,0,0-1.61.54,2.72,2.72,0,0,0-.53-.6,2.8,2.8,0,0,0-1.8-.65Z" transform="translate(-421.49 -97.68)" fill="#fff"/><path d="M468.28,120.75a1.76,1.76,0,0,1-1.25-.51,1.74,1.74,0,0,1-.54-1.27c0-1.43-.07-3.83-.21-7.13l-.24-5.65a1.84,1.84,0,0,1,.48-1.28,1.71,1.71,0,0,1,1.28-.58,1.83,1.83,0,0,1,1.26.49,1.75,1.75,0,0,1,.55,1.28c0,.46.09,2,.21,4.65h.52c0-1.51.06-3.12.17-4.81a1.77,1.77,0,0,1,.6-1.23,1.82,1.82,0,0,1,1.2-.45,1.77,1.77,0,0,1,1.76,1.93,92.47,92.47,0,0,0,.06,12.43,1.78,1.78,0,0,1-.42,1.29,1.74,1.74,0,0,1-1.27.61h0a1.81,1.81,0,0,1-1.27-.45,1.79,1.79,0,0,1-.6-1.21c-.08-1.54-.14-3.06-.17-4.53H470c0,2,.08,3.5.08,4.64a1.78,1.78,0,0,1-1.78,1.78Z" transform="translate(-421.49 -97.68)" fill="currentColor"/><path d="M472.31,105.25h0a.72.72,0,0,1,.55.27.8.8,0,0,1,.19.58,92.66,92.66,0,0,0,.05,12.57.73.73,0,0,1-.19.58.7.7,0,0,1-.54.26h0a.76.76,0,0,1-.54-.2.82.82,0,0,1-.26-.54c-.1-1.87-.17-3.7-.19-5.48l-2.42.06c.07,2.43.11,4.31.11,5.62a.75.75,0,0,1-.78.78.77.77,0,0,1-.79-.78q0-2.18-.21-7.17l-.24-5.65a.85.85,0,0,1,.22-.57.69.69,0,0,1,.54-.25.81.81,0,0,1,.57.23.71.71,0,0,1,.24.54c0,.55.11,2.44.26,5.65h.42c.42,0,1.1,0,2.06,0,0-1.77,0-3.68.16-5.73a.74.74,0,0,1,.26-.54.8.8,0,0,1,.54-.2m0-2a2.76,2.76,0,0,0-1.86.7,2.61,2.61,0,0,0-.42.46,2.9,2.9,0,0,0-2.23-1.08,2.66,2.66,0,0,0-2,.91,2.81,2.81,0,0,0-.74,1.91v.08l.24,5.66c.14,3.29.21,5.67.21,7.08a2.74,2.74,0,0,0,.84,2,2.8,2.8,0,0,0,3.92,0l.18-.19a.46.46,0,0,1,.07.07,2.8,2.8,0,0,0,1.86.69h.12a2.71,2.71,0,0,0,2-1,2.79,2.79,0,0,0,.66-2,91.1,91.1,0,0,1-.05-12.24,2.77,2.77,0,0,0-2.64-3h-.12Z" transform="translate(-421.49 -97.68)" fill="#fff"/><path d="M478.71,121a3.43,3.43,0,0,1-1.95-.69,5.7,5.7,0,0,1-1.94-3.84,17,17,0,0,1-.05-5.29,9,9,0,0,1,1.76-4.61,3.79,3.79,0,0,1,3-1.49,4.84,4.84,0,0,1,2.06.51,1.82,1.82,0,0,1,.89,1,2,2,0,0,1,.12.67v0a1.33,1.33,0,0,1,.13.57l-1,.13,1,0v.53l.08,1.58v.91c.07.71.11,1.58.13,2.63a26.69,26.69,0,0,0,.16,3.52c0,.13,0,.25.05.34l.21.14a1,1,0,0,1,.36.34h0l.09.14a1.42,1.42,0,0,1,.15.34c0,.14.06.23.08.33a1.8,1.8,0,0,1-1.44,2l-.32,0a1.85,1.85,0,0,1-.78-.17h-.05l-.33-.22-.07-.06.05,0-.05,0-.08-.06.06,0-.32-.23a2.92,2.92,0,0,1-1.29.79A3,3,0,0,1,478.71,121Zm.29-11.75a7.77,7.77,0,0,0-.7,2.4,12.69,12.69,0,0,0,0,4,7.09,7.09,0,0,0,.26,1.2A10.24,10.24,0,0,0,479,115a31.2,31.2,0,0,0,.28-3.69l-.05-.32C479.11,110.36,479,109.77,479,109.21Z" transform="translate(-421.49 -97.68)" fill="currentColor"/><path d="M479.51,106a3.79,3.79,0,0,1,1.63.42.72.72,0,0,1,.38.42.78.78,0,0,1,0,.58l.17.22a.37.37,0,0,1,0,.12.68.68,0,0,1,0,.12v.25c0,.12,0,.22,0,.28l.08,1.6V111c.07.7.11,1.57.13,2.6a28.41,28.41,0,0,0,.17,3.64,4.88,4.88,0,0,0,.16.87h0l.2.12.17.09.12.08.11.08.06.1.06.13a1.57,1.57,0,0,1,0,.16.81.81,0,0,1-.13.59.79.79,0,0,1-.52.33h-.12a.82.82,0,0,1-.47-.14.09.09,0,0,0-.06,0l-.07,0a.34.34,0,0,0-.14-.09,1.89,1.89,0,0,1-.84-1.14l-.16.33a2.44,2.44,0,0,1-1.4,1.26,1.61,1.61,0,0,1-.44.06,2.46,2.46,0,0,1-1.38-.51,4.82,4.82,0,0,1-1.52-3.19,15.67,15.67,0,0,1-.05-5,8.23,8.23,0,0,1,1.54-4.11,2.83,2.83,0,0,1,2.21-1.13m-.83,12.36.07,0c.11,0,.25-.19.41-.46a8.25,8.25,0,0,0,.8-2.84,32.15,32.15,0,0,0,.29-3.88l-.06-.4c-.1-.66-.17-1.3-.21-1.93a2.46,2.46,0,0,0,0-.26,2.69,2.69,0,0,1,0-.91,1.32,1.32,0,0,0-1.49.47,7,7,0,0,0-1.17,3.29,13.31,13.31,0,0,0,0,4.32,3.83,3.83,0,0,0,.92,2.43.89.89,0,0,0,.43.19m.83-14.36h0a4.79,4.79,0,0,0-3.74,1.84,10,10,0,0,0-2,5.11,17.56,17.56,0,0,0,.06,5.61c.38,2.17,1.14,3.63,2.33,4.48a4.44,4.44,0,0,0,2.54.88,3.64,3.64,0,0,0,1-.14,3.92,3.92,0,0,0,1.06-.49l.4.26h.16a2.87,2.87,0,0,0,1,.17l.35,0h.08l.08,0a2.8,2.8,0,0,0,2.23-3.2,2.29,2.29,0,0,0-.07-.36l0-.06v0a2.84,2.84,0,0,0-.25-.53l-.13-.21a2.37,2.37,0,0,0-.46-.48,26.78,26.78,0,0,1-.14-3.26c0-1.09-.06-2-.13-2.7V110l-.08-1.6v-.28a1.56,1.56,0,0,0,0-.25v-.06a2.09,2.09,0,0,0-.15-.79,2.82,2.82,0,0,0-.18-.79,2.72,2.72,0,0,0-1.35-1.51,5.93,5.93,0,0,0-2.53-.63Z" transform="translate(-421.49 -97.68)" fill="#fff"/></svg>