<svg xmlns="http://www.w3.org/2000/svg" width="22.67" height="16.03" viewBox="0 0 22.67 16.03"><path d="M87.42,72.44c-.74,0-1.5,0-2.23-.1s-1.28-.09-1.85-.1l-11,0c-.28,0-.63,0-1,0s-.86.07-1.28.07a4,4,0,0,1-1.22-.15c-.94-.3-.94-.93-.94-1.66v-.25c0-2.23,0-4.62.09-7.53,0-1.11.07-2.23.12-3.34,0-.12,0-.27,0-.43a3.26,3.26,0,0,1,.27-1.85c.29-.4.86-.59,1.79-.59.42,0,.85,0,1.23.07s.53.05.71.05l5.82,0,5.85,0a.68.68,0,0,1,.7.71.7.7,0,0,1-.7.72l-6,0-6.07,0a5.59,5.59,0,0,0-1.26.08,33.09,33.09,0,0,1,3.83,3.07,10.13,10.13,0,0,0,1.18.89,9.44,9.44,0,0,1,1,.75,7.44,7.44,0,0,1,.85.9,5.27,5.27,0,0,0,1.18,1.15.57.57,0,0,0,.29.07c.68,0,1.7-1,2-1.34a.68.68,0,0,1,.61-.61l.27-.3.1-.1A10.21,10.21,0,0,1,83.52,61c.89-.54,1.75-1.17,2.58-1.78.56-.41,1.13-.83,1.71-1.22a.56.56,0,0,1-.3,0h-.06l-.78,0-.78,0a.72.72,0,0,1,0-1.43l.83,0,1.35,0a6.46,6.46,0,0,1,1.64.15.74.74,0,0,1,.5.5,17.79,17.79,0,0,1,.16,5c0,.76-.09,1.48-.09,2.16s0,1.42.09,2.18a19.08,19.08,0,0,1-.15,5,.7.7,0,0,1-.5.51A7.8,7.8,0,0,1,87.42,72.44Zm-1.54-1.61.74,0,.75,0a1.67,1.67,0,0,0,1.13-.29c-1.33-2.11-3.59-3.64-5.77-5.12l-1.11-.75c-.75,1-1.81,2.23-2.75,2.23a1.68,1.68,0,0,1-1.24-.84l-.21-.27a14.25,14.25,0,0,0-1.09-1.12,12.31,12.31,0,0,1-2.06,2c-.34.28-.68.56-1,.85a34.88,34.88,0,0,0-3.19,3.23l.82,0h1ZM69.54,59.43a13.08,13.08,0,0,0-.12,2.27c0,.35,0,.7,0,1,0,1.24-.06,2.5-.08,3.76,0,.32,0,.67-.06,1a9.08,9.08,0,0,0,0,2.09,21.46,21.46,0,0,1,2.6-2.76c.4-.37.84-.73,1.27-1.07a14.44,14.44,0,0,0,2.16-2c-.29-.17-.62-.42-1-.7-1-.73-2-1.55-2.87-2.34-.61-.52-1.23-1.05-1.86-1.56C69.57,59.28,69.55,59.35,69.54,59.43ZM89,59a39.46,39.46,0,0,0-6.39,4.8l.86.51A23.23,23.23,0,0,1,89.05,69a9.91,9.91,0,0,1-.14-1.26c0-.38,0-.75,0-1.09V63.22c0-.7,0-1.43.08-2.14s.07-1.15.08-1.69A2.94,2.94,0,0,0,89,59Z" transform="translate(-67.84 -56.46)"/><path d="M70.17,56.56c.43,0,.86,0,1.23.07s.52,0,.71,0h0l5.82,0,5.85,0a.67.67,0,0,1,0,1.33l-6,0-6.07,0a5.73,5.73,0,0,0-1.27.08c1.17.9,2.51,2,3.8,3.15a9.39,9.39,0,0,0,1.2.9,11.69,11.69,0,0,1,1,.75,7.48,7.48,0,0,1,.85.9,5.09,5.09,0,0,0,1.19,1.15.53.53,0,0,0,.31.08c.62,0,1.47-.76,2.07-1.35a.68.68,0,0,1,.59-.6l.4-.42a10.09,10.09,0,0,1,1.7-1.59c.9-.54,1.76-1.17,2.6-1.78.56-.42,1.14-.84,1.74-1.24l-.43,0-.78,0c-.26,0-.53,0-.78,0a.63.63,0,0,1-.65-.66.64.64,0,0,1,.65-.67l.83,0c.42,0,.89,0,1.35,0a6.37,6.37,0,0,1,1.63.15.66.66,0,0,1,.46.47,17.58,17.58,0,0,1,.16,5c0,.77-.09,1.49-.09,2.17s0,1.42.09,2.18a19,19,0,0,1-.15,5,.66.66,0,0,1-.46.47,7.77,7.77,0,0,1-2.29.28c-.74,0-1.49,0-2.22-.1s-1.29-.09-1.85-.1H79.49l-3.75,0-3.41,0c-.28,0-.63,0-1,0s-.86.07-1.28.07a3.9,3.9,0,0,1-1.2-.15C68,71.82,68,71.24,68,70.5v-.25c0-2.23,0-4.62.09-7.53,0-1.11.07-2.23.12-3.34,0-.13,0-.29,0-.46a3.15,3.15,0,0,1,.26-1.79c.28-.39.83-.57,1.75-.57M89,69c0-.42,0-.86-.05-1.29s0-.75,0-1.09V63.22c0-.7,0-1.43.08-2.14,0-.56.07-1.14.08-1.69a1.74,1.74,0,0,0,0-.52,39.32,39.32,0,0,0-6.45,4.84l.9.62A23.14,23.14,0,0,1,89,69m-19.77.63a34.94,34.94,0,0,1,2.68-2.74c.4-.36.85-.72,1.27-1.06a14.58,14.58,0,0,0,2.17-2c-.3-.24-.63-.49-1-.77-1-.73-2-1.55-2.88-2.35-.62-.53-1.26-1.08-1.91-1.6l-.06.3a13.14,13.14,0,0,0-.12,2.28c0,.35,0,.7,0,1,0,1.23-.06,2.5-.08,3.76,0,.32,0,.66-.06,1a9.17,9.17,0,0,0,0,2.1m9.63-2.71h-.08a1.64,1.64,0,0,1-1.12-.82,3.17,3.17,0,0,0-.21-.27,14.46,14.46,0,0,0-1.1-1.13,15.56,15.56,0,0,1-2.12,2c-.34.28-.68.56-1,.85A35,35,0,0,0,70,70.73a2.68,2.68,0,0,0,.85.1h4.43l3.59,0H82.5l3.38,0q.38,0,.75,0l.74,0a1.7,1.7,0,0,0,1.16-.3c-1.32-2.19-3.58-3.72-5.77-5.2l-1.11-.75-.05,0c-.76.92-1.82,2.17-2.73,2.17m-8.7-10.45c-1,0-1.53.19-1.83.62a3.17,3.17,0,0,0-.28,1.84c0,.19,0,.34,0,.45,0,1.11-.09,2.24-.12,3.35-.09,2.9-.11,5.3-.09,7.53v.26c0,.74,0,1.38,1,1.7a4.12,4.12,0,0,0,1.23.15c.43,0,.86,0,1.28-.07s.71-.05,1-.05l3.41,0,3.75,0h3.85c.57,0,1.19,0,1.85.1s1.49.1,2.23.1a8,8,0,0,0,2.32-.28.8.8,0,0,0,.53-.54,19.26,19.26,0,0,0,.15-5c0-.77-.09-1.49-.09-2.18s0-1.4.09-2.16a17.88,17.88,0,0,0-.16-5,.79.79,0,0,0-.54-.54,6.5,6.5,0,0,0-1.65-.15c-.46,0-.93,0-1.35,0l-.83,0a.74.74,0,0,0-.75.77.73.73,0,0,0,.75.76c.26,0,.53,0,.79,0l.77,0h.13c-.52.35-1,.72-1.5,1.07A29,29,0,0,1,83.49,61a10.39,10.39,0,0,0-1.72,1.61l-.38.4a.76.76,0,0,0-.63.64c-.36.35-1.34,1.3-2,1.3a.6.6,0,0,1-.27-.06,5.28,5.28,0,0,1-1.15-1.13,8.72,8.72,0,0,0-.86-.92,11.94,11.94,0,0,0-1-.75,9.12,9.12,0,0,1-1.18-.89C73,60,71.68,59,70.64,58.15a7.81,7.81,0,0,1,1,0l6.07,0,6,0a.75.75,0,0,0,.75-.77.74.74,0,0,0-.75-.76l-5.85,0-5.82,0c-.18,0-.42,0-.7,0s-.81-.07-1.24-.07ZM82.73,63.7A39.61,39.61,0,0,1,89,59a2.06,2.06,0,0,1,0,.36c0,.55,0,1.13-.08,1.68,0,.72-.08,1.45-.08,2.15v3.39c0,.34,0,.71,0,1.1s0,.66,0,1a24.4,24.4,0,0,0-5.38-4.45l-.8-.55ZM69.31,69.39a10.58,10.58,0,0,1,0-1.86c0-.37.06-.72.06-1,0-1.26,0-2.52.08-3.75,0-.34,0-.7,0-1a13.08,13.08,0,0,1,.12-2.27s0-.09,0-.13c.61.49,1.21,1,1.79,1.5.92.79,1.88,1.62,2.88,2.35.36.26.66.49.93.71a14.9,14.9,0,0,1-2.08,1.88c-.43.35-.87.7-1.28,1.07a32.73,32.73,0,0,0-2.54,2.58ZM78.87,67c1,0,2-1.26,2.8-2.19l1,.7c2.15,1.46,4.38,3,5.7,5.09a1.74,1.74,0,0,1-1,.23l-.72,0-.77,0-3.38,0H78.91l-3.59,0H70.89a3.24,3.24,0,0,1-.68-.06,34.72,34.72,0,0,1,3.08-3.1c.33-.29.68-.58,1-.85a18.13,18.13,0,0,0,2.06-1.88,12.34,12.34,0,0,1,1,1,2.43,2.43,0,0,1,.2.25,1.76,1.76,0,0,0,1.2.87Z" transform="translate(-67.84 -56.46)"/></svg>