<svg xmlns="http://www.w3.org/2000/svg" width="82.05" height="30.29" viewBox="0 0 82.05 30.29"><path d="M330.17,119.9a1.83,1.83,0,0,1-1.82-1.8c0-1.11,0-2.86-.11-5.22-.18.75-.38,1.49-.58,2.21l-.58,1.69-.43,1.07-.16.35a1.49,1.49,0,0,1-.12.2l-.22.35-.1.09a2,2,0,0,1-1.26.53h-.11a1.88,1.88,0,0,1-1.23-.46,2,2,0,0,1-.57-2.23l.08-.26,0-.22v-.57l.16-2.94q0-.91.06-1.38A105,105,0,0,0,323,99.1a1.78,1.78,0,0,1,.37-1.31,1.69,1.69,0,0,1,1.31-.68h.11a1.86,1.86,0,0,1,1.17.43,1.69,1.69,0,0,1,.66,1.28c.1,1.14.17,2.36.23,3.64,0-.15.11-.48.32-1.21s.22-1.16.26-1.35V99.6a2.09,2.09,0,0,1,.16-1,2,2,0,0,1,3.62,0,3.52,3.52,0,0,1,.22.89,26.12,26.12,0,0,1,.17,3.67c0,2,.07,4.46.21,7.41.11,3.61.17,6.07.17,7.52a1.83,1.83,0,0,1-1.81,1.8Z" transform="translate(-321.76 -96.11)" fill="currentColor"/><path d="M324.79,98.11a.82.82,0,0,1,.54.2.74.74,0,0,1,.29.54,102.29,102.29,0,0,1,.21,12.54,4,4,0,0,1,0,.54q.6-2.31,1.36-6.09c.26-1.32.48-2.35.65-3.08a11.11,11.11,0,0,1,.32-1.25l.3-1.53v-.43a1,1,0,0,1,.08-.57,1,1,0,0,1,1.79,0,2.88,2.88,0,0,1,.14.59,27.21,27.21,0,0,1,.16,3.56q0,3,.21,7.47.17,5.31.17,7.47a.78.78,0,0,1-.24.57.83.83,0,0,1-1.15,0,.78.78,0,0,1-.24-.57c0-1.39-.05-3.69-.17-6.91-.1-3-.16-5.08-.16-6.28l-.94,4q-.58,3.06-1.38,5.91l-.57,1.63-.41,1s0,.08-.06.14-.05.1-.07.14l0,.09-.16.25a1,1,0,0,1-.64.27h-.06a.86.86,0,0,1-.58-.22,1,1,0,0,1-.26-1.19.87.87,0,0,0,.07-.22l0-.16.05-.08v-.87c0-.11,0-.47.06-1.07s.07-1.21.1-1.82.05-1.08.06-1.4A104.53,104.53,0,0,0,324,99a.85.85,0,0,1,.18-.61.68.68,0,0,1,.55-.29h.07m0-2h-.19a2.7,2.7,0,0,0-2,1.08,2.88,2.88,0,0,0-.57,2,102.44,102.44,0,0,1,.21,12.06c0,.32,0,.77-.06,1.37l-.09,1.82q0,.86-.06,1v.71l-.06.21a3,3,0,0,0,.87,3.26,2.85,2.85,0,0,0,1.89.71h.17a3,3,0,0,0,1.87-.79l.2-.18.15-.23.15-.24.15-.27,0,0a2.81,2.81,0,0,0,5.58-.51c0-1.46-.06-3.92-.17-7.54-.14-3-.21-5.43-.21-7.4a27.7,27.7,0,0,0-.18-3.83,5.09,5.09,0,0,0-.22-1l0-.09,0-.08a2.88,2.88,0,0,0-2.7-1.8,3,3,0,0,0-2.26,1,2.93,2.93,0,0,0-.58-.64,2.87,2.87,0,0,0-1.8-.64Z" transform="translate(-321.76 -96.11)" fill="#fff"/><path d="M335.53,119.68a3.7,3.7,0,0,1-.8-.09,3.22,3.22,0,0,1-2.53-2.65,7.86,7.86,0,0,1-.08-.9c0-.25,0-.55,0-.89a3.94,3.94,0,0,0,0-.46,1.79,1.79,0,0,1,.48-1.23,1.69,1.69,0,0,1,1.28-.56,1.73,1.73,0,0,1,1.27.53,1.8,1.8,0,0,1,.51,1.26c0,.34,0,.68,0,1,0,.06,0,.1,0,.15a3.41,3.41,0,0,0,.2-.54,4.32,4.32,0,0,0,.21-1.27,2.59,2.59,0,0,0-.07-.57l-.18,0a1.8,1.8,0,0,1-1.19-.75,1.71,1.71,0,0,1-.22-1.7h-.31a1.71,1.71,0,0,1-1.22-.6,1.77,1.77,0,0,1-.42-1.32V109l0-.08v-.14a4.11,4.11,0,0,1,0-.55v-.43a6.85,6.85,0,0,1,1.09-4.21,3,3,0,0,1,1.91-1.07,3.66,3.66,0,0,1,.57-.05,3.73,3.73,0,0,1,1.56.35,3.36,3.36,0,0,1,1.6,1.44,8,8,0,0,1,.65,3.74,8.53,8.53,0,0,1-.68,3.7,6,6,0,0,1,.43,2.35,8.59,8.59,0,0,1-.38,2.48,4.76,4.76,0,0,1-1.3,2.16A3.64,3.64,0,0,1,335.53,119.68Zm.7-13.34a9.17,9.17,0,0,0-.13,1.56v1.22l-.07.18a1.41,1.41,0,0,1-.07.47l.2,0c0-.07,0-.17,0-.28a12.27,12.27,0,0,0,.05-3Z" transform="translate(-321.76 -96.11)" fill="currentColor"/><path d="M336.1,103.49a2.79,2.79,0,0,1,1.15.26,2.37,2.37,0,0,1,1.14,1,7.2,7.2,0,0,1,.52,3.25,7.79,7.79,0,0,1-.57,3.24l-.28.37a4.57,4.57,0,0,1,.6,2.44,7.44,7.44,0,0,1-.34,2.19,3.58,3.58,0,0,1-1,1.69,2.62,2.62,0,0,1-1.79.73,2.44,2.44,0,0,1-.59-.07,2.2,2.2,0,0,1-1.15-.62,2.25,2.25,0,0,1-.61-1.22c0-.36-.06-.6-.06-.73s0-.5,0-.81a5.25,5.25,0,0,0,0-.54.78.78,0,0,1,.22-.56.71.71,0,0,1,.54-.23.75.75,0,0,1,.55.23.79.79,0,0,1,.23.56q0,.48,0,1c0,.52,0,.79,0,.82a.66.66,0,0,0,.57.59l.18,0a1.28,1.28,0,0,0,.8-.34,2.78,2.78,0,0,0,.57-1.13,5.29,5.29,0,0,0,.25-1.57,4.84,4.84,0,0,0-.17-1.13,4.3,4.3,0,0,0-.21-.54l-.11,0a.94.94,0,0,1-.41.08H336a.87.87,0,0,1-.54-.36.71.71,0,0,1-.08-.78.93.93,0,0,1,.68-.58l.35,0h.35a.83.83,0,0,0,.21-.28,2.28,2.28,0,0,0,.23-.86,12.73,12.73,0,0,0,.05-3.2,2.41,2.41,0,0,0-.3-1,1.29,1.29,0,0,0-.87-.36H336a.44.44,0,0,0-.35.14,5.1,5.1,0,0,0-.52,2.71v1.05a.92.92,0,0,0-.05.36.73.73,0,0,1-.27.55.8.8,0,0,1-.51.19h-.07a.67.67,0,0,1-.54-.26.79.79,0,0,1-.19-.58,1.62,1.62,0,0,0,0-.38,3.19,3.19,0,0,1,0-.49v-.49a6.05,6.05,0,0,1,.87-3.59,2,2,0,0,1,1.28-.71,3,3,0,0,1,.42,0m0-2a4.59,4.59,0,0,0-.73.06,4,4,0,0,0-2.51,1.41,7.77,7.77,0,0,0-1.33,4.83v.4a5.53,5.53,0,0,0,0,.61V109a2.8,2.8,0,0,0,1.82,2.85s0,.07,0,.1a2.71,2.71,0,0,0-1.39.81,2.81,2.81,0,0,0-.74,1.91c0,.11,0,.23,0,.37a8.92,8.92,0,0,0-.05,1,8.26,8.26,0,0,0,.08,1v.1a4.26,4.26,0,0,0,3.31,3.45,5,5,0,0,0,1,.11,4.65,4.65,0,0,0,3.11-1.23,5.53,5.53,0,0,0,1.59-2.6,9.35,9.35,0,0,0,.43-2.78,7.09,7.09,0,0,0-.35-2.31,10.55,10.55,0,0,0,.6-3.69,8.92,8.92,0,0,0-.76-4.26,4.4,4.4,0,0,0-2.07-1.88,4.75,4.75,0,0,0-2-.44Z" transform="translate(-321.76 -96.11)" fill="#fff"/><path d="M344.38,119.73a4.21,4.21,0,0,1-1.8-.44,4.82,4.82,0,0,1-2.3-3.37,20.3,20.3,0,0,1-.48-5.35,30,30,0,0,1,.54-5A8.49,8.49,0,0,1,341.7,102a5.33,5.33,0,0,1,1.77-1.45l1.39-.67a1.26,1.26,0,0,0,.28-.2s0-.12-.05-.3A1.7,1.7,0,0,1,345.4,98a1.79,1.79,0,0,1,1.46-.78,1.76,1.76,0,0,1,1,.34,1.85,1.85,0,0,1,.73,1.1,3.88,3.88,0,0,1-.3,2.65,4.29,4.29,0,0,1-1.78,1.69l-.74.38a5.4,5.4,0,0,0-1,.53,2.22,2.22,0,0,0-.28.3,1.65,1.65,0,0,0-.26.57h0a3.55,3.55,0,0,1,1.64.4,5.26,5.26,0,0,1,2.11,2.17,9.76,9.76,0,0,1,1.21,4.41,10.42,10.42,0,0,1-.61,4.53,5.74,5.74,0,0,1-1.24,2.06,4.54,4.54,0,0,1-2.09,1.26A3.34,3.34,0,0,1,344.38,119.73Zm-1-9.67c0,.16,0,.36,0,.6a19.82,19.82,0,0,0,.3,4.07,4.58,4.58,0,0,0,.37,1.09,1.08,1.08,0,0,0,.25.34h.06a.48.48,0,0,0,.23-.09,2.12,2.12,0,0,0,.69-1,7.55,7.55,0,0,0,.38-3.09,6.81,6.81,0,0,0-.74-2.88c-.36-.61-.59-.72-.63-.74a1,1,0,0,0-.41.39,2.73,2.73,0,0,0-.4,1A1,1,0,0,1,343.38,110.06Z" transform="translate(-321.76 -96.11)" fill="currentColor"/><path d="M346.86,98.23a.75.75,0,0,1,.44.15.84.84,0,0,1,.34.52,2.87,2.87,0,0,1-.2,1.93,3.44,3.44,0,0,1-1.4,1.31l-.7.35a6.34,6.34,0,0,0-1.16.62,3.24,3.24,0,0,0-.46.46,7,7,0,0,0-.88,2.63,5.81,5.81,0,0,1,.56-.28,2.83,2.83,0,0,1,.85-.13,2.58,2.58,0,0,1,1.19.29,4.33,4.33,0,0,1,1.69,1.77,8.91,8.91,0,0,1,1.09,4,9.55,9.55,0,0,1-.55,4.1,4.78,4.78,0,0,1-1,1.74,3.34,3.34,0,0,1-1.62,1,2.23,2.23,0,0,1-.63.09,3.12,3.12,0,0,1-1.36-.35,3.83,3.83,0,0,1-1.77-2.71,19.12,19.12,0,0,1-.45-5.08,29.07,29.07,0,0,1,.52-4.86,7.8,7.8,0,0,1,1.16-3.14,4.44,4.44,0,0,1,1.46-1.19l1.35-.65a1.79,1.79,0,0,0,.74-.63,1.43,1.43,0,0,0,0-1,.75.75,0,0,1,.14-.57.86.86,0,0,1,.52-.35h.13m-2.52,19h.1a1.46,1.46,0,0,0,.69-.27,3.07,3.07,0,0,0,1.09-1.52,8.55,8.55,0,0,0,.43-3.48,7.75,7.75,0,0,0-.87-3.31c-.49-.83-1-1.25-1.5-1.25a.92.92,0,0,0-.36.07,1.9,1.9,0,0,0-.87.74,3.88,3.88,0,0,0-.57,1.42.43.43,0,0,1-.08.21q0,.31,0,.87a20.34,20.34,0,0,0,.32,4.27,5.23,5.23,0,0,0,.47,1.36,1.92,1.92,0,0,0,.61.73,1.14,1.14,0,0,0,.57.17m2.52-21a2.49,2.49,0,0,0-.47,0h-.06l-.07,0a2.82,2.82,0,0,0-1.68,1.14,2.73,2.73,0,0,0-.52,1.69l-1,.48,0,0-.05,0a6.52,6.52,0,0,0-2.1,1.73,9.51,9.51,0,0,0-1.53,4,30.91,30.91,0,0,0-.56,5.2,21,21,0,0,0,.51,5.61,5.7,5.7,0,0,0,2.81,4,5.07,5.07,0,0,0,2.26.57,4.43,4.43,0,0,0,1.15-.16,5.43,5.43,0,0,0,2.55-1.53,6.79,6.79,0,0,0,1.46-2.42,11.42,11.42,0,0,0,.67-4.91,10.74,10.74,0,0,0-1.36-4.88,6.18,6.18,0,0,0-2.5-2.54l-.08,0,.78-.39a5.37,5.37,0,0,0,2.14-2.08,4.82,4.82,0,0,0,.42-3.24v-.12a2.88,2.88,0,0,0-1.12-1.67,2.72,2.72,0,0,0-1.61-.53ZM344.55,114a19.56,19.56,0,0,1-.18-3.25,3,3,0,0,1,0-.32,7.65,7.65,0,0,1,.28,1.65,7.89,7.89,0,0,1-.11,1.92Z" transform="translate(-321.76 -96.11)" fill="#fff"/><path d="M352.59,125.39a1.65,1.65,0,0,1-1.22-.6,1.76,1.76,0,0,1-.43-1.32,60.3,60.3,0,0,0-.16-9c0-.13,0-.33,0-.67s-.06-.75-.09-1.09l-.18-2c-.11-1.33-.18-2.62-.21-3.84,0-.39,0-1,0-1.82a1.78,1.78,0,0,1,1.78-1.78,1.82,1.82,0,0,1,.89.23,2.6,2.6,0,0,1,.82-.4,2.77,2.77,0,0,1,1-.19,2.88,2.88,0,0,1,.59.07,8,8,0,0,1,1,.34l.35.17a1.73,1.73,0,0,1,.88.92,1.75,1.75,0,0,1,.13.81,10.92,10.92,0,0,1,.78,4.2,48.71,48.71,0,0,1-.32,6.37,4.8,4.8,0,0,1-.84,2.42,3.14,3.14,0,0,1-1.87,1.31,2.77,2.77,0,0,1-.46,0,2.17,2.17,0,0,1-.36,0c0,1.65,0,3.07-.1,4.26a1.69,1.69,0,0,1-.6,1.22,1.77,1.77,0,0,1-1.15.43Zm2.13-17.64a15.92,15.92,0,0,0-.16,3,22.07,22.07,0,0,0,.19,2.53c.06-.84.1-1.59.13-2.23a19.7,19.7,0,0,0-.13-3C354.74,107.91,354.73,107.82,354.72,107.75Z" transform="translate(-321.76 -96.11)" fill="currentColor"/><path d="M354.74,103.86a2.21,2.21,0,0,1,.37,0c.27.08.55.18.83.29l.25.14a.74.74,0,0,1,.42.41.73.73,0,0,1,0,.56,9.59,9.59,0,0,1,.82,4.1,46.55,46.55,0,0,1-.32,6.23,3.8,3.8,0,0,1-.65,1.94,2.11,2.11,0,0,1-1.27.92,1,1,0,0,1-.25,0,2,2,0,0,1-1.27-.52.26.26,0,0,1-.13-.14,51.31,51.31,0,0,1-.06,5.82.69.69,0,0,1-.25.54.75.75,0,0,1-.51.19h-.07a.71.71,0,0,1-.54-.27.77.77,0,0,1-.2-.58,58.49,58.49,0,0,0-.16-9.19s0-.26,0-.66-.06-.77-.1-1.12l-.17-2c-.11-1.29-.18-2.55-.21-3.77q0-.6,0-1.8a.79.79,0,0,1,.78-.78.77.77,0,0,1,.56.23.71.71,0,0,1,.23.55v.15l0-.08A2,2,0,0,1,354,104a2,2,0,0,1,.74-.15m.2,13.08.16-.15a2.34,2.34,0,0,0,.46-1.32c.17-1.79.27-3.25.32-4.4a20.45,20.45,0,0,0-.14-3.2,4.53,4.53,0,0,0-.72-2.16.64.64,0,0,1-.1-.22.59.59,0,0,0-.25,0,.39.39,0,0,0-.15,0,.77.77,0,0,0-.32.36,6.9,6.9,0,0,0-.37,1.19,16,16,0,0,0-.27,3.74,21.92,21.92,0,0,0,.43,4,4.47,4.47,0,0,0,.73,2c.1.1.17.15.22.15m-.2-15.08a4.29,4.29,0,0,0-1.38.25,3.42,3.42,0,0,0-.55.23,2.63,2.63,0,0,0-.8-.12,2.78,2.78,0,0,0-2.78,2.78c0,.85,0,1.47,0,1.89,0,1.2.1,2.52.22,3.86l.17,2c0,.36.06.71.09,1.08s0,.48,0,.56v.13a58.21,58.21,0,0,1,.16,8.87,2.78,2.78,0,0,0,2.61,3h.19a2.76,2.76,0,0,0,2.76-2.6c.08-1,.11-2.09.11-3.35h0a4,4,0,0,0,2.48-1.71,5.71,5.71,0,0,0,1-2.92,48.44,48.44,0,0,0,.33-6.47,12.42,12.42,0,0,0-.77-4.38,2.9,2.9,0,0,0-.22-1,2.83,2.83,0,0,0-1.39-1.44l-.2-.11-.09,0-.09,0c-.35-.14-.69-.26-1-.36h-.1a3.23,3.23,0,0,0-.82-.1Z" transform="translate(-321.76 -96.11)" fill="#fff"/><path d="M363.05,119.46a3.44,3.44,0,0,1-2-.69,5.63,5.63,0,0,1-1.93-3.83,16.79,16.79,0,0,1-.06-5.3,9.16,9.16,0,0,1,1.77-4.61,3.8,3.8,0,0,1,3-1.48,4.85,4.85,0,0,1,2.07.51,1.74,1.74,0,0,1,.88,1,1.66,1.66,0,0,1,.12.68,1.14,1.14,0,0,1,.15.58l-1,.14,1,0v.52l.08,1.58v.91c.07.72.12,1.58.14,2.64a26.42,26.42,0,0,0,.16,3.51c0,.14,0,.25,0,.34l.22.14a1.23,1.23,0,0,1,.36.36h0l.09.13a2.07,2.07,0,0,1,.15.34,3.34,3.34,0,0,1,.08.35,1.81,1.81,0,0,1-1.45,2,2.21,2.21,0,0,1-.32,0,1.83,1.83,0,0,1-.77-.16h-.05l-.34-.22-.06-.06,0,0-.05,0-.07-.06.06,0-.32-.23a2.89,2.89,0,0,1-1.3.78A2.44,2.44,0,0,1,363.05,119.46Zm.29-11.75a7.4,7.4,0,0,0-.7,2.41,12.4,12.4,0,0,0,0,4,8.53,8.53,0,0,0,.25,1.2,10.09,10.09,0,0,0,.41-1.86,31.06,31.06,0,0,0,.27-3.68l0-.33C363.45,108.87,363.38,108.29,363.34,107.71Z" transform="translate(-321.76 -96.11)" fill="currentColor"/><path d="M363.84,104.55a3.92,3.92,0,0,1,1.64.41.77.77,0,0,1,.38.43.83.83,0,0,1,0,.58l.18.22a.37.37,0,0,1,0,.12v.12s0,.13,0,.25V107l.08,1.6v.91c.07.71.12,1.57.14,2.6a26.82,26.82,0,0,0,.17,3.65,4.09,4.09,0,0,0,.16.87h0l.21.11.17.09.12.08a.48.48,0,0,1,.1.09l.06.09a.49.49,0,0,1,.06.13,1,1,0,0,1-.1.76.82.82,0,0,1-.51.33h-.13a.79.79,0,0,1-.47-.14l0,0-.08,0a.45.45,0,0,0-.13-.1,1.85,1.85,0,0,1-.85-1.13l-.15.33a2.42,2.42,0,0,1-1.4,1.25,1.67,1.67,0,0,1-.44.06,2.49,2.49,0,0,1-1.39-.51,4.79,4.79,0,0,1-1.51-3.19,15.6,15.6,0,0,1-.06-5,8.16,8.16,0,0,1,1.55-4.11,2.78,2.78,0,0,1,2.2-1.13M363,116.9h.07a1.12,1.12,0,0,0,.42-.46,8.31,8.31,0,0,0,.8-2.84,32.34,32.34,0,0,0,.28-3.88l-.05-.4a16.48,16.48,0,0,1-.21-1.93,1.31,1.31,0,0,0,0-.27,2.91,2.91,0,0,1,0-.91,1.72,1.72,0,0,0-.44-.06,1.34,1.34,0,0,0-1.05.54,6.87,6.87,0,0,0-1.18,3.29,13.53,13.53,0,0,0,0,4.31,3.82,3.82,0,0,0,.93,2.43.78.78,0,0,0,.42.19m.83-14.35h0a4.76,4.76,0,0,0-3.73,1.84,10,10,0,0,0-2,5.11,17.86,17.86,0,0,0,.07,5.61c.38,2.17,1.14,3.63,2.33,4.47a4.39,4.39,0,0,0,2.54.88,3.51,3.51,0,0,0,2.05-.63l.4.27h.16a2.8,2.8,0,0,0,1,.16,2.17,2.17,0,0,0,.36,0h.16a2.83,2.83,0,0,0,1.76-1.15,2.75,2.75,0,0,0,.47-2c0-.12-.05-.25-.08-.37v-.05l0,0A2.79,2.79,0,0,0,369,116l-.13-.21h0a2.15,2.15,0,0,0-.47-.48,27.7,27.7,0,0,1-.13-3.27c0-1.08-.07-2-.14-2.69v-.92l-.08-1.59v-.28c0-.12,0-.2,0-.25v-.06a2.58,2.58,0,0,0-.15-.79,2.82,2.82,0,0,0-.18-.79,2.79,2.79,0,0,0-1.36-1.52,5.91,5.91,0,0,0-2.53-.62Z" transform="translate(-321.76 -96.11)" fill="#fff"/><path d="M371.42,119.26a1.78,1.78,0,0,1-1.79-1.78c0-1.42-.07-3.82-.21-7.13l-.24-5.65a1.8,1.8,0,0,1,.48-1.28,1.67,1.67,0,0,1,1.28-.58,1.83,1.83,0,0,1,1.26.49,1.71,1.71,0,0,1,.55,1.27c0,.47.09,2,.21,4.66h.52c0-1.51.06-3.12.17-4.82a1.79,1.79,0,0,1,.6-1.22,1.78,1.78,0,0,1,3,1.48,92.32,92.32,0,0,0,.06,12.42,1.76,1.76,0,0,1-.43,1.29,1.71,1.71,0,0,1-1.27.62h0a1.83,1.83,0,0,1-1.26-.45,1.79,1.79,0,0,1-.6-1.21c-.08-1.55-.14-3.07-.17-4.54h-.41c.05,2,.08,3.52.08,4.65a1.78,1.78,0,0,1-1.78,1.78Z" transform="translate(-321.76 -96.11)" fill="currentColor"/><path d="M375.45,103.76h0a.76.76,0,0,1,.73.84,94.57,94.57,0,0,0,.06,12.57.8.8,0,0,1-.19.59.74.74,0,0,1-.54.26h0a.8.8,0,0,1-.54-.2.74.74,0,0,1-.26-.54c-.11-1.88-.17-3.7-.19-5.48l-2.42,0c.07,2.44.11,4.32.11,5.63a.74.74,0,0,1-.22.55.77.77,0,0,1-.56.23.79.79,0,0,1-.56-.23.75.75,0,0,1-.23-.55q0-2.17-.21-7.17l-.24-5.65a.84.84,0,0,1,.22-.58.71.71,0,0,1,.54-.24.8.8,0,0,1,.57.22.71.71,0,0,1,.24.54c0,.56.1,2.44.26,5.66h.42l2.06,0q0-2.66.15-5.73a.78.78,0,0,1,.27-.54.76.76,0,0,1,.54-.2m0-2a2.76,2.76,0,0,0-1.86.7,2.61,2.61,0,0,0-.42.46,2.13,2.13,0,0,0-.29-.31,2.77,2.77,0,0,0-1.94-.77,2.72,2.72,0,0,0-2,.9,2.84,2.84,0,0,0-.73,1.92v.08l.24,5.65c.14,3.3.21,5.68.21,7.09a2.79,2.79,0,0,0,4.76,2l.18-.2a.46.46,0,0,0,.07.07,2.76,2.76,0,0,0,1.86.7h.12a2.69,2.69,0,0,0,2-1,2.76,2.76,0,0,0,.66-2,91.25,91.25,0,0,1-.05-12.25,2.78,2.78,0,0,0-.65-2,2.75,2.75,0,0,0-2-1h-.11Z" transform="translate(-321.76 -96.11)" fill="#fff"/><path d="M380.28,119.26a1.79,1.79,0,0,1-1.26-.51,1.73,1.73,0,0,1-.53-1.27c0-1.43-.07-3.83-.21-7.13L378,104.7a1.84,1.84,0,0,1,.47-1.28,1.71,1.71,0,0,1,1.29-.58,1.8,1.8,0,0,1,1.25.49,1.7,1.7,0,0,1,.56,1.27c0,.47.09,2,.21,4.66h.52c0-1.51.06-3.12.16-4.82a1.8,1.8,0,0,1,.61-1.22,1.78,1.78,0,0,1,3,1.48,92.32,92.32,0,0,0,.06,12.42,1.76,1.76,0,0,1-.43,1.29,1.68,1.68,0,0,1-1.27.62h0a1.83,1.83,0,0,1-1.26-.45,1.79,1.79,0,0,1-.6-1.21c-.08-1.54-.14-3.06-.17-4.54H382c0,2,.08,3.51.08,4.65a1.78,1.78,0,0,1-1.78,1.78Z" transform="translate(-321.76 -96.11)" fill="currentColor"/><path d="M384.31,103.76h0a.76.76,0,0,1,.73.84,94.57,94.57,0,0,0,.06,12.57.8.8,0,0,1-.19.59.74.74,0,0,1-.54.26h0a.8.8,0,0,1-.54-.2.74.74,0,0,1-.26-.54c-.11-1.88-.17-3.7-.19-5.48l-2.42,0c.07,2.44.11,4.32.11,5.63a.74.74,0,0,1-.22.55.8.8,0,0,1-1.12,0,.75.75,0,0,1-.23-.55q0-2.17-.21-7.17l-.24-5.65a.84.84,0,0,1,.22-.58.71.71,0,0,1,.54-.24.8.8,0,0,1,.57.22.71.71,0,0,1,.24.54c0,.56.1,2.44.26,5.66h.42l2,0c0-1.77,0-3.68.16-5.73a.78.78,0,0,1,.27-.54.76.76,0,0,1,.54-.2m0-2a2.76,2.76,0,0,0-1.86.7,2.61,2.61,0,0,0-.42.46,2.13,2.13,0,0,0-.29-.31,2.77,2.77,0,0,0-1.94-.77,2.72,2.72,0,0,0-2,.9,2.84,2.84,0,0,0-.73,1.92v.08l.24,5.65c.14,3.3.21,5.68.21,7.09a2.79,2.79,0,0,0,4.76,2l.18-.2a.46.46,0,0,0,.07.07,2.76,2.76,0,0,0,1.86.7h.12a2.69,2.69,0,0,0,2-1,2.76,2.76,0,0,0,.66-2,91.25,91.25,0,0,1-.05-12.25,2.78,2.78,0,0,0-.65-2,2.75,2.75,0,0,0-2-1h-.11Z" transform="translate(-321.76 -96.11)" fill="#fff"/><path d="M391.11,119.94a3.8,3.8,0,0,1-1.8-.43c-.87-.46-1.45-1.56-1.75-3.36a28.22,28.22,0,0,1-.39-4.16,37,37,0,0,1,.1-4.32,7.63,7.63,0,0,1,.84-3.3,2.81,2.81,0,0,1,1.8-1.29,3.92,3.92,0,0,1,.71,0h.44a1.76,1.76,0,0,1,1.26.5l.26.15a4.07,4.07,0,0,1,.6.44,3.91,3.91,0,0,1,.77,1.34,10.46,10.46,0,0,1,.54,2.79c.13,1.23.2,2.56.22,3.95a23.7,23.7,0,0,1-.22,3.93,4.71,4.71,0,0,1-1.39,3.22,3.2,3.2,0,0,1-1.92.58ZM390.85,108a31.7,31.7,0,0,0-.1,3.89,23.85,23.85,0,0,0,.29,3.33,30.63,30.63,0,0,0-.07-6.46c0-.33-.08-.61-.11-.85C390.86,108,390.85,108,390.85,108Z" transform="translate(-321.76 -96.11)" fill="currentColor"/><path d="M391.06,104a.76.76,0,0,1,.64.31,3.13,3.13,0,0,1,.37.2,2.46,2.46,0,0,1,.4.29,3,3,0,0,1,.54,1,9.91,9.91,0,0,1,.49,2.54c.12,1.21.19,2.5.21,3.86a21.69,21.69,0,0,1-.21,3.77,3.88,3.88,0,0,1-1,2.6,2.25,2.25,0,0,1-1.29.35h-.05a2.8,2.8,0,0,1-1.32-.3c-.6-.32-1-1.2-1.26-2.65a26.83,26.83,0,0,1-.38-4,34.8,34.8,0,0,1,.1-4.2,7.07,7.07,0,0,1,.67-2.84,1.86,1.86,0,0,1,1.15-.86l.53,0h.44m.06,13.35a1.57,1.57,0,0,0,.38,0,.78.78,0,0,0,.19-.4,6.76,6.76,0,0,0,.28-1.19,29.43,29.43,0,0,0,0-7.09,12.83,12.83,0,0,0-.41-2.24l-.16-.44-.11,0-.46-.29s0,0-.05,0h-.36s0,0-.06.07l-.1.12a6.38,6.38,0,0,0-.41,2.11,31.64,31.64,0,0,0-.1,4,22.72,22.72,0,0,0,.36,3.77,4.61,4.61,0,0,0,.31,1.25,1.05,1.05,0,0,0,.19.35,1.43,1.43,0,0,0,.51.08M391.06,102h-.44a5.3,5.3,0,0,0-.92.06,3.73,3.73,0,0,0-2.41,1.7,8.21,8.21,0,0,0-1,3.77,37,37,0,0,0-.11,4.45,29.25,29.25,0,0,0,.41,4.33c.34,2.07,1.08,3.4,2.27,4a4.67,4.67,0,0,0,2.24.55h.09a4.22,4.22,0,0,0,2.44-.71l.06,0,.06-.05a5.64,5.64,0,0,0,1.74-3.88,24.1,24.1,0,0,0,.23-4.06c0-1.42-.09-2.78-.22-4a11.75,11.75,0,0,0-.62-3.08,4.51,4.51,0,0,0-1-1.65,4,4,0,0,0-.77-.59l-.2-.11a2.77,2.77,0,0,0-1.85-.69Z" transform="translate(-321.76 -96.11)" fill="#fff"/><path d="M399.38,119.37a3.1,3.1,0,0,1-1.2-.24,4,4,0,0,1-.95-.52,3.17,3.17,0,0,1-.79-.84A6.33,6.33,0,0,1,396,117a5.44,5.44,0,0,1-.33-1.07c-.08-.36-.14-.69-.18-1s-.1-.64-.15-1.09a20.64,20.64,0,0,1,.07-6.89,5.08,5.08,0,0,1,1.52-3,3,3,0,0,1,1.8-.67,3,3,0,0,1,1.85.68,5.68,5.68,0,0,1,1.62,2.32,7.88,7.88,0,0,1,.65,2.88,3.57,3.57,0,0,1-1.11,3,2.59,2.59,0,0,1-1.61.52q-.3,0-1.2,0h-.15a11.88,11.88,0,0,0,.48,2.75,1,1,0,0,0,.14.32,1.77,1.77,0,0,1,1.15-.56h.15a1.75,1.75,0,0,1,1.17.46,1.72,1.72,0,0,1,.6,1.2,1.68,1.68,0,0,1-.45,1.32,3.49,3.49,0,0,1-1.78,1.14A3.44,3.44,0,0,1,399.38,119.37Zm-.14-10.29a4.45,4.45,0,0,0-.34-1.42l0-.07a10.31,10.31,0,0,0-.18,1.49Z" transform="translate(-321.76 -96.11)" fill="currentColor"/><path d="M398.7,104.24h.05a2,2,0,0,1,1.18.47,4.65,4.65,0,0,1,1.32,1.92,6.94,6.94,0,0,1,.57,2.51,2.65,2.65,0,0,1-.76,2.19,1.8,1.8,0,0,1-1,.29l-1.13,0-1.22,0a15.66,15.66,0,0,0,.6,4.09,1.47,1.47,0,0,0,.8,1,1,1,0,0,0,.32.06.86.86,0,0,0,.66-.36.8.8,0,0,1,.54-.28h.07a.76.76,0,0,1,.5.2.8.8,0,0,1,.28.54.73.73,0,0,1-.2.57,2.55,2.55,0,0,1-1.29.84,2.38,2.38,0,0,1-.58.08,2.06,2.06,0,0,1-.81-.17,3,3,0,0,1-.75-.39,2.38,2.38,0,0,1-.55-.59,3.94,3.94,0,0,1-.38-.69,4.06,4.06,0,0,1-.27-.85c-.07-.35-.13-.66-.18-.94s-.09-.62-.14-1a19.73,19.73,0,0,1,.05-6.55,4.23,4.23,0,0,1,1.19-2.46,2,2,0,0,1,1.16-.44m.2,5.84a8.72,8.72,0,0,0,1,0,.78.78,0,0,0,.21,0,1.38,1.38,0,0,0,.14-.84,5.22,5.22,0,0,0-.42-1.89,3.5,3.5,0,0,0-.88-1.39.45.45,0,0,0-.24-.11s0,0,0,0-.06,0-.11.07a2.64,2.64,0,0,0-.67,1.49,13.26,13.26,0,0,0-.24,2.7c.49,0,.9,0,1.24,0m-.2-7.84h0a3.89,3.89,0,0,0-2.37.85l0,0,0,0a6,6,0,0,0-1.88,3.59,21.65,21.65,0,0,0-.08,7.2c.06.46.11.84.16,1.14s.11.64.2,1a5.49,5.49,0,0,0,.4,1.26,7.11,7.11,0,0,0,.53,1,4.2,4.2,0,0,0,1,1.1,4.68,4.68,0,0,0,1.19.64,4,4,0,0,0,1.55.31,4.37,4.37,0,0,0,3.39-1.62,2.71,2.71,0,0,0,.67-2,2.8,2.8,0,0,0-.94-1.86,2.71,2.71,0,0,0-1.83-.71h-.24a3.85,3.85,0,0,0-.47.08c0-.18-.06-.38-.1-.6l.35,0a3.68,3.68,0,0,0,2.17-.77,4.55,4.55,0,0,0,1.44-3.75,9.17,9.17,0,0,0-.72-3.23,6.76,6.76,0,0,0-1.93-2.72,4,4,0,0,0-2.35-.9h-.12Z" transform="translate(-321.76 -96.11)" fill="#fff"/></svg>