<svg xmlns="http://www.w3.org/2000/svg" width="25" height="22.7" viewBox="0 0 25 22.7"><path d="M80.52,99.09a16.09,16.09,0,0,0-3.11-3.9c-.9-.91-2-.46-2.94,0-.74.4-1.72.64-1.53,1.83.14.91-.51.64-.91.55-1.64-.37-4.76-3.81-5-5.49a4.08,4.08,0,0,1,.07-1.3c.08-.46.27-.79.88-.7a2.62,2.62,0,0,0,2.83-1.49c.62-1.19,0-2.22-.8-3.1s-1.88-2-2.76-3a1.11,1.11,0,0,0-1.59-.34A12.39,12.39,0,0,0,60.88,87a3.44,3.44,0,0,0-.4,1.92A11.47,11.47,0,0,0,62.14,94,30.1,30.1,0,0,0,68,101.56a13.56,13.56,0,0,0,4.56,2.79,3.81,3.81,0,0,0,4.06-.78,2.77,2.77,0,0,1,1.85-.78C80.68,102.68,81.53,101.09,80.52,99.09ZM66.13,83.63c.51.07,3.47,3.46,3.49,4s-.3.7-.64.91a.89.89,0,0,1-1.19-.1A21.93,21.93,0,0,1,65,84.81C64.68,84.41,65.55,83.54,66.13,83.63Zm9.32,19.08a3.37,3.37,0,0,1-3.49-.1,16.55,16.55,0,0,1-5.38-4.55,23.82,23.82,0,0,1-4.34-7.33,5.79,5.79,0,0,1-.33-2.11,2.29,2.29,0,0,1,.12-.73c.31-.82.65-1.81,1.53-2s1,.86,1.4,1.36c.84,1,1.51,1.92.79,3.37a3.35,3.35,0,0,0,.31,3.06,12.78,12.78,0,0,0,4.89,5,2.52,2.52,0,0,0,2.16.31c.85-.32,1.29,0,1.67.71a4.07,4.07,0,0,0,.91,1.11C76.63,101.62,76.32,102.18,75.45,102.71ZM79,101.23a.9.9,0,0,1-1.1-.08,20.06,20.06,0,0,1-3.07-3.91c-.11-.18-.23-.42,0-.58a2,2,0,0,1,1.46-.47c.67.13,3.18,3.49,3.2,4.22A.75.75,0,0,1,79,101.23Z" transform="translate(-60.47 -81.92)"/><path d="M74.3,90.19c.68-.76,1.12-1.23,1.54-1.73a18.58,18.58,0,0,0,1.31-1.65,3.43,3.43,0,0,0-.61-4.53c-1.2-.82-3.25-.16-4.22,1.35-.39.62-.74,1.42,0,1.87.91.56.86-.45,1.1-.93.48-.95,1.66-1.54,2.25-1.07A1.81,1.81,0,0,1,76,86a4.19,4.19,0,0,1-.48.63,27.94,27.94,0,0,1-2.84,3.11,1.12,1.12,0,0,0-.43,1.17c.14.52.58.63,1,.64,1.27,0,2.55,0,3.82,0,.47,0,.92-.18.88-.75s-.46-.6-.88-.61Z" transform="translate(-60.47 -81.92)"/><path d="M84.7,87.26c-1.16.13-1.18-.55-1.09-1.37.06-.43.09-.87.14-1.38a9.57,9.57,0,0,0-.23-1.62c-.21-.73-.87-.94-1.26-.33-1.1,1.71-2.51,3.15-3.72,4.75-.62.81-.19,1.55.85,1.59a10.78,10.78,0,0,0,1.7-.1c.78-.1,1.12.15,1.06,1,0,.58-.14,1.43.73,1.41s.66-.9.64-1.45c0-.83.23-1.22,1.11-1.17a.71.71,0,0,0,.84-.64A.63.63,0,0,0,84.7,87.26Zm-4.16,0c.48-.67.81-1.37,1.63-1.73C82.23,87.51,82.23,87.51,80.54,87.25Z" transform="translate(-60.47 -81.92)"/><path d="M80.52,99.09a16.09,16.09,0,0,0-3.11-3.9c-.9-.91-2-.46-2.94,0-.74.4-1.72.64-1.53,1.83.14.91-.51.64-.91.55-1.64-.37-4.76-3.81-5-5.49a4.08,4.08,0,0,1,.07-1.3c.08-.46.27-.79.88-.7a2.62,2.62,0,0,0,2.83-1.49c.62-1.19,0-2.22-.8-3.1s-1.88-2-2.76-3a1.11,1.11,0,0,0-1.59-.34A12.39,12.39,0,0,0,60.88,87a3.44,3.44,0,0,0-.4,1.92A11.47,11.47,0,0,0,62.14,94,30.1,30.1,0,0,0,68,101.56a13.56,13.56,0,0,0,4.56,2.79,3.81,3.81,0,0,0,4.06-.78,2.77,2.77,0,0,1,1.85-.78C80.68,102.68,81.53,101.09,80.52,99.09ZM66.13,83.63c.51.07,3.47,3.46,3.49,4s-.3.7-.64.91a.89.89,0,0,1-1.19-.1A21.93,21.93,0,0,1,65,84.81C64.68,84.41,65.55,83.54,66.13,83.63Zm9.32,19.08a3.37,3.37,0,0,1-3.49-.1,16.55,16.55,0,0,1-5.38-4.55,23.82,23.82,0,0,1-4.34-7.33,5.79,5.79,0,0,1-.33-2.11,2.29,2.29,0,0,1,.12-.73c.31-.82.65-1.81,1.53-2s1,.86,1.4,1.36c.84,1,1.51,1.92.79,3.37a3.35,3.35,0,0,0,.31,3.06,12.78,12.78,0,0,0,4.89,5,2.52,2.52,0,0,0,2.16.31c.85-.32,1.29,0,1.67.71a4.07,4.07,0,0,0,.91,1.11C76.63,101.62,76.32,102.18,75.45,102.71ZM79,101.23a.9.9,0,0,1-1.1-.08,20.06,20.06,0,0,1-3.07-3.91c-.11-.18-.23-.42,0-.58a2,2,0,0,1,1.46-.47c.67.13,3.18,3.49,3.2,4.22A.75.75,0,0,1,79,101.23Z" transform="translate(-60.47 -81.92)"/><path d="M74.3,90.19h2.8c.42,0,.84.13.88.61s-.41.75-.88.75c-1.27,0-2.55,0-3.82,0-.45,0-.89-.12-1-.64a1.12,1.12,0,0,1,.43-1.17,27.94,27.94,0,0,0,2.84-3.11A4.19,4.19,0,0,0,76,86a1.81,1.81,0,0,0-.32-2.49c-.59-.47-1.77.12-2.25,1.07-.24.48-.19,1.49-1.1.93-.75-.45-.4-1.25,0-1.87,1-1.51,3-2.17,4.22-1.35a3.43,3.43,0,0,1,.61,4.53,18.58,18.58,0,0,1-1.31,1.65C75.42,89,75,89.43,74.3,90.19Z" transform="translate(-60.47 -81.92)"/><path d="M84.7,87.26c-1.16.13-1.18-.55-1.09-1.37.06-.43.09-.87.14-1.38a9.57,9.57,0,0,0-.23-1.62c-.21-.73-.87-.94-1.26-.33-1.1,1.71-2.51,3.15-3.72,4.75-.62.81-.19,1.55.85,1.59a10.78,10.78,0,0,0,1.7-.1c.78-.1,1.12.15,1.06,1,0,.58-.14,1.43.73,1.41s.66-.9.64-1.45c0-.83.23-1.22,1.11-1.17a.71.71,0,0,0,.84-.64A.63.63,0,0,0,84.7,87.26Zm-4.16,0c.48-.67.81-1.37,1.63-1.73C82.23,87.51,82.23,87.51,80.54,87.25Z" transform="translate(-60.47 -81.92)"/></svg>