<svg
 xmlns="http://www.w3.org/2000/svg"
 xmlns:xlink="http://www.w3.org/1999/xlink"
 width="16px" height="15px">
<path fill-rule="evenodd" d="M15.075,6.060 C15.026,5.909 14.896,5.799 14.739,5.777 L10.334,5.137 L8.364,1.147 C8.294,1.005 8.149,0.915 7.991,0.915 C7.832,0.915 7.687,1.005 7.617,1.147 L5.647,5.137 L1.242,5.777 C1.085,5.799 0.955,5.909 0.906,6.060 C0.857,6.210 0.898,6.376 1.011,6.486 L4.199,9.592 L3.446,13.977 C3.419,14.133 3.484,14.291 3.612,14.384 C3.684,14.436 3.770,14.463 3.857,14.463 C3.923,14.463 3.989,14.448 4.050,14.415 L7.991,12.345 L11.931,14.415 C12.071,14.489 12.241,14.477 12.369,14.384 C12.497,14.291 12.562,14.133 12.535,13.977 L11.782,9.592 L14.970,6.486 C15.084,6.376 15.124,6.210 15.075,6.060 Z"/>
</svg>