<svg xmlns="http://www.w3.org/2000/svg" width="32" height="32" viewBox="0 0 32 32"><path d="M414.48,196.08a12,12,0,0,0-10.61,17.61L395.53,222h0a3.53,3.53,0,1,0,5,5h0l8.34-8.34a12,12,0,1,0,5.62-22.6Zm-15.21,29.7a1.76,1.76,0,1,1-2.49-2.49h0l8.07-8.07a11.58,11.58,0,0,0,2.49,2.5Zm15.21-7.7a10,10,0,1,1,10-10A10,10,0,0,1,414.48,218.08Z" transform="translate(-394.48 -196.08)"/><path d="M414.48,201.08a7,7,0,0,0-7,7,.5.5,0,0,0,.5.5.5.5,0,0,0,.5-.5,6,6,0,0,1,6-6,.5.5,0,0,0,.5-.5A.51.51,0,0,0,414.48,201.08Z" transform="translate(-394.48 -196.08)"/></svg>