<svg xmlns="http://www.w3.org/2000/svg" width="122.6" height="122.6" viewBox="0 0 122.6 122.6"><polygon points="12.1 101.08 12.11 101.08 12.1 101.08 12.1 101.08" fill="#ad8f73"/><path d="M97.17,192.51v0h0Z" transform="translate(-72.25 -176.23)" fill="#ad8f73"/><path d="M88.89,284.43c2.28,1.78,4.41,3.78,7,5a78.92,78.92,0,0,0,9.36,3.47c3.34,1.05,6.82,1.69,10.14,2.81a74.19,74.19,0,0,0,8,1.68c1.45.31,3,.35,4.38.77a20,20,0,0,0,6.8.66,84.34,84.34,0,0,0,11.7-1.5,3.66,3.66,0,0,0,1.24-.57c1.14-.73,2.26-1.41,3.69-1.13a2.43,2.43,0,0,0,1.38-.18c1.17-.54,2.29-1.19,3.43-1.79.42-.22.84-.46,1.27-.66a25.93,25.93,0,0,0,3.48-1.55c.76-.49,1.82-.62,2.23-1.69.07-.18.58-.27.88-.27a6.67,6.67,0,0,0,3.91-1.26c1.25-.84,2.25-2.11,3.79-2.49.23-.06.39-.43.75-.85a5.57,5.57,0,0,0-1.44.1c-.49.19-.9.59-1.38.8-1.06.48-2.05,1.25-3.5,1a25.46,25.46,0,0,0,2.69-1.89c.87-.79,2.07-.46,2.85-1.25,1.08,1.21,1.75,1.25,2.87.18a1.4,1.4,0,0,0,.44-1,4.07,4.07,0,0,0-.63-1.2c1.09-.42,1.25-2.1,2.69-2.17.61.95-.83,1.58-.36,2.86a4,4,0,0,1,2.44-2.12c.11-.05.15-.24.26-.42-.44-.65-2-1.05-.55-2.24.53-.13,1.55,0,1.4-.76s.69-1.14.6-1.79c0-.21-.4-.56-.54-.52-.85.2-1.27-.41-1.84-1-.4.44-.73.84-1.09,1.21-.88.88-.85,1.06.54,1.61-.47.22-.8.35-1.11.51a7.45,7.45,0,0,0-2,1.09,36.17,36.17,0,0,1-5.55,4.18,6.92,6.92,0,0,1-1.13.52c-.29-1.57-.25-1.5.8-2.28,1.88-1.42,3.72-2.89,5.54-4.38,1.25-1,2.46-2.09,3.67-3.16a5,5,0,0,0,.74-.84c.5-.65.95-1.34,1.45-2,.73-.95,1.5-1.88,2.23-2.84a2.11,2.11,0,0,1,2-1.08,1,1,0,0,0,1.24-.8c-.26-.28-.54-.56-.88-.93a14.34,14.34,0,0,1,1.26-1.3c.23-.19.79-.09.88-.27a13.06,13.06,0,0,0,.85-2.44c.19-.8-.64-.91-1.05-1.27l.87-1.4c.23.51,0,1.35,1,1.32a1.73,1.73,0,0,0-.21-1.77,2,2,0,0,1-.13-2l1.7,2.06c-.33,1.23-.27,1.3.93,1.1,0-.47-.07-.93-.1-1.3.46-.49,1-.83,1.22-1.32.33-1,1-2,.66-3.09-.05-.19.1-.45.18-.67.17-.5.4-1,.53-1.48.28-1.07.55-2.15.73-3.23s.4-1.94-1-2.48c1.43-.09,1.68-.31,1.71-1.44,0-1.29,0-2.59-.05-3.88a22.51,22.51,0,0,0-.34-5,29.42,29.42,0,0,1-.21-3c-.14-1-.44-2-.65-2.94-.12-.56-.18-1.14-.33-1.69-.34-1.25-.7-2.5-1.09-3.73a17.07,17.07,0,0,1-1.07-3.57,2.84,2.84,0,0,0-.28-.65c-.54-1.32-1-2.65-1.61-4a4.47,4.47,0,0,0-1.12-1.9c-.67-.47-.7-1.22-1.14-1.74s-1.09-.87-1.42-1.44c-1.36-2.4-2.63-4.85-3.94-7.28-.33-.63-.64-1.28-1-1.88-.81-1.27-1.6-2.56-2.5-3.75-.6-.8-.91-1.9-2-2.35a2.42,2.42,0,0,0,.82,2.82,4.86,4.86,0,0,1,1.64,2.95,1.66,1.66,0,0,1-.59-.52,9.55,9.55,0,0,0-.93-1.24c-1.16-1.1-2.34-2.18-3.56-3.21a33.73,33.73,0,0,0-3-2.33,22.75,22.75,0,0,1-3.45-2.75,5.29,5.29,0,0,0-.9-.65c-1.5-1-3.22-1.64-4.56-2.88a1.09,1.09,0,0,0-.61-.33c-.78,0-1.24-.6-1.79-1a7.16,7.16,0,0,0-.78-.58c-1.15-.64-2.32-1.23-3.45-1.89-.41-.23-.88-.41-.92-1.13,0-.35-.64-.84-1.07-.92a14.71,14.71,0,0,0-3.95-.41c-2,.18-3.66-.77-5.55-.85s-3.61-.45-5.45-.7c-.25-.9-.65-1.14-1.55-.83-.49.17-1,.62-1.43.52a5.09,5.09,0,0,0-3.48.65,4,4,0,0,1-.86.21c0-.6.06-1,.69-.84s.91-.24.95-.81a3.25,3.25,0,0,0,1,0c.2-.07.32-.4.48-.62-.21-.14-.4-.37-.63-.41s-.64.1-.95.07c-1.56-.16-3.12-.3-4.66-.53a1.63,1.63,0,0,0-1.62.51,4.5,4.5,0,0,1,.27,1.36,5.36,5.36,0,0,1-.61,1.38c1.16.87,2.41.15,3.6.25a1.38,1.38,0,0,1-1.27.89,12.31,12.31,0,0,0-3.3.74c-3.6,1.21-7.18,2.49-10.77,3.74a4.6,4.6,0,0,0-1.91.9c-.32.32-1,.72-1.23.58-.76-.5-1.39.21-2.08.12a1.15,1.15,0,0,0-.85.42c-.19.21-.2.54-.58.24-.07-.06-.46.12-.46.18,0,1.58-1.12,1-1.92,1,0,.84-1,.5-1.2,1.15-.06.17-.9.08-1.39.11.3,1.29-1.41.94-1.46,2-1.39-.49-2.6-.5-3.62.62-.06.13-.13.26-.2.39-.25-.2-.59-.35-.73-.62A.91.91,0,0,0,95,191.9a6,6,0,0,0-1.29.82,2.9,2.9,0,0,1,.27.57,1.61,1.61,0,0,1-.71.39c-.07,0-.34-.37-.3-.51a5.24,5.24,0,0,1,1.08-2.65c.14-.14.07-.49.12-.92l-1.55,1.21a17,17,0,0,0-4.12,3.73c-.65,1-1.52,1.75-2.11,2.77-.26.45-.82.71-1.13,1.13-.73,1-1.37,2-2.07,3s-1.63,2.13-2.37,3.25-1.41,2.3-2,3.48a30.19,30.19,0,0,0-2.23,4.39c-.71,2-1.11,4.1-1.64,6.16a14.68,14.68,0,0,1-.54,2.22c-1.18,2.73-1.24,5.58-1.23,8.45a6.19,6.19,0,0,1,0,.86c-.26,2-.57,4.09-.78,6.14a27.9,27.9,0,0,0,0,3c1-.88.45-1.92.87-2.75a4.47,4.47,0,0,1,.37,1.49,2.9,2.9,0,0,0,1.11,2.47,3.08,3.08,0,0,1,.59.84l.78-.08c0,.76.29,1.53,0,2-.78,1.63.31,3.25-.26,4.83,0,0,.1.12.17.18.71.64.19,1.56.41,2.31,0,0-.28.17-.41.25-.75-.75.16-2.42-1.43-2.61-.49.72-.15,1.37-.05,2a9.53,9.53,0,0,1,.27,2.11,4.78,4.78,0,0,0,.46,2.89,21.72,21.72,0,0,1,1.41,4c.45,1.47.84,3,1.25,4.45l-.26.11c-.86-1.7-1.06-3.69-2.06-5.62-.08.82-.68,1.38,0,2,.1.09.08.37.05.55a3.57,3.57,0,0,0,.83,2.6,1,1,0,0,1,.19.76,3,3,0,0,0,.28,2.2,19.58,19.58,0,0,0,1.19,3.06c.29.59.44,1.39,1.28,1.6.66-1-.08-1.74-.17-2.58.82,1.4,2,2.56,2.24,4.32-.78-.08-.64-1.4-1.77-1.13A5.43,5.43,0,0,0,82.7,276c-.25-.8-.87-1.34-.49-2.07a20.77,20.77,0,0,1,1.54,1.83,7.06,7.06,0,0,1,.6,1.53,5.72,5.72,0,0,0,2.34,2c.47.15.84.87,1,1.42a3.68,3.68,0,0,0,1.4,2.07c.1.06.16.21.2.27C89.17,283.54,89.05,284,88.89,284.43Zm97.29-22.71-.39-.21.33-.68.39.21Zm6.65-9.31c-.79-1.29-.79-1.29,0-2.19C192.84,250.91,192.83,251.62,192.83,252.41ZM187.73,241a.49.49,0,0,1-.15.36c-.07.05-.23,0-.47-.06a3.66,3.66,0,0,1,.34-.48S187.71,240.91,187.73,241Zm3.89-12.29c-1.33-.79-.88-1.86-1-2.77A4.83,4.83,0,0,1,191.62,228.7Zm-1.08-3.8-.2.06-.82-2.43.34-.06C190.09,223.28,190.31,224.09,190.54,224.9Zm-29.43-31.1c.71-.08,1.07.29,1.16,1ZM150,187.59l1-.21a3.28,3.28,0,0,1,.05.38l-1,.19ZM133,178.91c.33.32.62.56-.13.69Zm1.75,9,1-.32c-.29.37-.39.57-.53.65s-.31,0-.47,0Zm-2.27-.78.72.17,0,.19-.79-.11Zm9.33,9.8-.9-.26C141.51,196.06,141.72,196.22,141.85,196.92Zm-20.19-8.11a13.14,13.14,0,0,1,5.58-1.62,11.31,11.31,0,0,1-1.76,2.07,2.66,2.66,0,0,1-1.74.16,3.43,3.43,0,0,0-3.2,1.45c-.07.07,0,.27,0,.57l.71-.37h0l.87-.1c0,.11,0,.22,0,.32l-.85-.22h0a1.21,1.21,0,0,1-1.52.89,10.06,10.06,0,0,1-2.1-.75C118.9,190.44,120.23,189.5,121.66,188.81Zm18.51,8c1.14,1.1.48,2.79,1.46,4-2.3.84-2.35.83-2.12-1.32A18.62,18.62,0,0,1,140.17,196.82Zm44.32,50c0-.1-.31-.13-.52-.21-.24.79-.34,1.61-1.09,2.07a1,1,0,0,1-.46-1.25c.81-1,.17-2.17.43-3.23a2.47,2.47,0,0,0-.15-2.3.3.3,0,0,1,0-.27c1-.81.08-1.8.28-2.71a10.33,10.33,0,0,0,0-2.72,37.58,37.58,0,0,0-.4-5.1c-.48-2.43-1.24-4.8-1.86-7.2-1-4-2.78-7.72-4.19-11.57-.39-1.07-.91-2.09-1.29-3.17s-.63-2.18-1-3.52c-.68-.5-1.16-1.39-1.74-3.57l1.05.15c.11.74.11.74,1,1l-.68.85c.87.45,1.24,1.61,2.76,1.06-.46.46-.65.64-.94.94l1.31.33c-.75.59-.12,1.06.06,1.57.48.3,1-.73,1.49.11s-.53.67-.58.9c.74,2,1.42,3.9,2.11,5.82l1.39-.23c-.08.17-.11.32-.19.36-.28.15-.58.25-.92.39l.47,1.32,1.35-.3-1,.93c.32,1,1,.12,1.57.5l-1.12.7c.42,1.14.84,2.3,1.25,3.45.53.18,1.36-.48,1.48.69l-1.25.51.51,1.75c.53.15,1.38-.39,1.59.69l-1.3.52c.07,1.2,1.15.14,1.58.89-.06.16-.16.51-.27.85.63.26.64.29.75,1.58l-2,.59c.6,1,1.31.65,2.1.28.07,1.36-1,.73-1.42,1.09-.12.83.45.66.9.6s.86,0,.67.76l-1.45.18c-.05.58.2.69.58.47s.81-.17,1.13.47l-1.31.6c.45.08,1,0,1.19.25s.15.89.19,1.31c-.64.17-1.19.31-1.73.47,0,0,0,.18.06.39l1.57-.07c.07,1.38.07,1.38,1.25,1.49.12.32.24.66.44,1.23l-1.43-.8c-.08.69-.58,1.13-.13,1.84.15.22-.27.84-.44,1.32l-1.32-1c-.17.78-.28,1.32-.42,2l1.77-.17c0,.5-.06.91-.09,1.34l-1.73,0c0,.78,0,1.43.05,2.12l1.2-.83c.6,1,.16,1.78,0,2.56a8.83,8.83,0,0,1-.83,2.17c-.12.25-.5.37-.89.45A4.67,4.67,0,0,0,184.49,246.81Zm-2.39,2.75.26,0,.55,1-1,.64C182,250.41,182,250,182.1,249.56Zm0,5.69c.24-.39.53-.74.81-1.14-.85-.8-1,0-1.38.28-.71-.58-.11-1.11,0-1.67,1.59,1.16,1.82-.88,2.89-1.25-.44,1.49-.88,3-1.33,4.46-.12.37-.38.56-.77.38A.64.64,0,0,1,182.14,255.25Zm-.4,2.71c-.55-1-1.19-.2-1.81-.36.08-.2.14-.52.23-.53.81-.14,1.63-.21,2.7-.33-.43,1.19-.76,2.08-1.15,3.15l-1.82-1.32ZM91.65,194.25c-.15.86-.15.86-1.07,1.33ZM174.8,268a4.16,4.16,0,0,0,.82-.74,35.13,35.13,0,0,0,3.59-5.66c.14-.3.46-.5.61-.78a4.57,4.57,0,0,0,.22-1l1.43-.09A11.2,11.2,0,0,1,181,261a34.62,34.62,0,0,1-5.11,6.79c-.49.56-1,1-.72,1.87-1.41.05-2.09,1.22-3,2.05-.09-.13-.15-.18-.14-.21C172.14,271.24,174.66,268.16,174.8,268ZM132,241.63c.05.49.08.78.12,1.15C131.58,242.52,131.51,242.23,132,241.63Zm0,50.84c-.77-.38-1.52,0-2.3.06a45.83,45.83,0,0,1-6.06.42,10,10,0,0,1-2.85-1c-.94-.34-1.78-1.08-3-.72l-.87-1.3c.87,0,1.6,0,2.32.07,1.47.17,3,.32,4.42.59,1.24.23,2.43.69,3.67.91,1.06.19,2.15.16,3.22.28a15.55,15.55,0,0,1,1.63.36A3.67,3.67,0,0,1,132.07,292.47Zm-36.6-28,1.37,1.7a1.23,1.23,0,0,0,.36,1.46c.8.79.78,1.84.65,3.14C95.94,269,95.87,266.65,95.47,264.48ZM82.8,256.69l.28-.72.14,0-.09.8Zm17.79,15.72a13.65,13.65,0,0,1,1.59,1.31,10,10,0,0,1,.88,1.48l-1.15.55c0,.22.1.5.2,1l-2.71-2.27C100.46,274.27,100.66,273.58,100.59,272.41Zm-9.11-13.3c-.35-.29-.32-.44.17-1.21.23.58.45,1.11.68,1.65h0c.12.69.24,1.38.38,2.16-.78-1-.83-1.33-.38-2.16h0A4.54,4.54,0,0,1,91.48,259.11Zm26.06,19.54.21-.33,3,2.37C118.94,281,118.68,279.23,117.54,278.65Zm22.83,15.22a1.83,1.83,0,0,1-.39.31c-.06,0-.19-.13-.39-.29.23-.12.36-.25.51-.26S140.28,293.78,140.37,293.87Zm11.45-2.24c.33-.76,1-.88,1.49-1.12C153,291.07,152.7,291.61,151.82,291.63Zm8.15-5.55a34.32,34.32,0,0,1-3.26,1.78,3.11,3.11,0,0,1-1.3.06h0c-.25.83-1,.8-1.62,1-.88.3-1.72.58-1.76,1.74a8.58,8.58,0,0,0-4.16,1.76c.29.76.82.31,1.24.34-1.28,1.21-1.43,1.21-3,.47a2.15,2.15,0,0,0-1.21-.06c-.92.15-1.82.39-2.74.56a.89.89,0,0,1-.76-.34,5.29,5.29,0,0,1,1.13-.41,6.92,6.92,0,0,0,3.49-1.27.91.91,0,0,1,.54-.19,3.46,3.46,0,0,0,2.89-1.23c.25-.29,1-.18,1.52-.25.31-.47-.93-.68-.2-1.3.43-.05.6,1,1.23.37l-.38-.6,1.23,0c.12-.28.25-.58.36-.82l2.22.21h0c.24-.14.61-.23.68-.43.24-.61.73-.68,1.21-.88.78-.34,1.53-.74,2.3-1.11a3.44,3.44,0,0,1,1.56-.44A8.8,8.8,0,0,1,160,286.08ZM83.76,237.39c0,.1-.11.22-.17.33-.1-.08-.24-.14-.28-.25s.07-.22.13-.4C83.59,237.21,83.74,237.29,83.76,237.39Zm40.57,30.3c0-.13,0-.26.1-.54l.21,1h-.36C124.3,268,124.31,267.85,124.33,267.69ZM85.47,235.05a1.27,1.27,0,0,1,.1-.46c.1.07.24.11.29.21s0,.23,0,.41C85.68,235.14,85.47,235.11,85.47,235.05Zm6.86,4.73a1,1,0,0,1-.23-.32.41.41,0,0,1,.13-.3s.21,0,.23.07a1,1,0,0,1,0,.35Zm-8.09-4.9-.42.1a2.24,2.24,0,0,1-.33-.81,10.35,10.35,0,0,1,.15-1.66s.24-.08.38-.13C84.09,233.25,84.16,234.06,84.24,234.88Zm62.18,52.29c-.54.91-1.33.86-1.92,1.17a19.77,19.77,0,0,1-2.05.86l.31.69-2.72-.11a16.58,16.58,0,0,0,2.12-1.64A5.45,5.45,0,0,1,146.42,287.17Zm-11.28-12.56-1-1.46,1.42.17c.07,0,.14.11.34.29Zm-50.55-45.1-.32-.1c.07-.28.14-.56.2-.83l.29,0C84.71,228.92,84.65,229.22,84.59,229.51Zm50.26,42.35c-1.18.05-1.21-.72-1.29-1.54C134.64,270.28,134.43,271.27,134.85,271.86Zm-49-51.5.33.07-.54,2.18-.25,0C85.58,221.84,85.73,221.1,85.89,220.36Zm-7-4.8a2,2,0,0,0,.08-.22l.55.11c-.11.13.24.7-.34.38A1.45,1.45,0,0,1,78.85,215.56Zm44.74,36.82c.14.93.29,1.86.44,2.86-.46.39-.89,0-1.35-.09A3.27,3.27,0,0,1,123.59,252.38Zm-25.8-21.81c-.23-.44-.49-.7.29-1.1C97.94,230,97.89,230.19,97.79,230.57Zm-12.56-6-.22,0c.07-.4.13-.81.2-1.21l.36.07C85.45,223.81,85.34,224.2,85.23,224.6Zm80,63.4c-.23.12-.46.24-.68.37a2.39,2.39,0,0,0-.13-.21l.61-.47Zm-2.29-2.83c0-.84.28-1.28,1.32-1.22ZM96.33,230.09c-.22-.34-.41-.5-.41-.67,0-.89,0-1.8,0-2.69,0-.54.32-.8.94-.46C96.71,227.51,96.54,228.68,96.33,230.09ZM86.05,219.57l.39-1.39.28,0c-.08.47-.15,1-.23,1.42Zm72.16,53.17c-.32.34-.62.43-1-.3l1.05-.06C158.25,272.57,158.26,272.68,158.21,272.74Zm-26.69-24.41c-.11,0-.23-.07-.35-.11,0-.11.07-.25.1-.25a1.74,1.74,0,0,1,.39.05C131.61,248.13,131.58,248.33,131.52,248.33Zm-.28-3.23a3.61,3.61,0,0,0-.17-.33c-.29-.66,0-1,.79-1.24.12,1.27.22,2.47.34,3.74-.5.09-.8.3-.95-.48C131.14,246.19,130.54,245.71,131.24,245.1ZM77.11,214.25c.87-1.66,1.58-3.41,2.55-5s1.46-3.4,3.26-4.39c-.17.39-.3.81-.5,1.18-.71,1.31-1.37,2.65-2.18,3.89a15.06,15.06,0,0,0-2,5.37A12.72,12.72,0,0,1,76,219.61C76.25,217.79,76.22,216,77.11,214.25Zm-2.6,21.2a17.19,17.19,0,0,0-.1-2.88,5.69,5.69,0,0,1,.21-4.09c.41-.79.21-1.9.3-2.86a3.38,3.38,0,0,1,.15-1c.81-2,1.65-4,2.5-6.05.07-.19.29-.32.69-.71-.25,1.5-.11,2.91-.71,3.82-1.23,1.88-.92,4-1.34,5.93s-.68,4-1,6a11.3,11.3,0,0,0,0,1.55l-.52.48C74.63,235.57,74.52,235.51,74.51,235.45Zm9.79,7c.89,1,.87,1.08-.48,1.6C84,243.43,84.14,243,84.3,242.48Zm-2.75,5.36.46,1-1.09.35C81.15,248.73,81.29,248.43,81.55,247.84Zm-1.88.51.18-.2.53.49-.18.2Zm-3.21,3.72c0,.67,0,1.22,0,1.77l-.35,0C76.19,253.27,75.38,252.6,76.46,252.07Zm1.62,12.83c.84,1,1,1.38.88,3.16C78.67,267,78.39,266,78.08,264.9Zm15.25,17.52a21.37,21.37,0,0,1-2.12-1.83,8.75,8.75,0,0,0-1-.59,2,2,0,0,1-.56-.48q-1.94-2.94-3.85-5.89A34,34,0,0,1,83,268.15c-.53-1.28-1-2.6-1.44-3.9a1.59,1.59,0,0,1-.15-.84,3.07,3.07,0,0,0-.59-2.3,1.75,1.75,0,0,1-.34-1.17,1.49,1.49,0,0,0-.13-1,1.5,1.5,0,0,1,0-2.09,20.56,20.56,0,0,1-.52-2.25c-.12-.92.71-1.19,1.4-1.63-.66-.29-1.33-.39-1.68-.8s-1.14.82-1.32-.43c.49.05.92.08,1.36.14,1.32.19,1.64-.09,1.67-1.52a2,2,0,0,1,0-.31l.81-.68c.31.08.79,3.54.68,4.54l0-.05.19,1.43-1.7.15c0,.47.08.92.16,1.37.29,1.64.49,1.7,1.87.63.16.15.32.29.49.46a8.35,8.35,0,0,0-1.16.89,1.24,1.24,0,0,0-.3.87,7.76,7.76,0,0,0,.4,1.63,6.33,6.33,0,0,0,1,2.4,4.09,4.09,0,0,1,.66,1.55c.34,1.19.44,1.26,1.64.84.15-.05.32-.07.56-.13-.85,1.63-.85,1.63-.42,2.56l1.38-.32.09.21c-.17.12-.32.24-.49.34l-.61.31c.63,1.67.63,1.67,2.15,1.4.35.46.26.75-.3,1-.14.06-.2.36-.29.55a2.71,2.71,0,0,0,.67.2,2,2,0,0,1,.93.09l-.87.57a1.62,1.62,0,0,0,.85,1.68c.47.17.4.37.48.75.22,1,.77,1.34,1.83,1.4,0,.28-.07.56-.11.85.63.53,1.3,1,1.89,1.61s1,1.17,1.55,1.69,1.2,1,1.79,1.53c1.12,1,2.21,2,3.34,3,.94.8,1.94,1.54,3,2.38-.22.07-.4.2-.52.15a50.91,50.91,0,0,1-6.57-2.64c-.12-.06-.29-.1-.36-.21a3.08,3.08,0,0,0-2.27-1.34C93.79,283.15,93.89,282.78,93.33,282.42Z" transform="translate(-72.25 -176.23)" fill="#ad8f73"/><path d="M184.41,230.64h0l0,0Z" transform="translate(-72.25 -176.23)" fill="#ad8f73"/><path d="M97.18,192.49c-.21-.29-.42-.58-.72-1a10.59,10.59,0,0,1,2.33-2.62,16.69,16.69,0,0,1,2.21-1.68c2.3-1.12,4.61-2.2,6.92-3.3.16-.08.41-.14.47-.28.42-.9,1.43,0,1.89-.72.68.32,1.12-.15,1.67-.47a15.57,15.57,0,0,1,2.47-1.09c1-.35,2-.57,2.25-1.91l-3.76.74c0-.43,0-.84.06-1.4a16.05,16.05,0,0,0,1.7.47c1,.18,1.35-.09,1.54-1.25a3.29,3.29,0,0,1,3.86.47L116.93,180c1.33.47,2.29-.39,3.36-.27-.05.42-.07.79-.14,1.15a1.13,1.13,0,0,1-1.29,1c-1,0-2.09.11-2.5,1.58-.67-.71-1.33-.16-2,.07-1.31.46-2.62,1-3.9,1.49-1,.42-1.95.92-2.92,1.4a19.64,19.64,0,0,0-2,1,9.49,9.49,0,0,1-3.34,1.57,2.09,2.09,0,0,0-1.21.71c-.91,1.28-2.2,1.07-3.46,1.18-.11.49-.22,1-.35,1.53Z" transform="translate(-72.25 -176.23)" fill="#ad8f73" fill-rule="evenodd"/><path d="M98.45,187.38c.89-.64.89-.64.69-1.39l2.16-1.79a11.28,11.28,0,0,1,5.78-2.92c.45-.06,1-.24,1.36.4.13.22.65.2,1,.41-1.24.38-2,1.57-3.47,1.69a17.45,17.45,0,0,0-3.7.93,1.81,1.81,0,0,0-1.28,1.1A2.61,2.61,0,0,1,98.45,187.38Z" transform="translate(-72.25 -176.23)" fill="#ad8f73" fill-rule="evenodd"/><path d="M187.52,265c.9.81,1.07,1.35.28,2a12.27,12.27,0,0,0-1.92,2.61,4.22,4.22,0,0,1-3.21,2.12,1.16,1.16,0,0,1,.22-1.3,7.73,7.73,0,0,1,1.54-1.72,6.8,6.8,0,0,0,2.14-2.53A7.78,7.78,0,0,1,187.52,265Z" transform="translate(-72.25 -176.23)" fill="#ad8f73" fill-rule="evenodd"/><path d="M170.84,190a2.48,2.48,0,0,1-2.2-1.82,3.78,3.78,0,0,1-3-1.83c.38-.2.77-.58,1.06-.51a2.83,2.83,0,0,1,1.71.83,6.65,6.65,0,0,0,2.2,1.84A.88.88,0,0,1,170.84,190Z" transform="translate(-72.25 -176.23)" fill="#ad8f73" fill-rule="evenodd"/><path d="M124.29,176.55c-.24.48-.44.91-.71,1.47l-2.35,0c.12-.5.09-.91.26-1A3.88,3.88,0,0,1,124.29,176.55Z" transform="translate(-72.25 -176.23)" fill="#ad8f73" fill-rule="evenodd"/><path d="M95.3,188.75c-.15-1.63,1.1-1.84,2.1-2.42l.76,1.49-1-.34a8.49,8.49,0,0,1-1,1.35C96,189,95.58,188.78,95.3,188.75Z" transform="translate(-72.25 -176.23)" fill="#ad8f73" fill-rule="evenodd"/><path d="M75.84,243.71c-1.4.36-1.43.35-1.46-.76,0-.4,0-.81.06-1.21l.32-.08C75.11,242.33,75.46,243,75.84,243.71Z" transform="translate(-72.25 -176.23)" fill="#ad8f73" fill-rule="evenodd"/><path d="M173.67,193.07c-1.33-1.5-1.33-1.5-1.48-2.29a2.86,2.86,0,0,1,1,.07C174,191.29,173.53,192.09,173.67,193.07Z" transform="translate(-72.25 -176.23)" fill="#ad8f73" fill-rule="evenodd"/><path d="M182.14,273.87l-1.11-.78c.22-.27.19-1.27,1.08-.78S182.3,273.27,182.14,273.87Z" transform="translate(-72.25 -176.23)" fill="#ad8f73" fill-rule="evenodd"/><path d="M180.72,271.11c.12-.51.12-1.11.84-1a.89.89,0,0,1,.43.74C181.77,271.46,181.29,271.46,180.72,271.11Z" transform="translate(-72.25 -176.23)" fill="#ad8f73" fill-rule="evenodd"/><path d="M84.35,277.31l-.68.8c-.54-.16-.72-.47-.19-.85.19-.13.58,0,.87.05Z" transform="translate(-72.25 -176.23)" fill="#ad8f73" fill-rule="evenodd"/><path d="M72.88,249.56c.54.35,1,.53.48,1.35C73.18,250.41,73.07,250.08,72.88,249.56Z" transform="translate(-72.25 -176.23)" fill="#ad8f73" fill-rule="evenodd"/><path d="M73.14,240.35l-.89.8c.12-.38.23-.72.33-1.06Z" transform="translate(-72.25 -176.23)" fill="#ad8f73" fill-rule="evenodd"/><path d="M124.74,180.34l.39-.43c.06.06.17.17.16.18s-.25.29-.38.44A1.54,1.54,0,0,1,124.74,180.34Z" transform="translate(-72.25 -176.23)" fill="#ad8f73" fill-rule="evenodd"/><path d="M110.73,181.2l.19-.43.42.21c-.07.12-.12.28-.22.32S110.89,181.25,110.73,181.2Z" transform="translate(-72.25 -176.23)" fill="#ad8f73" fill-rule="evenodd"/><path d="M72.71,246.61l.06.73-.2,0-.15-.69Z" transform="translate(-72.25 -176.23)" fill="#ad8f73" fill-rule="evenodd"/><path d="M183.16,242c.35-1.1.86-.61,1.54-.57A1.18,1.18,0,0,1,183.16,242Z" transform="translate(-72.25 -176.23)" fill="#ad8f73" fill-rule="evenodd"/><path d="M184.37,230.61c.46.84.46.84-.65,1.24-.68-.94.28-.92.7-1.21Z" transform="translate(-72.25 -176.23)" fill="#ad8f73" fill-rule="evenodd"/><path d="M183.83,243.17l-1.16.06C182.94,242.91,183.17,242.39,183.83,243.17Z" transform="translate(-72.25 -176.23)" fill="#ad8f73" fill-rule="evenodd"/><path d="M82.77,253.88c-.45.22-.89.47-1.36.65a3,3,0,0,1-.89,0c.76-.89,1.42-1.11,2.23-.62Z" transform="translate(-72.25 -176.23)" fill="#ad8f73" fill-rule="evenodd"/></svg>