<svg xmlns="http://www.w3.org/2000/svg" width="580.3" height="518.44" viewBox="0 0 580.3 518.44"><path d="M766.21,948c.44-2.37-.7-5-.86-7.51-.18-2.82.31-5.72-.14-8.48a47.59,47.59,0,0,0-1.92-8.54c-1.32-3.51-.48-7.13-1.74-10.32-2.9-7.31-2.86-15.7-8.11-22.15-.28-.34.08-1.14-.06-1.67a88.74,88.74,0,0,0-2.63-9.11c-1.13-2.92-3.86-5.65-3.89-8.48,0-4-5.51-5.3-3.87-9.55-4-1.6-3-6.11-5.25-8.94-5.5-6.89-10.14-14.45-15.2-21.69q-4.41-6.29-9-12.42c-3.23-4.3-8.55-6.53-11.31-11.32-.74-1.28-3.4,0-3.43-2.76,0-.86-2.4-1.6-3.55-2.57-1.3-1.09-2.38-2.44-3.64-3.57-5.16-4.64-9.86-10-15.66-13.62s-9.88-10.26-17.49-11c-7.34-5.8-16.24-8.69-24.36-13-4.18-2.24-8.12-5.58-12.56-6.5-4.73-1-8.33-5.82-13.76-3.93-.12,0-.36-.43-.6-.56-8.34-4.36-17.72-5.28-26.64-7.42-7.52-1.81-15-5.36-23.18-3.69-2.78-2.77-6.46-.88-9.46-1.85a35.4,35.4,0,0,0-8.69-1.65c-3.17-.23-6.81,1.67-9.5-1.58-2.66,3.51-5.25.66-8,.1-1.27-.26-3.41,1.63-4.13,1.11-3.43-2.43-7.63-2-10.48-.94-5.55,2.12-11,.89-16.42,1.41-2.39.23-5.11-.93-6.93,1.67-2.39-3-4.53,1.17-7.17.2-2.25-.82-5-.18-7.6-.16a1.92,1.92,0,0,0-.75.23c-5.54,2.71-12,1.49-17.67,4.64-2.6,1.46-6.58.28-9.84.85-3.08.54-6,2.55-9,2.63-8.5.22-15.79,4.53-23.77,6.47a99.51,99.51,0,0,0-21.37,7.82c-6.12,3.11-12.88,4.74-18.64,8.36-2.71,1.7-4.95,4.15-8.29,4.68-4,.65-5.43,4.56-8.34,6.58a6.09,6.09,0,0,1-2.89,1.18c-3.58.27-5.67,2.81-8.3,4.73-2.46,1.81-6.07,2-8.54,3.84-5.43,3.94-10.91,7.79-16.61,11.31-5.35,3.29-10.09,7.34-15,11.2-5.12,4-10.61,7.58-15.29,12.21-1.92,1.9-4.47,3.18-6.34,5.12-3.6,3.74-7,7.71-10.32,11.68a4.91,4.91,0,0,0-1.05,2.92c0,5.44-4,7-7.91,9.3-5.07,3-10.91,5.85-10.9,13.26,0,.56-.67,1.12-1,1.68-1.69-2.55-2.7-.34-3.56.68-1,1.19-1.57,2.75-2.47,4-1.54,2.22-4.62,4.44-4.49,6.5.25,3.9-3,3.89-4.39,5.84-.74,1.07-1.15,2.37-1.84,3.48A30.08,30.08,0,0,1,226.7,894a26,26,0,0,0-7.53,13.92c-.51,2.82-1,6.12-2.78,8.13-6.09,7-10.7,14.67-12.36,23.82-.47,2.55-6.4,3.54-2.07,7.32-1,1.77-2,3.61-3.1,5.29-1.61,2.35,4.25,3.59.95,5.73-2.23,1.44.8,4.72-2.54,5.45-2.44.53.48,3.94-2.29,4.72-1.25.36-1,1.2-.23,2.42s1.24,3.69.53,4.7c-2.49,3.58-.53,7.73-1.87,11.17a26.49,26.49,0,0,0-2.19,10.57c.06,4-4.46,7.94-.94,12.55a2.1,2.1,0,0,1,0,1.67c-2.62,6.62-2.44,13.17-.1,19.89.68,1.94.68,5-.41,6.49-2.79,3.9.8,9-2.87,12.46,2.67,3.39,1.36,7.41,1.82,11.16,0,.22.34.49.58.58.93.39,1.71-3.11,2.6-.22.34,1.09-.55,2.54-.77,3.85-.33,1.86-.6,3.74-.77,5.62,0,.29.61.65.94,1,.24-.47.44-1,.72-1.41s.72-1.07,1.09-1.6a5.33,5.33,0,0,1,.57,1.45c.09,1.13,0,2.27,0,3.4,2.33,1.71,2.33,3.39,0,5.1a23.13,23.13,0,0,0,0,2.5,18.41,18.41,0,0,0,.51,2.29,9,9,0,0,1,1.22-2.17,1.65,1.65,0,0,1,1.6,0c2.24,3.36,1.74,7.19,1.75,10.93,3.2,3.79,3.37,9.17,6.77,12.87.28.31.19,1.15,0,1.66-.42,1.19-1.56,2.42-1.38,3.46.24,1.35,2.7.29,3.41,2.7.51,1.73-.37,3.52.75,5a40.59,40.59,0,0,1,3.58,5.32c2.53,4.89,4.56,10.06,7.33,14.79,7.83,13.36,21.58,35.13,32.87,44a7.8,7.8,0,0,1,2.37,2.42c2.27,4.91,7.52,7.14,10.31,11.69,1.3,2.13,4.19,3.31,6.37,4.9,4.8,3.49,8.29,7.92,13.41,11.18l8.12,5.17c1.79,1.13,3.58,2.27,5.42,3.32,47.87,27.07,104.08,33.08,158.14,29.71,25.95-1.63,51.68-6.08,77.39-9.77,17.62-2.53,33.45-11.36,51-14.49,0,0,0-.08,0-.12-.09-1.71-1.66-4.06,0-4.64,1-.36,1.85.8,2.78,1.33,1.75,1,4.12-.52,4.59-2.49s-.41-4-1.54-5.67c4,5.82,7.53-2.16,11.69-1.9,1,.06,2.12-2.08,3.18-3.21.41-.44.8-.9,1.2-1.35,2.8,2.7,3.85-1.25,5.9-1.6,2.31-.39,4.42-2.51,6.88-.45.85-1.26,1.66-2.54,2.56-3.76,1.53-2.07,5.09-1.48,5.8-5.15.4-2.11,5.18-1.69,5-5.44,0-.28,1.31-.93,2-.9,3.44.12,6.66,0,8.95-3.26.38-.55,2.14-.28,3.24-.16s1.53,2.75,3.09.51a25.7,25.7,0,0,1,3-3,8.65,8.65,0,0,0-1.19-.9c-.67-.35-1.4-.6-2.11-.9.46-.27.89-.72,1.37-.78,1.64-.21,3.47.1,4.87-.56.87-.41-1.65-1.87.17-3.57,3.83-3.56,7.67-7,12.27-9.51,2.81-3.09,5.6-6.2,8.44-9.26,1.21-1.3,1.68-.7,1.8.79a5.27,5.27,0,0,0,.59,1.45,45.42,45.42,0,0,0,5.8-3.88c.35-.3-.84-2.19-1.1-3.39a3.16,3.16,0,0,1,.26-2.26c1.56-2.2,3.9-3.62,5.06-6.42.51-1.2,3.13-2.07,3.91-4.19.25-.67,2.19-.78,2.35-1.41.52-2-1.15-1.91-2.51-2.23-.41-.09-.53-1.39-.78-2.13a8.12,8.12,0,0,1,2.74-.78c.68.05,1.23,1.13,2,1.36,1.49.48,2.61-.93,2-2.54-.18-.48-.88-.75-1.15-1.23-.77-1.37-.93-3.09,1.09-2.89,5.47.54,7.84-3.16,10.36-6.84,2-2.87,3.49-6.33,6.1-8.42,3.1-2.48,2.32-6.41,5.06-9.19,3.39-3.44,5.68-8.32,7.29-13a27.33,27.33,0,0,1,3.07-5.57c1-1.63,7.16-.93,2.62-5.29-.08-.08.29-.87.61-1.08a34.79,34.79,0,0,1,4.08-2.46c3.14-1.52-.19-3,.1-4.53.1-.49.35-1.21.72-1.35,1.34-.53,2.76-.86,4.15-1.26-2.71-1.42,0-2.58.3-3.76.2-.77,1.29-1.26,1.84-2a9.53,9.53,0,0,0,2-3.08c1.95-7.68,7.5-13.82,8.66-22,1-7.06,4.62-13.66,4.51-21a9.06,9.06,0,0,1,.73-3.08c.82-2.21,2.08-4.31,2.54-6.58a16,16,0,0,0,0-6.75c-.54-2.22,2.91-4.18.15-6.29,2.59-1.83,1.61-4.54,1.61-6.93a26.88,26.88,0,0,0-.7-7.35c-.85-3,1.75-4.44,2.4-6.7a12.77,12.77,0,0,0,0-3.39v-8.5c0-2.83-.4-5.74.12-8.47S765.71,950.74,766.21,948ZM332.36,820.76a5.38,5.38,0,0,1,.54,1.14c0,.14-.35.37-.54.56-.2-.37-.4-.74-.6-1.09Zm-4.85,3.65.6.6a5.33,5.33,0,0,1-1.14.53c-.14,0-.37-.34-.56-.53Zm-51.28,47.36a5.61,5.61,0,0,1,.53,1.14c0,.14-.35.37-.53.56l-.61-1.1ZM677.7,1142.1l-.61-.6.61-1.1c.19.19.56.42.53.56A5.33,5.33,0,0,1,677.7,1142.1Zm70.19-122.93a4.91,4.91,0,0,1-1.29.52,2.61,2.61,0,0,1,1-1.55C747.71,1018.5,748,1019.09,747.89,1019.17Zm4.81-21.79c-4.49,1.27-2.51,7.67-7.07,9a3.26,3.26,0,0,0-.16,2.7c1.79,1.67.87,3.69,1.13,5.53h.76l-.4.15a2.41,2.41,0,0,1,1.18.86c-.36.11-.95.39-1,.28a3.47,3.47,0,0,1-.44-1c-1.46.53-2.45,1.14-3.49,1.4-1.29.31-1.92.39-.85,1.8a4.11,4.11,0,0,0,4,1.66c-.5,1.79-1,3.09-1.48,4.38-.27.73-.22,1.77-.73,2.21-6.43,5.68-7,7.4-7.92,15.13a39.55,39.55,0,0,1-3.91,11.89c-1.23,2.57-.55,6.24-4,7.76-.24.1-.09,2,.41,2.74,1.72,2.44,1.2,3.46-1.74,3.65-.2,0-.76,2.23-.35,2.7,1.35,1.52,1.47,2.12-.78,2.3-.31,0-.55.89-.81,1.37,2.72.22,3.71,1.57.9,2.85s.47,5.43-3.18,5.92c-.24,1.21.79,2.91-1.31,3.4a16.2,16.2,0,0,0-3.8,1c-.56.3-1.13,2-.88,2.22,1.61,1.71.93,2.94-.52,4.15-5.31,4.4-8.77,10.27-12.43,15.94a42.08,42.08,0,0,0-4.57,9.86c-.19.57,1.68,2.5,1.4,4.25l.32.78c.16-.26.35-.52.48-.78.4.9.8,1.8,1.18,2.69a11.24,11.24,0,0,0-1.18-.66c.64,1.86.42,2.4.19,2.93a24.11,24.11,0,0,1-.91-3.24,5.84,5.84,0,0,0-4.42,0c-2.93.74-5.09,1.36-3.37,5.41.56,1.32-1.46,3.92-2.66,5.68-.45.65-2,.91-2.94.76-1.51-.23-2.94-1.31-4.4-1.29-.6,0-.94,2.43-1.83,2.86-1.14.54-2.8-.1-4.08.29a6.62,6.62,0,0,0-3.19,2.23c-.39.54.31,1.84.43,2.8a8.8,8.8,0,0,1-.12,1.69c-3.86-.31-4.08,3.22-5.06,5.38-1.31,2.87-5.38-.5-5.87,3.12l1.41,1.14-1.41.56-1.7,1.7c-.81,3-3,3.47-5.74,3.46-1.69,0-1.68.23-3,4A2,2,0,0,1,652,1166c-1.7.69-3.52,1.11-5.17,1.88-2,.94,1.17,4.4-2,4.75-3.84.42-.17,2-.59,2.79-2.25,3.88-5.22,5.1-9.8,3.14-2-.86-2.91-.65-4.18.68-.95,1-1.18,1.19.38,2.06,2.69,1.49,2.44,2,.32,3.33a11.09,11.09,0,0,1-7,1.67c-2.93-.19-4.67,1.11-5,4.12a23.83,23.83,0,0,1-.51,2.34c-5.31-1.39-6.38,6-11.36,5.52-.83-.07-2,.92-2.62,1.72-1.84,2.29-4.56,2.65-6.9,3.85s-4.31,2.78-7.34,3c-2.44.2-5.23,3.49-7,2.88a24.34,24.34,0,0,0-2.7-.75,248.61,248.61,0,0,1-71.21,15.15,4,4,0,0,0-.41.23c-3.27,2.26-7.56-1.09-10,2.7-4.44-.49-8.67.49-12.9,1.68a59.19,59.19,0,0,1-17.15,1.82c-2,0-4,1.32-6.1,1.52s-5.07.65-6.49-.47c-2.55-2-3.6,1.54-5.74.66s-5.05-1.82-6.48-.91c-2.92,1.85-4.61.52-6.66-.9-3.39,2.83-7.55-2.28-10.92,1.06-.21.21-.79.12-1.17,0-4.17-.77-7.89-3.25-12.69-1.36-2.3.91-6.13-.14-8.44-1.61-4.43-2.81-9.54-.81-14.08-3.07-3.94-1.95-8.73-2.12-12.93-3.64-8.15-2.94-16.68-4.36-24.7-8.13-7.61-3.57-15-7.53-22.64-11A98.89,98.89,0,0,1,312,1192.74c-6.07-4.48-12.72-8.11-18.53-12.93a46.59,46.59,0,0,0-5.3-3.6c-.88-.54-2.33-.55-2.83-1.27-4.91-7.08-10.45-13.47-18-17.88-1.9-6.78-8-10.28-11.92-15.49a171.65,171.65,0,0,1-18.64-30.49c-2.85-6.17-5.62-12.4-8.35-18.63-2.1-4.78-2.94-10.13-4.1-15.29-1.28-5.72-1.7-11.73-3.69-17.18a22.51,22.51,0,0,1-1.42-7.89c0-11.89.09-23.79-.11-35.68-.05-2.94,1.36-6.16-1-8.91a1.2,1.2,0,0,1,0-1.14c2.66-1.83,2-4.92,3-7.27,2.07-4.86,1.48-10,2.72-15s2.86-9.74,4.21-14.52c1.2-4.22,1.68-8.75,3.74-12.86,3.15-6.32,5.66-12.94,8.77-19.32,2.38-4.87,4.74-9.91,6.92-15,1.51-3.49,2.88-7,6-9.38,2.39-1.77,1.26-4.88,3.39-7.21,4.48-4.89,7.87-10.78,11.59-16.35a30,30,0,0,0,3.3-6.27c.37-1,.74-3-1.61-3,1.17-4.81,1.16-4.67,5.72-3.74,1,.21,2.87-.41,3.28-1.2.79-1.55.85-3.49,1.21-5.26-.57-.7-1.74-1.84-1.61-2,1.69-2.3,3-5.33,6.71-4.78.86-4.38,2.43-5.94,6.81-6.81a2.62,2.62,0,0,1,1-1.54c.11.36.39,1,.29,1a4.57,4.57,0,0,1-1.29.51v1.7c.84,0,2.32.27,2.45,0,1.53-3.68,5.11-5.56,8-7.41a50.38,50.38,0,0,0,9.87-8.7c5.95-6.58,13.52-11,20.41-16.29,7.25-5.61,15.29-10.07,22.24-16,.14-.12,0-.55,0-.83-1.23.38-2.45.81-3.7,1.13-1,.24-2,.37-2.95.54,3.14-4.27,3.88-4.16,6.65-1.67,5,.56,8.57-2.61,12.44-4.84a219.59,219.59,0,0,1,28.22-14c7.81-3.09,15.59-6.18,23.56-8.82,10.05-3.33,20-7,30.65-8.13,2.07-.21,4.49-.56,6-1.77,2-1.63,4-1.65,6.2-1.55,3.61.18,7.12,0,10.07-2.37,2.8-2.25,6-.91,8.92-.95,4.16-.05,8.16-.11,11.72-2.61.63-.44,1.83-1.07,2.12-.83,4.93,4.11,11.12.27,16.68,3,3.9,1.89,9.46.2,14.27.43,2.92.13,6.23-1.4,8.7,1.6.22.27,1.14.19,1.64,0,2.67-1,5-1.57,8.05-.19,2.35,1.07,5.62-.1,8.4.28a129.18,129.18,0,0,1,20.28,4.35c.75.23,1.88.9,2.21.62,5-4.18,7.81-.54,11.31,2.46,1.86,1.59,4.79,2.21,7.34,2.64,6.86,1.14,13.07,3.71,19.4,6.58,4.66,2.11,9.47,4.42,14.68,5.71a26.91,26.91,0,0,1,9.16,4.59c7,5.2,15.4,8.28,22.28,13.79,1.7,1.36,3.47,2.64,5.1,4.08s2.63,3.62,4.27,4c3.51.83,5.29,3.57,7.82,5.49,2.78,2.1,5.81,3.87,8.51,6,1.34,1.08,2,3,3.28,4.14A135.29,135.29,0,0,1,712,860.53c5.93,9.33,12.57,18.4,17,28.59s8.69,20.29,10.88,31.2c.24,1.24,1.26,2.32,1.62,3.56a46.35,46.35,0,0,1,1.93,7.76c.69,5.89.54,12,3,17.67,1,2.38.25,5.59.15,8.42-.07,2-.08,3.92,1.9,5.18,1.47.94,1.57,1.92.06,3-2.24,1.62-1.85,2.9-.54,5.44,1.19,2.33.82,6.43-.53,8.81s2.87,3.69.59,4.7c-3.12,1.39,1,2.89-.59,4.51-1.06,1.06-.68,3.61-.85,5.5-.43,4.58,1.77,1.33,3,1a5.32,5.32,0,0,1,1.69,0,4.4,4.4,0,0,1,1.54.37C753,996.34,752.86,997.33,752.7,997.38Z" transform="translate(-186.91 -733.48)" fill="#ffd943"/><path d="M348.52,811.32l-1,.8c.27-.39.5-.7.75-1Z" transform="translate(-186.91 -733.48)" fill="#ffd943"/><path d="M347.77,810.56c.12.13.25.25.38.38-.86.85-1.17.7-1.14.64A7.3,7.3,0,0,1,347.77,810.56Z" transform="translate(-186.91 -733.48)" fill="#ffd943"/><path d="M268.57,882.73l-1,.8c.3-.41.54-.72.77-1Z" transform="translate(-186.91 -733.48)" fill="#ffd943"/><path d="M267.81,882l.38.38c-.86.85-1.16.7-1.13.64A7.43,7.43,0,0,1,267.81,882Z" transform="translate(-186.91 -733.48)" fill="#ffd943"/><path d="M195.13,1088.22c.45-.87.79-1.55,1.14-2.23a14,14,0,0,1,.79,3,6,6,0,0,1-.79,2.13C195.89,1090.14,195.52,1089.19,195.13,1088.22Z" transform="translate(-186.91 -733.48)" fill="#ffd943"/><path d="M193.72,1079.19c-2.33-1.71-2.33-3.39,0-5.1Z" transform="translate(-186.91 -733.48)" fill="#ffd943"/><path d="M669.1,1169.3l.79,1c-.36.11-.95.39-1,.28a4.65,4.65,0,0,1-.52-1.29Z" transform="translate(-186.91 -733.48)" fill="#ffd943"/><path d="M691.06,1150.36l-.6-.61a5.33,5.33,0,0,1,1.14-.53c.14,0,.37.34.56.53Z" transform="translate(-186.91 -733.48)" fill="#ffd943"/><path d="M717.92,1116l.61-1.09c.19.19.56.42.53.56a5.33,5.33,0,0,1-.53,1.14Z" transform="translate(-186.91 -733.48)" fill="#ffd943"/><path d="M727.88,1098.75a5.45,5.45,0,0,1,1.15-.54c.14,0,.37.35.56.54a6,6,0,0,1-1.15.53C728.3,1099.31,728.07,1098.93,727.88,1098.75Z" transform="translate(-186.91 -733.48)" fill="#ffd943"/><path d="M197.83,1094.36c-.19-.2-.56-.48-.52-.54a8.19,8.19,0,0,1,.75-1l.76.76Z" transform="translate(-186.91 -733.48)" fill="#ffd943"/><path d="M661.54,1155.7v1.7a4.76,4.76,0,0,1-1.65,0,6.29,6.29,0,0,1-1.46-1.1,8.13,8.13,0,0,1,1.44-.54A10.32,10.32,0,0,1,661.54,1155.7Z" transform="translate(-186.91 -733.48)" fill="#ffd943"/><path d="M684.46,1134l-2.24-.93c.49-.37.93-.92,1.48-1.06.39-.11.92.33,1.39.52C684.83,1133.08,684.57,1133.68,684.46,1134Z" transform="translate(-186.91 -733.48)" fill="#ffd943"/><path d="M718.69,1081.56c1.5-.34,2.3-.78,2.89-.58s.81,1,1.2,1.61a6.94,6.94,0,0,1-1.58,0A20.11,20.11,0,0,1,718.69,1081.56Z" transform="translate(-186.91 -733.48)" fill="#ffd943"/><path d="M663.24,1154v1.7h-1.7Z" transform="translate(-186.91 -733.48)" fill="#ffd943"/><path d="M280.48,869.31l1-.79c.1.36.38,1,.28,1a4.91,4.91,0,0,1-1.29.52Z" transform="translate(-186.91 -733.48)" fill="#ffd943"/><path d="M284.59,866.53c-.2-.2-.56-.48-.52-.54a7.43,7.43,0,0,1,.75-1l.76.75Z" transform="translate(-186.91 -733.48)" fill="#ffd943"/><path d="M285.58,863.27h1.7l-1.7,1.7Z" transform="translate(-186.91 -733.48)" fill="#ffd943"/><path d="M287.28,863.27l1.7-1.7Z" transform="translate(-186.91 -733.48)" fill="#ffd943"/><path d="M289,861.57l1.71-1.7Z" transform="translate(-186.91 -733.48)" fill="#ffd943"/><path d="M290.69,859.87l1.7-1.71Z" transform="translate(-186.91 -733.48)" fill="#ffd943"/></svg>