<svg xmlns="http://www.w3.org/2000/svg" width="60.78" height="60.78" viewBox="0 0 60.78 60.78"><path d="M836.47,498.13a28.89,28.89,0,1,1,28.89-28.89A28.91,28.91,0,0,1,836.47,498.13Z" transform="translate(-806.09 -438.85)" fill="#fff"/><path d="M836.47,441.85a27.39,27.39,0,1,1-27.38,27.39,27.39,27.39,0,0,1,27.38-27.39m0-3a30.39,30.39,0,1,0,30.39,30.39,30.43,30.43,0,0,0-30.39-30.39Z" transform="translate(-806.09 -438.85)" fill="#fff"/><path d="M836.47,441.85a27.39,27.39,0,1,0,27.39,27.39A27.39,27.39,0,0,0,836.47,441.85Z" transform="translate(-806.09 -438.85)" fill="#9bccca"/><path d="M832.15,460.7a3.53,3.53,0,0,1-.56-2.71,4.7,4.7,0,0,1,2.15-3,5.2,5.2,0,0,0,1.87-3.73c0-.67-1-.61-1,0a3.77,3.77,0,0,1-1.43,2.93,6.12,6.12,0,0,0-2.56,3.65,4.51,4.51,0,0,0,.7,3.47c1.73,2.61,3.4,4.91,3.4,4.91l.82-.59s-.42-.57-1-1.47S833,462,832.15,460.7Z" transform="translate(-806.09 -438.85)" fill="#7f726a"/><path d="M845.74,472.5a7.79,7.79,0,0,1-3.55,10.43h0a7.79,7.79,0,0,1-10.44-3.54l-4.54-9.21a7.8,7.8,0,0,1,3.55-10.44h0a7.79,7.79,0,0,1,10.44,3.54Z" transform="translate(-806.09 -438.85)" fill="#fff"/><polygon points="35.33 24.89 28.52 28.24 24.83 20.76 24.55 20.95 28.22 28.39 21.35 31.78 21.5 32.08 35.48 25.19 35.33 24.89" fill="#9bccca"/><path d="M830.64,459.8a7.79,7.79,0,0,0-3.43,10.37l.23.46,6.86-3.39Z" transform="translate(-806.09 -438.85)" fill="#f49c0b"/><path d="M831.35,462.85a.83.83,0,0,1,.37-1.11h0a.83.83,0,0,1,1.11.38l1.24,2.5a.83.83,0,0,1-.38,1.11h0a.83.83,0,0,1-1.11-.38Z" transform="translate(-806.09 -438.85)" fill="#7f726a"/></svg>