<svg xmlns="http://www.w3.org/2000/svg" xmlns:xlink="http://www.w3.org/1999/xlink" width="60.78" height="60.78" viewBox="0 0 60.78 60.78"><defs><clipPath id="a" transform="translate(-728.39 -438.37)"><circle cx="758.78" cy="468.76" r="27.39" fill="none"/></clipPath><clipPath id="b" transform="translate(-728.39 -438.37)"><path d="M765.9,480.76c0,2.19,2.57,2.84,3.89,3.17,4.16,1.1,12.49,3.23,12.49,3.23a6.7,6.7,0,0,1,3.89,3.62v5.37H731.39v-5.37a6.53,6.53,0,0,1,3.89-3.62s8.33-2.13,12.49-3.23c1.31-.33,3.89-1,3.89-3.17v-6H765.9Z" fill="none"/></clipPath></defs><path d="M758.78,497.65a28.89,28.89,0,1,1,28.89-28.89A28.92,28.92,0,0,1,758.78,497.65Z" transform="translate(-728.39 -438.37)" fill="#fff"/><path d="M758.78,441.37a27.39,27.39,0,1,1-27.39,27.39,27.39,27.39,0,0,1,27.39-27.39m0-3a30.39,30.39,0,1,0,30.39,30.39,30.42,30.42,0,0,0-30.39-30.39Z" transform="translate(-728.39 -438.37)" fill="#fff"/><circle cx="30.39" cy="30.39" r="27.39" fill="#e2aa60"/><g clip-path="url(#a)"><path d="M765.9,480.76c0,2.19,2.57,2.84,3.89,3.17,4.16,1.1,12.49,3.23,12.49,3.23a6.7,6.7,0,0,1,3.89,3.62v5.37H731.39v-5.37a6.53,6.53,0,0,1,3.89-3.62s8.33-2.13,12.49-3.23c1.31-.33,3.89-1,3.89-3.17v-6H765.9Z" transform="translate(-728.39 -438.37)" fill="#e6c19c"/><g clip-path="url(#b)"><path d="M758.89,447.4H759c1.81,0,4.49.11,6.24,1.09a9.47,9.47,0,0,1,4.66,6.63c1.31,7.5-1.15,19.39-3.45,23.23-2.19,3.67-5.37,5-7.4,5.14h-.33c-2-.11-5.2-1.47-7.39-5.14-2.3-3.84-4.77-15.73-3.45-23.23a9.49,9.49,0,0,1,4.65-6.63c1.76-1,4.44-1.09,6.25-1.09h.11Z" transform="translate(-728.39 -438.37)" fill="#d4b08c"/></g><path d="M758.56,450.14c10.46,0,11.34,7.55,11.39,8.27.61,6.52-1.64,15.39-3.72,18.46a10,10,0,0,1-7.4,4.54h-.27a10.29,10.29,0,0,1-7.45-4.6c-2.08-3.07-4.33-11.94-3.72-18.51C747.44,457.64,748.1,450.14,758.56,450.14Z" transform="translate(-728.39 -438.37)" fill="#f2cea5"/></g><circle cx="17.39" cy="39.78" r="9" fill="#93b658"/><polygon points="21.39 38.78 18.39 38.78 18.39 35.78 16.39 35.78 16.39 38.78 13.39 38.78 13.39 40.78 16.39 40.78 16.39 43.78 18.39 43.78 18.39 40.78 21.39 40.78 21.39 38.78" fill="#f5eee5"/></svg>