<svg xmlns="http://www.w3.org/2000/svg" width="80.78" height="56.36" viewBox="0 0 80.78 56.36"><path d="M378.54,88.42a4,4,0,0,1-2.11-.52,2.69,2.69,0,0,1-1.23-2.73,6.31,6.31,0,0,1,.86-2.3l.78-1.26a10.66,10.66,0,0,1-3.17-.83l-.48-.19-.12-.52a6.15,6.15,0,0,0-2.41-3.2,5.47,5.47,0,0,0-1.3-.54L368,75.94l.78-1.13a6.58,6.58,0,0,0,.77-1.66,7,7,0,0,1-1.09,1.53,6.63,6.63,0,0,0-.67.88l-.28.47-.54,0-.52,0a10.07,10.07,0,0,1,3.2.57,4.71,4.71,0,0,1,2.82,2.55,6,6,0,0,1,.31,1.12,2,2,0,0,0,.31.89l.92,1.11-1.36.48a13.48,13.48,0,0,1-2.64.56,75.6,75.6,0,0,1-8.24.35h-.21a32.82,32.82,0,0,1-9.38-1.58,26.87,26.87,0,0,1-6.36-3.43,11.14,11.14,0,0,0-2.53.73l-.59.29a5.86,5.86,0,0,1-2.64.82,3.64,3.64,0,0,1-2.74-1.36,4,4,0,0,1-1-3.75,4.29,4.29,0,0,1,2.95-2.85,5.49,5.49,0,0,1,1.52-.2,11.28,11.28,0,0,1,3.27.57,35.66,35.66,0,0,1,0-6c.32-2.15,1.56-6.92,4-9.59a17.79,17.79,0,0,1,9.2-4.86,8.77,8.77,0,0,1,1.75-.15,56.34,56.34,0,0,1,8.67,1.12,46.49,46.49,0,0,0,6.31.88,3.31,3.31,0,0,0,.58,0c-.08-.51-1-1.87-4.83-5.13l-.41-.34a18,18,0,0,1-3.9-4.17,2.65,2.65,0,0,1,2.38-4,3.4,3.4,0,0,1,1.08.18c1.86.61,4.25,1.49,7.08,2.63.58.23,1.23.54,1.89.88a41.38,41.38,0,0,1-3.85-6.53,3.13,3.13,0,0,1,.1-2.93,2,2,0,0,1,1.73-.83,4.72,4.72,0,0,1,2.4.82c2.12,1.35,6.08,3.85,7.39,8.14a18.26,18.26,0,0,1,.94,5.77c.77.83,2.9,3.13,4.47,4.88s3.89,4.76,3,7.65a6.11,6.11,0,0,1-2.34,3.25l.51-.17a10.13,10.13,0,0,1,3-.5,6.15,6.15,0,0,1,2.54.53,1.56,1.56,0,0,0,.15-.92,2.1,2.1,0,0,0-.3-.22,3.06,3.06,0,0,1-.84-.76,2.11,2.11,0,0,1-.34-1.59,2,2,0,0,1,1.7-1.7,4.33,4.33,0,0,1,.24-1.33,2.53,2.53,0,0,1,1.66-1.69,1.61,1.61,0,0,1,.44-.06,3.83,3.83,0,0,1,1.07-1.6,2.18,2.18,0,0,1,1.46-.62,2.32,2.32,0,0,1,.38.05,3.42,3.42,0,0,1,.7-.62,2.84,2.84,0,0,1,1.56-.48,2.41,2.41,0,0,1,1,.22,2.77,2.77,0,0,1,1.46,2.73,2.66,2.66,0,0,1,.75-.1,2.53,2.53,0,0,1,1.63.57,2.81,2.81,0,0,1,.51,3.48,3.91,3.91,0,0,1-.43.61,2,2,0,0,1,.76.39,2.39,2.39,0,0,1,.22.23,3.14,3.14,0,0,1,.68-.07h.24a2.65,2.65,0,0,1,2.2,1.4,2.81,2.81,0,0,1-.92,3.4,4.25,4.25,0,0,1-1.31.66,2,2,0,0,1-.19,1,2.51,2.51,0,0,1-2.09,1.3l-.28,0a3.3,3.3,0,0,1-1-.15,2.33,2.33,0,0,1-1.58,1,2.55,2.55,0,0,1-.39,0,3.14,3.14,0,0,1-1.15-.22,2.18,2.18,0,0,1-1,.77,3,3,0,0,1-1,.16,2.66,2.66,0,0,1-1-.18,5.6,5.6,0,0,1-1.15,4.57A27.31,27.31,0,0,1,394.32,82c-.63.4-1.25.82-1.87,1.24a39.13,39.13,0,0,1-4.1,2.53,23.59,23.59,0,0,1-9.29,2.68Zm10.51-22.36a63.52,63.52,0,0,1-6.16,2.2,3.54,3.54,0,0,0-2.36,2.41c-.37,1-.28,2.07,1.24,4.2l.1-.14c.27-.35.53-.71.78-1.07s.62-.87.92-1.31c.6-.87,1.22-1.77,1.89-2.63l.26-.33c.28-.35.57-.7.87-1A16.73,16.73,0,0,1,389,66.14l.16-.12Z" transform="translate(-335.25 -33.06)" fill="#fff"/><path d="M375.94,35.06a3.7,3.7,0,0,1,1.87.67c2.43,1.54,5.81,3.8,7,7.59a15.06,15.06,0,0,1,.86,5.83s2.81,3,4.75,5.18,3.46,4.54,2.81,6.7-2.41,3.22-4.54,4.11-4.53,1.72-6,2.16a4.53,4.53,0,0,0-3,3c-.61,1.64-.16,3.28,2.19,6.2l.7-.92.2-.27c.26-.36.53-.72.79-1.09.92-1.3,1.8-2.64,2.78-3.91l.25-.32q.4-.51.84-1a15.15,15.15,0,0,1,2.23-2.08l.32-.22a9.69,9.69,0,0,1,2.73-1.36,9.2,9.2,0,0,1,2.68-.46,4.85,4.85,0,0,1,3,.94c.65-1.17,1.07-2.44.41-3.06-.32-.3-.76-.47-1-.83a1.15,1.15,0,0,1,.28-1.56,1.07,1.07,0,0,1,.6-.17,1.12,1.12,0,0,1,.95.49,3.37,3.37,0,0,1-.1-2.46,1.56,1.56,0,0,1,1-1.06l.18,0a.85.85,0,0,1,.79.51,2.87,2.87,0,0,1,.94-2.36,1.27,1.27,0,0,1,.8-.37h0a.59.59,0,0,1,.58.59,2.93,2.93,0,0,1,1-1.33,1.82,1.82,0,0,1,1-.31,1.42,1.42,0,0,1,.61.13,1.82,1.82,0,0,1,.82,2.09,3,3,0,0,1-.52,1.06.58.58,0,0,1,.39.7,2.91,2.91,0,0,1,1.32-1,1.87,1.87,0,0,1,.62-.1,1.52,1.52,0,0,1,1,.33,1.83,1.83,0,0,1,.27,2.24,4.26,4.26,0,0,1-1.81,1.57h.13a.87.87,0,0,1,.76.57,2.44,2.44,0,0,1,.6-.11H410a1.15,1.15,0,0,1,.75.23.6.6,0,0,1,.09.83,3.06,3.06,0,0,1,1.46-.43h.17a1.68,1.68,0,0,1,1.38.85,1.83,1.83,0,0,1-.64,2.16,4.4,4.4,0,0,1-2.3.72.88.88,0,0,1,.51,1.24,1.55,1.55,0,0,1-1.28.76H410a2.54,2.54,0,0,1-1.77-.74c.44.61-.2,1.52-.95,1.63l-.24,0a3.52,3.52,0,0,1-1.84-.74,1,1,0,0,1-.67,1.34,2.06,2.06,0,0,1-.65.1,1.39,1.39,0,0,1-.73-.17c-.62-.41-.53-1.22-1.46-1.27h-.09a4.25,4.25,0,0,0-.9.13l.05.06,0,.06,0,0,0,0,.17.22a.91.91,0,0,1,.11.16l.05.06,0,0,0,0h0l0,0,0,0,0,0a.47.47,0,0,1,.05.1,4.42,4.42,0,0,1-.45,5.14,26.53,26.53,0,0,1-7.14,7c-1.95,1.23-3.82,2.67-5.88,3.71A22.51,22.51,0,0,1,379,87.4l-.47,0a3,3,0,0,1-1.58-.37,1.71,1.71,0,0,1-.77-1.76,5.25,5.25,0,0,1,.74-1.91q.42-.72.87-1.41l.18-.27c.21-.32.43-.63.65-.94a12.69,12.69,0,0,1-4.58-.9A7.13,7.13,0,0,0,371.18,76a6.42,6.42,0,0,0-1.54-.65,7.33,7.33,0,0,0,1.18-3.28c.18-2.65-1.77-5-3.76-6.46a.4.4,0,0,0-.22-.08.45.45,0,0,0-.3.75A7.23,7.23,0,0,1,369,71.62c-.05,1.54-1.38,2.34-2,3.44a6.51,6.51,0,0,0-3.42,1,.56.56,0,0,0,.26,1h0c.69,0,1.38,0,2.06,0a9.77,9.77,0,0,1,3.46.52,3.7,3.7,0,0,1,2.25,2c.33.81.22,1.61.77,2.27a11.44,11.44,0,0,1-2.43.51,72.34,72.34,0,0,1-8.33.35h-.08a32.6,32.6,0,0,1-9-1.54,28.27,28.27,0,0,1-6.41-3.52,12.61,12.61,0,0,0-3.18.87,7.33,7.33,0,0,1-2.82,1,2.6,2.6,0,0,1-2-1c-1.73-1.94-.65-4.32,1.51-5a4.53,4.53,0,0,1,1.24-.16,13,13,0,0,1,4.38,1,45.18,45.18,0,0,1-.08-7.35c.35-2.38,1.59-6.7,3.74-9a16.6,16.6,0,0,1,8.65-4.56,8,8,0,0,1,1.56-.13c4.24,0,11.81,2,15,2,.72,0,1.22-.11,1.4-.36,1.08-1.51-3.41-5.19-5.41-6.91a17.82,17.82,0,0,1-3.67-3.89,1.65,1.65,0,0,1,1.5-2.52,2.44,2.44,0,0,1,.77.13c2.22.73,4.86,1.74,7,2.61a47.5,47.5,0,0,1,5.62,3s-5.39-7.45-6.27-9.94c-.57-1.62-.09-2.42.89-2.42m23.18,31.47a7.79,7.79,0,0,0,.88-1.07l-.15.08a4.31,4.31,0,0,0-.84.9l.11.09m.83.72a8.88,8.88,0,0,0,1.45-.71.93.93,0,0,0-.24,0,1,1,0,0,0-.39.08,3.49,3.49,0,0,0-.93.57l.11.09m-24-34.19v0a3,3,0,0,0-2.55,1.26,4,4,0,0,0-.22,3.83,24.45,24.45,0,0,0,2.11,3.93c-2.35-.92-4.35-1.66-6-2.19a4.5,4.5,0,0,0-1.39-.23,3.64,3.64,0,0,0-3.25,5.48,18.35,18.35,0,0,0,4.12,4.44l.4.35a41.72,41.72,0,0,1,3.55,3.31c-1.33-.15-3.07-.46-4.77-.76a56.81,56.81,0,0,0-8.85-1.14,10.1,10.1,0,0,0-1.95.17,18.32,18.32,0,0,0-9.74,5.17c-2.59,2.85-3.88,7.69-4.24,10.11a29.49,29.49,0,0,0-.12,4.86,11.23,11.23,0,0,0-2.2-.25,6,6,0,0,0-1.81.25,5.23,5.23,0,0,0-3.62,3.53,4.94,4.94,0,0,0,1.19,4.68,4.55,4.55,0,0,0,3.48,1.7,6.74,6.74,0,0,0,3.09-.93l.55-.27a10.22,10.22,0,0,1,1.89-.58,26.61,26.61,0,0,0,6.3,3.33,33.76,33.76,0,0,0,9.59,1.62h.28a75.7,75.7,0,0,0,8.37-.36,13.49,13.49,0,0,0,2.85-.61l1.77-.61a6.18,6.18,0,0,0-.58,1.89,3.67,3.67,0,0,0,1.69,3.7,4.84,4.84,0,0,0,2.64.68l.58,0a24.5,24.5,0,0,0,9.68-2.79A37.8,37.8,0,0,0,393,84c.61-.41,1.22-.82,1.83-1.21a28.37,28.37,0,0,0,7.7-7.52,7,7,0,0,0,1.44-4,4.27,4.27,0,0,0,1.18-.21,3,3,0,0,0,1-.59,4,4,0,0,0,.85.1,4.55,4.55,0,0,0,.53,0,3.31,3.31,0,0,0,1.82-.92,4.07,4.07,0,0,0,.61,0l.36,0a3.5,3.5,0,0,0,2.91-1.86,3.29,3.29,0,0,0,.23-.69,5,5,0,0,0,1-.58,3.79,3.79,0,0,0,1.21-4.64,3.69,3.69,0,0,0-3-1.95h-.52a3.74,3.74,0,0,0-.9-4.41,3.58,3.58,0,0,0-2.1-.8,3.6,3.6,0,0,0-1.95-2.54,3.48,3.48,0,0,0-1.46-.31,3.93,3.93,0,0,0-2.12.64c-.18.13-.35.26-.52.41h0a3.2,3.2,0,0,0-2.13.87,4.8,4.8,0,0,0-1.1,1.44,3.54,3.54,0,0,0-2.34,2.33,5.4,5.4,0,0,0-.23.9,2.59,2.59,0,0,0-.46.26,3.1,3.1,0,0,0-1.3,2,3.16,3.16,0,0,0,.39,2.16l-.61,0-.73,0a7.16,7.16,0,0,0,.55-1.32c1-3.37-1.37-6.53-3.24-8.61-1.41-1.57-3.28-3.6-4.21-4.6a19.9,19.9,0,0,0-1-5.67c-1.42-4.65-5.58-7.28-7.81-8.69a5.67,5.67,0,0,0-2.94-1Zm5.89,40c-.68-1.24-.49-1.73-.37-2.07a2.54,2.54,0,0,1,1.7-1.8c.56-.16,1.2-.36,1.89-.59a.76.76,0,0,0-.11.14l-.27.34c-.68.88-1.31,1.79-1.92,2.67-.3.44-.61.87-.91,1.3Z" transform="translate(-335.25 -33.06)" fill="#fff"/><path d="M390.39,54.33c-1.94-2.16-4.75-5.18-4.75-5.18a15.06,15.06,0,0,0-.86-5.83c-1.16-3.79-4.54-6-7-7.59-2-1.28-3.63-.73-2.76,1.75s6.27,9.94,6.27,9.94a47.5,47.5,0,0,0-5.62-3c-2.16-.87-4.8-1.88-7-2.61-1.76-.57-3.08.9-2.27,2.39a17.82,17.82,0,0,0,3.67,3.89c2,1.72,6.49,5.4,5.41,6.91s-13.61-2.37-17.94-1.51A16.6,16.6,0,0,0,348.9,58c-2.15,2.35-3.39,6.67-3.74,9a45.18,45.18,0,0,0,.08,7.35s-3.46-1.52-5.62-.87-3.24,3-1.51,5,3.35.67,4.81,0a12.61,12.61,0,0,1,3.18-.87,28.27,28.27,0,0,0,6.41,3.52,32.38,32.38,0,0,0,9.09,1.54,72.34,72.34,0,0,0,8.33-.35,11.44,11.44,0,0,0,2.43-.51c-.55-.66-.44-1.46-.77-2.27a3.7,3.7,0,0,0-2.25-2,14.26,14.26,0,0,0-5.52-.47.56.56,0,0,1-.28-1,6.51,6.51,0,0,1,3.42-1c.63-1.1,2-1.9,2-3.44a7.23,7.23,0,0,0-2.43-5.32c-.34-.33.12-1,.52-.67,2,1.47,3.94,3.81,3.76,6.46a7.33,7.33,0,0,1-1.18,3.28,6.42,6.42,0,0,1,1.54.65,7.13,7.13,0,0,1,2.87,3.84c2.26.92,3,.69,4.89.94,1.27.16,5.94-.54,3.24-3.78s-3.24-5-2.59-6.7a4.53,4.53,0,0,1,3-3c1.51-.44,3.92-1.28,6-2.16s3.89-2,4.54-4.11S392.34,56.49,390.39,54.33Z" transform="translate(-335.25 -33.06)" fill="#e2dad3"/><path d="M368,62c-10.26,3-16.77,11.65-14.7,19.39a31,31,0,0,0,8.31,1.32,72.34,72.34,0,0,0,8.33-.35,11.44,11.44,0,0,0,2.43-.51c-.55-.66-.44-1.46-.77-2.27a3.7,3.7,0,0,0-2.25-2,14.26,14.26,0,0,0-5.52-.47.56.56,0,0,1-.28-1,6.51,6.51,0,0,1,3.42-1c.63-1.1,2-1.9,2-3.44a7.23,7.23,0,0,0-2.43-5.32c-.34-.33.12-1,.52-.67,2,1.47,3.94,3.81,3.76,6.46a7.33,7.33,0,0,1-1.18,3.28,6.42,6.42,0,0,1,1.54.65,7.13,7.13,0,0,1,2.87,3.84c2.26.92,3,.69,4.89.94,1.27.16,5.94-.54,3.24-3.78s-3.24-5-2.59-6.7a4.53,4.53,0,0,1,3-3c1.3-.38,3.27-1.06,5.15-1.8C383.41,61.31,375.73,59.74,368,62Z" transform="translate(-335.25 -33.06)" fill="#efe9e6" opacity="0.54"/><path d="M378.49,56.27a3.9,3.9,0,1,0,3.9,3.9A3.93,3.93,0,0,0,378.49,56.27Z" transform="translate(-335.25 -33.06)" fill="#ffb39a" fill-rule="evenodd"/><path d="M386.66,58.37a1.35,1.35,0,0,1-1.25,1.36,1.4,1.4,0,0,1-1.35-1.27,1.42,1.42,0,0,1,1.25-1.38A1.45,1.45,0,0,1,386.66,58.37Z" transform="translate(-335.25 -33.06)" fill="#b48148" fill-rule="evenodd"/><path d="M397,68.77c.29.08.56-.19.74-.44a13.6,13.6,0,0,1,2.1-2.79c.76-.54,1.19.15,1.94.09a1.84,1.84,0,0,0,1.12-.79,1,1,0,0,0-.3-1.47,3.11,3.11,0,0,0,2.08-.73c.53-.54.46-1.65-.26-1.86a2.49,2.49,0,0,0,2-.64,1.53,1.53,0,0,0,.54-1.38.88.88,0,0,0-1.16-.67,4.2,4.2,0,0,0,1.35-2,1.82,1.82,0,0,0-.82-2.09,1.68,1.68,0,0,0-1.62.18,2.93,2.93,0,0,0-1,1.33.59.59,0,0,0-.58-.59,1.22,1.22,0,0,0-.83.37,2.88,2.88,0,0,0-.91,2.64c.09-.49-.52-.89-1-.76a1.56,1.56,0,0,0-1,1.06,3.37,3.37,0,0,0,.1,2.46A1.11,1.11,0,1,0,397.66,62c.26.36.7.53,1,.83,1.22,1.15-1.23,4.53-2.09,5.37-.19.2,0,.31,0,.59S396.74,68.7,397,68.77Z" transform="translate(-335.25 -33.06)" fill="#92c021"/><path d="M397.44,68.66c.18.24.55.19.85.11a13.76,13.76,0,0,1,3.38-.9c.93,0,.84.86,1.46,1.27a1.83,1.83,0,0,0,1.38.07,1,1,0,0,0,.67-1.34,3.14,3.14,0,0,0,2.08.72c.75-.11,1.39-1,.95-1.63a2.51,2.51,0,0,0,2,.73,1.55,1.55,0,0,0,1.28-.76.88.88,0,0,0-.51-1.24,4.4,4.4,0,0,0,2.3-.72,1.83,1.83,0,0,0,.64-2.16A1.68,1.68,0,0,0,412.5,62a2.87,2.87,0,0,0-1.63.42.6.6,0,0,0-.09-.83,1.23,1.23,0,0,0-.88-.22,2.9,2.9,0,0,0-2.35,1.51.79.79,0,0,0-.31-1.22,1.58,1.58,0,0,0-1.43.24,3.28,3.28,0,0,0-1.44,2,1.11,1.11,0,1,0-2.21-.15,7.17,7.17,0,0,0,.29,1.28c.25,1.66-3.76,2.8-5,2.93-.27,0-.21.23-.37.45S397.27,68.43,397.44,68.66Z" transform="translate(-335.25 -33.06)" fill="#92c021"/><path d="M397.2,69c.27.16.59,0,.83-.23a13.42,13.42,0,0,1,2.74-2.17c.87-.34,1.12.44,1.85.57a1.82,1.82,0,0,0,1.29-.48,1,1,0,0,0,.08-1.5,3.18,3.18,0,0,0,2.2-.17c.64-.4.86-1.48.22-1.88A2.44,2.44,0,0,0,408.5,63a1.55,1.55,0,0,0,.87-1.2.9.9,0,0,0-1-.94,4.26,4.26,0,0,0,1.81-1.57,1.83,1.83,0,0,0-.27-2.24,1.71,1.71,0,0,0-1.61-.23,2.91,2.91,0,0,0-1.32,1,.59.59,0,0,0-.41-.71,1.2,1.2,0,0,0-.9.14,2.9,2.9,0,0,0-1.55,2.33c.21-.46-.28-1-.78-1a1.58,1.58,0,0,0-1.21.79,3.38,3.38,0,0,0-.53,2.4,1.1,1.1,0,1,0-2.08.74,6.57,6.57,0,0,0,.78,1.06c.88,1.42-2.34,4.07-3.38,4.67-.24.14-.11.29-.16.56S397,68.85,397.2,69Z" transform="translate(-335.25 -33.06)" fill="#39a935"/><path d="M397,68.77c.29.08.56-.19.74-.44a13.6,13.6,0,0,1,2.1-2.79c.76-.54,1.19.15,1.94.09a1.84,1.84,0,0,0,1.12-.79,1,1,0,0,0-.3-1.47,3.11,3.11,0,0,0,2.08-.73c.53-.54.46-1.65-.26-1.86a2.49,2.49,0,0,0,2-.64,1.53,1.53,0,0,0,.54-1.38.88.88,0,0,0-1.16-.67,4.2,4.2,0,0,0,1.35-2,1.82,1.82,0,0,0-.82-2.09,1.68,1.68,0,0,0-1.62.18,2.93,2.93,0,0,0-1,1.33.59.59,0,0,0-.58-.59,1.22,1.22,0,0,0-.83.37,2.88,2.88,0,0,0-.91,2.64c.09-.49-.52-.89-1-.76a1.56,1.56,0,0,0-1,1.06,3.37,3.37,0,0,0,.1,2.46A1.11,1.11,0,1,0,397.66,62c.26.36.7.53,1,.83,1.22,1.15-1.23,4.53-2.09,5.37-.19.2,0,.31,0,.59S396.74,68.7,397,68.77Z" transform="translate(-335.25 -33.06)" fill="#92c021"/><path d="M397.44,68.66c.18.24.55.19.85.11a13.76,13.76,0,0,1,3.38-.9c.93,0,.84.86,1.46,1.27a1.83,1.83,0,0,0,1.38.07,1,1,0,0,0,.67-1.34,3.14,3.14,0,0,0,2.08.72c.75-.11,1.39-1,.95-1.63a2.51,2.51,0,0,0,2,.73,1.55,1.55,0,0,0,1.28-.76.88.88,0,0,0-.51-1.24,4.4,4.4,0,0,0,2.3-.72,1.83,1.83,0,0,0,.64-2.16A1.68,1.68,0,0,0,412.5,62a2.87,2.87,0,0,0-1.63.42.6.6,0,0,0-.09-.83,1.23,1.23,0,0,0-.88-.22,2.9,2.9,0,0,0-2.35,1.51.79.79,0,0,0-.31-1.22,1.58,1.58,0,0,0-1.43.24,3.28,3.28,0,0,0-1.44,2,1.11,1.11,0,1,0-2.21-.15,7.17,7.17,0,0,0,.29,1.28c.25,1.66-3.76,2.8-5,2.93-.27,0-.21.23-.37.45S397.27,68.43,397.44,68.66Z" transform="translate(-335.25 -33.06)" fill="#92c021"/><path d="M397.2,69c.27.16.59,0,.83-.23a13.42,13.42,0,0,1,2.74-2.17c.87-.34,1.12.44,1.85.57a1.82,1.82,0,0,0,1.29-.48,1,1,0,0,0,.08-1.5,3.18,3.18,0,0,0,2.2-.17c.64-.4.86-1.48.22-1.88A2.44,2.44,0,0,0,408.5,63a1.55,1.55,0,0,0,.87-1.2.9.9,0,0,0-1-.94,4.26,4.26,0,0,0,1.81-1.57,1.83,1.83,0,0,0-.27-2.24,1.71,1.71,0,0,0-1.61-.23,2.91,2.91,0,0,0-1.32,1,.59.59,0,0,0-.41-.71,1.2,1.2,0,0,0-.9.14,2.9,2.9,0,0,0-1.55,2.33c.21-.46-.28-1-.78-1a1.58,1.58,0,0,0-1.21.79,3.38,3.38,0,0,0-.53,2.4,1.1,1.1,0,1,0-2.08.74,6.57,6.57,0,0,0,.78,1.06c.88,1.42-2.34,4.07-3.38,4.67-.24.14-.11.29-.16.56S397,68.85,397.2,69Z" transform="translate(-335.25 -33.06)" fill="#39a935"/><path d="M400.92,74.12a26.53,26.53,0,0,1-7.14,7c-1.95,1.23-3.82,2.67-5.88,3.71A22.51,22.51,0,0,1,379,87.4a3.5,3.5,0,0,1-2.05-.35,1.71,1.71,0,0,1-.77-1.76,5.25,5.25,0,0,1,.74-1.91q.42-.72.87-1.41l.18-.27c1.4-2.1,3-4.08,4.5-6.1l.2-.27c.26-.36.53-.72.79-1.09.92-1.3,1.8-2.64,2.78-3.91l.25-.32q.4-.51.84-1a15.15,15.15,0,0,1,2.23-2.08l.32-.22a9.69,9.69,0,0,1,2.73-1.36c2-.61,4-.76,5.66.48l.26.21.47.39.11.09.72.62.11.1.05.06.19.17.07.08.19.19.06.07.09.09.07.09h0l.05.06,0,.06,0,0,0,0,.17.22a.91.91,0,0,1,.11.16l.05.06,0,0,0,0h0l0,0,0,0,0,0a.47.47,0,0,1,.05.1A4.42,4.42,0,0,1,400.92,74.12Z" transform="translate(-335.25 -33.06)" fill="#ef8122"/><path d="M390.94,68.44a4,4,0,0,1-1.16-1.16,3.87,3.87,0,0,1-.21-.34l.32-.22a3,3,0,0,0,.18.36,6.44,6.44,0,0,0,.95,1.25A.07.07,0,0,1,390.94,68.44Z" transform="translate(-335.25 -33.06)" fill="#ea601a"/><path d="M392.67,70.6a3.05,3.05,0,0,0,.4.88,5.3,5.3,0,0,0,.56.78,5.55,5.55,0,0,0,1.51,1.22c.24.13.45-.24.21-.37A6,6,0,0,1,393.89,72a4.75,4.75,0,0,1-.57-.69c-.18-.25-.33-.53-.5-.79a.08.08,0,0,0-.15.06Z" transform="translate(-335.25 -33.06)" fill="#ea601a"/><path d="M393.48,78.16a2.77,2.77,0,0,1-.76-.45,1.94,1.94,0,0,1-.5-.73c-.08-.22-.45-.12-.36.1a1.88,1.88,0,0,0,1.57,1.26c.09,0,.14-.14.05-.18Z" transform="translate(-335.25 -33.06)" fill="#ea601a"/><path d="M387.6,73.1a8.29,8.29,0,0,1-1.11-2q-.14-.36-.24-.75l.25-.32a9.15,9.15,0,0,0,.34.92A7.68,7.68,0,0,0,388,72.81.24.24,0,1,1,387.6,73.1Z" transform="translate(-335.25 -33.06)" fill="#ea601a"/><path d="M383.87,77.36a3.92,3.92,0,0,1-1.05-1.1,3.44,3.44,0,0,1-.34-.66l.2-.27a1.11,1.11,0,0,0,.07.16,3.47,3.47,0,0,0,.34.59,3.65,3.65,0,0,0,1,1C384.26,77.17,384.06,77.51,383.87,77.36Z" transform="translate(-335.25 -33.06)" fill="#ea601a"/><path d="M387.79,78.21a3.29,3.29,0,0,1-1.24-1.67c-.07-.2-.39-.12-.32.09a3.32,3.32,0,0,0,1.42,1.83c.16.1.29-.14.14-.25Z" transform="translate(-335.25 -33.06)" fill="#ea601a"/><path d="M379.76,83.29a2,2,0,0,1-1.57-.74,3.27,3.27,0,0,1-.39-.58l.18-.27a2,2,0,0,0,1.78,1.24C380,82.93,380,83.28,379.76,83.29Z" transform="translate(-335.25 -33.06)" fill="#ea601a"/><path d="M382.74,80.71c.22.42.48.82.73,1.22.09.14.32,0,.22-.13-.25-.4-.5-.8-.78-1.19-.08-.1-.24,0-.17.1Z" transform="translate(-335.25 -33.06)" fill="#ea601a"/></svg>