<svg xmlns="http://www.w3.org/2000/svg" width="60.78" height="60.78" viewBox="0 0 60.78 60.78"><path d="M836.47,417.13a28.89,28.89,0,1,1,28.89-28.89A28.91,28.91,0,0,1,836.47,417.13Z" transform="translate(-806.09 -357.85)" fill="#fff"/><path d="M836.47,360.85a27.39,27.39,0,1,1-27.38,27.39,27.39,27.39,0,0,1,27.38-27.39m0-3a30.39,30.39,0,1,0,30.39,30.39,30.42,30.42,0,0,0-30.39-30.39Z" transform="translate(-806.09 -357.85)" fill="#fff"/><path d="M836.47,360.85a27.39,27.39,0,1,0,27.39,27.39A27.38,27.38,0,0,0,836.47,360.85Z" transform="translate(-806.09 -357.85)" fill="#f5eee5"/><path d="M832.15,379.7a3.54,3.54,0,0,1-.56-2.71,4.68,4.68,0,0,1,2.15-3,5.2,5.2,0,0,0,1.87-3.74c0-.67-1-.61-1,0a3.74,3.74,0,0,1-1.43,2.92,6.17,6.17,0,0,0-2.56,3.66,4.49,4.49,0,0,0,.7,3.46c1.73,2.62,3.4,4.91,3.4,4.91l.82-.59s-.42-.57-1-1.46S833,381,832.15,379.7Z" transform="translate(-806.09 -357.85)" fill="#c19672"/><path d="M845.74,391.49a7.8,7.8,0,0,1-3.55,10.44h0a7.8,7.8,0,0,1-10.44-3.55l-4.54-9.21a7.8,7.8,0,0,1,3.55-10.44h0a7.8,7.8,0,0,1,10.44,3.55Z" transform="translate(-806.09 -357.85)" fill="#e6c19c"/><polygon points="35.33 24.89 28.52 28.24 24.83 20.76 24.55 20.95 28.22 28.39 21.35 31.78 21.5 32.08 35.48 25.19 35.33 24.89" fill="#f5eee5"/><path d="M830.64,378.79a7.8,7.8,0,0,0-3.43,10.38l.23.45,6.86-3.38Z" transform="translate(-806.09 -357.85)" fill="#ceaa89"/><path d="M831.35,381.85a.83.83,0,0,1,.37-1.11h0a.82.82,0,0,1,1.11.38l1.24,2.5a.84.84,0,0,1-.38,1.11h0a.83.83,0,0,1-1.11-.38Z" transform="translate(-806.09 -357.85)" fill="#c19672"/></svg>