<svg xmlns="http://www.w3.org/2000/svg" xmlns:xlink="http://www.w3.org/1999/xlink" width="60.78" height="60.78" viewBox="0 0 60.78 60.78"><defs><clipPath id="a"><path d="M694.18,480l3.89,1c4.16,1.1,12.49,3.24,12.49,3.24a6.6,6.6,0,0,1,3.88,3.61v6.46H659.67v-6.46a6.49,6.49,0,0,1,3.89-3.61s8.32-2.14,12.49-3.24l3.89-1v-8.16h14.24Z" fill="none"/></clipPath><clipPath id="c" transform="translate(-656.67 -436.51)"><circle cx="687.06" cy="466.9" r="27.39" fill="none"/></clipPath><clipPath id="e" transform="translate(-656.67 -436.51)"><path d="M694.18,480l3.89,1c4.16,1.1,12.49,3.24,12.49,3.24a6.6,6.6,0,0,1,3.88,3.61v6.46H659.67v-6.46a6.49,6.49,0,0,1,3.89-3.61s8.32-2.14,12.49-3.24l3.89-1v-8.16h14.24Z" fill="none" clip-path="url(#a)"/></clipPath><clipPath id="f" transform="translate(-656.67 -436.51)"><rect x="678.29" y="463.61" width="16.98" height="2.74" fill="none"/></clipPath></defs><path d="M687.06,495.78A28.89,28.89,0,1,1,716,466.9,28.91,28.91,0,0,1,687.06,495.78Z" transform="translate(-656.67 -436.51)" fill="#fff"/><path d="M687.06,439.51a27.39,27.39,0,1,1-27.39,27.39,27.38,27.38,0,0,1,27.39-27.39m0-3a30.39,30.39,0,1,0,30.38,30.39,30.42,30.42,0,0,0-30.38-30.39Z" transform="translate(-656.67 -436.51)" fill="#fff"/><circle cx="30.39" cy="30.39" r="27.39" fill="#c5d39b"/><g clip-path="url(#c)"><path d="M694.18,480l3.89,1c4.16,1.1,12.49,3.24,12.49,3.24a6.6,6.6,0,0,1,3.88,3.61v6.46H659.67v-6.46a6.49,6.49,0,0,1,3.89-3.61s8.32-2.14,12.49-3.24l3.89-1v-8.16h14.24Z" transform="translate(-656.67 -436.51)" fill="#e6c19c"/></g><g clip-path="url(#c)"><g clip-path="url(#e)"><path d="M687.17,445.53h.11c1.8,0,4.49.11,6.24,1.1a9.47,9.47,0,0,1,4.66,6.63c1.31,7.5-1.15,19.39-3.45,23.22-2.2,3.67-5.37,5-7.4,5.15H687c-2-.11-5.2-1.48-7.39-5.15-2.3-3.83-4.77-15.72-3.45-23.22a9.43,9.43,0,0,1,4.65-6.63c1.76-1,4.44-1.1,6.25-1.1h.11Z" transform="translate(-656.67 -436.51)" fill="#d4b08c"/><path d="M659.67,471.28h54.77v23H659.67Zm27.39,17.53c7.39-.11,11.5-8.22,11.5-8.22s-5.48-9.31-11.5-9.31-11.51,9.31-11.51,9.31S679.66,488.92,687.06,488.81Z" transform="translate(-656.67 -436.51)" fill="#93b658"/><path d="M687.06,468.54c-7.18,0-13.64,11.06-13.64,11.06s4.87,9.86,13.64,9.75,13.64-9.75,13.64-9.75S694.23,468.54,687.06,468.54Zm0,18.62c-6.63,0-11.4-7.72-11.4-7.72s5.37-8.71,11.4-8.71,11.39,8.71,11.39,8.71S693.68,487.16,687.06,487.16Z" transform="translate(-656.67 -436.51)" fill="#7c9e3b"/></g><path d="M687,450.46c10.46,0,11.34,7,11.39,7.73.6,6.52-1.64,13.75-3.72,16.81a10.07,10.07,0,0,1-7.4,4.55H687A10,10,0,0,1,679.5,475c-2.08-3.06-4.33-10.29-3.73-16.87C675.83,457.42,676.49,450.46,687,450.46Z" transform="translate(-656.67 -436.51)" fill="#f2cea5"/><path d="M687.11,473.47a7.4,7.4,0,0,1-3.07-.55c-.16,0-.21.22-.16.38a3.17,3.17,0,0,0,3.29,2.36,3.11,3.11,0,0,0,3.23-2.36c.05-.16,0-.38-.17-.38A8.84,8.84,0,0,1,687.11,473.47Z" transform="translate(-656.67 -436.51)" fill="#a3705f"/><g clip-path="url(#f)"><circle cx="35.32" cy="29.29" r="1.1" fill="#291f21"/></g><g clip-path="url(#f)"><circle cx="25.46" cy="29.29" r="1.1" fill="#291f21"/></g><path d="M679.39,463.83a2.79,2.79,0,0,1,2.35-1.32,5.08,5.08,0,0,1,3.56,1.15" transform="translate(-656.67 -436.51)" fill="none" stroke="#cc9872" stroke-width="2"/><path d="M694.62,463.83a2.79,2.79,0,0,0-2.36-1.32c-1.92,0-3.78.61-4.22,2.36s-1,4.76-1,4.76" transform="translate(-656.67 -436.51)" fill="none" stroke="#bb8660" stroke-width="2"/><path d="M698.07,465.14s.38-1.86,1.42-2.41a20.88,20.88,0,0,0,.77-4.54,7.78,7.78,0,0,0-1-4.44,6,6,0,0,0-4.17-2.25,31.86,31.86,0,0,0-5.14,3.56c-.5.55.21,1,.21,1s2.52-3.29,2.69-1.48,5.37,6.36,5.37,6.36v4.21Z" transform="translate(-656.67 -436.51)" fill="#452228"/><path d="M674.18,459.56a17.52,17.52,0,0,0,.66,3.34c.88.38,1.26,2.41,1.26,2.41v-4.38c3.29-.94,7-2.8,9.15-5.65a4.5,4.5,0,0,1-.06,3.34,11.3,11.3,0,0,0,6.41-2c1.65-1.26,3.62-5,3.62-5s-1-4.32-8.22-3.72c-3.07.27-4.54,2.14-9.53,1.64a10,10,0,0,0,1,1.92C676.32,452.44,674.18,455.23,674.18,459.56Z" transform="translate(-656.67 -436.51)" fill="#6b363e"/></g></svg>