<svg xmlns="http://www.w3.org/2000/svg" xmlns:xlink="http://www.w3.org/1999/xlink" width="60.78" height="60.78" viewBox="0 0 60.78 60.78"><defs><clipPath id="a" transform="translate(-728.39 -357.37)"><circle cx="758.78" cy="387.75" r="27.39" fill="none"/></clipPath><clipPath id="b" transform="translate(-728.39 -357.37)"><path d="M765.9,399.75c0,2.19,2.57,2.85,3.89,3.18,4.16,1.09,12.49,3.23,12.49,3.23a6.68,6.68,0,0,1,3.89,3.61v5.37H731.39v-5.37a6.51,6.51,0,0,1,3.89-3.61s8.33-2.14,12.49-3.23c1.31-.33,3.89-1,3.89-3.18v-6H765.9Z" fill="none"/></clipPath></defs><path d="M758.78,416.64a28.89,28.89,0,1,1,28.89-28.89A28.92,28.92,0,0,1,758.78,416.64Z" transform="translate(-728.39 -357.37)" fill="#fff"/><path d="M758.78,360.37a27.39,27.39,0,1,1-27.39,27.38,27.38,27.38,0,0,1,27.39-27.38m0-3a30.39,30.39,0,1,0,30.39,30.38,30.42,30.42,0,0,0-30.39-30.38Z" transform="translate(-728.39 -357.37)" fill="#fff"/><circle cx="30.39" cy="30.39" r="27.39" fill="#f5eee5"/><g clip-path="url(#a)"><path d="M765.9,399.75c0,2.19,2.57,2.85,3.89,3.18,4.16,1.09,12.49,3.23,12.49,3.23a6.68,6.68,0,0,1,3.89,3.61v5.37H731.39v-5.37a6.51,6.51,0,0,1,3.89-3.61s8.33-2.14,12.49-3.23c1.31-.33,3.89-1,3.89-3.18v-6H765.9Z" transform="translate(-728.39 -357.37)" fill="#e6c19c"/><g clip-path="url(#b)"><path d="M758.89,366.39H759c1.81,0,4.49.11,6.24,1.1a9.45,9.45,0,0,1,4.66,6.63c1.31,7.5-1.15,19.39-3.45,23.22-2.19,3.67-5.37,5-7.4,5.15h-.33c-2-.11-5.2-1.48-7.39-5.15-2.3-3.83-4.77-15.72-3.45-23.22a9.47,9.47,0,0,1,4.65-6.63c1.76-1,4.44-1.1,6.25-1.1h.11Z" transform="translate(-728.39 -357.37)" fill="#d4b08c"/></g><path d="M758.56,369.13c10.46,0,11.34,7.56,11.39,8.27.61,6.52-1.64,15.39-3.72,18.46a10,10,0,0,1-7.4,4.55h-.27a10.32,10.32,0,0,1-7.45-4.6c-2.08-3.07-4.33-11.94-3.72-18.52C747.44,376.63,748.1,369.13,758.56,369.13Z" transform="translate(-728.39 -357.37)" fill="#f2cea5"/></g><circle cx="17.39" cy="39.78" r="9" fill="#ceaa89"/><polygon points="21.39 38.78 18.39 38.78 18.39 35.78 16.39 35.78 16.39 38.78 13.39 38.78 13.39 40.78 16.39 40.78 16.39 43.78 18.39 43.78 18.39 40.78 21.39 40.78 21.39 38.78" fill="#f5eee5"/></svg>