<svg xmlns="http://www.w3.org/2000/svg" xmlns:xlink="http://www.w3.org/1999/xlink" width="60.78" height="60.78" viewBox="0 0 60.78 60.78"><defs><clipPath id="a"><path d="M694.18,399l3.89,1c4.16,1.09,12.49,3.23,12.49,3.23a6.62,6.62,0,0,1,3.88,3.62v6.46H659.67v-6.46a6.5,6.5,0,0,1,3.89-3.62s8.32-2.14,12.49-3.23l3.89-1v-8.16h14.24Z" fill="none"/></clipPath><clipPath id="c" transform="translate(-656.67 -355.5)"><circle cx="687.06" cy="385.89" r="27.39" fill="none"/></clipPath><clipPath id="e" transform="translate(-656.67 -355.5)"><path d="M694.18,399l3.89,1c4.16,1.09,12.49,3.23,12.49,3.23a6.62,6.62,0,0,1,3.88,3.62v6.46H659.67v-6.46a6.5,6.5,0,0,1,3.89-3.62s8.32-2.14,12.49-3.23l3.89-1v-8.16h14.24Z" fill="none" clip-path="url(#a)"/></clipPath><clipPath id="f" transform="translate(-656.67 -355.5)"><rect x="678.29" y="382.6" width="16.98" height="2.74" fill="none"/></clipPath></defs><path d="M687.06,414.78A28.89,28.89,0,1,1,716,385.89,28.92,28.92,0,0,1,687.06,414.78Z" transform="translate(-656.67 -355.5)" fill="#fff"/><path d="M687.06,358.5a27.39,27.39,0,1,1-27.39,27.39,27.38,27.38,0,0,1,27.39-27.39m0-3a30.39,30.39,0,1,0,30.38,30.39,30.42,30.42,0,0,0-30.38-30.39Z" transform="translate(-656.67 -355.5)" fill="#fff"/><circle cx="30.39" cy="30.39" r="27.39" fill="#f5eee5"/><g clip-path="url(#c)"><path d="M694.18,399l3.89,1c4.16,1.09,12.49,3.23,12.49,3.23a6.62,6.62,0,0,1,3.88,3.62v6.46H659.67v-6.46a6.5,6.5,0,0,1,3.89-3.62s8.32-2.14,12.49-3.23l3.89-1v-8.16h14.24Z" transform="translate(-656.67 -355.5)" fill="#e6c19c"/></g><g clip-path="url(#c)"><g clip-path="url(#e)"><path d="M687.17,364.53h.11c1.8,0,4.49.11,6.24,1.09a9.47,9.47,0,0,1,4.66,6.63c1.31,7.51-1.15,19.39-3.45,23.23-2.2,3.67-5.37,5-7.4,5.15H687c-2-.11-5.2-1.48-7.39-5.15-2.3-3.84-4.77-15.72-3.45-23.23a9.43,9.43,0,0,1,4.65-6.63c1.76-1,4.44-1.09,6.25-1.09h.11Z" transform="translate(-656.67 -355.5)" fill="#d4b08c"/><path d="M659.67,390.27h54.77v23H659.67Zm27.39,17.53c7.39-.11,11.5-8.21,11.5-8.21s-5.48-9.32-11.5-9.32-11.51,9.32-11.51,9.32S679.66,407.91,687.06,407.8Z" transform="translate(-656.67 -355.5)" fill="#ceaa89"/><path d="M687.06,387.53c-7.18,0-13.64,11.07-13.64,11.07s4.87,9.86,13.64,9.75,13.64-9.75,13.64-9.75S694.23,387.53,687.06,387.53Zm0,18.63c-6.63,0-11.4-7.73-11.4-7.73s5.37-8.7,11.4-8.7,11.39,8.7,11.39,8.7S693.68,406.16,687.06,406.16Z" transform="translate(-656.67 -355.5)" fill="#c19672"/></g><path d="M687,369.46c10.46,0,11.34,7,11.39,7.72.6,6.52-1.64,13.75-3.72,16.82a10,10,0,0,1-7.4,4.54H687A10,10,0,0,1,679.5,394c-2.08-3.07-4.33-10.3-3.73-16.87C675.83,376.41,676.49,369.46,687,369.46Z" transform="translate(-656.67 -355.5)" fill="#f2cea5"/><path d="M687.11,392.46a7.52,7.52,0,0,1-3.07-.54c-.16,0-.21.22-.16.38a3.17,3.17,0,0,0,3.29,2.36,3.11,3.11,0,0,0,3.23-2.36c.05-.16,0-.38-.17-.38A9,9,0,0,1,687.11,392.46Z" transform="translate(-656.67 -355.5)" fill="#c19672"/><g clip-path="url(#f)"><circle cx="35.32" cy="29.29" r="1.1" fill="#c19672"/></g><g clip-path="url(#f)"><circle cx="25.46" cy="29.29" r="1.1" fill="#c19672"/></g><path d="M684.6,383.37a4.12,4.12,0,0,0-2.86-.86,1.79,1.79,0,0,0-1.5.84l-1.7-1.06a3.82,3.82,0,0,1,3.2-1.78A6,6,0,0,1,686,382Z" transform="translate(-656.67 -355.5)" fill="#e5b688"/><path d="M688,388.81l-2-.36c0-.12.56-3.06,1-4.83.5-2,2.39-3.11,5.19-3.11a3.79,3.79,0,0,1,3.2,1.78l-1.69,1.06a1.81,1.81,0,0,0-1.51-.84c-1.06,0-2.9.21-3.25,1.6C688.59,385.81,688.05,388.78,688,388.81Z" transform="translate(-656.67 -355.5)" fill="#e5b688"/><path d="M698.07,384.14s.38-1.86,1.42-2.41a20.92,20.92,0,0,0,.77-4.55,7.8,7.8,0,0,0-1-4.44,5.93,5.93,0,0,0-4.17-2.24,31.86,31.86,0,0,0-5.14,3.56c-.5.55.21,1,.21,1s2.52-3.29,2.69-1.48,5.37,6.35,5.37,6.35v4.22Z" transform="translate(-656.67 -355.5)" fill="#c19672"/><path d="M674.18,378.55a17.22,17.22,0,0,0,.66,3.34c.88.39,1.26,2.41,1.26,2.41v-4.38c3.29-.93,7-2.79,9.15-5.64a4.51,4.51,0,0,1-.06,3.34,11.3,11.3,0,0,0,6.41-2c1.65-1.26,3.62-5,3.62-5s-1-4.33-8.22-3.73c-3.07.28-4.54,2.14-9.53,1.65a10,10,0,0,0,1,1.91C676.32,371.43,674.18,374.22,674.18,378.55Z" transform="translate(-656.67 -355.5)" fill="#ceaa89"/></g></svg>