<svg xmlns="http://www.w3.org/2000/svg" width="44" height="66.08" viewBox="0 0 44 66.08"><path d="M439.5,308.32c-1.49,0-3.23-.81-3.56-2.15-.19-.77.41-1.22.85-1.54a11.2,11.2,0,0,0,3.41-4.11,12.93,12.93,0,0,0,1-2.77c-5.54-1.21-16-5.54-15.92-20.95.14-20.94,19.69-31.72,20.53-32.17l.47-.25.47.25c.84.45,20.39,11.23,20.53,32.17.11,16.32-11.47,20.24-17.09,21.18a27.72,27.72,0,0,1-1.68,3.5c-2.4,4.17-5,6.27-8.36,6.79a5.16,5.16,0,0,1-.67.05Z" transform="translate(-424.3 -243.24)" fill="#fff"/><path d="M446.3,245.51c.31.17,19.86,10.82,20,31.3.11,16.07-11.62,19.53-16.81,20.27a28.09,28.09,0,0,1-1.82,3.9c-2.07,3.59-4.35,5.79-7.66,6.3a2.92,2.92,0,0,1-.51,0c-1.23,0-2.41-.64-2.59-1.39-.1-.4,2-.94,4.17-4.94a15.85,15.85,0,0,0,1.35-4c-5.47-.94-16.23-4.76-16.13-20.16.14-20.48,19.69-31.13,20-31.3m0-2.27-.95.51c-.85.46-20.91,11.55-21.05,33C424.2,292,434,296.91,440,298.48a10.16,10.16,0,0,1-.66,1.57,10.06,10.06,0,0,1-3.12,3.77A2.47,2.47,0,0,0,435,306.4c.46,1.9,2.68,2.92,4.53,2.92a5.55,5.55,0,0,0,.82-.06c3.71-.58,6.52-2.82,9.08-7.28a31,31,0,0,0,1.53-3.11,22.46,22.46,0,0,0,10.23-4.64c4.79-4,7.19-9.85,7.14-17.44-.14-21.49-20.2-32.58-21.05-33l-.95-.51Z" transform="translate(-424.3 -243.24)" fill="#fff"/><path d="M466.3,276.81c-.14-20.48-19.69-31.13-20-31.3-.31.17-19.86,10.82-20,31.3C426.2,292.21,437,296,442.43,297a15.85,15.85,0,0,1-1.35,4c-2.13,4-4.27,4.54-4.17,4.94.21.85,1.71,1.56,3.1,1.35,3.31-.51,5.59-2.71,7.66-6.3a28.09,28.09,0,0,0,1.82-3.9C454.68,296.34,466.41,292.88,466.3,276.81Z" transform="translate(-424.3 -243.24)" fill="#849857"/><path d="M456.28,266.94c-2-4.55-6.41-7.27-9.9-10.16l-.08,0-.08,0c-3.5,2.89-7.85,5.61-9.9,10.16-.36.78.54,1.38,1,.69,2.7-3.83,5.71-5.64,8.95-8.24,3.24,2.6,6.25,4.41,8.95,8.24C455.74,268.32,456.64,267.72,456.28,266.94Z" transform="translate(-424.3 -243.24)" fill="#c5d39b"/><path d="M445.12,259.53l.47,5.19s.46,5.56.46,7.62v7.28l-.93,6.1s-.4,3.36.47,3.51,1.85-3.65,1.85-3.65l.47-7.22-.34-8.87s-.61-4.76-.66-6.36c0-1.08.2-4.3.2-4.3Z" transform="translate(-424.3 -243.24)" fill="#c5d39b"/></svg>