<svg xmlns="http://www.w3.org/2000/svg" width="44" height="66.08" viewBox="0 0 44 66.08"><path d="M378.5,308.32c-1.49,0-3.24-.81-3.57-2.15-.18-.77.41-1.22.85-1.54a11.2,11.2,0,0,0,3.41-4.11,12.91,12.91,0,0,0,1-2.77c-5.55-1.21-16-5.54-15.92-20.95.14-20.94,19.69-31.72,20.52-32.17l.48-.25.47.25c.83.45,20.39,11.23,20.52,32.17.11,16.32-11.47,20.24-17.08,21.18a28.39,28.39,0,0,1-1.68,3.5c-2.4,4.17-5,6.27-8.37,6.79a4.89,4.89,0,0,1-.66.05Z" transform="translate(-363.3 -243.24)" fill="#fff"/><path d="M385.3,245.51c.31.17,19.86,10.82,20,31.3.1,16.07-11.62,19.53-16.82,20.27a26,26,0,0,1-1.82,3.9c-2.06,3.59-4.34,5.79-7.65,6.3a2.92,2.92,0,0,1-.51,0c-1.23,0-2.41-.64-2.6-1.39-.09-.4,2-.94,4.17-4.94a15.1,15.1,0,0,0,1.35-4c-5.47-.94-16.23-4.76-16.12-20.16.13-20.48,19.68-31.13,20-31.3m0-2.27-1,.51c-.85.46-20.9,11.55-21,33C363.2,292,373,296.91,379,298.48a9.29,9.29,0,0,1-.65,1.57,10.15,10.15,0,0,1-3.13,3.77A2.48,2.48,0,0,0,374,306.4c.47,1.9,2.68,2.92,4.54,2.92a5.42,5.42,0,0,0,.81-.06c3.72-.58,6.52-2.82,9.09-7.28a29,29,0,0,0,1.52-3.11,22.49,22.49,0,0,0,10.24-4.64c4.78-4,7.19-9.85,7.14-17.44-.15-21.49-20.2-32.58-21.05-33l-.95-.51Z" transform="translate(-363.3 -243.24)" fill="#fff"/><path d="M405.3,276.81c-.14-20.48-19.69-31.13-20-31.3-.32.17-19.87,10.82-20,31.3C365.19,292.21,376,296,381.42,297a15.1,15.1,0,0,1-1.35,4c-2.13,4-4.26,4.54-4.17,4.94.21.85,1.72,1.56,3.11,1.35,3.31-.51,5.59-2.71,7.65-6.3a26,26,0,0,0,1.82-3.9C393.68,296.34,405.4,292.88,405.3,276.81Z" transform="translate(-363.3 -243.24)" fill="#c5d39b"/><path d="M395.28,266.94c-2-4.55-6.41-7.27-9.91-10.16l-.07,0-.08,0c-3.5,2.89-7.85,5.61-9.91,10.16-.35.78.55,1.38,1,.69,2.7-3.83,5.71-5.64,9-8.24,3.24,2.6,6.25,4.41,8.95,8.24C394.73,268.32,395.63,267.72,395.28,266.94Z" transform="translate(-363.3 -243.24)" fill="#849857"/><path d="M384.12,259.53l.46,5.19s.47,5.56.47,7.62v7.28l-.93,6.1s-.41,3.36.46,3.51,1.86-3.65,1.86-3.65l.46-7.22-.33-8.87s-.62-4.76-.66-6.36c0-1.08.2-4.3.2-4.3Z" transform="translate(-363.3 -243.24)" fill="#849857"/></svg>