<svg xmlns="http://www.w3.org/2000/svg" width="18" height="20" viewBox="0 0 18 20"><path d="M440.8,136.75a2,2,0,0,0-2,2v14a2,2,0,0,0,2,2h14a2,2,0,0,0,2-2v-14a2,2,0,0,0-2-2h-14Z" transform="translate(-438.8 -134.75)" fill="#e8e8e8"/><path d="M440.8,136.75a2,2,0,0,0-2,2v4h18v-4a2,2,0,0,0-2-2h-14Z" transform="translate(-438.8 -134.75)" fill="#e74c3c"/><path d="M443.3,139.25a1.5,1.5,0,1,1-1.5-1.5A1.5,1.5,0,0,1,443.3,139.25Z" transform="translate(-438.8 -134.75)" fill="#c0392b"/><path d="M441.8,134.75a1,1,0,0,0-1,1v3a1,1,0,0,0,2,0v-3A1,1,0,0,0,441.8,134.75Z" transform="translate(-438.8 -134.75)" fill="#bdc3c7"/><path d="M455.3,139.25a1.5,1.5,0,1,1-1.5-1.5A1.5,1.5,0,0,1,455.3,139.25Z" transform="translate(-438.8 -134.75)" fill="#c0392b"/><path d="M453.8,134.75a1,1,0,0,0-1,1v3a1,1,0,0,0,2,0v-3A1,1,0,0,0,453.8,134.75Z" transform="translate(-438.8 -134.75)" fill="#bdc3c7"/><path d="M440.8,144.75v2h2v-2Zm3,0v2h2v-2Zm3,0v2h2v-2Zm3,0v2h2v-2Zm3,0v2h2v-2Z" transform="translate(-438.8 -134.75)" fill="#c8c8c8"/><path d="M440.8,147.75v2h2v-2Zm3,0v2h2v-2Zm3,0v2h2v-2Zm3,0v2h2v-2Zm3,0v2h2v-2Z" transform="translate(-438.8 -134.75)" fill="#c8c8c8"/><path d="M440.8,150.75v2h2v-2Zm3,0v2h2v-2Zm3,0v2h2v-2Zm3,0v2h2v-2Zm3,0v2h2v-2Z" transform="translate(-438.8 -134.75)" fill="#c8c8c8"/></svg>