<svg xmlns="http://www.w3.org/2000/svg" width="48.29" height="53.4" viewBox="0 0 48.29 53.4"><path d="M469,43a3.12,3.12,0,0,1-1.64-.44,3,3,0,0,1-.81-.71,2.9,2.9,0,0,1-.27-.41A3.88,3.88,0,0,1,466,41a2.92,2.92,0,0,1-.13-.46s0-.17-.06-.29,0-.24,0-.32v-.81l.6-.27.09,0a2.09,2.09,0,0,1,.27-.1l.37-.11.41-.07.39,0h.12a3.09,3.09,0,0,1,.52.07,2.9,2.9,0,0,1,1,.41,3.28,3.28,0,0,1,1.26,1.6c.05.14.08.28.12.4a2.46,2.46,0,0,1,.06.33c0,.1,0,.19,0,.27v.86l-.62.28-.1,0-.27.1c-.12,0-.24.07-.36.09l-.4.07Z" transform="translate(-435.78 -33.61)" fill="#fff"/><path d="M468,39.46H468l.35,0a1.8,1.8,0,0,1,.67.28,2.22,2.22,0,0,1,.87,1.11c0,.1.06.21.09.31a1.57,1.57,0,0,1,.05.27.86.86,0,0,1,0,.21.42.42,0,0,1,0,.07l-.07,0-.19.07a1.5,1.5,0,0,1-.27.07,3,3,0,0,1-.32.06H469a2.18,2.18,0,0,1-1.12-.29,2.07,2.07,0,0,1-.54-.48,3.13,3.13,0,0,1-.2-.3,1.83,1.83,0,0,1-.14-.32,1.92,1.92,0,0,1-.09-.32,1.37,1.37,0,0,1-.05-.28.79.79,0,0,1,0-.2v-.08l.07,0,.19-.07a1.07,1.07,0,0,1,.27-.08l.33-.07H468m0-2-.46,0h-.05a3.89,3.89,0,0,0-.53.09,4.23,4.23,0,0,0-.46.13,2.74,2.74,0,0,0-.38.15l-.06,0-1.18.52,0,1.32v.2c0,.12,0,.27,0,.41s0,.26.09.44a3.55,3.55,0,0,0,.15.52,3.47,3.47,0,0,0,.27.59v0a5,5,0,0,0,.36.54,3.87,3.87,0,0,0,1.1,1A4,4,0,0,0,469,44a3.54,3.54,0,0,0,.46,0l.46-.07a4.5,4.5,0,0,0,.49-.13h0l.37-.13.12,0,1.15-.52.06-1.32s0-.07,0-.21v-.1c0-.09,0-.2,0-.3a3.18,3.18,0,0,0-.09-.48c-.05-.16-.09-.31-.14-.46a4.29,4.29,0,0,0-1.67-2.11,4.09,4.09,0,0,0-1.35-.55,4,4,0,0,0-.64-.08H468Z" transform="translate(-435.78 -33.61)" fill="#fff"/><path d="M464.57,46.76a3.44,3.44,0,0,1-.46,0,3.79,3.79,0,0,1-.45-.07l-.47-.12a2.21,2.21,0,0,1-.37-.14l-.15,0-.59-.27v-.81c0-.19,0-.31.05-.43a4,4,0,0,1,.09-.45c0-.13.08-.3.14-.47a4,4,0,0,1,1.59-2,3.46,3.46,0,0,1,1.22-.5,3.29,3.29,0,0,1,.63-.08h.14l.47,0,.56.1.43.12a2.2,2.2,0,0,1,.39.16l.68.29v.66a.81.81,0,0,1,0,.18c0,.12,0,.25,0,.37a2.1,2.1,0,0,1-.1.5,3,3,0,0,1-.13.48,4.17,4.17,0,0,1-.26.57,4.76,4.76,0,0,1-.36.55,3.43,3.43,0,0,1-1,.88,3.92,3.92,0,0,1-2,.54Z" transform="translate(-435.78 -33.61)" fill="#fff"/><path d="M465.93,42.34l.39,0,.44.08a2.36,2.36,0,0,1,.37.11l.26.1.09,0v.11a1.42,1.42,0,0,1,0,.27,3.1,3.1,0,0,1-.07.38,3.45,3.45,0,0,1-.12.43,2.76,2.76,0,0,1-.2.43,3.54,3.54,0,0,1-.26.41,2.6,2.6,0,0,1-.73.63,2.88,2.88,0,0,1-1.51.41l-.35,0-.44-.08a2.63,2.63,0,0,1-.36-.1,1.28,1.28,0,0,1-.25-.1l-.1,0a.67.67,0,0,1,0-.1c0-.06,0-.17,0-.27a2.66,2.66,0,0,1,.07-.37c0-.13.07-.28.12-.43a3,3,0,0,1,1.18-1.49,2.41,2.41,0,0,1,.89-.37,2.63,2.63,0,0,1,.48-.06h.08m0-2h-.19a5.41,5.41,0,0,0-.8.11,4.37,4.37,0,0,0-1.54.63,5,5,0,0,0-2,2.5c-.07.19-.13.38-.18.56a4.08,4.08,0,0,0-.11.55c0,.11,0,.27-.05.4v.1c0,.16,0,.24,0,.24l0,1.27,1.19.57.14,0a2.33,2.33,0,0,0,.42.16,4.43,4.43,0,0,0,.56.15h.06c.17,0,.36.07.55.09a5,5,0,0,0,3.11-.67A4.37,4.37,0,0,0,468.38,46a5.73,5.73,0,0,0,.42-.63l0,0v0a5.1,5.1,0,0,0,.32-.71,4.58,4.58,0,0,0,.18-.62c.05-.21.08-.39.1-.5s0-.37.05-.5a1.54,1.54,0,0,0,0-.25l0-1.28-1.19-.56-.08,0a3.15,3.15,0,0,0-.44-.17,5.11,5.11,0,0,0-.57-.17c-.17,0-.39-.08-.64-.11h-.05a5.12,5.12,0,0,0-.56,0Z" transform="translate(-435.78 -33.61)" fill="#fff"/><path d="M457.39,45.79h-.11l-.29,0a2.61,2.61,0,0,1-.36-.08l-.39-.12a3.28,3.28,0,0,1-1.59-1.27,2.84,2.84,0,0,1-.4-1,3.7,3.7,0,0,1-.06-.48,2.89,2.89,0,0,1,0-.53c0-.16.05-.32.08-.46s0-.18.08-.29.09-.23.12-.31a1.15,1.15,0,0,1,.07-.15l.3-.56.66,0h.09a1.74,1.74,0,0,1,.29,0,3.25,3.25,0,0,1,.38.08l.4.11.44.2a4.6,4.6,0,0,1,.46.3,3,3,0,0,1,.71.82,3.25,3.25,0,0,1,.41,2l-.06.38a3.57,3.57,0,0,1-.1.35,2.12,2.12,0,0,1-.09.27,1.63,1.63,0,0,1-.09.2l-.29.55Z" transform="translate(-435.78 -33.61)" fill="#fff"/><path d="M455.45,41.52h.08l.2,0a1.66,1.66,0,0,1,.28.05l.32.09.32.14a3.13,3.13,0,0,1,.3.2,1.87,1.87,0,0,1,.47.54,2.25,2.25,0,0,1,.29,1.38c0,.11,0,.23-.06.33a1.6,1.6,0,0,1-.08.26,1,1,0,0,1-.07.19l0,.07h-.07l-.2,0c-.08,0-.18,0-.27-.06l-.32-.09a2.25,2.25,0,0,1-1.11-.87,2,2,0,0,1-.27-.66,1.53,1.53,0,0,1,0-.36,2,2,0,0,1,0-.35,3.23,3.23,0,0,1,.06-.33c0-.1.06-.19.08-.27a.9.9,0,0,1,.08-.19l0-.07m-1.17-2.06-.62,1.16s0,.06-.08.19a3.34,3.34,0,0,0-.15.38c0,.1-.08.25-.12.43a3.76,3.76,0,0,0-.1.53,4.75,4.75,0,0,0,0,.65v.06a4.28,4.28,0,0,0,.08.64,3.94,3.94,0,0,0,.56,1.34,4.13,4.13,0,0,0,2.07,1.65,3.88,3.88,0,0,0,.45.14,4.79,4.79,0,0,0,.49.11h0a2.73,2.73,0,0,0,.39.05h.12l1.28.05.63-1.16a1.16,1.16,0,0,0,.09-.18l0-.07v0a2.49,2.49,0,0,0,.11-.29,3.46,3.46,0,0,0,.12-.47,4.2,4.2,0,0,0,.08-.47,4.16,4.16,0,0,0-.55-2.63,3.89,3.89,0,0,0-1-1.1,4.44,4.44,0,0,0-.54-.35l0,0h0c-.17-.09-.35-.17-.52-.24a5.44,5.44,0,0,0-.56-.17c-.2,0-.37-.07-.47-.09a3,3,0,0,0-.41,0h-.07l-1.28-.06Z" transform="translate(-435.78 -33.61)" fill="#fff"/><path d="M444.17,86a6.46,6.46,0,0,1-6.45-6.45V53.16h.43a13.55,13.55,0,0,1,5.5-17.7l.87-.49,7.63,13.48h0a4.15,4.15,0,0,1,2.39-2.53,3.13,3.13,0,0,1,2.24-1.07l.63-1.26a1.52,1.52,0,0,1,2.06-.68,1.5,1.5,0,0,1,.67.65,1.71,1.71,0,0,1,1.65-1.27,1.83,1.83,0,0,1,.4,0,1.74,1.74,0,0,1,1.31,1.7V46a3.94,3.94,0,0,1,1.16.8,4.11,4.11,0,0,1,2.88-1.17h.29v-.75a3.18,3.18,0,0,1,1.64-2.78v-1.4a1.53,1.53,0,0,1,3.06,0v1.4a3.26,3.26,0,0,1,.84.67c0-.13.05-.29.08-.45l.05-.29.17-.82.1-.63c.16-.89.3-1.41.3-1.41a1.53,1.53,0,0,1,.41-.72,1.74,1.74,0,0,1,.22-.19l.05,0,.08-.05a1.48,1.48,0,0,1,.76-.23h0a1.58,1.58,0,0,1,1.11.41s.43.4,1,1.1l.34.41.16.2.52.74.16.23.41.64c.2.36.39.7.57,1.06a17.5,17.5,0,0,1,1,2.44l.11.39c.1.36.19.72.27,1.1a3.65,3.65,0,0,1,.12.61s.1.7.13,1a7.41,7.41,0,0,1,.06.86v.83a14.8,14.8,0,0,1-.12,1.54l0,.23c-.1.54-.21,1-.33,1.48h1.93v26.4A6.46,6.46,0,0,1,476.62,86Zm15.41-39.74a4.16,4.16,0,0,1,.51-.28v-.9l-.56,1.11Z" transform="translate(-435.78 -33.61)" fill="#fff"/><path d="M444.14,36.34l.9,1.58.7,1.23,3.35,5.92,2.25,4,.38.67a4.86,4.86,0,0,1,1.27-.47,3.14,3.14,0,0,1,2.16-2.5,2.19,2.19,0,0,1,1.77-.91,1.83,1.83,0,0,1,.47,0l.93-1.87a.52.52,0,0,1,.71-.23.52.52,0,0,1,.23.71l-.92,1.86a2.18,2.18,0,0,1,.74,1.9,3.1,3.1,0,0,1,2-1.57V44a.71.71,0,0,1,.71-.71l.17,0a.73.73,0,0,1,.54.73v2.66a3.13,3.13,0,0,1,2.17,1.84,3.1,3.1,0,0,1,2.87-1.92h.16a3.08,3.08,0,0,1,1.13.28v-2a2.17,2.17,0,0,1,1.64-2.1V40.69a.53.53,0,0,1,.53-.53.52.52,0,0,1,.53.53v2.08a2.16,2.16,0,0,1,1.64,2.1v2.34l.13.08a1.72,1.72,0,0,0,.07-.21c.09-.36.21-.7.31-1,.15-.7.35-1.38.46-2,.06-.33.14-.64.2-.94s.1-.6.15-.87l.16-.79c0-.08,0-.17,0-.25s.05-.29.07-.42c.15-.82.28-1.32.28-1.32v0a.43.43,0,0,1,.15-.24.28.28,0,0,1,.1-.09l0,0a.54.54,0,0,1,.3-.1h0a.59.59,0,0,1,.39.15s.37.35.95,1c.13.15.27.31.41.49l.06.07.5.7.53.83c.17.3.35.63.52,1a16.35,16.35,0,0,1,1,2.33c.12.44.25.89.35,1.37.06.23.09.48.13.72s.07.51.1.76a6.66,6.66,0,0,1,.05.78c0,.27,0,.54,0,.8,0,.54-.08,1.1-.14,1.66a13.34,13.34,0,0,1-.7,2.58h2.3v25.4A5.45,5.45,0,0,1,476.62,85H444.17a5.45,5.45,0,0,1-5.45-5.45V54.16h1.17c-.16-.24-.33-.48-.48-.74a12.53,12.53,0,0,1,4.73-17.08m.75-2.73-1.74,1a14.54,14.54,0,0,0-6.43,17.78V79.56A7.46,7.46,0,0,0,444.17,87h32.45a7.46,7.46,0,0,0,7.45-7.45V52.16H482.4c0-.07,0-.15,0-.23v-.14l0-.23c.05-.51.11-1.05.12-1.61v-.87a7.57,7.57,0,0,0-.07-1c0-.26-.07-.52-.1-.77l0-.18a7.16,7.16,0,0,0-.14-.74c-.08-.37-.18-.73-.27-1.09L481.9,45l0-.08,0-.08a19.23,19.23,0,0,0-1.07-2.58c-.16-.32-.34-.64-.56-1l0,0,0,0-.44-.67-.12-.19,0,0,0,0-.21-.3-.29-.41,0,0v0l0,0,0-.05h0l0,0-.07-.08-.37-.45a14.69,14.69,0,0,0-1.09-1.15,2.58,2.58,0,0,0-1.76-.7h-.09a2.48,2.48,0,0,0-1.27.39l-.08,0-.09.07h0a3.85,3.85,0,0,0-.37.34,2.65,2.65,0,0,0-.6,1v0l0,.08a1.94,1.94,0,0,0-.07.29,2.53,2.53,0,0,0-4.57,1.5v.86a4.21,4.21,0,0,0-1.64,3.11,5.17,5.17,0,0,0-2.17.83l-.16-.1V44a2.72,2.72,0,0,0-2.08-2.68,3.38,3.38,0,0,0-.63-.07A2.68,2.68,0,0,0,460,42h0a2.61,2.61,0,0,0-1.13-.27,2.52,2.52,0,0,0-2.26,1.4l-.39.78A4.23,4.23,0,0,0,454,45.07a5.17,5.17,0,0,0-1.8,1.37l-1.33-2.35-3.35-5.92-.7-1.23-.9-1.59-1-1.74Z" transform="translate(-435.78 -33.61)" fill="#fff"/><path d="M469.81,41.84l-.27.08-.32,0a2.22,2.22,0,0,1-1.38-.28,1.75,1.75,0,0,1-.54-.47,2.61,2.61,0,0,1-.2-.3,3,3,0,0,1-.15-.32l-.09-.33c0-.09,0-.19-.05-.27a1.7,1.7,0,0,1,0-.21.45.45,0,0,1,0-.08l.07,0,.19-.08.28-.08a2.79,2.79,0,0,1,.33-.06l.35,0a2.27,2.27,0,0,1,.35,0,1.74,1.74,0,0,1,.66.27,2.16,2.16,0,0,1,.87,1.11c0,.1.07.22.1.31a1.66,1.66,0,0,1,.05.28c0,.07,0,.15,0,.2v.07l-.06,0Z" transform="translate(-435.78 -33.61)" fill="#77a72c"/><path d="M470.48,42.76V40.68a.53.53,0,1,1,1.06,0v2.08a2,2,0,0,0-1.06,0Z" transform="translate(-435.78 -33.61)" fill="#88561c"/><path d="M468.84,47.21V44.87a2.16,2.16,0,0,1,1.64-2.11,2,2,0,0,1,1.06,0,2.17,2.17,0,0,1,1.64,2.11v2.34a4.77,4.77,0,1,1-4.34,0Z" transform="translate(-435.78 -33.61)" fill="#ed7121"/><path d="M463.42,45.56l.36.1c.13,0,.28.06.44.07a3,3,0,0,0,1.86-.38,2.59,2.59,0,0,0,.72-.64,4.68,4.68,0,0,0,.27-.4,2.78,2.78,0,0,0,.19-.44,3.52,3.52,0,0,0,.13-.43,2.83,2.83,0,0,0,.06-.37c0-.11,0-.22,0-.28v-.1l-.09,0a1.69,1.69,0,0,0-.26-.11c-.1,0-.23-.08-.37-.11l-.44-.08-.47,0a3.7,3.7,0,0,0-.48.06,2.51,2.51,0,0,0-.89.37,2.92,2.92,0,0,0-1.18,1.49c-.05.15-.09.3-.13.43a2.83,2.83,0,0,0-.06.37,1.76,1.76,0,0,0,0,.27v.1l.09,0Z" transform="translate(-435.78 -33.61)" fill="#009443"/><path d="M462.51,46.69V44a.72.72,0,0,0-.54-.72.71.71,0,0,0-.89.69v2.7a2.89,2.89,0,0,1,1.43,0Z" transform="translate(-435.78 -33.61)" fill="#88561c"/><path d="M459,50.76a3.11,3.11,0,0,1,2.83,1.93,3.11,3.11,0,0,1,2.82-1.93,3.31,3.31,0,0,1-.18-1,3.06,3.06,0,0,1,.23-1.18,3.09,3.09,0,0,0-2.16-1.84,2.89,2.89,0,0,0-1.43,0,3.11,3.11,0,0,0-2.16,1.84,3,3,0,0,1,.05,2.23Z" transform="translate(-435.78 -33.61)" fill="#922874"/><path d="M458.92,50.76H459a3,3,0,0,0-.05-2.23A3.11,3.11,0,1,0,456,52.82,3.1,3.1,0,0,1,458.92,50.76Z" transform="translate(-435.78 -33.61)" fill="#a54a8f"/><path d="M470.66,49.61a3.11,3.11,0,0,0-6-1.08,3.06,3.06,0,0,0-.23,1.18,3.31,3.31,0,0,0,.18,1h.05a3.11,3.11,0,0,1,2.93,2.06A3.11,3.11,0,0,0,470.66,49.61Z" transform="translate(-435.78 -33.61)" fill="#a54a8f"/><path d="M461.71,54.83a3.38,3.38,0,0,1-.15-1,3.07,3.07,0,0,1,.24-1.18A3.11,3.11,0,0,0,459,50.76h-.05A3.1,3.1,0,0,0,456,52.82a3.05,3.05,0,0,0-.19,1,3.12,3.12,0,0,0,3,3.11A3.09,3.09,0,0,1,461.71,54.83Z" transform="translate(-435.78 -33.61)" fill="#761751"/><path d="M464.67,50.76h-.05a3.11,3.11,0,0,0-2.82,1.93,3.07,3.07,0,0,0-.24,1.18,3.38,3.38,0,0,0,.15,1h.09a3.13,3.13,0,0,1,3,2.16,3.12,3.12,0,0,0,3-3.11,3.05,3.05,0,0,0-.19-1A3.11,3.11,0,0,0,464.67,50.76Z" transform="translate(-435.78 -33.61)" fill="#8b406a"/><path d="M461.8,54.82h-.09A3.09,3.09,0,0,0,458.84,57a3.11,3.11,0,1,0,6.07,1,3,3,0,0,0-.15-1A3.13,3.13,0,0,0,461.8,54.82Z" transform="translate(-435.78 -33.61)" fill="#922874"/><path d="M444.28,47.79a.41.41,0,0,0,.56.16l1-.56a.4.4,0,0,0,.15-.56.41.41,0,0,0-.56-.16l-1,.56A.4.4,0,0,0,444.28,47.79Z" transform="translate(-435.78 -33.61)" fill="#513918"/><path d="M450.05,52.4a.43.43,0,0,0,.57.15l1-.55a.41.41,0,0,0,.15-.57.42.42,0,0,0-.56-.15l-1,.55A.42.42,0,0,0,450.05,52.4Z" transform="translate(-435.78 -33.61)" fill="#513918"/><path d="M446.67,46.43a.43.43,0,0,0,.57.16l1-.56a.41.41,0,0,0-.41-.72l-1,.56A.41.41,0,0,0,446.67,46.43Z" transform="translate(-435.78 -33.61)" fill="#513918"/><path d="M445.4,49.78a.41.41,0,0,0,.57.15l1-.55a.41.41,0,0,0-.4-.72l-1,.56A.41.41,0,0,0,445.4,49.78Z" transform="translate(-435.78 -33.61)" fill="#513918"/><path d="M451.18,54.39a.42.42,0,0,0,.56.15l1-.56a.41.41,0,0,0,.16-.56.4.4,0,0,0-.56-.15l-1,.55A.42.42,0,0,0,451.18,54.39Z" transform="translate(-435.78 -33.61)" fill="#513918"/><path d="M447.8,48.42a.4.4,0,0,0,.56.15l1-.55a.41.41,0,0,0-.4-.72l-1,.56A.41.41,0,0,0,447.8,48.42Z" transform="translate(-435.78 -33.61)" fill="#513918"/><path d="M446.53,51.77a.4.4,0,0,0,.56.15l1-.55a.41.41,0,1,0-.41-.72l-1,.55A.43.43,0,0,0,446.53,51.77Z" transform="translate(-435.78 -33.61)" fill="#513918"/><path d="M443.15,45.8a.41.41,0,0,0,.56.16l1-.55a.43.43,0,0,0,.16-.57.41.41,0,0,0-.57-.15l-1,.55A.41.41,0,0,0,443.15,45.8Z" transform="translate(-435.78 -33.61)" fill="#513918"/><path d="M448.93,50.41a.4.4,0,0,0,.56.15l1-.55a.42.42,0,0,0,.16-.57.43.43,0,0,0-.57-.15l-1,.55A.43.43,0,0,0,448.93,50.41Z" transform="translate(-435.78 -33.61)" fill="#513918"/><path d="M441.84,49.07a.2.2,0,0,0,0,.08.41.41,0,0,0,.56.16l1-.56A.41.41,0,0,0,443,48l-1,.56A.41.41,0,0,0,441.84,49.07Z" transform="translate(-435.78 -33.61)" fill="#513918"/><path d="M444.13,53.13a.41.41,0,0,0,.56.15l1-.55a.41.41,0,0,0,.16-.56.43.43,0,0,0-.57-.16l-1,.55A.42.42,0,0,0,444.13,53.13Z" transform="translate(-435.78 -33.61)" fill="#513918"/><path d="M443,51.14a.41.41,0,0,0,.57.15l1-.55a.41.41,0,1,0-.4-.72l-1,.56A.41.41,0,0,0,443,51.14Z" transform="translate(-435.78 -33.61)" fill="#513918"/><path d="M445.55,44.44a.41.41,0,0,0,.56.16l1-.56a.41.41,0,0,0,.16-.56.43.43,0,0,0-.57-.16l-1,.56A.41.41,0,0,0,445.55,44.44Z" transform="translate(-435.78 -33.61)" fill="#513918"/><path d="M441.24,49.22a9.11,9.11,0,0,0,1,2.59,9.45,9.45,0,0,0,1.35,1.82,9.29,9.29,0,0,0,11.32,1.69L451.34,49l-2.25-4-3.36-5.91A9.28,9.28,0,0,0,441.24,49.22Zm11.08,4.05a.4.4,0,0,1,.56.15.41.41,0,0,1-.16.56l-1,.56a.41.41,0,1,1-.4-.72Zm-1.13-2a.42.42,0,0,1,.56.15.41.41,0,0,1-.15.57l-1,.55a.43.43,0,0,1-.57-.15.42.42,0,0,1,.16-.57Zm-2.4,1.36a.41.41,0,0,1,.56.15.41.41,0,0,1-.15.57l-1,.55a.41.41,0,0,1-.41-.72Zm1.27-3.35a.43.43,0,0,1,.57.15.42.42,0,0,1-.16.57l-1,.55a.4.4,0,0,1-.56-.15.43.43,0,0,1,.15-.57Zm-2.4,1.36a.41.41,0,1,1,.41.72l-1,.55a.4.4,0,0,1-.56-.15.43.43,0,0,1,.16-.57ZM445.26,52a.43.43,0,0,1,.57.16.41.41,0,0,1-.16.56l-1,.55a.41.41,0,0,1-.56-.15.42.42,0,0,1,.16-.57Zm3.68-4.71a.41.41,0,0,1,.4.72l-1,.55a.4.4,0,0,1-.56-.15.41.41,0,0,1,.16-.56Zm-2.4,1.36a.41.41,0,0,1,.4.72l-1,.55a.41.41,0,1,1-.41-.71ZM444.14,50a.41.41,0,1,1,.4.72l-1,.55a.41.41,0,1,1-.41-.71Zm3.67-4.71a.41.41,0,0,1,.41.72l-1,.56a.43.43,0,0,1-.57-.16.41.41,0,0,1,.16-.56Zm-2.4,1.36a.41.41,0,0,1,.56.16.4.4,0,0,1-.15.56l-1,.56a.41.41,0,0,1-.56-.16.4.4,0,0,1,.15-.56ZM443,48a.41.41,0,0,1,.41.72l-1,.56a.41.41,0,0,1-.56-.16.2.2,0,0,1,0-.08.41.41,0,0,1,.19-.48Zm3.67-4.71a.43.43,0,0,1,.57.16.41.41,0,0,1-.16.56l-1,.56a.41.41,0,0,1-.41-.72Zm-2.4,1.37a.41.41,0,0,1,.57.15.43.43,0,0,1-.16.57l-1,.55a.41.41,0,1,1-.4-.72Zm.7-2.08a.4.4,0,0,1-.56-.16.42.42,0,0,1,.16-.56l1-.55a.41.41,0,0,1,.56.15.43.43,0,0,1-.16.57Z" transform="translate(-435.78 -33.61)" fill="#c93323"/><path d="M447.66,53.75a.41.41,0,0,0,.56.16l1-.55a.41.41,0,0,0,.15-.57.41.41,0,0,0-.56-.15l-1,.55A.41.41,0,0,0,447.66,53.75Z" transform="translate(-435.78 -33.61)" fill="#513918"/><path d="M446.12,41.49a.41.41,0,0,0-.56-.15l-1,.55a.42.42,0,0,0-.16.56.4.4,0,0,0,.56.16l1-.55A.43.43,0,0,0,446.12,41.49Z" transform="translate(-435.78 -33.61)" fill="#513918"/><path d="M441,52.51a10.72,10.72,0,0,0,14.6,4l-.7-1.23a9.29,9.29,0,0,1-11.32-1.69,9.45,9.45,0,0,1-1.35-1.82,9.11,9.11,0,0,1-1-2.59,9.28,9.28,0,0,1,4.49-10.07l-.7-1.23A10.7,10.7,0,0,0,441,52.51Z" transform="translate(-435.78 -33.61)" fill="#b1d174"/><path d="M455.6,56.55A10.71,10.71,0,0,1,445,37.92l-.9-1.59a12.53,12.53,0,1,0,12.36,21.8Z" transform="translate(-435.78 -33.61)" fill="#93b658"/><path d="M457.19,44.76a1.76,1.76,0,0,1-.27,0l-.31-.1a2.17,2.17,0,0,1-1.11-.87,1.81,1.81,0,0,1-.27-.66,2.23,2.23,0,0,1-.05-.36,2,2,0,0,1,0-.35,1.75,1.75,0,0,1,.06-.33,2.13,2.13,0,0,1,.08-.27c0-.07.06-.15.07-.19l0-.07h.28a1.66,1.66,0,0,1,.28,0l.32.09.32.15.3.19a2,2,0,0,1,.47.54,2.25,2.25,0,0,1,.28,1.38,2.79,2.79,0,0,1-.06.33,2.13,2.13,0,0,1-.07.27c0,.07-.06.14-.07.19l0,.07h-.07A2.06,2.06,0,0,1,457.19,44.76Z" transform="translate(-435.78 -33.61)" fill="#77a72c"/><path d="M457.39,45.88l.92-1.86a.53.53,0,0,1,.71-.24.52.52,0,0,1,.24.71l-.93,1.86a2,2,0,0,0-.44-.29A1.58,1.58,0,0,0,457.39,45.88Z" transform="translate(-435.78 -33.61)" fill="#88561c"/><path d="M453.93,49.13,455,47a2.17,2.17,0,0,1,2.41-1.15,1.58,1.58,0,0,1,.5.18,2,2,0,0,1,.44.29,2.16,2.16,0,0,1,.53,2.62l-1,2.09a4.77,4.77,0,1,1-3.89-1.93Z" transform="translate(-435.78 -33.61)" fill="#aabc68"/><path d="M458.74,57.76a.67.67,0,0,1,.47-.38h0l1.24-.3c.39-.1.86-.21,1.39-.36l.84-.23.91-.28c.62-.19,1.27-.43,1.94-.69a19.92,19.92,0,0,0,2-.95c.17-.08.32-.18.48-.27s.32-.19.46-.3l.46-.3.43-.34c.29-.21.54-.47.81-.71s.51-.49.72-.78a11.21,11.21,0,0,0,1.21-1.76c.16-.33.34-.64.48-1s.31-.67.42-1,.27-.69.36-1,.21-.7.31-1c.15-.71.35-1.38.46-2,.06-.32.14-.64.2-.94s.1-.6.15-.87.1-.54.15-.78c0-.09,0-.17.05-.25a10.34,10.34,0,0,0,2.29-.09l0,.09q.12.38.27.81c.09.3.19.61.29.95s.15.7.22,1.07a15.69,15.69,0,0,1,.27,2.51c0,.45,0,.92-.05,1.41,0,.24,0,.48-.08.73l-.12.76a5.49,5.49,0,0,1-.17.76l-.21.77c-.16.52-.39,1-.6,1.55a12.6,12.6,0,0,1-1.9,2.88,12,12,0,0,1-1.24,1.23l-.68.53-.34.25-.36.23c-.24.14-.47.3-.71.43l-.73.37a7.87,7.87,0,0,1-.74.32,7.18,7.18,0,0,1-.73.27,14.41,14.41,0,0,1-2.84.65c-.45,0-.89.09-1.31.1l-.62,0-.59,0a14.62,14.62,0,0,1-3.65-.57c-.43-.13-.75-.25-1-.33l-.27-.11-.08,0A.69.69,0,0,1,458.74,57.76Z" transform="translate(-435.78 -33.61)" fill="#ffd266"/><path d="M474.76,40.72c.16-.82.29-1.31.29-1.31v0a.56.56,0,0,1,.7-.41.62.62,0,0,1,.35.26s.25.44.62,1.25c.09.17.17.37.26.58a10.34,10.34,0,0,1-2.29.09C474.72,41,474.74,40.85,474.76,40.72Z" transform="translate(-435.78 -33.61)" fill="#d5a24b"/><path d="M464.58,61.74a.67.67,0,0,1,.34-.5l0,0,1.11-.63,1.24-.74.74-.46.79-.52c.54-.37,1.1-.78,1.67-1.22a18.52,18.52,0,0,0,1.63-1.46,3.59,3.59,0,0,0,.38-.4,4.89,4.89,0,0,0,.37-.41l.35-.42c.11-.14.21-.3.32-.45s.38-.6.58-.9.35-.62.47-1a11.5,11.5,0,0,0,.67-2c.05-.35.14-.71.19-1.07s.1-.72.11-1.09.06-.73.05-1.1,0-.73,0-1.09c-.05-.72,0-1.42-.13-2.08,0-.33,0-.65-.07-1s-.07-.6-.1-.88-.05-.54-.07-.79l0-.25a10.54,10.54,0,0,0,2.18-.73l.06.07.49.71c.17.26.36.53.54.82s.35.63.52,1a17.6,17.6,0,0,1,1,2.33c.11.44.24.9.34,1.37a4.28,4.28,0,0,1,.13.73c0,.25.07.5.11.75a6.79,6.79,0,0,1,0,.78c0,.27,0,.54,0,.81,0,.54-.08,1.1-.14,1.65a12.7,12.7,0,0,1-1,3.3,13.12,13.12,0,0,1-.84,1.52c-.16.24-.34.47-.51.7s-.17.24-.25.34l-.28.32c-.19.21-.38.42-.57.61s-.4.39-.6.57a7.64,7.64,0,0,1-.62.51c-.2.16-.41.33-.62.47a14.72,14.72,0,0,1-2.54,1.41,11.82,11.82,0,0,1-1.23.47c-.2.07-.4.14-.59.19l-.57.15a14.14,14.14,0,0,1-3.67.48c-.44,0-.79,0-1,0l-.29,0-.09,0A.68.68,0,0,1,464.58,61.74Z" transform="translate(-435.78 -33.61)" fill="#fcc631"/><path d="M475.17,40.88c-.09-.83-.1-1.34-.1-1.34v0a.57.57,0,0,1,.56-.59.61.61,0,0,1,.41.15s.36.35.95,1l.41.49a10.54,10.54,0,0,1-2.18.73C475.2,41.16,475.18,41,475.17,40.88Z" transform="translate(-435.78 -33.61)" fill="#c88b1c"/><path d="M2.94,20.55H46.29a0,0,0,0,1,0,0v25.4a5.45,5.45,0,0,1-5.45,5.45H8.39a5.45,5.45,0,0,1-5.45-5.45V20.55A0,0,0,0,1,2.94,20.55Z" fill="#c19772"/><rect x="2.94" y="38.03" width="43.35" height="0.51" fill="#d3a989"/><rect x="2.94" y="40.17" width="43.35" height="0.51" fill="#d3a989"/><rect x="2.94" y="42.3" width="43.35" height="0.51" fill="#d3a989"/><rect x="2.94" y="44.44" width="43.35" height="0.51" fill="#d3a989"/><path d="M460.37,67.28a6.72,6.72,0,0,1-6.7-6.71h1.12a5.59,5.59,0,1,0,11.17,0h1.12A6.72,6.72,0,0,1,460.37,67.28Z" transform="translate(-435.78 -33.61)" fill="#a57b5e"/><circle cx="18.5" cy="26.96" r="1.73" fill="#a57b5e"/><circle cx="30.72" cy="26.96" r="1.73" fill="#a57b5e"/></svg>