<svg xmlns="http://www.w3.org/2000/svg" width="24" height="26.35" viewBox="0 0 24 26.35"><path d="M306.66,295.24a4.34,4.34,0,0,1-4.33-4.34V279.37a2,2,0,0,1-1.67-2v-1.75a2,2,0,0,1,2-2h3.85c.6-1.59,2.64-2.73,5.13-2.73s4.53,1.14,5.14,2.73h3.84a2,2,0,0,1,2,2v1.75a2,2,0,0,1-1.67,2V290.9a4.34,4.34,0,0,1-4.33,4.34Z" transform="translate(-299.66 -269.89)" fill="#fff"/><path d="M311.66,271.89c2.39,0,4.32,1.22,4.32,2.73h4.66a1,1,0,0,1,1,1v1.75a1,1,0,0,1-1,1H320v12.5a3.34,3.34,0,0,1-3.33,3.34h-10a3.34,3.34,0,0,1-3.33-3.34V278.4h-.65a1,1,0,0,1-1-1v-1.75a1,1,0,0,1,1-1h4.66c0-1.51,1.93-2.73,4.32-2.73m0-2a6.63,6.63,0,0,0-5.75,2.73h-3.23a3,3,0,0,0-3,3v1.75a3,3,0,0,0,1.67,2.69V290.9a5.34,5.34,0,0,0,5.33,5.34h10A5.34,5.34,0,0,0,322,290.9V280.08a3,3,0,0,0,1.67-2.69v-1.75a3,3,0,0,0-3-3h-3.23a6.63,6.63,0,0,0-5.75-2.73Z" transform="translate(-299.66 -269.89)" fill="#fff"/><path d="M301.66,276.74a1.67,1.67,0,0,0,1.67,1.66v12.5a3.34,3.34,0,0,0,3.33,3.34h10A3.34,3.34,0,0,0,320,290.9V278.4a1.67,1.67,0,0,0,1.67-1.66v-.62h-20Z" transform="translate(-299.66 -269.89)" fill="#c19772"/><path d="M308.33,289.65a.84.84,0,0,1-.84-.83v-6.67a.84.84,0,0,1,.84-.83.83.83,0,0,1,.83.83v6.67A.83.83,0,0,1,308.33,289.65Z" transform="translate(-299.66 -269.89)" fill="#ffd15f"/><path d="M315,289.65a.83.83,0,0,1-.83-.83v-6.67a.84.84,0,0,1,1.67,0v6.67A.84.84,0,0,1,315,289.65Z" transform="translate(-299.66 -269.89)" fill="#ffd15f"/><ellipse cx="12" cy="4.73" rx="4.32" ry="2.73" fill="#c19772"/><rect x="2" y="4.73" width="20" height="3.79" rx="1.02" fill="#ffd15f"/></svg>