<svg xmlns="http://www.w3.org/2000/svg" width="43.65" height="43.45" viewBox="0 0 43.65 43.45"><path d="M317.81,318.55l-.37,0-.2,0-.34-.05-.3-.07-.23-.06-.31-.1-.22-.08-.3-.13-.22-.11-.26-.14-.22-.13-.22-.15-.25-.19-.18-.15-.24-.22-.15-.15c-.08-.09-.16-.17-.23-.26l-.15-.19c-.06-.08-.13-.16-.18-.24l-.17-.25-.13-.21c-.06-.11-.11-.22-.16-.33l-.09-.17,0-.07c0-.07-.09-.22-.15-.37l0-.12c-.05-.15-.09-.32-.13-.48s-.05-.24-.07-.34a2.31,2.31,0,0,1-.46.05H298.47a5.79,5.79,0,0,1-3.31,4.25l-.1,0-.32.13-.17.06-.29.08-.36-.94.26,1-.16,0-.22,0-.38,0-.15,0-.43,0h-.19l-.38,0-.2,0-.34-.05-.3-.07-.23-.06-.31-.1-.22-.08-.3-.13-.21-.1-.26-.14-.23-.14-.22-.15-.25-.19-.17-.15a2.46,2.46,0,0,1-.25-.22l-.15-.15-.23-.26-.15-.19a2.5,2.5,0,0,1-.18-.24c-.05-.06-.19-.29-.19-.29l-.11-.18-.16-.31-.09-.18,0-.07a2.69,2.69,0,0,1-.14-.37l-.05-.12c-.05-.16-.09-.32-.13-.49a5.41,5.41,0,0,1-.11-.61c0-.24,0-.42,0-.6v-3.45a1,1,0,0,0-.65-1l-.84-.33a3,3,0,0,1-1.91-2.83V304a3,3,0,0,1,.61-1.83,2.34,2.34,0,0,1-.61-1.58V291a2.36,2.36,0,0,1,2.36-2.36h8.16a2.46,2.46,0,0,1,.91.18,3.91,3.91,0,0,1,.3-.41,3.08,3.08,0,0,1,.24-.27l.17-.17.07-.1v0a.2.2,0,0,0,0-.11v-.56a2.68,2.68,0,0,1-2-2.52v-4.24a3.33,3.33,0,0,1,3.33-3.32h6.23a3.32,3.32,0,0,1,3.27,2.72h1.42v3.36h-3.4v1.24a3.8,3.8,0,0,1-.49,1.83l.14.11-.93.86,0,0-.34.26-.13.08a3.25,3.25,0,0,1-.56.28l-.83.34a.34.34,0,0,0-.22.33v.71l.09.09h7.5a2.37,2.37,0,0,1,1.39-1.24A2.34,2.34,0,0,1,311,288h4a4.33,4.33,0,0,1,3.4,1.64l.22.3.19.31.16.33.14.33.1.34s.07.31.08.37l0,.34,0,.37c0,.05,0,.34,0,.34l0,.2,0,.16c0,.05,0,.12,0,.19l-.09.36-.11.32-.15.35-.18.33-.19.3-.21.27-1.13,1.36a.36.36,0,0,0-.06.36l2.88,7.49a2.53,2.53,0,0,1,.81.29l3.2,1.82a2.47,2.47,0,0,1-.6,4.55,5.64,5.64,0,0,1,.29,1.79,5.75,5.75,0,0,1-1.73,4.11l.44.18-2.14,1-.06,0-.33.13-.16.06-.29.08-.36-.94.26,1-.17,0-.21,0-.38,0-.15,0-.43,0h-.2Zm-8-9.47a.38.38,0,0,0,.29-.15l2.56-3.58a2.27,2.27,0,0,1,.67-.64l-2.64-7.92h-7.22a3.54,3.54,0,0,1-1.48-.31v1.35a.36.36,0,0,0,.36.36H303a3.73,3.73,0,0,1,3.72,3.72v3.77h0a2.7,2.7,0,0,1,2.7,2.7,2.74,2.74,0,0,1-.09.7Z" transform="translate(-282.63 -276.11)" fill="#fff"/><path d="M303.39,278.11a2.32,2.32,0,0,1,2.33,2.32v.4h1.36v1.36h-3.4v2.24a2.71,2.71,0,0,1-.91,2h0l0,0a2.83,2.83,0,0,1-.28.2l-.09.07a2.14,2.14,0,0,1-.4.2l-.48.19-.36.15a1.34,1.34,0,0,0-.85,1.26v1.12l.68.68h8.69a1.36,1.36,0,0,1,.93-1.29A1.21,1.21,0,0,1,311,289h4a3.35,3.35,0,0,1,2.62,1.26h0c.06.08.12.15.17.23a.31.31,0,0,1,.05.1.78.78,0,0,1,.1.15,1.17,1.17,0,0,1,.05.11l.07.14a.61.61,0,0,1,.05.12.78.78,0,0,1,0,.14s0,.09.05.13l0,.13a.74.74,0,0,1,0,.14s0,.09,0,.13a.68.68,0,0,1,0,.14s0,.09,0,.13,0,.1,0,.15v.27a.57.57,0,0,1,0,.13c0,.05,0,.1,0,.15s0,.08,0,.12,0,.1,0,.15l0,.12c0,.05,0,.1,0,.15a.36.36,0,0,1,0,.11.88.88,0,0,1-.05.15s0,.07,0,.11a1,1,0,0,1-.07.15.31.31,0,0,1-.05.1l-.08.15-.06.09-.1.15v0h0l-.14.19-1.14,1.36a1.37,1.37,0,0,0-.22,1.36l3.11,8.1h.29a1.42,1.42,0,0,1,.73.19l3.19,1.82a1.49,1.49,0,0,1,.62,1.93,1.45,1.45,0,0,1-1.32.82,1.41,1.41,0,0,1-.63-.14l-.18-.1-.93-.62a4.75,4.75,0,0,1-1.18,7.92h0l-.31.13-.14,0-.28.08-.19.05-.21,0-.27,0h-.16l-.32,0h-.47l-.2,0-.25,0-.24-.05-.2-.05-.25-.08-.18-.07-.25-.1-.18-.09-.21-.12-.19-.12-.18-.12-.21-.15-.14-.12-.21-.19-.12-.13-.19-.2-.12-.15-.15-.21-.13-.2-.12-.19a2.1,2.1,0,0,1-.13-.26l-.06-.12a0,0,0,0,1,0,0,2.55,2.55,0,0,1-.14-.35s0-.07,0-.11-.08-.26-.11-.4a.31.31,0,0,0,0-.08c0-.14-.05-.28-.07-.43v-.06a3.75,3.75,0,0,1,0-.48h0a4.07,4.07,0,0,1,0-.5v0c0-.16,0-.31.07-.46s0,0,0-.05l0-.12-.42.59a1.36,1.36,0,0,1-1.11.57H297.55a4.76,4.76,0,0,1-2.81,4.34h0l-.32.13-.14,0-.27.08-.2.05-.21,0-.27,0h-.15l-.33,0h-.47l-.2,0-.25,0-.24-.05-.2-.05-.25-.08-.18-.07-.24-.1-.18-.09-.22-.12-.19-.12-.18-.12-.21-.15-.14-.12a1.8,1.8,0,0,1-.2-.19.8.8,0,0,1-.13-.13l-.19-.2-.12-.16-.15-.2-.13-.2a1.18,1.18,0,0,1-.11-.19,2.15,2.15,0,0,1-.14-.26l-.06-.12v0c-.05-.12-.1-.23-.14-.35s0-.07,0-.11-.07-.26-.11-.4,0-.05,0-.08a2,2,0,0,1-.07-.43.13.13,0,0,1,0-.06,3.75,3.75,0,0,1,0-.48h0v-3.38a2,2,0,0,0-1.28-1.9l-.84-.33a2,2,0,0,1-1.28-1.9V304a2,2,0,0,1,2-2H286a1.36,1.36,0,0,1-1.36-1.36V291a1.36,1.36,0,0,1,1.36-1.36h8.16a1.36,1.36,0,0,1,1.36,1.36v-.23h0a2.74,2.74,0,0,1,.62-1.73l.18-.2.17-.16.09-.11a1.61,1.61,0,0,0,.2-.33s0,0,0,0a1.28,1.28,0,0,0,.09-.48v-1.52l-.27,0h-.07a1.71,1.71,0,0,1-1.7-1.64v-4.2a2.32,2.32,0,0,1,2.33-2.32h6.23m-1.07,21.08H303a2.72,2.72,0,0,1,2.72,2.72v4.77h1a1.7,1.7,0,0,1,1.7,1.7,1.66,1.66,0,0,1-.14.66,1.69,1.69,0,0,1-1.56,1h3a1.39,1.39,0,0,0,1.11-.57l2.55-3.58a1.46,1.46,0,0,1,1.19-.61h-.07l-3.17-9.53h-7.95a2.71,2.71,0,0,1-1.92-.79l-.56-.57v3.4a1.36,1.36,0,0,0,1.36,1.36m-8.17,2.72h2.72a1.36,1.36,0,0,0-2.72,0m9.24-25.8h-6.23a4.32,4.32,0,0,0-4.33,4.32v4.27a3.67,3.67,0,0,0,1.7,3l-.39,0H286a3.37,3.37,0,0,0-3.36,3.36v9.52a3.28,3.28,0,0,0,.42,1.62,4,4,0,0,0-.42,1.78v1.34a4,4,0,0,0,2.54,3.76l.84.33,0,3.42v.09c0,.21,0,.41,0,.61v.12c0,.2.06.39.1.58v.06l0,.07a4.77,4.77,0,0,0,.15.54l.06.17c.05.13.1.28.16.42v0l0,.1.09.18q.07.17.18.36c.05.07.09.15.14.23s.14.22.21.31a3.15,3.15,0,0,0,.22.29,1.4,1.4,0,0,0,.17.22,3.65,3.65,0,0,0,.27.3l.17.17.3.27.2.17.29.22a2.2,2.2,0,0,0,.25.17l.28.17.3.17.26.12.34.15.25.09.37.12.27.07.36.08.34.05.3,0,.43,0h.29l.4,0,.22,0,.36,0,.07,0,.25,0,.24-.06-.46-2,.51,1.93.38-.1.18-.07.4-.15h0l.09,0,4.86-2.19-1.81-.55a7.22,7.22,0,0,0,.63-1.42H311.5l0,.07a1.09,1.09,0,0,0,.05.17l.17.42v0l0,.1.09.18.18.36.14.23a3.28,3.28,0,0,0,.21.31c.06.1.14.2.21.3l.18.21a3.65,3.65,0,0,0,.27.3l.17.17a2.52,2.52,0,0,0,.3.27l.19.17.3.22a2.2,2.2,0,0,0,.25.17,2.61,2.61,0,0,0,.28.17l.3.17.26.12.34.15.25.09a2.29,2.29,0,0,0,.37.12l.27.07.35.08.35.05.3,0,.43,0h.29l.4,0,.22,0,.36,0,.07,0,.25,0,.24-.06-.47-2,.52,1.93.38-.1.18-.07.4-.15h0l.09,0,4.88-2.19-1.83-.55a6.75,6.75,0,0,0,.93-3.42,6.89,6.89,0,0,0-.11-1.21,3.44,3.44,0,0,0,1.34-1.46,3.5,3.5,0,0,0-1.44-4.54l-3.18-1.82a3.1,3.1,0,0,0-.56-.25l-2.56-6.67,0-.05.1,0,1-1.36,0-.05,0,0,.12-.19.09-.14.14-.25.07-.15a2.56,2.56,0,0,0,.11-.24l.07-.17.09-.24a1.8,1.8,0,0,1,.05-.19,1.55,1.55,0,0,0,.06-.23l.05-.2c0-.07,0-.15,0-.23l0-.2a1.64,1.64,0,0,1,0-.23c0-.07,0-.14,0-.21v-.44c0-.08,0-.15,0-.23s0-.14,0-.21a1.7,1.7,0,0,0,0-.22,1.18,1.18,0,0,0,0-.2c0-.09,0-.16-.05-.23a1.8,1.8,0,0,1-.05-.19c0-.11-.06-.17-.08-.24l-.07-.18-1.88.68,1.86-.73-.07-.18c0-.07-.07-.13-.1-.2l-.1-.2-.13-.22-.11-.17a3.18,3.18,0,0,0-.27-.37,5.32,5.32,0,0,0-4.18-2h-4a3.52,3.52,0,0,0-1.07.17,3.39,3.39,0,0,0-1.63,1.19h-4.74l0,0a4.22,4.22,0,0,0,.36-.27l0,0,.12-.1,1.71-1.55-.43-.36a4.8,4.8,0,0,0,.28-1.59v-.24h3.4v-5.36h-1.67a4.33,4.33,0,0,0-4-2.72Zm1.91,21.68h4.64l2.2,6.59a3.09,3.09,0,0,0-.33.39L310.19,307a3.42,3.42,0,0,0-.39-.73,3.65,3.65,0,0,0-2.08-1.5v-2.9a4.74,4.74,0,0,0-2.42-4.12Z" transform="translate(-282.63 -276.11)" fill="#fff"/><circle cx="35.33" cy="36.69" r="4.76" fill="#575757"/><circle cx="35.33" cy="36.69" r="1.36" fill="#6e6e6e"/><path d="M311.16,290.35a1.36,1.36,0,0,1,1.36,1.36h0a1.36,1.36,0,0,1-1.36,1.36H309.8v-2.72Z" transform="translate(-282.63 -276.11)" fill="#e0b99d"/><rect x="16.96" y="14.24" width="10.2" height="2.72" fill="#00659d"/><path d="M310.58,289.06a1.37,1.37,0,0,0-.87,1.72l4.85,14.54h4.76l-3.11-8.1a1.37,1.37,0,0,1,.22-1.36l1.14-1.36a3.36,3.36,0,0,0,0-4.25h0A3.35,3.35,0,0,0,315,289h-4A1.21,1.21,0,0,0,310.58,289.06Z" transform="translate(-282.63 -276.11)" fill="#5ca4cc"/><path d="M305.72,301.91a2.72,2.72,0,0,0-2.72-2.72h-.68a1.36,1.36,0,0,1-1.36-1.36v-1.36h-5.45v4.08a1.36,1.36,0,0,0,1.36,1.36h3.41a2,2,0,0,1,2,2v4.43a1.7,1.7,0,0,0,1.7,1.7h2.72a1.7,1.7,0,0,0,1.7-1.7h0a1.7,1.7,0,0,0-1.7-1.7h-1Z" transform="translate(-282.63 -276.11)" fill="#575757"/><path d="M295.51,290.8v5.67H301v-6.12l-.68-.68v-1.12a1.34,1.34,0,0,1,.85-1.26L302,287a2.72,2.72,0,0,0,1.71-2.52v-2.24h-6.81v5.56a1.38,1.38,0,0,1-.39,1l-.17.16A2.74,2.74,0,0,0,295.51,290.8Z" transform="translate(-282.63 -276.11)" fill="#e0b99d"/><path d="M296.87,282.19v1.11l4.62,3.84L302,287a3,3,0,0,0,.81-.5l-5.12-4.26Z" transform="translate(-282.63 -276.11)" fill="#ad8f73"/><path d="M295.51,290.8v5.67H301v-6.12L298.63,288a1.33,1.33,0,0,0-1-.4h-.8v.12a1.38,1.38,0,0,1-.39,1l-.17.16A2.74,2.74,0,0,0,295.51,290.8Z" transform="translate(-282.63 -276.11)" fill="#00659d"/><rect x="2" y="13.56" width="10.88" height="12.24" rx="1.36" fill="#93b658"/><path d="M295.51,291a1.36,1.36,0,0,0-1.36-1.36H286a1.36,1.36,0,0,0-1.36,1.36v1.36h10.88Z" transform="translate(-282.63 -276.11)" fill="#7b9b3d"/><path d="M302.32,308.38a1.7,1.7,0,0,0,1.7,1.7h2.72a1.7,1.7,0,0,0,1.7-1.7h0a1.7,1.7,0,0,0-1.7-1.7h-4.42Z" transform="translate(-282.63 -276.11)" fill="#00659d"/><path d="M286.67,301.91a2,2,0,0,0-2,2v.69h17.69V304h0a2,2,0,0,0-2-2Z" transform="translate(-282.63 -276.11)" fill="#338dbf"/><path d="M299.34,288.73a1.45,1.45,0,0,0-2.47,1h0a1.44,1.44,0,0,0,.43,1l4.22,4.23a2.71,2.71,0,0,0,1.92.79h8.4a1.36,1.36,0,0,0,1.36-1.36h0a1.36,1.36,0,0,0-1.36-1.36h-7a2.72,2.72,0,0,1-1.92-.8Z" transform="translate(-282.63 -276.11)" fill="#0071af"/><path d="M311.84,293.07a1.36,1.36,0,0,1,1.36,1.36h0a1.36,1.36,0,0,1-1.36,1.36h-1.36v-2.72Z" transform="translate(-282.63 -276.11)" fill="#e0b99d"/><path d="M313.88,289l1,3a2.74,2.74,0,0,0,1.37,1.58l1.46.73a3.36,3.36,0,0,0-.1-4.06h0A3.35,3.35,0,0,0,315,289Z" transform="translate(-282.63 -276.11)" fill="#cbe2ef"/><path d="M284.63,304.64v.65a2,2,0,0,0,1.28,1.9l.84.33a2,2,0,0,1,1.28,1.9v3.38h3.4a1.36,1.36,0,1,1,2.72,0h17.67a1.36,1.36,0,0,0,1.11-.57l2.1-2.94a1.33,1.33,0,0,1,1.1-.57h3.8a1.4,1.4,0,0,1,.75.22l1.34.9.18.1a1.46,1.46,0,0,0,1.95-.68,1.49,1.49,0,0,0-.62-1.93l-3.19-1.82a1.42,1.42,0,0,0-.73-.19h-5a1.46,1.46,0,0,0-1.19.61l-2.55,3.58a1.39,1.39,0,0,1-1.11.57H304a1.7,1.7,0,0,1-1.7-1.7v-3.74Z" transform="translate(-282.63 -276.11)" fill="#5ca4cc"/><circle cx="10.16" cy="36.69" r="4.76" fill="#575757"/><circle cx="10.16" cy="36.69" r="1.36" fill="#6e6e6e"/><path d="M295.51,296.47v4.08a1.36,1.36,0,0,0,1.36,1.36H301A5.44,5.44,0,0,1,295.51,296.47Z" transform="translate(-282.63 -276.11)" fill="#4a4a4a"/><path d="M297.55,287.63a8.85,8.85,0,0,1,6.13-5.2v-.24h-6.81v5.44Z" transform="translate(-282.63 -276.11)" fill="#c69b7d"/><path d="M296.87,282.19v1.11l2.24,1.86a8.8,8.8,0,0,1,1-1l-2.43-2Z" transform="translate(-282.63 -276.11)" fill="#ad8f73"/><path d="M294.83,280.43v4.2a1.7,1.7,0,0,0,3.4-.1h0a2.34,2.34,0,0,1,2.34-2.34h6.51v-1.36h-1.36v-.4a2.32,2.32,0,0,0-2.33-2.32h-6.23a2.32,2.32,0,0,0-2.33,2.32Z" transform="translate(-282.63 -276.11)" fill="#c72"/><rect x="14.24" y="4.04" width="1.36" height="1.36" fill="#e59a57"/></svg>