<svg xmlns="http://www.w3.org/2000/svg" width="62.02" height="58.39" viewBox="0 0 62.02 58.39"><g style="isolation:isolate"><path d="M288.29,88.73a2.61,2.61,0,0,1-1.88-.75l0,0-.05-.05c-.37-.5-1.36-1.75-2.11-2.55a10.79,10.79,0,0,1-1.91,1.4l-2.21,1.06.84-2.3a9.09,9.09,0,0,1,1.12-2.16L279,80.54l-5-5-2.89-3.49a9.24,9.24,0,0,0-1.61-1.46l-.06,0-.05,0c-3.06-3.07-4-7.13-4.62-11.06-.4-2.69,1-6,3.87-9v-.26l.61-.25a6.59,6.59,0,0,0,2.26-1.51,5.78,5.78,0,0,1,1.74-1.25A14.38,14.38,0,0,1,279.07,46a15,15,0,0,1,1.64.09,14.28,14.28,0,0,1,8,3.6,14.33,14.33,0,0,1,7.38-3.25c.09-5.38,2.16-10.11,5.76-13.08l.72-.6.65.69a24.66,24.66,0,0,1,6,10.23,16.56,16.56,0,0,1,.07,8.3c.27.44.51.88.74,1.32a11.5,11.5,0,0,0,1.26,2,7,7,0,0,1,1.38,5.1l.79,0A16.07,16.07,0,0,1,323.85,64l.61.52-.38.71a18.71,18.71,0,0,1-12.41,9.41,17.83,17.83,0,0,1-3.76.39h0a20.39,20.39,0,0,1-4.1-.43c-1.64,1.32-2.82,2.31-3.33,2.82l-.09.09.9.78-.62.75a6.73,6.73,0,0,1-3.41,2.16l-1.55,1.94,0,.07L291,87.57A3.88,3.88,0,0,1,288.29,88.73Z" transform="translate(-263.7 -31.37)" fill="#fff"/><path d="M302.45,34.11a23.7,23.7,0,0,1,5.75,9.8,15.36,15.36,0,0,1,0,8.21A44.54,44.54,0,0,0,310.47,56c1.23,1.5,1.35,3.52,1,5.55a17.65,17.65,0,0,1,1.92-.11,15.05,15.05,0,0,1,9.79,3.37,17.76,17.76,0,0,1-11.75,8.89,16.61,16.61,0,0,1-3.54.37,19.43,19.43,0,0,1-4.35-.51c-1.33,1.06-3.05,2.46-3.78,3.19-.24.23-.54.57-.88,1a9.23,9.23,0,0,1,1,.74,5.71,5.71,0,0,1-3.2,1.91c-1,1.2-1.78,2.22-1.78,2.22l-4.64,4.3a3,3,0,0,1-2,.89,1.61,1.61,0,0,1-1.17-.46,32.24,32.24,0,0,0-2.67-3.11l-.19-.17a19.78,19.78,0,0,1-2.39,1.84,9.18,9.18,0,0,1,1.52-2.63l-3.74-3.4-4.95-5-2.83-3.42a11.65,11.65,0,0,0-1.78-1.63c-2.87-2.86-3.78-6.77-4.34-10.49-.42-2.79,1.53-6.07,3.87-8.42h0c2.36-1,2.55-2.12,4-2.76A13.27,13.27,0,0,1,279.07,47a13.08,13.08,0,0,1,1.53.09,13.27,13.27,0,0,1,7.91,3.82l.15.15a13.25,13.25,0,0,1,8.4-3.72c-.13-5,1.57-10,5.39-13.21m.19-2.74-1.46,1.2a17.83,17.83,0,0,0-6.09,13,15.34,15.34,0,0,0-6.39,2.82,15.17,15.17,0,0,0-7.88-3.3,14.67,14.67,0,0,0-1.75-.1,15.2,15.2,0,0,0-6.24,1.32,7,7,0,0,0-2,1.43A5.54,5.54,0,0,1,268.86,49l-.37.16-.28.28c-3.24,3.24-4.9,7-4.44,10.13.62,4.1,1.64,8.34,4.9,11.61l.1.1.12.09a9.66,9.66,0,0,1,1.33,1.16l0,.08.06.06,2.83,3.42.06.07.06.07,5,4.94,0,0,0,0,2.45,2.23a9.71,9.71,0,0,0-.76,1.64l-1.67,4.61,4.42-2.13a7.14,7.14,0,0,0,1.35-.92c.53.61,1.08,1.31,1.44,1.77l.08.11.1.1a3.62,3.62,0,0,0,2.58,1,5,5,0,0,0,3.38-1.44L296.28,84l.12-.1.1-.13s.57-.73,1.34-1.69a7.56,7.56,0,0,0,3.59-2.39l1.25-1.49-.79-.7c.53-.47,1.27-1.08,2.19-1.82a20.69,20.69,0,0,0,3.83.36,18.5,18.5,0,0,0,4-.42A19.71,19.71,0,0,0,325,65.71l.75-1.42-1.23-1a17,17,0,0,0-10.85-3.84A7.56,7.56,0,0,0,312,54.69a10.73,10.73,0,0,1-1.15-1.87c-.17-.34-.35-.68-.55-1a17.59,17.59,0,0,0-.18-8.4,25.4,25.4,0,0,0-6.21-10.65l-1.28-1.38Z" transform="translate(-263.7 -31.37)" fill="#fff"/><path d="M307.39,51.18h0A13.34,13.34,0,0,0,288.66,51l-.15-.15a13.37,13.37,0,0,0-14.87-2.76c-1.46.64-1.65,1.78-4,2.76h0c-2.34,2.35-4.29,5.63-3.87,8.42.56,3.72,1.47,7.63,4.34,10.49a11.65,11.65,0,0,1,1.78,1.63l2.83,3.42,4.95,5,4.8,4.36a32.24,32.24,0,0,1,2.67,3.11c.85.85,2.31.42,3.16-.43l4.64-4.3s3.51-4.48,4.86-5.82,5.52-4.56,5.52-4.56l2.09-2.09a13.36,13.36,0,0,0,3.21-5.15c1-2.9,1.82-6.58-.13-9-1.27-1.55-1.67-3.38-3.07-4.78Z" transform="translate(-263.7 -31.37)" fill="#ed6262"/><path d="M278.65,65.24a4,4,0,0,1-4-4,.73.73,0,0,1,.71-.72.71.71,0,0,1,.72.71,2.6,2.6,0,0,0,5.19,0,.73.73,0,0,1,.71-.74.7.7,0,0,1,.72.7h0A4,4,0,0,1,278.65,65.24Z" transform="translate(-263.7 -31.37)" fill="#cc5656"/><path d="M298.69,65.24a4,4,0,0,1-4-4,.73.73,0,0,1,.72-.72.72.72,0,0,1,.72.71,2.59,2.59,0,0,0,5.18,0,.73.73,0,0,1,.72-.74.7.7,0,0,1,.71.7h0A4,4,0,0,1,298.69,65.24Z" transform="translate(-263.7 -31.37)" fill="#cc5656"/><path d="M297.51,64.82a14.19,14.19,0,0,0,1.86-5.34c.16-2.39-.86-4.68-1.53-7-1.84-6.42-.55-14.12,4.61-18.38a23.7,23.7,0,0,1,5.75,9.8A14.41,14.41,0,0,1,306.9,55a30.33,30.33,0,0,1-2.75,3.55A54,54,0,0,0,297.3,69a25.75,25.75,0,0,1,12.29-7.18c4.7-1,9.94-.17,13.61,3a17.76,17.76,0,0,1-11.75,8.89,18.65,18.65,0,0,1-14.76-3.33,54.9,54.9,0,0,1-4.65,6,9.19,9.19,0,0,1,7.86,2,5.74,5.74,0,0,1-4.57,2,6.28,6.28,0,0,1-4.66-2.37c-2,2.16-7.79,7.27-8.8,7.76,1.31-3.63,5.05-5.64,7.53-8.37A57.8,57.8,0,0,0,297.51,64.82Z" transform="translate(-263.7 -31.37)" fill="#a0c8af"/><path d="M290.2,62.17a7.87,7.87,0,0,0-.52,5.66c.33,1.14,3.36,6.28,4.49,3.89.89-1.89-.22-4.89-1.2-6.54A10,10,0,0,0,290.2,62.17Z" transform="translate(-263.7 -31.37)" fill="#a0c8af"/><path d="M304.2,68.72A28.72,28.72,0,0,1,298.46,70a16.64,16.64,0,0,0,11.35,3,13.8,13.8,0,0,0,9.95-6,10.28,10.28,0,0,1,1.3-1.83C315.8,67.59,309.71,67.25,304.2,68.72Z" transform="translate(-263.7 -31.37)" style="mix-blend-mode:soft-light"/><path d="M303.09,45c.53,3,.93,6.07.15,9a11.53,11.53,0,0,1-2.85,5,7,7,0,0,0-.38-2.31c-1-3.41-2-6.88-1.91-10.43a19.77,19.77,0,0,1,4.18-11.49C301.54,38,302.53,41.79,303.09,45Z" transform="translate(-263.7 -31.37)" style="mix-blend-mode:soft-light"/><path d="M293.52,71.43a3.4,3.4,0,0,1-2.18-1.66A8.22,8.22,0,0,1,290,66.56a5.78,5.78,0,0,1,0-2c.1-.47.37-1.37.82-.57a15.25,15.25,0,0,1,.84,2.32l.86,2.39C292.87,69.62,293.2,70.52,293.52,71.43Z" transform="translate(-263.7 -31.37)" style="mix-blend-mode:soft-light"/><path d="M299,78.66a5.29,5.29,0,0,1-5.14,1.14,8,8,0,0,1-2-1.28c-.22-.17-.65-.45-.52-.77s.39-.27.57-.28a11.57,11.57,0,0,1,2.08.4C295.67,78.17,297.34,78.43,299,78.66Z" transform="translate(-263.7 -31.37)" style="mix-blend-mode:soft-light"/></g></svg>