<svg xmlns="http://www.w3.org/2000/svg" width="31.64" height="31.48" viewBox="0 0 31.64 31.48"><path d="M194.13,88.73a6.72,6.72,0,0,1-3.28-.68A8.5,8.5,0,0,1,187,83.62a19.69,19.69,0,0,1-1-5.92l0-.33a1.19,1.19,0,0,1,.08-.47,41.15,41.15,0,0,1,.57-6.2,17.25,17.25,0,0,0,.09-2c0-.24,0-.51-.06-.78a6.89,6.89,0,0,1,.56-4.14A7.22,7.22,0,0,1,192,60.08a20.12,20.12,0,0,1,6.17-.83,61.3,61.3,0,0,1,10.69,1.22c2.81.52,4.59,1.69,5.42,3.59a11.09,11.09,0,0,1,.69,3.67l.06.78c.08.93.21,1.84.32,2.63a19,19,0,0,1,.28,2.89,49.11,49.11,0,0,1-.39,5c-.05.38-.08.76-.11,1.15a10,10,0,0,1-1.39,5,6.39,6.39,0,0,1-4.86,2.39v.09h-1.56c-1.08,0-2.14.2-3.27.35a34.63,34.63,0,0,1-3.73.38H199c-.63,0-1.36.08-2.15.15A26.8,26.8,0,0,1,194.13,88.73Z" transform="translate(-185 -58.25)" fill="#fff"/><path d="M198.17,60.25a59.85,59.85,0,0,1,10.51,1.21c1.9.34,3.85,1.1,4.68,3A13.2,13.2,0,0,1,214,68.6c.2,2.22.63,4.15.6,5.41,0,1.63-.19,3.25-.38,4.87-.24,1.91-.17,4.09-1.33,5.73s-3.16,1.92-5,2v0h-.61c-2.52.12-5,.74-7.54.74h-.46l0,0v0H199c-1.41,0-3.21.33-4.85.33a5.83,5.83,0,0,1-2.8-.56A7.38,7.38,0,0,1,188,83.25a19.56,19.56,0,0,1-1-5.94s0-.07.09-.1a38.19,38.19,0,0,1,.54-6.34,14.43,14.43,0,0,0,.1-2.17c0-1.3-.39-3.13.36-4.35A6.26,6.26,0,0,1,192.31,61a19.32,19.32,0,0,1,5.86-.79m0-2a21.09,21.09,0,0,0-6.47.88,8.21,8.21,0,0,0-5.31,4.17,7.65,7.65,0,0,0-.7,4.74c0,.26,0,.51.05.74a14.29,14.29,0,0,1-.09,1.81,44.81,44.81,0,0,0-.57,6.15,2,2,0,0,0-.08.7l0,.33A20.14,20.14,0,0,0,186.11,84a9.5,9.5,0,0,0,4.26,5,7.68,7.68,0,0,0,3.76.8c1,0,1.89-.09,2.8-.18.76-.08,1.47-.15,2-.15h.19l2.25.07v-.14c1-.08,1.87-.2,2.78-.33,1.1-.15,2.15-.29,3.18-.35h2.79l0-.26a6.64,6.64,0,0,0,4.43-2.64,10.68,10.68,0,0,0,1.56-5.52c0-.38.07-.75.11-1.12a47.76,47.76,0,0,0,.4-5.07,19.27,19.27,0,0,0-.29-3c-.11-.82-.23-1.67-.32-2.58,0-.25,0-.51-.05-.76a11.77,11.77,0,0,0-.78-4c-1-2.2-3-3.6-6.15-4.17a62.06,62.06,0,0,0-10.87-1.24Z" transform="translate(-185 -58.25)" fill="#fff"/><path d="M214,68.6a13.2,13.2,0,0,0-.67-4.14c-.83-1.9-2.78-2.66-4.68-3-5-.91-11.57-2-16.37-.42a6.26,6.26,0,0,0-4.22,3.31c-.75,1.22-.4,3.05-.36,4.35a14.43,14.43,0,0,1-.1,2.17l20.25,15.79h0v0c1.88-.1,3.88-.37,5-2s1.09-3.82,1.33-5.73c.19-1.62.35-3.24.38-4.87C214.66,72.75,214.23,70.82,214,68.6Z" transform="translate(-185 -58.25)" fill="#e26f9b"/><path d="M207.54,84.89c-1.53-6-2.92-12.46-8.76-15.42-3.28-1.66-7.88-.89-11.15,1.4a37.94,37.94,0,0,0-.54,6.44l12.18,10.1c2.69.08,5.33-.61,8-.74h.61A16.68,16.68,0,0,0,207.54,84.89Z" transform="translate(-185 -58.25)" fill="#ed9b88"/><path d="M187,77.31a19.56,19.56,0,0,0,1,5.94,7.38,7.38,0,0,0,3.35,3.92c2.09,1.15,5.6.17,7.91.24-.19-2.15.17-3.88-2.13-7.13C193.92,75.78,187,76.85,187,77.31Z" transform="translate(-185 -58.25)" fill="#e8d889"/><path d="M207.23,66.28a2.05,2.05,0,0,0-1.94.7,1.79,1.79,0,1,0,3.11,1.79A1.72,1.72,0,0,0,207.23,66.28Z" transform="translate(-185 -58.25)" fill="#fff"/><path d="M202,85.33c-1.7,0-3.4-.1-5.11-.11s-3.94.2-5.3-1.11-1.15-3.78-1.34-5.62a30,30,0,0,1-.21-6.14c.11-1.1.15-2.2.18-3.31a7,7,0,0,1,.35-2.69c.75-1.71,2.29-2.25,4-2.42s3.55-.27,5.33-.28c2.45,0,4.91-.19,7.36-.08a5.05,5.05,0,0,1,2.29.49,4.21,4.21,0,0,1,2.2,3.38c.08,3.15-.33,6.3,0,9.44a30.18,30.18,0,0,1,0,4.46,4.14,4.14,0,0,1-2.15,3.27c-1.17.65-2.63.54-3.93.64-.59,0-1.19-.06-1.79,0S202.67,85.32,202,85.33Zm0-1a42.79,42.79,0,0,0,5.18-.47,3.17,3.17,0,0,0,3.33-3.68c.08-2.34,0-4.67,0-7,0-1.11,0-2.22,0-3.33a7.44,7.44,0,0,0-.33-3.32c-.73-1.45-2-1.57-3.47-1.6-2.3,0-4.57,0-6.87-.19a17.78,17.78,0,0,0-4,.14c-1.11.17-2.62.2-3.52,1a3.15,3.15,0,0,0-1,1.89c-.14,1.27-.12,2.58-.17,3.86s-.1,2.83,0,4.25.31,3,.35,4.5c0,1.18.07,2.44,1.24,3.07a4.77,4.77,0,0,0,2.12.32C197.24,83.82,199.61,84.26,202,84.3Z" transform="translate(-185 -58.25)" fill="#fff"/><path d="M206.45,74.39a6.3,6.3,0,0,1-.38,1.76A8,8,0,0,1,205,78a4.23,4.23,0,0,1-1.61,1.39,5.41,5.41,0,0,1-2.1.48,5.86,5.86,0,0,1-5.37-3.44,5,5,0,0,1-.45-3.11,6.1,6.1,0,0,1,1.42-2.75,3.49,3.49,0,0,1,1.7-1.18c.33-.11.64-.28,1-.39a5.94,5.94,0,0,1,1.18-.27,4.51,4.51,0,0,1,2.87.62,4.78,4.78,0,0,1,1.18,1.11,10.82,10.82,0,0,1,.94,1.38A6,6,0,0,1,206.45,74.39Zm-1.29,0a4.09,4.09,0,0,0-1.52-3.17,4.6,4.6,0,0,0-2.69-1h0a4.52,4.52,0,0,0-1.78.35,6.48,6.48,0,0,0-1.08.63,4,4,0,0,0-.3,6.09,5,5,0,0,0,3.2,1.23c-.08,0,0,0,0,0h.31a3.92,3.92,0,0,0,1-.21,4.16,4.16,0,0,0,1.59-1,4.73,4.73,0,0,0,1.24-3Z" transform="translate(-185 -58.25)" fill="#fff"/></svg>