<svg xmlns="http://www.w3.org/2000/svg" width="33.45" height="38.13" viewBox="0 0 33.45 38.13"><path d="M419.93,316a7.66,7.66,0,0,1-3-.58.77.77,0,0,0-.34-.07.8.8,0,0,0-.34.07,7.63,7.63,0,0,1-3,.58c-4.27,0-12.34-3.28-12.34-15.73,0-8.77,5.61-11.9,10.87-11.9h.49a8.73,8.73,0,0,1-4.26-6.5,2.06,2.06,0,0,1,0-.43,1.8,1.8,0,0,1,1.77-1.57h.23a8.69,8.69,0,0,1,6.69,4.68l.95-1.72v1a8.88,8.88,0,0,1,5.89-2.24,1.91,1.91,0,0,1,1.95,2,2,2,0,0,1-.49,1.32,1.91,1.91,0,0,1-1.46.64,5,5,0,0,0-4.58,3.07,13.11,13.11,0,0,1,2.51-.25c5.26,0,10.88,3.13,10.88,11.9,0,6.45-2.29,10.17-4.21,12.14a11.44,11.44,0,0,1-8.13,3.59Z" transform="translate(-399.83 -278.83)" fill="#fff"/><path d="M409.7,280.83h.1a7.73,7.73,0,0,1,6.62,6.13l.15-.3,0-.06h0a7.88,7.88,0,0,1,6.87-4,1,1,0,0,1,0,1.92,5.94,5.94,0,0,0-5.93,5.48,11.48,11.48,0,0,1,3.86-.66c4.66,0,9.88,2.72,9.88,10.9,0,10.88-6.68,14.73-11.34,14.73a6.48,6.48,0,0,1-2.64-.5,1.93,1.93,0,0,0-.75-.15,2,2,0,0,0-.75.15,6.39,6.39,0,0,1-2.63.5c-4.66,0-11.34-3.85-11.34-14.73,0-8.18,5.22-10.9,9.87-10.9a11.35,11.35,0,0,1,3.92.68,8,8,0,0,1,.24-1.55h0l-.14,0h0a7.73,7.73,0,0,1-6.75-6.75.74.74,0,0,1,0-.21.78.78,0,0,1,.77-.68m0-2h0a2.78,2.78,0,0,0-2.76,2.43,2.89,2.89,0,0,0,0,.72,9.67,9.67,0,0,0,2.6,5.51,11.51,11.51,0,0,0-5.86,2.73c-1.76,1.58-3.85,4.61-3.85,10,0,12.28,8,16.73,13.34,16.73a8.63,8.63,0,0,0,3.38-.64,8.68,8.68,0,0,0,3.39.64c5.36,0,13.34-4.45,13.34-16.73,0-9.52-6.4-12.9-11.88-12.9h-.34a3.93,3.93,0,0,1,2.41-.83,2.89,2.89,0,0,0,2.21-1,3,3,0,0,0,.74-2,2.93,2.93,0,0,0-2.95-3,9.86,9.86,0,0,0-5.9,2l-.32-1.14-.67,1.19a9.7,9.7,0,0,0-6.54-3.74,1.83,1.83,0,0,0-.34,0Z" transform="translate(-399.83 -278.83)" fill="#fff"/><path d="M418.33,314.78a2.22,2.22,0,0,0-.68-.19A5.27,5.27,0,0,0,418.33,314.78Z" transform="translate(-399.83 -278.83)" fill="#dd6966"/><path d="M415.59,290.45a7.88,7.88,0,0,1,7.88-7.87,1,1,0,0,1,0,1.92,6,6,0,0,0-6,5.95A1,1,0,0,1,415.59,290.45Z" transform="translate(-399.83 -278.83)" fill="#6d5c49"/><path d="M415.92,288.46a.78.78,0,0,0,.87-.68.67.67,0,0,0,0-.2,6.52,6.52,0,0,0-.19-1,8.09,8.09,0,0,0-.76,1.85Z" transform="translate(-399.83 -278.83)" fill="#594e43"/><path d="M408.93,281.72a7.73,7.73,0,0,0,6.75,6.75.78.78,0,0,0,.87-.68.74.74,0,0,0,0-.21,7.73,7.73,0,0,0-6.75-6.75.78.78,0,0,0-.87.68A.74.74,0,0,0,408.93,281.72Z" transform="translate(-399.83 -278.83)" fill="#9c3"/><path d="M415.8,314.45a1.86,1.86,0,0,1,1.5,0c4.12,1.83,14-1,14-14.23,0-10.93-9.33-12.11-14.16-10.08a1.48,1.48,0,0,1-1.13,0c-4.84-2-14.16-.85-14.16,10.08C401.83,313.44,411.68,316.28,415.8,314.45Z" transform="translate(-399.83 -278.83)" fill="#d2423f"/></svg>