<svg xmlns="http://www.w3.org/2000/svg" width="45.96" height="40.75" viewBox="0 0 45.96 40.75"><path d="M220.82,137.76a9.34,9.34,0,0,1,1.18.07,10.22,10.22,0,0,1,6.16,3l.15.14,2.09,2,2.1-2a10.3,10.3,0,0,1,7.2-2.92c.27,0,.55,0,.82,0a10.35,10.35,0,0,1,6.5,3,7.44,7.44,0,0,1,1.17,1.82,15.3,15.3,0,0,0,1.71,2.74c.79.95.65,3-.39,6.09a10.24,10.24,0,0,1-2.49,4l-2,2c-.86.67-4.39,3.42-5.65,4.68s-4.2,4.95-4.95,5.91l-4.11,3.8a23.59,23.59,0,0,0-2.13-2.36c-1.1-1-4.3-3.9-4.75-4.32l-4.8-4.79L216,157.37a12,12,0,0,0-2.16-2.05c-2.14-2.23-2.88-5.49-3.36-8.67-.21-1.36.88-3.57,2.66-5.48a10.7,10.7,0,0,0,2.86-2,2.38,2.38,0,0,1,.62-.5,10.3,10.3,0,0,1,4.21-.89m0-3a13.43,13.43,0,0,0-5.43,1.14c-1.46.65-1.65,1.78-4,2.77h0c-2.34,2.35-4.29,5.63-3.87,8.42.56,3.72,1.47,7.62,4.34,10.49a11.13,11.13,0,0,1,1.78,1.63l2.83,3.42,5,5,4.8,4.35a33.24,33.24,0,0,1,2.67,3.12,1.61,1.61,0,0,0,1.17.46,3,3,0,0,0,2-.89l4.64-4.31s3.51-4.48,4.86-5.81,5.52-4.56,5.52-4.56l2.09-2.09a13.36,13.36,0,0,0,3.21-5.15c1-2.9,1.82-6.59-.13-9-1.27-1.54-1.67-3.37-3.07-4.78h0a13.27,13.27,0,0,0-8.38-3.87c-.35,0-.71,0-1.06,0a13.27,13.27,0,0,0-9.29,3.77l-.15-.15a13.27,13.27,0,0,0-7.91-3.82,13.08,13.08,0,0,0-1.53-.09Z" transform="translate(-207.44 -134.76)" fill="#ed6262"/></svg>