<svg xmlns="http://www.w3.org/2000/svg" width="27" height="24.7" viewBox="0 0 27 24.7"><path d="M45,76.54a4.79,4.79,0,0,1-1.64-.3,14.23,14.23,0,0,1-4.73-2.9,30,30,0,0,1-5.94-7.7A11.81,11.81,0,0,1,31,60.33a4,4,0,0,1,.46-2.19,12.85,12.85,0,0,1,5-5,1.83,1.83,0,0,1,.9-.26,1.72,1.72,0,0,1,1.3.71c.51.61,1.06,1.19,1.6,1.76.39.41.78.82,1.15,1.24.76.84,1.67,2.13.88,3.67a3.13,3.13,0,0,1-2.84,1.79,3.08,3.08,0,0,1-.51,0h-.11c-.11,0-.16,0-.21.31a3.6,3.6,0,0,0-.07,1.14c.21,1.47,3.18,4.74,4.61,5.07l.31.08v-.06c-.22-1.38.79-1.87,1.45-2.19l.33-.16a4.31,4.31,0,0,1,2-.63,2.13,2.13,0,0,1,1.56.68,16.47,16.47,0,0,1,3.21,4,3.22,3.22,0,0,1,.14,3.07,3.06,3.06,0,0,1-2.63,1.35,2.27,2.27,0,0,0-1.54.66A4.25,4.25,0,0,1,45,76.54ZM34.67,57.78c-.59.14-.87.89-1.14,1.62a1.72,1.72,0,0,0-.12.62,5.24,5.24,0,0,0,.31,2A22.63,22.63,0,0,0,38,69.16a15.8,15.8,0,0,0,5.21,4.42,4.09,4.09,0,0,0,1.74.49,2.39,2.39,0,0,0,1.27-.37c.52-.32.57-.5.57-.54s-.09-.28-.39-.53a4.44,4.44,0,0,1-1-1.25c-.29-.53-.47-.58-.64-.58a1.18,1.18,0,0,0-.43.1,2.59,2.59,0,0,1-.88.16,3.36,3.36,0,0,1-1.7-.51,13.35,13.35,0,0,1-5.08-5.22,3.82,3.82,0,0,1-.32-3.52c.54-1.08.2-1.77-.72-2.83a3.36,3.36,0,0,1-.42-.64c-.13-.24-.32-.57-.44-.57ZM46.24,68.4a20.13,20.13,0,0,0,3,3.82.22.22,0,0,0,.17.08,1,1,0,0,0,.37-.11c.21-.09.22-.18.2-.31a12.08,12.08,0,0,0-2.82-3.79h-.11A1.6,1.6,0,0,0,46.24,68.4ZM36.43,56c.25.34.49.69.72,1a12.46,12.46,0,0,0,2,2.44.47.47,0,0,0,.32.16.56.56,0,0,0,.27-.1c.36-.23.42-.3.41-.45A17.48,17.48,0,0,0,37,55.54,1,1,0,0,0,36.43,56Z" transform="translate(-30.47 -52.34)" fill="#ad8f73"/><path d="M37.34,53.4a1.21,1.21,0,0,1,.92.54c.88,1,1.85,2,2.76,3s1.42,1.92.8,3.11a2.61,2.61,0,0,1-2.39,1.52l-.44,0-.18,0c-.47,0-.63.31-.7.72a4.07,4.07,0,0,0-.07,1.3c.23,1.67,3.35,5.11,5,5.49a2.64,2.64,0,0,0,.56.11c.25,0,.43-.14.35-.66-.19-1.2.79-1.44,1.53-1.83a3.93,3.93,0,0,1,1.73-.57,1.66,1.66,0,0,1,1.21.53,15.9,15.9,0,0,1,3.11,3.9c1,2,.16,3.58-2.06,3.69a2.78,2.78,0,0,0-1.85.79A3.81,3.81,0,0,1,45,76a4.53,4.53,0,0,1-1.47-.27A13.58,13.58,0,0,1,39,73a29.92,29.92,0,0,1-5.85-7.58,11.43,11.43,0,0,1-1.66-5.08,3.44,3.44,0,0,1,.4-1.92,12.39,12.39,0,0,1,4.79-4.79,1.4,1.4,0,0,1,.67-.2m2.1,6.73A1,1,0,0,0,40,60c.34-.22.67-.43.64-.91s-3-3.93-3.49-4h-.08c-.57,0-1.36.81-1.07,1.19a21.93,21.93,0,0,0,2.81,3.62,1,1,0,0,0,.65.28m5.48,14.44a2.81,2.81,0,0,0,1.53-.45c.87-.52,1.18-1.08.24-1.87a4,4,0,0,1-.91-1.12c-.28-.52-.59-.83-1.07-.83a1.67,1.67,0,0,0-.6.13,2,2,0,0,1-.71.13A3,3,0,0,1,42,70.12a12.92,12.92,0,0,1-4.89-5A3.35,3.35,0,0,1,36.75,62c.72-1.45,0-2.41-.79-3.38-.41-.46-.62-1.38-1.24-1.38l-.16,0c-.88.2-1.22,1.2-1.53,2a2.29,2.29,0,0,0-.12.73,5.83,5.83,0,0,0,.33,2.11,23.66,23.66,0,0,0,4.34,7.32A16.58,16.58,0,0,0,43,74a4.59,4.59,0,0,0,2,.54m4.49-1.77a1.56,1.56,0,0,0,.57-.15.75.75,0,0,0,.5-.83c0-.72-2.53-4.09-3.2-4.21a.93.93,0,0,0-.23,0,2.28,2.28,0,0,0-1.23.49c-.24.16-.12.39,0,.58a20.36,20.36,0,0,0,3.07,3.91.71.71,0,0,0,.53.23M37.34,52.4h0a2.33,2.33,0,0,0-1.14.32A13.25,13.25,0,0,0,31,57.88a4.46,4.46,0,0,0-.53,2.47,12.45,12.45,0,0,0,1.79,5.53,30.65,30.65,0,0,0,6,7.83,14.66,14.66,0,0,0,4.89,3A5.3,5.3,0,0,0,45,77a4.8,4.8,0,0,0,3.26-1.31,1.81,1.81,0,0,1,1.23-.53,3.53,3.53,0,0,0,3-1.59,3.67,3.67,0,0,0-.13-3.55,16.62,16.62,0,0,0-3.26-4.13,2.68,2.68,0,0,0-1.95-.85,4.73,4.73,0,0,0-2.19.68l-.32.16a2.64,2.64,0,0,0-1.76,2c-1.35-.64-3.74-3.35-3.9-4.53a2.86,2.86,0,0,1,0-.85l.36,0a3.61,3.61,0,0,0,3.28-2.06c1-2-.46-3.69-1-4.24S41,55.44,40.61,55c-.56-.59-1.09-1.15-1.59-1.74a2.25,2.25,0,0,0-1.68-.89Zm2.11,6.7h0a12,12,0,0,1-1.88-2.35l-.1-.14a23.5,23.5,0,0,1,2.05,2.44l-.07.05Zm-5.54,1v0a1.18,1.18,0,0,1,.06-.38l0-.09a3.63,3.63,0,0,1,.6-1.2,2.39,2.39,0,0,1,.12.22,4.24,4.24,0,0,0,.49.73c.84,1,1.06,1.43.64,2.26a4.32,4.32,0,0,0,.33,4A13.92,13.92,0,0,0,41.45,71a3.88,3.88,0,0,0,1.95.58,3.05,3.05,0,0,0,1.05-.19.79.79,0,0,1,.26-.07s.07.09.19.31A5.27,5.27,0,0,0,46.05,73a.55.55,0,0,1,.11.1l-.22.15a2,2,0,0,1-1,.3,3.57,3.57,0,0,1-1.52-.44,15.29,15.29,0,0,1-5-4.29,22.18,22.18,0,0,1-4.17-7,4.67,4.67,0,0,1-.28-1.75ZM47,68.6H47a14.67,14.67,0,0,1,2.32,3,20.46,20.46,0,0,1-2.38-3Z" transform="translate(-30.47 -52.34)" fill="#fff"/><path d="M46.56,63.48c-.76,0-1.53,0-2.29,0a1.41,1.41,0,0,1-1.51-1,1.69,1.69,0,0,1,.56-1.66l.25-.24a26.17,26.17,0,0,0,2.55-2.81l.19-.24a1.87,1.87,0,0,0,.24-.31c.55-1.1.22-1.57-.18-1.88a.3.3,0,0,0-.2-.06,1.7,1.7,0,0,0-1.29,1,1.33,1.33,0,0,0-.11.32c-.1.37-.29,1-1,1a1.34,1.34,0,0,1-.71-.23,1.43,1.43,0,0,1-.65-.85,2.44,2.44,0,0,1,.48-1.72,4.23,4.23,0,0,1,3.4-1.94,2.66,2.66,0,0,1,1.52.44,3.94,3.94,0,0,1,.75,5.22,15.11,15.11,0,0,1-1.08,1.39l-.27.31c-.24.29-.49.57-.79.91H48.1c1.17,0,1.35.75,1.38,1.07a1.12,1.12,0,0,1-.28.87,1.45,1.45,0,0,1-1.09.42Z" transform="translate(-30.47 -52.34)" fill="#ad8f73"/><path d="M46.3,53.34a2.19,2.19,0,0,1,1.24.35,3.44,3.44,0,0,1,.61,4.54,17.11,17.11,0,0,1-1.31,1.64c-.42.5-.86,1-1.54,1.74h2.8c.42,0,.84.12.88.6s-.41.75-.88.76H46.56l-2.28,0c-.45,0-.89-.13-1-.65a1.11,1.11,0,0,1,.43-1.16A28.86,28.86,0,0,0,46.52,58a4.77,4.77,0,0,0,.48-.63,1.81,1.81,0,0,0-.32-2.49.77.77,0,0,0-.51-.17A2.19,2.19,0,0,0,44.43,56c-.19.39-.2,1.1-.65,1.1a.87.87,0,0,1-.45-.16c-.75-.46-.4-1.25,0-1.87a3.7,3.7,0,0,1,3-1.71m0-1h0a4.67,4.67,0,0,0-3.82,2.17,2.84,2.84,0,0,0-.54,2.1,2,2,0,0,0,1.84,1.47c1.08,0,1.36-1,1.47-1.42a2,2,0,0,1,.08-.23,1.29,1.29,0,0,1,.8-.68c.19.17.37.43,0,1.21a1.19,1.19,0,0,1-.17.22l-.21.27a26.47,26.47,0,0,1-2.5,2.74l-.25.25a2.15,2.15,0,0,0-.69,2.14,1.89,1.89,0,0,0,2,1.38l2.3,0h1.56a2,2,0,0,0,1.45-.58A1.65,1.65,0,0,0,50,62.14a1.68,1.68,0,0,0-1.87-1.53h-.58l.08-.09.26-.31A14.74,14.74,0,0,0,49,58.78a4.4,4.4,0,0,0-.89-5.91,3.15,3.15,0,0,0-1.8-.53Z" transform="translate(-30.47 -52.34)" fill="#fff"/><path d="M53.85,63.12a1.16,1.16,0,0,1-.89-.35,2,2,0,0,1-.32-1.51c0-.44,0-.52,0-.52a.39.39,0,0,0-.22,0h-.23a13.52,13.52,0,0,1-1.49.11h-.3A1.6,1.6,0,0,1,48.87,60a1.51,1.51,0,0,1,.27-1.57c.46-.61,1-1.19,1.44-1.78a29.74,29.74,0,0,0,2.26-2.94,1.16,1.16,0,0,1,1-.58A1.3,1.3,0,0,1,55,54.17a5.62,5.62,0,0,1,.2,1.23c0,.16,0,.31,0,.46v.06l-.06.62-.09.83c-.06.53,0,.71,0,.76s.11.06.29.06h.38a1.15,1.15,0,0,1,.87.35,1.08,1.08,0,0,1,.29.86A1.18,1.18,0,0,1,55.7,60.5h-.21a.59.59,0,0,0-.37.08s-.11.16-.1.58c0,.08,0,.17,0,.26a1.71,1.71,0,0,1-.26,1.35,1.19,1.19,0,0,1-.89.36Zm-1.3-4.84h.13a2.76,2.76,0,0,0,0-.36,3.58,3.58,0,0,0-.28.37Z" transform="translate(-30.47 -52.34)" fill="#ad8f73"/><path d="M53.81,53.62c.3,0,.58.25.71.69a9.57,9.57,0,0,1,.23,1.62c0,.51-.08.94-.14,1.38-.08.75-.07,1.38.82,1.38l.27,0h.11a.61.61,0,0,1,.66.68.69.69,0,0,1-.77.65h-.21c-.76,0-1,.39-1,1.18,0,.54.28,1.43-.64,1.45h0c-.84,0-.74-.84-.7-1.41.05-.73-.2-1-.77-1a1.46,1.46,0,0,0-.29,0,13.94,13.94,0,0,1-1.43.1h-.27c-1,0-1.47-.78-.85-1.59,1.21-1.6,2.62-3,3.72-4.76a.66.66,0,0,1,.55-.35m-1.26,5.16c.67,0,.66-.38.62-1.85-.82.37-1.15,1.07-1.63,1.74a8.86,8.86,0,0,0,1,.11m1.26-6.16h0a1.65,1.65,0,0,0-1.39.82,28.06,28.06,0,0,1-2.22,2.88c-.49.58-1,1.18-1.46,1.8a2,2,0,0,0-.32,2.08,2.08,2.08,0,0,0,1.93,1.11h.31a13.62,13.62,0,0,0,1.49-.1h0a2.35,2.35,0,0,0,.44,1.88,1.67,1.67,0,0,0,1.26.51h0a1.68,1.68,0,0,0,1.25-.53,2.13,2.13,0,0,0,.39-1.72c0-.08,0-.16,0-.23V61h.18a1.68,1.68,0,0,0,1.77-1.58A1.59,1.59,0,0,0,57,58.18a1.67,1.67,0,0,0-1.23-.51h-.23c0-.07,0-.15,0-.26,0-.27.06-.54.08-.83s0-.36.06-.56v-.12l0-.12c0-.13,0-.28,0-.43A6.7,6.7,0,0,0,55.48,54a1.79,1.79,0,0,0-1.67-1.41Z" transform="translate(-30.47 -52.34)" fill="#fff"/><path d="M45,76.54a4.79,4.79,0,0,1-1.64-.3,14.23,14.23,0,0,1-4.73-2.9,30,30,0,0,1-5.94-7.7A11.81,11.81,0,0,1,31,60.33a4,4,0,0,1,.46-2.19,12.85,12.85,0,0,1,5-5,1.83,1.83,0,0,1,.9-.26,1.72,1.72,0,0,1,1.3.71c.51.61,1.06,1.19,1.6,1.76.39.41.78.82,1.15,1.24.76.84,1.67,2.13.88,3.67a3.13,3.13,0,0,1-2.84,1.79,3.08,3.08,0,0,1-.51,0h-.11c-.11,0-.16,0-.21.31a3.6,3.6,0,0,0-.07,1.14c.21,1.47,3.18,4.74,4.61,5.07l.31.08v-.06c-.22-1.38.79-1.87,1.45-2.19l.33-.16a4.31,4.31,0,0,1,2-.63,2.13,2.13,0,0,1,1.56.68,16.47,16.47,0,0,1,3.21,4,3.22,3.22,0,0,1,.14,3.07,3.06,3.06,0,0,1-2.63,1.35,2.27,2.27,0,0,0-1.54.66A4.25,4.25,0,0,1,45,76.54ZM34.67,57.78c-.59.14-.87.89-1.14,1.62a1.72,1.72,0,0,0-.12.62,5.24,5.24,0,0,0,.31,2A22.63,22.63,0,0,0,38,69.16a15.8,15.8,0,0,0,5.21,4.42,4.09,4.09,0,0,0,1.74.49,2.39,2.39,0,0,0,1.27-.37c.52-.32.57-.5.57-.54s-.09-.28-.39-.53a4.44,4.44,0,0,1-1-1.25c-.29-.53-.47-.58-.64-.58a1.18,1.18,0,0,0-.43.1,2.59,2.59,0,0,1-.88.16,3.36,3.36,0,0,1-1.7-.51,13.35,13.35,0,0,1-5.08-5.22,3.82,3.82,0,0,1-.32-3.52c.54-1.08.2-1.77-.72-2.83a3.36,3.36,0,0,1-.42-.64c-.13-.24-.32-.57-.44-.57ZM46.24,68.4a20.13,20.13,0,0,0,3,3.82.22.22,0,0,0,.17.08,1,1,0,0,0,.37-.11c.21-.09.22-.18.2-.31a12.08,12.08,0,0,0-2.82-3.79h-.11A1.6,1.6,0,0,0,46.24,68.4ZM36.43,56c.25.34.49.69.72,1a12.46,12.46,0,0,0,2,2.44.47.47,0,0,0,.32.16.56.56,0,0,0,.27-.1c.36-.23.42-.3.41-.45A17.48,17.48,0,0,0,37,55.54,1,1,0,0,0,36.43,56Z" transform="translate(-30.47 -52.34)" fill="#ad8f73"/><path d="M37.34,53.4a1.21,1.21,0,0,1,.92.54c.88,1,1.85,2,2.76,3s1.42,1.92.8,3.11a2.61,2.61,0,0,1-2.39,1.52l-.44,0-.18,0c-.47,0-.63.31-.7.72a4.07,4.07,0,0,0-.07,1.3c.23,1.67,3.35,5.11,5,5.49a2.64,2.64,0,0,0,.56.11c.25,0,.43-.14.35-.66-.19-1.2.79-1.44,1.53-1.83a3.93,3.93,0,0,1,1.73-.57,1.66,1.66,0,0,1,1.21.53,15.9,15.9,0,0,1,3.11,3.9c1,2,.16,3.58-2.06,3.69a2.78,2.78,0,0,0-1.85.79A3.81,3.81,0,0,1,45,76a4.53,4.53,0,0,1-1.47-.27A13.58,13.58,0,0,1,39,73a29.92,29.92,0,0,1-5.85-7.58,11.43,11.43,0,0,1-1.66-5.08,3.44,3.44,0,0,1,.4-1.92,12.39,12.39,0,0,1,4.79-4.79,1.4,1.4,0,0,1,.67-.2m2.1,6.73A1,1,0,0,0,40,60c.34-.22.67-.43.64-.91s-3-3.93-3.49-4h-.08c-.57,0-1.36.81-1.07,1.19a21.93,21.93,0,0,0,2.81,3.62,1,1,0,0,0,.65.28m5.48,14.44a2.81,2.81,0,0,0,1.53-.45c.87-.52,1.18-1.08.24-1.87a4,4,0,0,1-.91-1.12c-.28-.52-.59-.83-1.07-.83a1.67,1.67,0,0,0-.6.13,2,2,0,0,1-.71.13A3,3,0,0,1,42,70.12a12.92,12.92,0,0,1-4.89-5A3.35,3.35,0,0,1,36.75,62c.72-1.45,0-2.41-.79-3.38-.41-.46-.62-1.38-1.24-1.38l-.16,0c-.88.2-1.22,1.2-1.53,2a2.29,2.29,0,0,0-.12.73,5.83,5.83,0,0,0,.33,2.11,23.66,23.66,0,0,0,4.34,7.32A16.58,16.58,0,0,0,43,74a4.59,4.59,0,0,0,2,.54m4.49-1.77a1.56,1.56,0,0,0,.57-.15.75.75,0,0,0,.5-.83c0-.72-2.53-4.09-3.2-4.21a.93.93,0,0,0-.23,0,2.28,2.28,0,0,0-1.23.49c-.24.16-.12.39,0,.58a20.36,20.36,0,0,0,3.07,3.91.71.71,0,0,0,.53.23M37.34,52.4h0a2.33,2.33,0,0,0-1.14.32A13.25,13.25,0,0,0,31,57.88a4.46,4.46,0,0,0-.53,2.47,12.45,12.45,0,0,0,1.79,5.53,30.65,30.65,0,0,0,6,7.83,14.66,14.66,0,0,0,4.89,3A5.3,5.3,0,0,0,45,77a4.8,4.8,0,0,0,3.26-1.31,1.81,1.81,0,0,1,1.23-.53,3.53,3.53,0,0,0,3-1.59,3.67,3.67,0,0,0-.13-3.55,16.62,16.62,0,0,0-3.26-4.13,2.68,2.68,0,0,0-1.95-.85,4.73,4.73,0,0,0-2.19.68l-.32.16a2.64,2.64,0,0,0-1.76,2c-1.35-.64-3.74-3.35-3.9-4.53a2.86,2.86,0,0,1,0-.85l.36,0a3.61,3.61,0,0,0,3.28-2.06c1-2-.46-3.69-1-4.24S41,55.44,40.61,55c-.56-.59-1.09-1.15-1.59-1.74a2.25,2.25,0,0,0-1.68-.89Zm2.11,6.7h0a12,12,0,0,1-1.88-2.35l-.1-.14a23.5,23.5,0,0,1,2.05,2.44l-.07.05Zm-5.54,1v0a1.18,1.18,0,0,1,.06-.38l0-.09a3.63,3.63,0,0,1,.6-1.2,2.39,2.39,0,0,1,.12.22,4.24,4.24,0,0,0,.49.73c.84,1,1.06,1.43.64,2.26a4.32,4.32,0,0,0,.33,4A13.92,13.92,0,0,0,41.45,71a3.88,3.88,0,0,0,1.95.58,3.05,3.05,0,0,0,1.05-.19.79.79,0,0,1,.26-.07s.07.09.19.31A5.27,5.27,0,0,0,46.05,73a.55.55,0,0,1,.11.1l-.22.15a2,2,0,0,1-1,.3,3.57,3.57,0,0,1-1.52-.44,15.29,15.29,0,0,1-5-4.29,22.18,22.18,0,0,1-4.17-7,4.67,4.67,0,0,1-.28-1.75ZM47,68.6H47a14.67,14.67,0,0,1,2.32,3,20.46,20.46,0,0,1-2.38-3Z" transform="translate(-30.47 -52.34)" fill="#fff"/><path d="M46.56,63.48c-.76,0-1.53,0-2.29,0a1.41,1.41,0,0,1-1.51-1,1.69,1.69,0,0,1,.56-1.66l.25-.24a26.17,26.17,0,0,0,2.55-2.81l.19-.24a1.87,1.87,0,0,0,.24-.31c.55-1.1.22-1.57-.18-1.88a.3.3,0,0,0-.2-.06,1.7,1.7,0,0,0-1.29,1,1.33,1.33,0,0,0-.11.32c-.1.37-.29,1-1,1a1.34,1.34,0,0,1-.71-.23,1.43,1.43,0,0,1-.65-.85,2.44,2.44,0,0,1,.48-1.72,4.23,4.23,0,0,1,3.4-1.94,2.66,2.66,0,0,1,1.52.44,3.94,3.94,0,0,1,.75,5.22,13.63,13.63,0,0,1-1.09,1.39l-.26.31c-.24.29-.49.57-.79.91H48.1c1.17,0,1.35.75,1.38,1.07a1.12,1.12,0,0,1-.28.87,1.45,1.45,0,0,1-1.09.42Z" transform="translate(-30.47 -52.34)" fill="#c72"/><path d="M46.3,53.34a2.19,2.19,0,0,1,1.24.35,3.44,3.44,0,0,1,.61,4.54,17.11,17.11,0,0,1-1.31,1.64c-.42.5-.86,1-1.54,1.74h2.8c.42,0,.84.12.88.6s-.41.75-.88.76H46.56l-2.28,0c-.45,0-.89-.13-1-.65a1.11,1.11,0,0,1,.43-1.16A28.86,28.86,0,0,0,46.52,58a4.77,4.77,0,0,0,.48-.63,1.81,1.81,0,0,0-.32-2.49.77.77,0,0,0-.51-.17A2.19,2.19,0,0,0,44.43,56c-.19.39-.2,1.1-.65,1.1a.87.87,0,0,1-.45-.16c-.75-.46-.4-1.25,0-1.87a3.7,3.7,0,0,1,3-1.71m0-1h0a4.67,4.67,0,0,0-3.82,2.17,2.84,2.84,0,0,0-.54,2.1,2,2,0,0,0,1.84,1.47c1.08,0,1.36-1,1.47-1.42a2,2,0,0,1,.08-.23,1.29,1.29,0,0,1,.8-.68c.19.17.37.43,0,1.21a1.19,1.19,0,0,1-.17.22l-.21.27a26.47,26.47,0,0,1-2.5,2.74l-.25.25a2.15,2.15,0,0,0-.69,2.14,1.89,1.89,0,0,0,2,1.38l2.3,0h1.56a2,2,0,0,0,1.45-.58A1.65,1.65,0,0,0,50,62.14a1.68,1.68,0,0,0-1.87-1.53h-.58l.08-.09.26-.31A16.48,16.48,0,0,0,49,58.78a4.4,4.4,0,0,0-.89-5.91,3.15,3.15,0,0,0-1.8-.53Z" transform="translate(-30.47 -52.34)" fill="#fff"/><path d="M53.85,63.12a1.16,1.16,0,0,1-.89-.35,2,2,0,0,1-.32-1.51c0-.44,0-.52,0-.52a.39.39,0,0,0-.22,0h-.23a13.52,13.52,0,0,1-1.49.11h-.3A1.6,1.6,0,0,1,48.87,60a1.51,1.51,0,0,1,.27-1.57c.46-.61,1-1.19,1.44-1.78a29.74,29.74,0,0,0,2.26-2.94,1.16,1.16,0,0,1,1-.58A1.3,1.3,0,0,1,55,54.17a5.62,5.62,0,0,1,.2,1.23c0,.16,0,.31,0,.46v.06l-.06.62-.09.83c-.06.53,0,.71,0,.76s.11.06.29.06h.38a1.15,1.15,0,0,1,.87.35,1.08,1.08,0,0,1,.29.86A1.18,1.18,0,0,1,55.7,60.5h-.21a.59.59,0,0,0-.37.08s-.11.16-.1.58c0,.08,0,.17,0,.26a1.71,1.71,0,0,1-.26,1.35,1.19,1.19,0,0,1-.89.36Zm-1.3-4.84h.13a2.76,2.76,0,0,0,0-.36,3.58,3.58,0,0,0-.28.37Z" transform="translate(-30.47 -52.34)" fill="#c72"/><path d="M53.81,53.62c.3,0,.58.25.71.69a9.57,9.57,0,0,1,.23,1.62c0,.51-.08.94-.14,1.38-.08.75-.07,1.38.82,1.38l.27,0h.11a.61.61,0,0,1,.66.68.69.69,0,0,1-.77.65h-.21c-.76,0-1,.39-1,1.18,0,.54.28,1.43-.64,1.45h0c-.84,0-.74-.84-.7-1.41.05-.73-.2-1-.77-1a1.46,1.46,0,0,0-.29,0,13.94,13.94,0,0,1-1.43.1h-.27c-1,0-1.47-.78-.85-1.59,1.21-1.6,2.62-3,3.72-4.76a.66.66,0,0,1,.55-.35m-1.26,5.16c.67,0,.66-.38.62-1.85-.82.37-1.15,1.07-1.63,1.74a8.86,8.86,0,0,0,1,.11m1.26-6.16h0a1.65,1.65,0,0,0-1.39.82,28.06,28.06,0,0,1-2.22,2.88c-.49.58-1,1.18-1.46,1.8a2,2,0,0,0-.32,2.08,2.08,2.08,0,0,0,1.93,1.11h.31a13.62,13.62,0,0,0,1.49-.1h0a2.35,2.35,0,0,0,.44,1.88,1.67,1.67,0,0,0,1.26.51h0a1.68,1.68,0,0,0,1.25-.53,2.13,2.13,0,0,0,.39-1.72c0-.08,0-.16,0-.23V61h.18a1.68,1.68,0,0,0,1.77-1.58A1.59,1.59,0,0,0,57,58.18a1.67,1.67,0,0,0-1.23-.51h-.23c0-.07,0-.15,0-.26,0-.27.06-.54.08-.83s0-.36.06-.56v-.12l0-.12c0-.13,0-.28,0-.43A6.7,6.7,0,0,0,55.48,54a1.79,1.79,0,0,0-1.67-1.41Z" transform="translate(-30.47 -52.34)" fill="#fff"/></svg>