<svg xmlns="http://www.w3.org/2000/svg" xmlns:xlink="http://www.w3.org/1999/xlink" width="51" height="61" viewBox="0 0 51 61"><defs><clipPath id="a" transform="translate(-326.88 -436.11)"><path d="M332.66,448.85l14.75,39.7a2.46,2.46,0,0,0,3.14,1.44l17.36-6.45a2.46,2.46,0,0,0,1.44-3.15L354.6,440.7a2.45,2.45,0,0,0-3.14-1.44l-17.36,6.45A2.45,2.45,0,0,0,332.66,448.85Z" fill="none"/></clipPath><clipPath id="b" transform="translate(-326.88 -436.11)"><path d="M373.59,472.25H370.5v10.29h3.09a1.29,1.29,0,0,0,1.29-1.29v-7.71A1.29,1.29,0,0,0,373.59,472.25Z" fill="none"/></clipPath><clipPath id="c" transform="translate(-326.88 -436.11)"><path d="M373.66,482.54h-11.9a4.89,4.89,0,0,1-4.88-4.89v-.51a4.89,4.89,0,0,1,4.88-4.89h11.9a1.23,1.23,0,0,1,1.22,1.23v7.84A1.22,1.22,0,0,1,373.66,482.54Z" fill="none"/></clipPath></defs><path d="M332.32,495.61a4,4,0,0,1-3.94-3.94V463.13a4,4,0,0,1,3.94-3.95h2.58l-3.65-9.81a3.93,3.93,0,0,1,.12-3,3.87,3.87,0,0,1,2.21-2.05l4.83-1.8a3.94,3.94,0,0,1,3.83-3h.21l3.53.19,5-1.84a3.78,3.78,0,0,1,1.37-.25,4,4,0,0,1,3.7,2.57l0,.05,4.92.27a3.93,3.93,0,0,1,3.72,4.14v.21L369.3,447a3.94,3.94,0,0,1,1.95,5.22l-3.19,7h3.09a4,4,0,0,1,3.94,3.88v8.12a2.69,2.69,0,0,1,1.29,2.3v7.77a2.8,2.8,0,0,1-1.29,2.38v8.08a3.94,3.94,0,0,1-3.94,3.9H332.32Z" transform="translate(-326.88 -436.11)" fill="#fff"/><path d="M352.31,439.11a2.44,2.44,0,0,1,2.29,1.59l.37,1,5.9.31a2.46,2.46,0,0,1,2.31,2.57l-.07,1.23,5.57,2.54a2.46,2.46,0,0,1,1.21,3.24l-4.16,9.11h5.42a2.45,2.45,0,0,1,2.44,2.45v.12h0v9h.07a1.23,1.23,0,0,1,1.22,1.23v7.84a1.22,1.22,0,0,1-1.22,1.22h-.07v9h0v.12a2.44,2.44,0,0,1-2.44,2.44H332.32a2.44,2.44,0,0,1-2.44-2.44V463.13a2.45,2.45,0,0,1,2.44-2.45h4.74l-4.4-11.83a2.45,2.45,0,0,1,1.44-3.14l5.6-2.08.09,0v-.29a2.46,2.46,0,0,1,2.44-2.31h.13l3.84.2,1.27-.47,4-1.48a2.54,2.54,0,0,1,.85-.15m0-3h0a5.27,5.27,0,0,0-1.89.34l-4,1.48-.69.25-3.22-.17h-.29a5.47,5.47,0,0,0-5,3.35l-4.15,1.55a5.45,5.45,0,0,0-3.21,7l2.89,7.78h-.42a5.45,5.45,0,0,0-5.44,5.45v28.54a5.45,5.45,0,0,0,5.33,5.44h39.06a5.45,5.45,0,0,0,5.32-5.33h0v-7.42a4.22,4.22,0,0,0,1.29-3v-7.84a4.2,4.2,0,0,0-1.29-3V463h0a5.45,5.45,0,0,0-5.44-5.33h-.75l2.22-4.87a5.45,5.45,0,0,0-2.7-7.21l-3.77-1.72A5.44,5.44,0,0,0,361,439l-4-.22a5.47,5.47,0,0,0-4.69-2.67Z" transform="translate(-326.88 -436.11)" fill="#fff"/><path d="M348.59,441.85,331,480.38a2.45,2.45,0,0,0,1.2,3.24l16.85,7.68a2.45,2.45,0,0,0,3.24-1.2l17.58-38.53a2.46,2.46,0,0,0-1.21-3.24l-16.85-7.68A2.45,2.45,0,0,0,348.59,441.85Z" transform="translate(-326.88 -436.11)" fill="#016938"/><path d="M339.8,443.31l-2.26,42.29a2.45,2.45,0,0,0,2.31,2.57l18.5,1a2.45,2.45,0,0,0,2.57-2.31l2.26-42.29a2.46,2.46,0,0,0-2.31-2.57l-18.5-1A2.44,2.44,0,0,0,339.8,443.31Z" transform="translate(-326.88 -436.11)" fill="#027b38"/><path d="M332.66,448.85l14.75,39.7a2.46,2.46,0,0,0,3.14,1.44l17.36-6.45a2.46,2.46,0,0,0,1.44-3.15L354.6,440.7a2.45,2.45,0,0,0-3.14-1.44l-17.36,6.45A2.45,2.45,0,0,0,332.66,448.85Z" transform="translate(-326.88 -436.11)" fill="#89bc49"/><path d="M332.66,448.85l14.75,39.7a2.46,2.46,0,0,0,3.14,1.44l17.36-6.45a2.46,2.46,0,0,0,1.44-3.15L354.6,440.7a2.45,2.45,0,0,0-3.14-1.44l-17.36,6.45A2.45,2.45,0,0,0,332.66,448.85Z" transform="translate(-326.88 -436.11)" fill="#92c142"/><g clip-path="url(#a)"><path d="M337.88,443.77c.07.15.14.3.2.46h0l9.4-3.49h0c-.06-.16-.1-.32-.15-.48l6.87-2.55,2.49,6.7-.54.24,11.79,31.74.56-.17,2.84,7.65-6.72,2.49a6.59,6.59,0,0,1-.69-1.35h0l-9.4,3.5h0a7,7,0,0,1,.36,1.47l-6.51,2.42-2.84-7.66c.13-.06.25-.12.39-.17l-11.79-31.74-.41.13-2.49-6.72Zm-1.9,8,12,32.37a6.68,6.68,0,0,1,5.47,2.51l10-3.73a6.72,6.72,0,0,1,2.57-5.53l-12-32.32a6.68,6.68,0,0,1-5.55-2.51l-10,3.73A6.68,6.68,0,0,1,336,451.79Z" transform="translate(-326.88 -436.11)" fill="#3c9c36"/></g><ellipse cx="351.01" cy="464.62" rx="7.21" ry="5.64" transform="translate(-466.73 -284.76) rotate(-20.38)" fill="#3c9c36"/><path d="M342.55,450.82l1.53,4.11a2.8,2.8,0,0,0,3.6,1.65l.27-.1a2.8,2.8,0,0,0,1.65-3.6l-1.52-4.11a2.8,2.8,0,0,0-3.6-1.65l-.28.11A2.79,2.79,0,0,0,342.55,450.82Z" transform="translate(-326.88 -436.11)" fill="#3c9c36"/><path d="M352.07,476.45l1.53,4.11a2.8,2.8,0,0,0,3.6,1.64l.27-.1a2.8,2.8,0,0,0,1.65-3.6l-1.52-4.1a2.8,2.8,0,0,0-3.6-1.65l-.28.1A2.81,2.81,0,0,0,352.07,476.45Z" transform="translate(-326.88 -436.11)" fill="#3c9c36"/><path d="M371.15,494.11H332.32a2.44,2.44,0,0,1-2.44-2.44V463.13a2.45,2.45,0,0,1,2.44-2.45h38.83a2.45,2.45,0,0,1,2.44,2.45v28.54A2.44,2.44,0,0,1,371.15,494.11Z" transform="translate(-326.88 -436.11)" fill="#f49c0b"/><path d="M371,460.68h-1.93a2.57,2.57,0,0,1,2.57,2.57v18.62l-13.61-1.21,12.77,12.77a2.55,2.55,0,0,1-1.73.68H371a2.57,2.57,0,0,0,2.57-2.57V463.25A2.57,2.57,0,0,0,371,460.68Z" transform="translate(-326.88 -436.11)" fill="#e48316" opacity="0.67" style="isolation:isolate"/><path d="M366,491.6H364.7a.33.33,0,0,1,0-.65H366a.33.33,0,0,1,0,.65Zm-4.52,0h-1.29a.33.33,0,0,1,0-.65h1.29a.33.33,0,0,1,0,.65Zm-4.51,0h-1.29a.33.33,0,1,1,0-.65H357a.33.33,0,0,1,0,.65Zm-4.52,0h-1.29a.33.33,0,0,1,0-.65h1.29a.33.33,0,0,1,0,.65Zm-4.52,0h-1.29a.33.33,0,0,1,0-.65h1.29a.33.33,0,0,1,0,.65Zm-4.52,0h-1.29a.33.33,0,0,1,0-.65h1.29a.33.33,0,0,1,0,.65Zm-4.51,0h-1.3a.33.33,0,0,1,0-.65h1.3a.33.33,0,0,1,0,.65Zm-4.52,0h0a1,1,0,0,1-1-1v-.28a.32.32,0,0,1,.64,0v.28a.32.32,0,0,0,.32.32.33.33,0,0,1,.33.32A.32.32,0,0,1,334.37,491.6Zm34.85,0a.32.32,0,0,1-.05-.64.33.33,0,0,0,.27-.32v-.38a.32.32,0,0,1,.64,0v.38a1,1,0,0,1-.81.95Zm-35.51-4.14a.32.32,0,0,1-.32-.33v-1.29a.32.32,0,0,1,.64,0v1.29A.32.32,0,0,1,333.71,487.45Zm36.05-.1a.32.32,0,0,1-.32-.33v-1.29a.32.32,0,0,1,.64,0V487A.32.32,0,0,1,369.76,487.35Zm-36.05-4.42a.32.32,0,0,1-.32-.32v-1.29a.32.32,0,1,1,.64,0v1.29A.32.32,0,0,1,333.71,482.93Zm0-4.52a.32.32,0,0,1-.32-.32V476.8a.32.32,0,0,1,.64,0v1.29A.32.32,0,0,1,333.71,478.41Zm0-4.52a.32.32,0,0,1-.32-.32v-1.29a.32.32,0,0,1,.64,0v1.29A.32.32,0,0,1,333.71,473.89Zm0-4.52a.32.32,0,0,1-.32-.32v-1.29a.32.32,0,0,1,.64,0v1.29A.32.32,0,0,1,333.71,469.37Zm36.05-.1a.32.32,0,0,1-.32-.32v-1.29a.32.32,0,0,1,.64,0V469A.32.32,0,0,1,369.76,469.27Zm-36.05-4.41a.32.32,0,0,1-.32-.33v-.37a1,1,0,0,1,.82-1,.33.33,0,0,1,.37.27.32.32,0,0,1-.27.36.33.33,0,0,0-.28.32v.37A.32.32,0,0,1,333.71,464.86Zm36.05-.1a.32.32,0,0,1-.32-.32v-.28a.32.32,0,0,0-.32-.32.32.32,0,0,1-.33-.32.32.32,0,0,1,.32-.32h0a1,1,0,0,1,1,1v.28A.32.32,0,0,1,369.76,464.76Zm-3.88-.92h-1.29a.32.32,0,1,1,0-.64h1.29a.32.32,0,0,1,0,.64Zm-4.51,0h-1.29a.32.32,0,1,1,0-.64h1.29a.32.32,0,0,1,0,.64Zm-4.52,0h-1.29a.32.32,0,1,1,0-.64h1.29a.32.32,0,0,1,0,.64Zm-4.52,0H351a.32.32,0,1,1,0-.64h1.29a.32.32,0,1,1,0,.64Zm-4.52,0h-1.29a.32.32,0,0,1,0-.64h1.29a.32.32,0,1,1,0,.64Zm-4.52,0H342a.32.32,0,0,1,0-.64h1.29a.32.32,0,1,1,0,.64Zm-4.51,0h-1.29a.32.32,0,1,1,0-.64h1.29a.32.32,0,0,1,0,.64Z" transform="translate(-326.88 -436.11)" fill="#fbca76"/><path d="M331.81,491.54V463.25a2.57,2.57,0,0,1,2.57-2.57h-1.93a2.57,2.57,0,0,0-2.57,2.57v28.29a2.57,2.57,0,0,0,2.57,2.57h1.93A2.57,2.57,0,0,1,331.81,491.54Z" transform="translate(-326.88 -436.11)" fill="#f9c187" opacity="0.5" style="isolation:isolate"/><path d="M373.66,482.54h-11.9a4.89,4.89,0,0,1-4.88-4.89v-.51a4.89,4.89,0,0,1,4.88-4.89h11.9a1.23,1.23,0,0,1,1.22,1.23v7.84A1.22,1.22,0,0,1,373.66,482.54Z" transform="translate(-326.88 -436.11)" fill="#d17311"/><g clip-path="url(#b)"><rect x="46.07" y="33.81" width="1.93" height="15.68" fill="#ca6213"/></g><g clip-path="url(#c)"><polygon points="33.31 43 37.09 46.72 43.72 46.72 36.7 39.69 33.31 43" fill="#c56415"/></g><circle cx="34.95" cy="41.29" r="2.37" fill="#d8b997"/><path d="M360.73,477.4a3.81,3.81,0,0,1,.75-2.34,2.36,2.36,0,0,0,0,4.68A3.83,3.83,0,0,1,360.73,477.4Z" transform="translate(-326.88 -436.11)" fill="#f1d2ae"/><path d="M362.91,477.4a3.89,3.89,0,0,1-.74,2.34,2.36,2.36,0,0,0,0-4.68A3.86,3.86,0,0,1,362.91,477.4Z" transform="translate(-326.88 -436.11)" fill="#c8a57e"/></svg>