<svg xmlns="http://www.w3.org/2000/svg" width="52.05" height="61" viewBox="0 0 52.05 61"><path d="M434,495.61a4.92,4.92,0,0,1-4.81-3.79,3.72,3.72,0,0,1-.15-1.17,5,5,0,0,1,2.44-4.26l-6.65-9.23a5,5,0,0,1-.33-5.27l2.87-5.25-3.7-1.35a3.28,3.28,0,0,1-2-4.2l7.76-21.32a3.28,3.28,0,0,1,4.21-2l34.72,12.64a3.29,3.29,0,0,1,2,4.21l-7.48,20.54v7a6.48,6.48,0,0,1-1.8,4.48,5.4,5.4,0,0,1,.52.45,4.89,4.89,0,0,1,1.43,3.5,4.62,4.62,0,0,1-5,4.95Z" transform="translate(-420.04 -436.11)" fill="#fff"/><path d="M432.58,439.11a1.69,1.69,0,0,1,.62.11l2.15.78,32.57,11.86a1.78,1.78,0,0,1,1.06,2.28l-1.29,3.56h0l-1.38,3.79-1.21,3.32h0l-3.69,10.13v7.29a5,5,0,0,1-5,5h1.65a3.45,3.45,0,0,1,3.46,3.46,3.15,3.15,0,0,1-3.46,3.46H434a3.45,3.45,0,0,1-3.36-2.68h0a4.52,4.52,0,0,1-.1-.78A3.45,3.45,0,0,1,434,487.2h0l-7.87-10.91a3.47,3.47,0,0,1-.23-3.69l3.7-6.77-5.34-1.95a1.77,1.77,0,0,1-1.06-2.28L427,450.94l2.59-7.11h0l1.29-3.55a1.79,1.79,0,0,1,1.67-1.17m0-3a4.8,4.8,0,0,0-4.49,3.14l-1.29,3.56-.18.49h0l-2.41,6.6-3.88,10.67a4.78,4.78,0,0,0,2.86,6.12l2.06.75-2,3.72a6.47,6.47,0,0,0,.43,6.87l5.81,8.07a6.45,6.45,0,0,0-1.89,4.54,5.52,5.52,0,0,0,.18,1.45h0a6.43,6.43,0,0,0,6.29,5H458.1a6.13,6.13,0,0,0,6.46-6.44,6.36,6.36,0,0,0-1.44-4.09,8,8,0,0,0,1.29-4.35v-6.76l3.27-9h0l.24-.66,1.21-3.31,1.38-3.79,1.46-4h0a4.79,4.79,0,0,0-3-5.66l-32.57-11.86-2.15-.78a4.84,4.84,0,0,0-1.64-.29Z" transform="translate(-420.04 -436.11)" fill="#fff"/><path d="M458.1,487.19a3.46,3.46,0,0,1,0,6.92H434a3.46,3.46,0,0,1-.08-6.91H458.1Z" transform="translate(-420.04 -436.11)" fill="#007eca"/><path d="M461.56,490.65a3.42,3.42,0,0,1-.09.79,3.46,3.46,0,0,0-3.37-2.67H434a3.45,3.45,0,0,0-3.29,2.66A3.46,3.46,0,0,1,434,487.2H458.1A3.46,3.46,0,0,1,461.56,490.65Z" transform="translate(-420.04 -436.11)" fill="#fff" opacity="0.2" style="isolation:isolate"/><path d="M469,454.14l-1.29,3.56h0l-27.29-9.94-10.78-3.93h0l1.29-3.55a1.79,1.79,0,0,1,2.29-1.06l2.15.78,32.57,11.86A1.78,1.78,0,0,1,469,454.14Z" transform="translate(-420.04 -436.11)" fill="#7abca1"/><polygon points="47.65 21.59 46.27 25.39 45.06 28.7 45.06 28.7 27.24 22.21 6.99 14.83 9.58 7.73 20.36 11.65 47.65 21.59" fill="#303c44"/><path d="M465.1,464.81l-3.69,10.13-.19.52a1.78,1.78,0,0,1-2,1.14l-.26-.07L438.35,469l-2.18-.79,1.93-3.6L439,463a3.46,3.46,0,0,0-6.07-3.32l-3.37,6.16-5.34-1.95a1.77,1.77,0,0,1-1.06-2.28L427,450.94l2.59-7.11h0L427,450.94l20.25,7.38Z" transform="translate(-420.04 -436.11)" fill="#7abca1"/><path d="M456.45,487.19h1.65a3.46,3.46,0,0,1,0,6.92H434a3.46,3.46,0,0,1-.08-6.91h22.5Z" transform="translate(-420.04 -436.11)" fill="none"/><path d="M461.41,474.94v7.29a5,5,0,0,1-5,5" transform="translate(-420.04 -436.11)" fill="none"/><path d="M461.41,474.94v7.29a5,5,0,0,1-5,5H434l-7.87-10.91a3.47,3.47,0,0,1-.23-3.69l3.7-6.77,3.37-6.16A3.46,3.46,0,0,1,439,463l-.89,1.65-1.93,3.6,2.18.79,20.59,7.5a1.78,1.78,0,0,0,2.28-1.07Z" transform="translate(-420.04 -436.11)" fill="#fdd6b1"/><path d="M434,487.2l-7.87-10.91a3.47,3.47,0,0,1-.23-3.69l3.7-6.77,3.37-6.16A3.46,3.46,0,0,1,439,463l-.89,1.65" transform="translate(-420.04 -436.11)" fill="none"/><line x1="18.92" y1="44.22" x2="18.68" y2="43.89" fill="none"/><path d="M466.31,461.49l1.38-3.79h0l1.29-3.56a1.78,1.78,0,0,0-1.06-2.28L433.2,439.22a1.79,1.79,0,0,0-2.29,1.06l-1.29,3.55h0L427,450.94l-3.88,10.66a1.77,1.77,0,0,0,1.06,2.28l5.34,1.95" transform="translate(-420.04 -436.11)" fill="none"/><path d="M436.13,468.22l0,0,22.77,8.29a1.78,1.78,0,0,0,2.28-1.07l.19-.52,3.69-10.13h0" transform="translate(-420.04 -436.11)" fill="none"/><polygon points="45.06 28.7 6.99 14.83 9.58 7.73 47.65 21.59 47.65 21.59 46.27 25.39 45.06 28.7 45.06 28.7" fill="none"/><polygon points="20.18 44.73 18.68 43.89 13.6 36.84 16.13 32.13 18.31 32.92 17.02 35.38 20.18 44.73" opacity="0.1" style="isolation:isolate"/></svg>