<svg xmlns="http://www.w3.org/2000/svg" width="68.05" height="61.18" viewBox="0 0 68.05 61.18"><path d="M514,495.78a2.91,2.91,0,1,1,0-5.82h2.73v-4.22H498.48a4.33,4.33,0,0,1-4.32-4.32V441.93a4.33,4.33,0,0,1,4.32-4.32h56.41a4.33,4.33,0,0,1,4.32,4.32v39.49a5.1,5.1,0,0,1-.08.86,4.36,4.36,0,0,1-1.18,2.19,4.29,4.29,0,0,1-3.06,1.27H536.65V490h2.73a2.91,2.91,0,0,1,0,5.82Z" transform="translate(-492.66 -436.11)" fill="#fff"/><path d="M554.89,439.11a2.82,2.82,0,0,1,2.82,2.82v39.48a2.62,2.62,0,0,1-.06.57,2.81,2.81,0,0,1-2.76,2.26H535.15v7.22h4.23a1.41,1.41,0,0,1,0,2.82H514a1.41,1.41,0,1,1,0-2.82h4.24v-7.22H498.48a2.83,2.83,0,0,1-2.82-2.83V441.93a2.82,2.82,0,0,1,2.82-2.82h56.41m0-3H498.48a5.83,5.83,0,0,0-5.82,5.82v39.48a5.83,5.83,0,0,0,5.82,5.83h16.75v1.22H514a4.41,4.41,0,0,0,0,8.82h25.39a4.41,4.41,0,0,0,0-8.82h-1.23v-1.22h16.74a5.81,5.81,0,0,0,5.7-4.66,5.66,5.66,0,0,0,.12-1.17V441.93a5.83,5.83,0,0,0-5.82-5.82Z" transform="translate(-492.66 -436.11)" fill="#fff"/><path d="M557.71,481.41a2.83,2.83,0,0,1-2.82,2.83H498.48a2.83,2.83,0,0,1-2.82-2.83V441.93a2.82,2.82,0,0,1,2.82-2.82h56.41a2.82,2.82,0,0,1,2.82,2.82Z" transform="translate(-492.66 -436.11)" fill="#3e3e3f"/><rect x="25.56" y="48.13" width="16.92" height="7.23" fill="#bcbcbc"/><path d="M540.79,492.87a1.41,1.41,0,0,1-1.41,1.41H514a1.41,1.41,0,1,1,0-2.82h25.38A1.41,1.41,0,0,1,540.79,492.87Z" transform="translate(-492.66 -436.11)" fill="#d1d1d1"/><path d="M557.71,481.41V473H495.66v8.46a2.83,2.83,0,0,0,2.82,2.83h56.41A2.83,2.83,0,0,0,557.71,481.41Z" transform="translate(-492.66 -436.11)" fill="#d1d1d1"/><path d="M526.69,482.38a3.79,3.79,0,1,1,3.79-3.79A3.79,3.79,0,0,1,526.69,482.38Zm0-5.64a1.86,1.86,0,1,0,1.85,1.85A1.85,1.85,0,0,0,526.69,476.74Z" transform="translate(-492.66 -436.11)" fill="#efefef"/><rect x="5.69" y="5.61" width="56.68" height="28.55" rx="0.97" fill="#f5f5f5"/><polygon points="40.24 21.42 38.22 21.42 19.5 21.42 19.5 25.77 38.22 25.77 40.24 25.77 48.55 25.77 48.55 21.42 40.24 21.42" fill="#fff"/><path d="M534.82,461.49H512.16v2.41a2.32,2.32,0,0,0,2.31,2.31H538.9a2.32,2.32,0,0,0,2.31-2.31v-2.41Z" transform="translate(-492.66 -436.11)" fill="#59616a"/><path d="M538.9,445.77H514.47a2.33,2.33,0,0,0-2.31,2.32v10h29.05v-10A2.33,2.33,0,0,0,538.9,445.77Z" transform="translate(-492.66 -436.11)" fill="#59616a"/><rect x="29.8" y="14.95" width="1.96" height="1.84" fill="#b5b9bd"/><path d="M515.4,454.46V454h2.4v1.48h-1.37A1,1,0,0,1,515.4,454.46Z" transform="translate(-492.66 -436.11)" fill="#b5b9bd"/><path d="M523.39,455.49h-4.47v-7.27h2.43v5.24a.55.55,0,0,0,.55.55h2.52v.45A1,1,0,0,1,523.39,455.49Z" transform="translate(-492.66 -436.11)" fill="#b5b9bd"/><path d="M524.42,449.94h-2v-1.72h.93a1,1,0,0,1,1,1Z" transform="translate(-492.66 -436.11)" fill="#b5b9bd"/><rect x="22.74" y="14.95" width="2.4" height="1.84" fill="#b5b9bd"/><path d="M517.8,449.94h-2.4v-.7a1,1,0,0,1,1-1h1.37v1.72Z" transform="translate(-492.66 -436.11)" fill="#b5b9bd"/><path d="M527.26,451.09a3.45,3.45,0,0,1,6-2.27,3.4,3.4,0,0,0,0,4.54,3.4,3.4,0,0,1-2.59,1.19A3.46,3.46,0,0,1,527.26,451.09Z" transform="translate(-492.66 -436.11)" fill="#ff9554"/><path d="M534.18,451.09a3.39,3.39,0,0,0-.87-2.27,3.46,3.46,0,1,1,0,4.54A3.37,3.37,0,0,0,534.18,451.09Z" transform="translate(-492.66 -436.11)" fill="#5fd4af"/></svg>