<svg xmlns="http://www.w3.org/2000/svg" width="45.96" height="40.75" viewBox="0 0 45.96 40.75"><path d="M249.14,139h0a13.34,13.34,0,0,0-18.73-.14l-.15-.15a13.27,13.27,0,0,0-7.91-3.82,13.46,13.46,0,0,0-7,1.05c-1.46.65-1.65,1.78-4,2.77h0c-2.34,2.35-4.29,5.63-3.87,8.42.56,3.72,1.47,7.62,4.34,10.49a11.13,11.13,0,0,1,1.78,1.63l2.83,3.42,5,5,4.8,4.35a33.24,33.24,0,0,1,2.67,3.12c.85.85,2.31.41,3.16-.43l4.64-4.31s3.51-4.48,4.86-5.81,5.52-4.56,5.52-4.56l2.09-2.09a13.36,13.36,0,0,0,3.21-5.15c1-2.9,1.82-6.59-.13-9-1.27-1.54-1.67-3.37-3.07-4.78Z" transform="translate(-207.44 -134.76)" fill="#ed6262"/></svg>