<svg
 xmlns="http://www.w3.org/2000/svg"
 xmlns:xlink="http://www.w3.org/1999/xlink"
 width="60px" height="46px">
<path fill-rule="evenodd" fill="rgb(228, 220, 211)"
 d="M58.373,22.515 C57.411,26.353 56.182,29.984 54.683,33.405 C53.181,36.824 51.533,39.733 49.733,42.134 C47.933,44.534 46.192,45.734 44.513,45.734 C43.312,45.734 42.052,45.403 40.733,44.745 C39.411,44.083 38.871,42.554 39.113,40.154 C39.113,38.714 39.383,37.393 39.923,36.194 C40.463,34.993 41.062,33.793 41.723,32.594 C42.381,31.393 43.042,30.103 43.703,28.724 C44.361,27.343 44.932,25.692 45.413,23.774 C42.412,23.293 39.951,21.974 38.033,19.814 C36.112,17.654 35.153,15.075 35.153,12.074 C35.153,8.955 36.351,6.224 38.753,3.884 C41.152,1.544 44.091,0.374 47.573,0.374 C50.813,0.374 53.662,1.516 56.123,3.794 C58.581,6.075 59.813,8.955 59.813,12.434 C59.813,15.314 59.332,18.675 58.373,22.515 ZM19.683,33.405 C18.181,36.824 16.533,39.733 14.733,42.134 C12.933,44.534 11.192,45.734 9.513,45.734 C8.312,45.734 7.052,45.403 5.733,44.745 C4.411,44.083 3.871,42.554 4.113,40.154 C4.113,38.714 4.383,37.393 4.923,36.194 C5.463,34.993 6.062,33.793 6.723,32.594 C7.381,31.393 8.042,30.103 8.703,28.724 C9.361,27.343 9.932,25.692 10.413,23.774 C7.412,23.293 4.951,21.974 3.033,19.814 C1.112,17.654 0.153,15.075 0.153,12.074 C0.153,8.955 1.351,6.224 3.753,3.884 C6.152,1.544 9.091,0.374 12.573,0.374 C15.813,0.374 18.662,1.516 21.123,3.794 C23.581,6.075 24.813,8.955 24.813,12.434 C24.813,15.314 24.332,18.675 23.373,22.515 C22.411,26.353 21.182,29.984 19.683,33.405 Z"/>
</svg>