<svg xmlns="http://www.w3.org/2000/svg" width="30.79" height="30.79" viewBox="0 0 30.79 30.79"><path d="M265,238.39l.82-.58c1.3-.91,2.6-1.88,3.87-2.9-1.56-2-2-4.85-1.36-8A20.45,20.45,0,0,1,274,217c3.6-3.6,9.15-4.36,13.18-4.36a30.86,30.86,0,0,1,5,.39l.68.13.13.68c.09.49,2.12,12.08-4,18.17-3.74,3.75-8.45,6-12.59,6h0a9.11,9.11,0,0,1-4.25-1c-1.51,1.22-3,2.38-4.54,3.43l-.81.58Z" transform="translate(-263.61 -211.6)" fill="#fff"/><path d="M287.21,213.6A28.93,28.93,0,0,1,292,214s2.1,11.49-3.69,17.28c-3.68,3.69-8.15,5.69-11.89,5.69a7.86,7.86,0,0,1-4.35-1.18q-2.43,2-5,3.83l-.68-1c1.62-1.14,3.2-2.35,4.73-3.61l-.08-.07c-3.76-3.75-2.1-11.49,3.69-17.28,3.35-3.36,8.63-4.07,12.47-4.07m0-2c-4.22,0-10,.81-13.89,4.65a21.45,21.45,0,0,0-6,10.4,11.05,11.05,0,0,0,1,8c-1,.8-2.06,1.57-3.09,2.3l-1.64,1.15,1.15,1.63.68,1,1.15,1.64,1.64-1.15c1.36-1,2.73-2,4.1-3.08a10.56,10.56,0,0,0,4.11.79c4.41,0,9.38-2.34,13.31-6.27,6.46-6.46,4.34-18.55,4.24-19.06l-.25-1.36-1.36-.25a30.6,30.6,0,0,0-5.17-.41Z" transform="translate(-263.61 -211.6)" fill="#fff"/><path d="M292,214s-11.49-2.1-17.28,3.69-7.45,13.53-3.69,17.28l.08.07c-1.53,1.26-3.11,2.47-4.73,3.61l.68,1q2.58-1.82,5-3.83c4,2.61,10.94.8,16.24-4.51C294.12,225.47,292,214,292,214Z" transform="translate(-263.61 -211.6)" fill="#4cb050"/><path d="M279.54,231.37a.77.77,0,0,1-.36.18.73.73,0,0,1-.39,0l-4.42-1.63,2.43,2.91a.61.61,0,0,1,.13.48.71.71,0,0,1-.27.48.67.67,0,0,1-.5.17.62.62,0,0,1-.45-.23l-3.82-4.58a.64.64,0,0,1-.16-.51.73.73,0,0,1,.28-.49.85.85,0,0,1,.37-.18.9.9,0,0,1,.4,0l1.16.43,1,.39,1,.39,1.2.44-2.45-2.93a.64.64,0,0,1-.13-.49.77.77,0,0,1,.26-.48.69.69,0,0,1,.51-.16.61.61,0,0,1,.45.22l3.82,4.58a.64.64,0,0,1,.16.51A.75.75,0,0,1,279.54,231.37Z" transform="translate(-263.61 -211.6)" fill="#fff"/><path d="M284,226.72a.66.66,0,0,1,.14.49.69.69,0,0,1-.27.47l-2.05,1.72a2.61,2.61,0,0,1-.3.2.87.87,0,0,1-.31.1.52.52,0,0,1-.3,0,.76.76,0,0,1-.28-.21l-3.64-4.38a.55.55,0,0,1-.13-.24.86.86,0,0,1,0-.28,1,1,0,0,1,.08-.28,1.16,1.16,0,0,1,.2-.25l2.11-1.75a.69.69,0,0,1,.51-.17.58.58,0,0,1,.45.22.56.56,0,0,1,.13.48.71.71,0,0,1-.27.45l-1.61,1.35,1,1.25,1.47-1.22a.72.72,0,0,1,.48-.17.6.6,0,0,1,.6.69.7.7,0,0,1-.26.47l-1.47,1.22,1.06,1.27,1.69-1.42a.71.71,0,0,1,.5-.17A.56.56,0,0,1,284,226.72Z" transform="translate(-263.61 -211.6)" fill="#fff"/><path d="M286.41,220.19a6,6,0,0,1,.66.55c.21.19.42.38.64.56-.14-.25-.28-.49-.43-.73a6.12,6.12,0,0,1-.41-.76l-1.16-2.4a.68.68,0,0,1-.06-.44.67.67,0,0,1,.23-.37,1,1,0,0,1,.23-.14.79.79,0,0,1,.26-.08.63.63,0,0,1,.27,0,.47.47,0,0,1,.24.16l0,0a.29.29,0,0,1,0,.08l2.61,5.5a1,1,0,0,1,.07.52.71.71,0,0,1-.3.5.82.82,0,0,1-.56.21,1.24,1.24,0,0,1-.5-.17l-2-1.52a6.21,6.21,0,0,1-.63-.52l-.61-.55c.13.24.28.47.43.7a6.3,6.3,0,0,1,.4.72l1.13,2.31a.78.78,0,0,1,.07.23.69.69,0,0,1,0,.25.72.72,0,0,1-.09.27.9.9,0,0,1-.23.26.78.78,0,0,1-.54.19,1,1,0,0,1-.51-.14l-4.89-3.54-.1-.08-.05,0a.52.52,0,0,1-.11-.24.57.57,0,0,1,0-.26.77.77,0,0,1,.1-.25,2,2,0,0,1,.18-.21.85.85,0,0,1,.39-.17.55.55,0,0,1,.43.13l2.18,1.57a6,6,0,0,1,.66.54l.64.57a7.74,7.74,0,0,0-.43-.73,7.06,7.06,0,0,1-.42-.75l-1.07-2.2a1.5,1.5,0,0,1-.16-.59.7.7,0,0,1,.31-.51.69.69,0,0,1,.56-.2,1.25,1.25,0,0,1,.54.25Z" transform="translate(-263.61 -211.6)" fill="#fff"/></svg>