<svg xmlns="http://www.w3.org/2000/svg" width="191.26" height="171.23" viewBox="0 0 191.26 171.23"><path d="M194.83,134.19c.14,2.55-.44,5.1.35,8.21a8.85,8.85,0,0,0,.43-1.61c0-2.16,0-4.33,0-6.49Z" transform="translate(-4.37 -14.38)" fill="#1c75bc"/><path d="M191.45,42.41a5.49,5.49,0,0,0-.27-3.86c-.24,1.21-.5,2.43-.71,3.65a.67.67,0,0,0,.39.54A.68.68,0,0,0,191.45,42.41Z" transform="translate(-4.37 -14.38)" fill="#1c75bc"/><path d="M5,59.12c-.61.2-.6.71-.63,1.19s0,1,0,1.44l.52.1c.16-.44.35-.88.49-1.34C5.66,59.62,5.48,59,5,59.12Z" transform="translate(-4.37 -14.38)" fill="#1c75bc"/><path d="M8.25,78.16l0,0h0Z" transform="translate(-4.37 -14.38)" fill="#1c75bc"/><path d="M35.69,17.75c.43,0,.46-.4.47-.74s-.21-.73-.67-.52a.8.8,0,0,0-.4.55A.61.61,0,0,0,35.69,17.75Z" transform="translate(-4.37 -14.38)" fill="#1c75bc"/><path d="M147.51,15a1.37,1.37,0,0,0,1.42-.1s0-.18,0-.28a1.4,1.4,0,0,0-1.42-.16C147.17,14.62,147.15,14.88,147.51,15Z" transform="translate(-4.37 -14.38)" fill="#1c75bc"/><path d="M188.51,22.3a7.34,7.34,0,0,0,.12,1.05c.05.2.25.36.38.54a2.68,2.68,0,0,0,.32-.6,9.1,9.1,0,0,0,.07-1.05h0a5.7,5.7,0,0,0,.89-3c.23-.07.46-.13.68-.22a.78.78,0,0,0,.48-1.13c-.11-.22-.6-.33-.93-.34a1.09,1.09,0,0,0-1,.82l-.06.06a2.41,2.41,0,0,0-.83.62c-1.26,1.47-1.26,1.47-.08,3.22Z" transform="translate(-4.37 -14.38)" fill="#1c75bc"/><path d="M194.2,159a.39.39,0,0,0,.11.3s.18,0,.27-.06.1-.26,0-.33C194.46,158.58,194.28,158.62,194.2,159Z" transform="translate(-4.37 -14.38)" fill="#1c75bc"/><path d="M156.7,15c.09,0,.2-.07.3-.11s0-.22-.07-.26-.24-.1-.31,0C156.34,14.73,156.38,14.91,156.7,15Z" transform="translate(-4.37 -14.38)" fill="#1c75bc"/><path d="M169,15.82a3.37,3.37,0,0,0,.6-.23l-.23-.25-.61.26C168.8,15.68,168.9,15.84,169,15.82Z" transform="translate(-4.37 -14.38)" fill="#1c75bc"/><path d="M190.31,50c-.06.31.06.48.3.41.07,0,.09-.19.13-.29l-.17-.29C190.48,49.91,190.33,50,190.31,50Z" transform="translate(-4.37 -14.38)" fill="#1c75bc"/><path d="M8.25,78.16l0,0-.05,0Z" transform="translate(-4.37 -14.38)" fill="#1c75bc"/><path d="M7.91,78.48l.27-.29a.76.76,0,0,0-.21.08S7.93,78.41,7.91,78.48Z" transform="translate(-4.37 -14.38)" fill="#1c75bc"/><path d="M187.32,158.32l2.16.42c.39-1.51-1.11-1.93-1.48-2.92a9.6,9.6,0,0,1-.14-3.78h0c.33-.65,1-.62,1.56-.8,1.43-.45,1.47-.6.7-2.32l0,0h0a2.76,2.76,0,0,1,.61-2.52c1.13-1.07.16-2.78,1.25-3.86.06-.06-.17-.42-.27-.65h0c0-1.55-.09-3.11-.14-4.67a14.58,14.58,0,0,0,0-5.39,9.89,9.89,0,0,0-.14-4.87,29.78,29.78,0,0,1-.55-3.7c0-.52,0-1,0-1.57s.06-1.31-.76-1.54c-1.34-1.31-.8-2.39.37-3.47.39-.37,0-.94-.69-.9a4.88,4.88,0,0,0-1.08.31,0,0,0,0,1,0,0,0,0,0,0,0,0,0c.1-.64-.38-1.32.63-1.86,1.16-.6,1.27-1.7.28-2.16s-.93-.94-.31-1.54.42-1.31-.05-2h0c0-.56,0-1.11.05-1.67,0-1,0-2,0-3h0c-.81-2.08-.8-2.08-.73-4.64,0-1.78,0-3.57,0-5.36a3,3,0,0,0-.74-2.48c-.16-3.8-.85-7.56-.75-11.38a12.38,12.38,0,0,0-.83-4.86c.91-.91,1.4-1.91.74-3.18h0a.55.55,0,0,0,.09-.6,2.52,2.52,0,0,0-.14-3.26c.25-1.06.49-2.13.74-3.2h0c0-1.56,0-3.12,0-4.67h0c0-1.77,0-3.54.07-5.31h0a4.57,4.57,0,0,0-.76-3.21h0c0-1,0-2.08,0-3.12a11.26,11.26,0,0,0-.3-4.8,5.77,5.77,0,0,1,.22-3.65c.21-1.5,0-3,.77-4.51a3.23,3.23,0,0,0,0-2.62.77.77,0,0,0-.57-.35c-.21,0-.59.16-.61.3-.19,1-.3,2.08-.45,3.24-.78-.75-.29-1.93-1.25-2.39.05-.5.09-1,.14-1.5a.82.82,0,0,1-.43.09c0-.1,0-.21,0-.31l.42.22c.92-2,.59-4.13.57-6.22,1.27-2,.73-4.14.75-6.25h0c-.26-1.34-1.89-.37-2.39-1.47-.62-1.39-1.86-1.24-2.94-.72a7.41,7.41,0,0,1-5.54.72h0c-.4-.58-.9-.94-1.62-.58-1.15.58-2.29,1.19-3.44,1.78a1.63,1.63,0,0,1-2.1-.39h0a5.38,5.38,0,0,0,.19-1.11c0-.35-.06-.83-.29-1a1,1,0,0,0-.95.22c-.71.9-1.73.95-2.71,1.13l-.72-.16a2.89,2.89,0,0,0-2.89-.6,76.85,76.85,0,0,1-9.58.67c-2.79,0-5.55,0-8.21-1.17a12,12,0,0,0-3.38-.43h0c-.51-.78-1.32-.69-2.08-.7-3.85,0-7.71,0-11.56-.05-5,0-10-.14-15.06-.06-1.54,0-3-.76-4.57-.29a9.22,9.22,0,0,1-5.66-.38h0l-1.33-.14a1.25,1.25,0,0,0-.31-.07c-2.89-.76-5.84-.43-8.77-.42-3.27,0-6.49,1-9.79.64-3.25-1.19-6.62-.82-10-.6-4,.27-8,.5-12,.5-2,0-4.13-.1-6,.86-1.92-.05-3.8-.34-5.73.26-3.66,1.14-7.15,2.89-11.09,3.06a6.79,6.79,0,0,0-1.83.61h0a1.18,1.18,0,0,0-.74-.12c-.9-1-.36-2.5-1.19-3.52-2,.67-2,.66-3.15,2-.55.61-1,.67-1.57.12-.92-.91-2.16-.65-3.24-.95a1.28,1.28,0,0,0-1.39.46c-1.24,1.93-3.22,2.66-5.22,3.38h0a1.88,1.88,0,0,0-1.48.78l.16.22h0l-.15-.22a3.65,3.65,0,0,0-3.08,3.2h0c-1.42,1-2.72,2.1-3,4h0a1.43,1.43,0,0,0,0,.65C9.77,31.29,8.64,32.5,9,34a3.47,3.47,0,0,1-.74,3.12c-.93,1.37-1.45,3,0,4.52h0c0,.27,0,.53,0,.8h0l-.76.81h0a14.71,14.71,0,0,0-.6,2.89c0,.65.22,1.6,1.34,1l1.39-.69h0L9.9,50.2h0a.84.84,0,0,0-.1.74l-.12,2.31h0c-.94.57-1.54,1.23-1.12,2.48.14.4-.2,1-.32,1.43h0c0,.25,0,.5,0,.74h0A1.22,1.22,0,0,0,7.58,59h0a.87.87,0,0,1-.12.52c-1.27,1.29-1,2.89-.47,4.27a5.86,5.86,0,0,1-.21,4.4h0l.69,2.21c.26.52.52,1,.77,1.56a.82.82,0,0,0-.68.85c-.22.56-.44,1.12-.64,1.68a1.26,1.26,0,0,0,.35,1.6c.34.19.74.24,1.09.4h0l.6.17-.71,1.49c1,0,2-.76,3,0a.57.57,0,0,1-.08.71c-3.4.83-3.86,1.81-2.2,4.73a14,14,0,0,1,.31,5.61A28.77,28.77,0,0,0,9,96.79a9.6,9.6,0,0,0-.45,1.87c-.22,7.87-.75,15.74-.48,23.63a252.52,252.52,0,0,0,2.6,28.94h0a95.19,95.19,0,0,0,1.53,14c-.26,1.9.58,3.63.87,5.45h0c-.31,1.61.85,3,.7,4.58h0a5.34,5.34,0,0,0,2,3.95.85.85,0,0,0,.69.17c.17-.07.29-.39.33-.61.18-.94-.35-1.72-.56-2.58a2,2,0,0,1,.62-2.41c.71,1,.47,2.41,1.46,3.27,0,2.12,1.45,3.43,2.7,4.85a.77.77,0,0,0,1,.17c.63-.39,1.48-.49,1.81-1.31.79-.22,1.78.48,2.4-.52l.71-.29h0l1.53,0h0a17.41,17.41,0,0,1,1.8,1.37c.39.37.75.75,1.27.46,1.73-.95,3.49.19,5.22-.14h0a3.61,3.61,0,0,0,1,.45c4.87.39,9.74.79,14.61,1.1,2,.13,4.1.05,6.16.09a92.69,92.69,0,0,0,11.9-.29h0a55.5,55.5,0,0,0,7.74,0c2.17-.28,4.32.14,6.48-.41s4.63.24,6.94.3c6.47.15,13,.3,19.42.18a70.82,70.82,0,0,1,9.21.09c5.88.67,11.83.48,17.72,1.28,1.66.22,3.36.14,4.87,1.06a1.48,1.48,0,0,0,1.47-.22h0c2.83.06,5.66-.22,8.49.29a6.69,6.69,0,0,0,3.39-.57,7.85,7.85,0,0,1,3.29-.81,2,2,0,0,0,1.93-.72c.59-.6,1.73-.69,1.64-1.89l1.41-1.61c.57.14,1.14.3,1.72.42,1,.21,1,.14,1.29-1.4h0a9.06,9.06,0,0,1,1-1.5c.93-.91,1.66-.86,3.09.08a7.52,7.52,0,0,0-.14,1.15c.06,1.68.29,1.77,1.79,1.34,1.29-.37,1.53-1.21,1.44-2.34a24.76,24.76,0,0,1,3.87-5.49,1.17,1.17,0,0,0,.82-1.51,4.52,4.52,0,0,1,1,.58c3.11,3.11,3.68,2.49,6.29.22.19-.16.5-.19.67-.36.82-.85,1.63-1.77.95-3-.59-1.1.18-2,.24-3a1.36,1.36,0,0,0,.18-.68h0c.95-2,.86-2.22-1.56-3.3a5.52,5.52,0,0,1,.26-2.87M8.24,71.94Zm181.89,76.94,0,0h0Z" transform="translate(-4.37 -14.38)" fill="#2365ad"/><path d="M133.27,106.33l3.3-25.65H111.18V64.3c0-7.42,2.06-12.49,12.71-12.49h13.58V28.86a182.22,182.22,0,0,0-19.8-1c-19.58,0-33,12-33,33.91V80.68H62.53v25.65H84.69v65.82h26.48V106.33Z" transform="translate(-4.37 -14.38)" fill="#fff"/></svg>