<svg xmlns="http://www.w3.org/2000/svg" width="24" height="33.46" viewBox="0 0 24 33.46"><path d="M253,240.49a15.78,15.78,0,0,1-5.2-1,8.53,8.53,0,0,1-6-7.17c-.75-5.36,2.6-12,4.25-13.21l1.61-1.14a23,23,0,0,1,4.18-5.73l1.8-1.78-.09,2.53s-.13,4.39,2.47,6.5a11.3,11.3,0,0,1,1.71,1.76c-.08-.4-.17-.82-.28-1.26l-.88-3.6,2.57,2.67c.28.29,6.86,7.25,3.7,15.23A10.78,10.78,0,0,1,253,240.49Z" transform="translate(-240.68 -208.03)" fill="#fff"/><path d="M252.54,213s-.19,4.86,2.84,7.32a11.61,11.61,0,0,1,3.72,6.29,20.37,20.37,0,0,0-.69-6.8s6.45,6.69,3.49,14.16a9.86,9.86,0,0,1-8.89,5.54,14.79,14.79,0,0,1-4.87-.91c-10.2-3.6-3.34-17.33-1.52-18.62,0,0-1,5-.53,6.33A23.29,23.29,0,0,1,252.54,213m2.15-4.95-3.56,3.53a24.08,24.08,0,0,0-4.25,5.76l-1.41,1c-2,1.43-5.46,8.55-4.67,14.16a9.49,9.49,0,0,0,6.68,8,16.69,16.69,0,0,0,5.53,1,11.82,11.82,0,0,0,10.73-6.75v-.06c3.39-8.56-3.61-16-3.91-16.28l-5.15-5.35,1.21,4.93a8.9,8.9,0,0,1-1.37-4.93l.15-5Z" transform="translate(-240.68 -208.03)" fill="#fff"/><path d="M246.62,220s-1,5-.53,6.33A23.29,23.29,0,0,1,252.54,213s-.19,4.86,2.84,7.32a11.61,11.61,0,0,1,3.72,6.29,20.37,20.37,0,0,0-.69-6.8s6.45,6.69,3.49,14.16c0,0-3.56,8.23-13.76,4.63S244.8,221.25,246.62,220Z" transform="translate(-240.68 -208.03)" fill="#f29f4e"/><path d="M257.51,226.3c.09,2.1-.86,2.66-1.63,2.77a2.28,2.28,0,0,1-1.42-.3c-4.22-2.29-2.05-7.89-2.05-7.89-2.77,2.65-1.32,8.14-1.32,8.14s.85,3.12-.9,3.39c-.88.14-1.29-.22-1.47-.6a1.43,1.43,0,0,1,0-1.13c1.19-3,.18-4.62.18-4.62a15.73,15.73,0,0,1-1.61,3.48,6.42,6.42,0,0,0-1.07,3.16,6.3,6.3,0,0,0,3.34,5.9,5.9,5.9,0,0,0,8.41-2.45C260.94,230.39,257.51,226.3,257.51,226.3Z" transform="translate(-240.68 -208.03)" fill="#ffd15f"/></svg>