<svg xmlns="http://www.w3.org/2000/svg" width="37.83" height="35.07" viewBox="0 0 37.83 35.07"><path d="M346.65,315.16a3.93,3.93,0,0,1-3.82-4V296.83h-1.41V293a3.83,3.83,0,0,1,3.82-3.82h4.14a4.28,4.28,0,0,1-.78-1.55,4.16,4.16,0,0,1,.56-3.35,4.87,4.87,0,0,1,4-2.16,2.82,2.82,0,0,1,.41,0,5.21,5.21,0,0,1,2.27.52,4,4,0,0,1,1.51,1.17h.21l.25.69s0,.07.07.14l1.44,2.17,1.44-2.17a1.86,1.86,0,0,1,.1-.2l.22-.69.25,0a4.33,4.33,0,0,1,1.49-1.14,5.37,5.37,0,0,1,2.43-.58,5,5,0,0,1,4.24,2.21,4.11,4.11,0,0,1,.56,3.36,4.27,4.27,0,0,1-.76,1.54h4.13a3.83,3.83,0,0,1,3.82,3.82v3.82h-1.41v14.31a3.93,3.93,0,0,1-3.82,4Zm18.56-27.8.09-.14h.35l.11-.14H366l.1-.1a.63.63,0,0,0,.05-.73,1.18,1.18,0,0,0-.75-.41,2.73,2.73,0,0,0-.77.21h0l-.2.48h-.21l-.53.82Zm-10.18,0-.53-.82h-.18l-.24-.48h0a2.58,2.58,0,0,0-.76-.21h0a1.21,1.21,0,0,0-.76.41.63.63,0,0,0,0,.73l.1.1h.23l.13.15h.28l.09.12Z" transform="translate(-340.42 -281.08)" fill="#fff"/><path d="M365.26,283.08a4.05,4.05,0,0,1,3.41,1.76,3.3,3.3,0,0,1-1.45,4.79,3.33,3.33,0,0,1-1.94.56h8.15a2.82,2.82,0,0,1,2.82,2.82v2.82h-1.41v15.31a2.93,2.93,0,0,1-2.82,3H346.65a2.93,2.93,0,0,1-2.82-3V295.83h-1.41V293a2.82,2.82,0,0,1,2.82-2.82h8.14a3.77,3.77,0,0,1-3.38-5.35,3.88,3.88,0,0,1,3.17-1.71,2.17,2.17,0,0,1,.36,0h0a4.45,4.45,0,0,1,1.89.42,3.13,3.13,0,0,1,1.42,1.27h0c0,.14.08.14.12.28l2.34,3.52,2.34-3.52c0-.14.08-.14.13-.28h0a3.08,3.08,0,0,1,1.42-1.27,4.38,4.38,0,0,1,2-.49m-12.18,5.28h3.79l-1.65-2.54s-.05,0-.08-.14h-.06s-.06-.14-.09-.14h-.05c-.06-.14-.11-.14-.18-.28s-.21-.14-.33-.14a3.18,3.18,0,0,0-1.13-.28h0a2.18,2.18,0,0,0-1.58.84,1.66,1.66,0,0,0,.12,2c.16.14.37.42.61.42a.41.41,0,0,0,.37.14.25.25,0,0,0,.26.14m8.72,0h3.78a.28.28,0,0,0,.28-.14.41.41,0,0,0,.37-.14c.24,0,.43-.28.59-.42a1.64,1.64,0,0,0,.14-2,2.2,2.2,0,0,0-1.58-.84h0a3.18,3.18,0,0,0-1.13.28c-.12,0-.23.14-.33.14s-.14.14-.2.28h-.05s-.06.14-.09.14h-.06c0,.14-.06.14-.08.14l-1.64,2.54m3.46-7.28a6.41,6.41,0,0,0-2.89.69,5.29,5.29,0,0,0-1.51,1.07h-.49l-.43,1.25-.05.09-.56.85-.56-.84,0-.08-.4-1.27h-.52a5.35,5.35,0,0,0-1.55-1.09,6.33,6.33,0,0,0-2.63-.6,3.46,3.46,0,0,0-.46,0,5.9,5.9,0,0,0-4.84,2.6,5.11,5.11,0,0,0-.69,4.16,1.71,1.71,0,0,0,.09.3h-2.49a4.83,4.83,0,0,0-4.82,4.82v4.82h1.41v13.31a4.93,4.93,0,0,0,4.82,5H372a4.93,4.93,0,0,0,4.82-5V297.83h1.41V293a4.83,4.83,0,0,0-4.82-4.82H371a2.45,2.45,0,0,0,.08-.29,5.11,5.11,0,0,0-.69-4.15,6,6,0,0,0-5.08-2.67Z" transform="translate(-340.42 -281.08)" fill="#fff"/><path d="M343.83,293v18.13a2.93,2.93,0,0,0,2.82,3H372a2.93,2.93,0,0,0,2.82-3V293Z" transform="translate(-340.42 -281.08)" fill="#ffd266"/><path d="M345.24,290.19a2.82,2.82,0,0,0-2.82,2.82v2.82h33.83V293a2.82,2.82,0,0,0-2.82-2.82H345.24Z" transform="translate(-340.42 -281.08)" fill="#f2c255"/><rect x="14.69" y="7.7" width="8.46" height="25.37" fill="#e74c3c"/><path d="M353.53,283.15a3.84,3.84,0,0,0-3.53,1.69,3.77,3.77,0,0,0,3.38,5.35h11.9a3.33,3.33,0,0,0,1.94-.56,3.3,3.3,0,0,0,1.45-4.79,4.22,4.22,0,0,0-5.42-1.27,3.08,3.08,0,0,0-1.42,1.27h0c-.05.14-.09.14-.13.28l-2.34,3.52L357,285.12c0-.14-.08-.14-.12-.28h0a3.13,3.13,0,0,0-1.42-1.27,4.45,4.45,0,0,0-1.89-.42Zm-.23,1.69a3.18,3.18,0,0,1,1.13.28c.12,0,.23.14.33.14s.12.14.18.28H355s.06.14.09.14h.06c0,.14.06.14.08.14l1.65,2.54h-3.79a.25.25,0,0,1-.26-.14.41.41,0,0,1-.37-.14c-.24,0-.45-.28-.61-.42a1.66,1.66,0,0,1-.12-2,2.18,2.18,0,0,1,1.58-.84Zm12.08,0a2.2,2.2,0,0,1,1.58.84,1.64,1.64,0,0,1-.14,2c-.16.14-.35.42-.59.42a.41.41,0,0,1-.37.14.28.28,0,0,1-.28.14H361.8l1.64-2.54s.05,0,.08-.14h.06s.06-.14.09-.14h.05c.06-.14.13-.14.2-.28s.21-.14.33-.14a3.18,3.18,0,0,1,1.13-.28Z" transform="translate(-340.42 -281.08)" fill="#e74c3c"/></svg>