<svg xmlns="http://www.w3.org/2000/svg" width="32.08" height="31" viewBox="0 0 32.08 31"><path d="M312.47,251.58a6.13,6.13,0,0,1-3.8-1.35,2,2,0,0,0-1.32-.46h-3a1.9,1.9,0,0,1-1.83,1.36h-6.43V236.45h6.43a1.93,1.93,0,0,1,1.62.89,3,3,0,0,0,1.51-.56,7.9,7.9,0,0,0,2.13-2.42,5.85,5.85,0,0,1,1.82-1.88,2.88,2.88,0,0,0,1-1l2-3.32a4.52,4.52,0,0,0,.71-2.52V225a2.34,2.34,0,0,1,1.59-2.22,2.11,2.11,0,0,1,.8-.15,2.28,2.28,0,0,1,1.79.88,6.15,6.15,0,0,1,1.45,4,6,6,0,0,1-.23,1.74l-1.18,5h5.39a3.26,3.26,0,0,1,2.45,5.41,3.26,3.26,0,0,1-.76,3.95,3.17,3.17,0,0,1,.21,1.15,3.25,3.25,0,0,1-1.36,2.66.13.13,0,0,1,0,.06,4.18,4.18,0,0,1-4.18,4.17Z" transform="translate(-295.07 -221.58)" fill="#fff"/><path d="M315.67,223.58a1.28,1.28,0,0,1,1,.5,5.23,5.23,0,0,1,1.23,3.4,4.93,4.93,0,0,1-.19,1.45l-1.49,6.25h6.66a2.24,2.24,0,0,1,2.26,2.27,2.36,2.36,0,0,1-1.17,2,2.21,2.21,0,0,1,.72,1.63,2.26,2.26,0,0,1-1.49,2.13,2.22,2.22,0,0,1,.58,1.49,2.25,2.25,0,0,1-1.49,2.13,1.28,1.28,0,0,1,.14.59,3.15,3.15,0,0,1-3.18,3.17h-6.79a5.1,5.1,0,0,1-3.17-1.13,3,3,0,0,0-1.95-.68h-3.94v.45a.91.91,0,0,1-.9.91h-5.44V237.45h5.44a.9.9,0,0,1,.9.9h.45a4,4,0,0,0,2.36-.77,8.75,8.75,0,0,0,2.4-2.71,4.68,4.68,0,0,1,1.5-1.54,3.68,3.68,0,0,0,1.31-1.32l2-3.3a5.51,5.51,0,0,0,.86-3V225a1.31,1.31,0,0,1,.91-1.27,1.18,1.18,0,0,1,.48-.1m0-2h0a3.17,3.17,0,0,0-1.18.22,3.35,3.35,0,0,0-2.21,3.15v.72a3.45,3.45,0,0,1-.54,1.94v0l0,0-2,3.31a1.81,1.81,0,0,1-.61.62l0,0,0,0a6.87,6.87,0,0,0-2.11,2.18,7,7,0,0,1-1.86,2.14,2.64,2.64,0,0,1-.55.29,2.9,2.9,0,0,0-2-.8h-7.44v16.68h7.44a2.88,2.88,0,0,0,2.45-1.36h2.39a1,1,0,0,1,.67.22,7.13,7.13,0,0,0,4.45,1.59h6.79a5.18,5.18,0,0,0,5.16-4.76,4.28,4.28,0,0,0,1.28-4,4.23,4.23,0,0,0,.78-4.08,4.14,4.14,0,0,0,.67-2.28,4.22,4.22,0,0,0-4.26-4.27h-4.13l.9-3.73a7.36,7.36,0,0,0,.25-2,7.18,7.18,0,0,0-1.69-4.67,3.29,3.29,0,0,0-2.55-1.23Z" transform="translate(-295.07 -221.58)" fill="#fff"/><path d="M303,248.77h4.39a3,3,0,0,1,1.95.68,5.1,5.1,0,0,0,3.17,1.13h6.79a3.15,3.15,0,0,0,3.18-3.17,1.28,1.28,0,0,0-.14-.59,2.25,2.25,0,0,0,1.49-2.13,2.22,2.22,0,0,0-.58-1.49,2.26,2.26,0,0,0,1.49-2.13,2.21,2.21,0,0,0-.72-1.63,2.36,2.36,0,0,0,1.17-2,2.24,2.24,0,0,0-2.26-2.27h-6.66l1.49-6.25a4.93,4.93,0,0,0,.19-1.45,5.23,5.23,0,0,0-1.23-3.4,1.26,1.26,0,0,0-1.49-.4,1.31,1.31,0,0,0-.91,1.27v.72a5.51,5.51,0,0,1-.86,3l-2,3.3a3.63,3.63,0,0,1-1.32,1.32,4.75,4.75,0,0,0-1.49,1.54,8.75,8.75,0,0,1-2.4,2.71,4,4,0,0,1-2.36.77H303Z" transform="translate(-295.07 -221.58)" fill="#f4d1b3"/><path d="M304.27,248.77a27,27,0,0,1-.86-6.66,26,26,0,0,1,.27-3.76H303v10.42Z" transform="translate(-295.07 -221.58)" fill="#cca283"/><polygon points="27.23 25.24 24.65 24.47 24.65 25.38 27.23 25.24" fill="#cca283"/><polygon points="28.14 21.62 25.55 20.85 25.55 21.76 28.14 21.62" fill="#cca283"/><polygon points="28.91 17.86 25.55 17.23 25.55 18.13 28.91 17.86" fill="#cca283"/><path d="M316.41,234.37a9.91,9.91,0,0,1-3,.81h2.85Z" transform="translate(-295.07 -221.58)" fill="#cca283"/><path d="M302.51,250.13h-5.44V237.45h5.44a.9.9,0,0,1,.9.9v10.87A.91.91,0,0,1,302.51,250.13Z" transform="translate(-295.07 -221.58)" fill="#5ca4cc"/><rect x="4.26" y="23.79" width="0.45" height="1.36" fill="#418aaa"/><circle cx="4.49" cy="26.06" r="1.13" fill="#fff"/></svg>