<svg xmlns="http://www.w3.org/2000/svg" width="12.38" height="12.38" viewBox="0 0 12.38 12.38"><path d="M210.07,200.92a3,3,0,0,0,.25.28c.1.09.21.2.33.29a3,3,0,0,0,1.78.66,2.43,2.43,0,0,0,1-.16,3.49,3.49,0,0,0,.44-.2,3.77,3.77,0,0,0,.39-.26c.12-.1.23-.21.33-.31a2.21,2.21,0,0,0,.26-.28,1.65,1.65,0,0,0,.16-.22l.06-.09-.06-.08a1.64,1.64,0,0,0-.16-.23,3.2,3.2,0,0,0-.26-.28,2.49,2.49,0,0,0-.33-.31,3.77,3.77,0,0,0-.39-.26,3.36,3.36,0,0,0-.43-.2,2.46,2.46,0,0,0-1-.16,3,3,0,0,0-1.79.65c-.12.09-.23.2-.33.29a3,3,0,0,0-.25.28l-.17.21-.06.09.06.07A2.22,2.22,0,0,0,210.07,200.92Z" transform="translate(-209.84 -194.42)" fill="#93b658"/><path d="M217.26,200.92a3,3,0,0,0,.25.28c.1.09.21.2.33.29a3,3,0,0,0,1.78.66,2.43,2.43,0,0,0,1-.16,3.49,3.49,0,0,0,.44-.2,3.77,3.77,0,0,0,.39-.26c.12-.1.23-.21.33-.31a2.21,2.21,0,0,0,.26-.28,1.65,1.65,0,0,0,.16-.22l.06-.09-.06-.08a1.64,1.64,0,0,0-.16-.23,3.2,3.2,0,0,0-.26-.28,2.49,2.49,0,0,0-.33-.31,3.77,3.77,0,0,0-.39-.26,3.36,3.36,0,0,0-.43-.2,2.46,2.46,0,0,0-1-.16,3,3,0,0,0-1.79.65c-.12.09-.23.2-.33.29a3,3,0,0,0-.25.28l-.17.21-.06.09.06.07A2.22,2.22,0,0,0,217.26,200.92Z" transform="translate(-209.84 -194.42)" fill="#93b658"/><path d="M215.73,194.65a2.85,2.85,0,0,0-.27.25c-.09.1-.2.21-.29.33a3,3,0,0,0-.66,1.78,2.61,2.61,0,0,0,.15,1,3.55,3.55,0,0,0,.21.44,3.77,3.77,0,0,0,.26.39,3.26,3.26,0,0,0,.31.33,1.69,1.69,0,0,0,.28.26,1.65,1.65,0,0,0,.22.16l.09.06.08-.06a1.19,1.19,0,0,0,.22-.16,2.26,2.26,0,0,0,.29-.26,2.41,2.41,0,0,0,.3-.33,3.83,3.83,0,0,0,.27-.39,2.94,2.94,0,0,0,.2-.44,2.38,2.38,0,0,0,.16-.95,3,3,0,0,0-.65-1.79c-.09-.12-.2-.23-.29-.33a3,3,0,0,0-.28-.25l-.22-.17-.08-.06-.08.06S215.81,194.57,215.73,194.65Z" transform="translate(-209.84 -194.42)" fill="#93b658"/><path d="M215.73,201.84a2.85,2.85,0,0,0-.27.25c-.09.1-.2.21-.29.33a3,3,0,0,0-.66,1.78,2.61,2.61,0,0,0,.15,1,3.55,3.55,0,0,0,.21.44,3.77,3.77,0,0,0,.26.39,3.26,3.26,0,0,0,.31.33,1.69,1.69,0,0,0,.28.26,1.65,1.65,0,0,0,.22.16l.09.06.08-.06a1.19,1.19,0,0,0,.22-.16,2.26,2.26,0,0,0,.29-.26,2.41,2.41,0,0,0,.3-.33,3.83,3.83,0,0,0,.27-.39,3.49,3.49,0,0,0,.2-.44,2.38,2.38,0,0,0,.16-.95,3,3,0,0,0-.65-1.79c-.09-.12-.2-.23-.29-.33a3,3,0,0,0-.28-.25l-.22-.17-.08-.06-.08.06S215.81,201.76,215.73,201.84Z" transform="translate(-209.84 -194.42)" fill="#93b658"/></svg>