<?xml version="1.0" encoding="utf-8"?><svg viewBox="0 0 82.05 32" xmlns="http://www.w3.org/2000/svg" xmlns:xlink="http://www.w3.org/1999/xlink"><style>:root>svg{display:none}:root>svg:target{display:block}</style><svg viewBox="0 0 40.87 27.3" id="ic_account_name" xmlns="http://www.w3.org/2000/svg"><path d="M4.1 24.11a4.85 4.85 0 0 1-2-1.1 1.75 1.75 0 0 1-.41-1.23v-.15a16.73 16.73 0 0 0 0-3.91l-.37-4.41a86.44 86.44 0 0 1-.38-8.92c0-.37 0-.79.06-1.22a2.12 2.12 0 0 1 1.1-1.81 2.59 2.59 0 0 1 1.34-.34h.75a5.89 5.89 0 0 1 3.57 1.4 6.32 6.32 0 0 1 2.06 3.16 8.49 8.49 0 0 1 .31 1.88A8.73 8.73 0 0 1 10 9.37a5.89 5.89 0 0 1-.72 1.92 5.39 5.39 0 0 1-.43.63 6.53 6.53 0 0 1 2.45 5.48 6.32 6.32 0 0 1-.63 2.85 5.51 5.51 0 0 1-1.78 2.07 10.06 10.06 0 0 1-4.51 1.71H4.1zm1-9.14c.17 1.75.27 3.1.3 4.11v.81a4.18 4.18 0 0 0 1.48-.81 2.38 2.38 0 0 0 .81-1.93 3.41 3.41 0 0 0-.34-1.63 2.61 2.61 0 0 0-1.07-1 3.73 3.73 0 0 0-1.27-.42zM4.56 4.75c0 1.08.06 3 .21 5.71a2.28 2.28 0 0 0 .79-.2 1.73 1.73 0 0 0 .52-.57 2.42 2.42 0 0 0 .37-1 4 4 0 0 0-.5-2.9 2.28 2.28 0 0 0-1.37-1.04z" fill="currentColor"/><path d="M3.42 2h.5a.45.45 0 0 0 .16 0 4.92 4.92 0 0 1 3 1.16 5.39 5.39 0 0 1 1.74 2.68 7.68 7.68 0 0 1 .27 1.65 7.91 7.91 0 0 1-.11 1.68 5.36 5.36 0 0 1-.6 1.6 4.81 4.81 0 0 1-1.14 1.32 5.48 5.48 0 0 1 3 5.29 5.17 5.17 0 0 1-.53 2.4 4.27 4.27 0 0 1-1.45 1.69 9 9 0 0 1-4.08 1.55H4.1a.72.72 0 0 1-.71-.44.86.86 0 0 1-.53-.3.81.81 0 0 1-.17-.56 17.9 17.9 0 0 0 0-4.17c0-.1 0-.41-.07-.92s-.08-.91-.1-1.21 0-.55-.07-.88 0-.61-.07-.84 0-.41-.05-.57a84.33 84.33 0 0 1-.38-8.81c0-.37 0-.75.06-1.16a1.16 1.16 0 0 1 .51-1 1.59 1.59 0 0 1 .84-.21m.42 9.5h.81A3.6 3.6 0 0 0 6 11.1a2.49 2.49 0 0 0 .88-.89 3.41 3.41 0 0 0 .52-1.36 4.92 4.92 0 0 0-.65-3.6 3.29 3.29 0 0 0-2.78-1.62 2.91 2.91 0 0 1-.39 0 7.37 7.37 0 0 0 0 .84c0 1.13.06 3.48.26 7m.37 1.65h-.27c0 .16 0 .46.09.91l.09 1c.17 1.7.27 3 .3 4a15 15 0 0 1-.07 2.07 6.41 6.41 0 0 0 3.22-1.35 3.35 3.35 0 0 0 1.15-2.68 4.2 4.2 0 0 0-.48-2.13 3.59 3.59 0 0 0-1.45-1.35 4.82 4.82 0 0 0-2-.57h-.6M3.4-.13a3.62 3.62 0 0 0-1.87.49A3.13 3.13 0 0 0 .1 3.12c0 .41-.06.85-.06 1.27a85.64 85.64 0 0 0 .39 9V14.8l.05.51v.96l.05.61.06.76v.16a15.27 15.27 0 0 1 0 3.65V21.74a2.79 2.79 0 0 0 .63 1.91 2.94 2.94 0 0 0 .82.67 2.7 2.7 0 0 0 2 .79h.37a11 11 0 0 0 5-1.9 6.3 6.3 0 0 0 2.08-2.42 7.34 7.34 0 0 0 .74-3.3 7.76 7.76 0 0 0-2.13-5.65 6.8 6.8 0 0 0 .81-2.2 9 9 0 0 0 .14-2.13 9.29 9.29 0 0 0-.33-2.1 7.4 7.4 0 0 0-2.38-3.67A6.88 6.88 0 0 0 4.23.12h-.58zm3 18.2c0-.71-.1-1.56-.19-2.54a1.22 1.22 0 0 1 .32.37 2.22 2.22 0 0 1 .21 1.12 1.44 1.44 0 0 1-.34 1z" fill="#fff"/><path d="M17.81 23.26a1.86 1.86 0 0 1-.86-.22 1.66 1.66 0 0 1-.87-1.11l-.55-1.76c-.07.48-.13 1-.19 1.42a1.77 1.77 0 0 1-.74 1.21 1.79 1.79 0 0 1-1 .32h-.24a1.73 1.73 0 0 1-1.18-.68 1.82 1.82 0 0 1-.37-1.27 51.65 51.65 0 0 1 1.73-7.81l-.27-.79-.55-1.55a10.73 10.73 0 0 1-.54-1.68 15.9 15.9 0 0 1-.44-1.69 1.83 1.83 0 0 1 .3-1.36 1.78 1.78 0 0 1 1.13-.73 1.69 1.69 0 0 1 .34 0 1.82 1.82 0 0 1 1.77 1.46 8.29 8.29 0 0 0 .19.91 11.88 11.88 0 0 0 .35-1.3 1.83 1.83 0 0 1 1.77-1.44 1.6 1.6 0 0 1 .3 0 1.87 1.87 0 0 1 1.17.78 1.71 1.71 0 0 1 .23 1.39 21 21 0 0 1-1.12 3.56l-.56 1.47-.33 1 .6 2.19L19.52 21a1.81 1.81 0 0 1-.13 1.34 1.69 1.69 0 0 1-1.08.89 2 2 0 0 1-.5.03z" fill="currentColor"/><path d="M17.56 6.14h.14a.81.81 0 0 1 .5.35.7.7 0 0 1 .09.58 20.34 20.34 0 0 1-1.08 3.45l-.57 1.47-.43 1.33.68 2.47.89 3 .76 2.5a.83.83 0 0 1-.07.6.65.65 0 0 1-.44.37h-.22a.87.87 0 0 1-.39-.1.7.7 0 0 1-.37-.47l-1.75-5.61a48.72 48.72 0 0 0-.95 5.39.7.7 0 0 1-.32.5.75.75 0 0 1-.46.15h-.12a.71.71 0 0 1-.51-.29.85.85 0 0 1-.17-.58 51.48 51.48 0 0 1 1.79-7.91l-.37-1.09-.27-.76-.29-.81a9.47 9.47 0 0 1-.51-1.58 14.58 14.58 0 0 1-.42-1.64.72.72 0 0 1 .13-.59.8.8 0 0 1 .51-.34h.14a.77.77 0 0 1 .46.15.82.82 0 0 1 .33.51 22.74 22.74 0 0 0 1.11 3.78l.37-1.06.43-1.09a15.76 15.76 0 0 0 .6-2 .73.73 0 0 1 .33-.49.72.72 0 0 1 .45-.15m0-2a2.79 2.79 0 0 0-1.6.51 2.59 2.59 0 0 0-.61.58 1.78 1.78 0 0 0-.27-.21 2.77 2.77 0 0 0-1.6-.51 3.42 3.42 0 0 0-.45 0h-.08a2.85 2.85 0 0 0-1.76 1.14 2.78 2.78 0 0 0-.47 2.06v.07a15.5 15.5 0 0 0 .47 1.81 11 11 0 0 0 .57 1.76l.26.75.28.77.15.44a52.5 52.5 0 0 0-1.67 7.61v.11a2.81 2.81 0 0 0 .57 2 2.77 2.77 0 0 0 1.85 1.06h.37a2.84 2.84 0 0 0 2.06-.9 2.52 2.52 0 0 0 .85.7 2.74 2.74 0 0 0 2 .25 2.66 2.66 0 0 0 1.76-1.42 2.78 2.78 0 0 0 .21-2v-.09l-.76-2.5-.88-2.92-.51-1.89.23-.71.55-1.42a22.17 22.17 0 0 0 1.17-3.76 2.71 2.71 0 0 0-.38-2.09 2.86 2.86 0 0 0-1.69-1.2H18.01a3.42 3.42 0 0 0-.45 0z" fill="#fff"/><path d="M24.56 23.3a3.77 3.77 0 0 1-1.8-.43c-.87-.46-1.46-1.56-1.76-3.36a30.91 30.91 0 0 1-.39-4.16 34.71 34.71 0 0 1 .11-4.32 7.56 7.56 0 0 1 .83-3.3 2.81 2.81 0 0 1 1.8-1.29 3.92 3.92 0 0 1 .71 0h.44a1.74 1.74 0 0 1 1.26.5l.26.15a3.59 3.59 0 0 1 .6.44 3.79 3.79 0 0 1 .77 1.33 11 11 0 0 1 .55 2.8c.12 1.22.19 2.55.21 3.95a22.6 22.6 0 0 1-.22 3.93 4.71 4.71 0 0 1-1.38 3.22 3.23 3.23 0 0 1-1.93.58zm-.27-11.94a31.7 31.7 0 0 0-.1 3.89 25.48 25.48 0 0 0 .29 3.33 30 30 0 0 0-.07-6.46c0-.33-.07-.61-.11-.85a.28.28 0 0 1-.01.09z" fill="currentColor"/><path d="M24.5 7.36a.77.77 0 0 1 .65.31l.36.2a2.46 2.46 0 0 1 .4.29 2.7 2.7 0 0 1 .54 1 9.48 9.48 0 0 1 .49 2.54c.13 1.21.2 2.5.21 3.86a21.69 21.69 0 0 1-.21 3.77 3.88 3.88 0 0 1-1 2.6 2.25 2.25 0 0 1-1.29.35 2.73 2.73 0 0 1-1.31-.3c-.61-.32-1-1.2-1.27-2.65a28.21 28.21 0 0 1-.38-4 37 37 0 0 1 .1-4.2 7 7 0 0 1 .68-2.84 1.81 1.81 0 0 1 1.15-.86 5 5 0 0 1 .52 0h.44m.07 13.35a1.62 1.62 0 0 0 .38 0 .88.88 0 0 0 .18-.4 6 6 0 0 0 .28-1.19 29.43 29.43 0 0 0 0-7.09 11.92 11.92 0 0 0-.41-2.24l-.16-.44h-.1l-.46-.29a.09.09 0 0 1-.06 0h-.35l-.07.07a.47.47 0 0 0-.09.12 5.87 5.87 0 0 0-.41 2.11 31.48 31.48 0 0 0-.11 4 25.11 25.11 0 0 0 .36 3.77 4.56 4.56 0 0 0 .32 1.25 1.33 1.33 0 0 0 .18.35 1.45 1.45 0 0 0 .52.08M24.5 5.36h-.4a5.17 5.17 0 0 0-.91.06 3.74 3.74 0 0 0-2.42 1.7 8.34 8.34 0 0 0-1 3.77 37 37 0 0 0-.11 4.45 30.67 30.67 0 0 0 .41 4.33c.34 2.07 1.09 3.4 2.27 4a4.68 4.68 0 0 0 2.25.55h.08a4.2 4.2 0 0 0 2.44-.71h.06l.06-.05a5.55 5.55 0 0 0 1.74-3.88 24.1 24.1 0 0 0 .23-4.06c0-1.42-.09-2.78-.22-4a11.35 11.35 0 0 0-.62-3.08A3.77 3.77 0 0 0 26.6 6.2l-.2-.11a2.74 2.74 0 0 0-1.85-.69z" fill="#fff"/><path d="M30.34 26.3a1.73 1.73 0 0 1-1.27-.53 1.76 1.76 0 0 1-.51-1.26c0-.09 0-.55-.11-1.35a6.57 6.57 0 0 1 .06-1.6 2.75 2.75 0 0 1 .53-1.22 2.55 2.55 0 0 1 .68-.56 1 1 0 0 1 .28-.27c.48-.42 1.28-1.71 1.5-5.71v-3.5-1.31a2.64 2.64 0 0 1 .49-1.61 1.53 1.53 0 0 1 .69-.55l.12-.12H33.49a17 17 0 0 1 1.8-.2 2.76 2.76 0 0 1 .44 0h.24a1.19 1.19 0 0 1 .47.09 1.67 1.67 0 0 1 .69.41 2.41 2.41 0 0 1 .71 1.5 3.23 3.23 0 0 1 0 .48v.2c.13 1.22.19 3.23.19 5.86v4.49a2 2 0 0 1 .65.31 3.4 3.4 0 0 1 1.09 2.41v1.3a1.82 1.82 0 0 1-.37 1.27 1.72 1.72 0 0 1-1.18.67h-.24a1.87 1.87 0 0 1-1.05-.33 1.74 1.74 0 0 1-.71-1.17v-.16c0-.17 0-.48-.05-.91H32c0 .2 0 .48.07.85s.06.77.06.8a1.79 1.79 0 0 1-1.79 1.79zm4.12-7v-1a10 10 0 0 1-.32 1z" fill="currentColor"/><path d="M36.02 7.42a.17.17 0 0 1 .12 0 .7.7 0 0 1 .34.18 1.46 1.46 0 0 1 .42 1 2 2 0 0 1 0 .32v.2q.19 1.94.19 5.86v2.63c0 1.62-.05 2.54-.05 2.76a1 1 0 0 1 .3 0h.4a1 1 0 0 1 .36.16 2.57 2.57 0 0 1 .7 1.73v.79a1.91 1.91 0 0 0 0 .48.85.85 0 0 1-.17.58.74.74 0 0 1-.51.29h-.02a.78.78 0 0 1-.47-.15.76.76 0 0 1-.31-.51c0-.23 0-.67-.08-1.33l-.09-.53a4.77 4.77 0 0 1-.61 0h-4.35a5.69 5.69 0 0 0-.74 0h-.21a.61.61 0 0 0-.16.12 6.16 6.16 0 0 0 0 1.81c0 .44.06.67.06.7a.77.77 0 0 1-.23.56.79.79 0 0 1-.56.23.77.77 0 0 1-.56-.23.76.76 0 0 1-.22-.56c0-.07 0-.55-.11-1.43a5.51 5.51 0 0 1 0-1.34 1.63 1.63 0 0 1 .31-.76 2.13 2.13 0 0 1 .6-.45.65.65 0 0 1 .2-.23q1.62-1.34 1.89-6.45c0-1.16.05-2.35 0-3.56V9.05a1.74 1.74 0 0 1 .28-1.06.53.53 0 0 1 .27-.22h.62a15.41 15.41 0 0 1 1.73-.18 1.55 1.55 0 0 1 .33 0h.24m-3.41 12.88h2.84v-1.32-1.42-2.62c0-2.47-.07-4.36-.2-5.68v-.21h-.57l-.64.08a10.39 10.39 0 0 0 0 1.08v3.67a13.92 13.92 0 0 1-1.46 6.37M35.9 5.54h-.24a3.16 3.16 0 0 0-.55 0 18.31 18.31 0 0 0-1.86.2h-.97l-.29.31a2.57 2.57 0 0 0-.88.78 3.62 3.62 0 0 0-.68 2.15v4.84c-.21 3.84-1 4.78-1.14 4.94a2.68 2.68 0 0 0-.3.28 3.27 3.27 0 0 0-.78.69 3.55 3.55 0 0 0-.75 1.65 7.76 7.76 0 0 0-.08 1.86c.07.76.1 1.2.11 1.34a2.78 2.78 0 0 0 4.75 1.93 2.74 2.74 0 0 0 .82-2v-.66h2.21v.25a2.75 2.75 0 0 0 1.13 1.82 2.83 2.83 0 0 0 1.62.51h.35a2.8 2.8 0 0 0 2.44-3v-.5-.31-.53a4.35 4.35 0 0 0-1.45-3.07l-.26-.17v-1.18V15c0-2.64-.06-4.59-.19-5.95v-.11a3 3 0 0 0-.05-.63 3.36 3.36 0 0 0-1-2.06 2.76 2.76 0 0 0-1.07-.65 2.38 2.38 0 0 0-.8-.14z" fill="#fff"/></svg><svg viewBox="0 0 63.19 24.64" id="ic_account_name2" xmlns="http://www.w3.org/2000/svg"><path d="M8.28 23.54a1.81 1.81 0 0 1-1.78-1.46c-.08-.6-.16-1.37-.23-2.4l-.21-2.2c0-.3-.11-.78-.23-1.44a3.79 3.79 0 0 0-.39-1.26 1.25 1.25 0 0 0-.43-.45 1.5 1.5 0 0 0-.43-.11l.08 6.94a1.78 1.78 0 0 1-1.79 1.8 1.73 1.73 0 0 1-1.27-.53 1.79 1.79 0 0 1-.51-1.26c0-.06 0-2.15-.05-6.25 0-3.82-.05-6.23 0-7.18 0-.13 0-.55.14-2.5 0-.85.05-1.6 0-2.22a1.7 1.7 0 0 1 .43-1.27 1.68 1.68 0 0 1 1.25-.6h.12a1.77 1.77 0 0 1 1.15.43 1.71 1.71 0 0 1 .62 1.26v2.59C4.67 6.64 4.61 8 4.59 9.5a2.05 2.05 0 0 0 .15-.44 13.77 13.77 0 0 0 .14-1.68c0-1.07 0-1.79.09-2.19a8.6 8.6 0 0 1 .43-1.75l.28-.71.16-.44a1.71 1.71 0 0 1 .09-.22 1.61 1.61 0 0 1 .23-.39l.15-.16a2 2 0 0 1 .33-.26l.25-.12a2 2 0 0 1 .69-.13 1.64 1.64 0 0 1 .69.14 1.78 1.78 0 0 1 .95 2.36l-.26.62a6.7 6.7 0 0 0-.35.94c0 .14-.07.32-.1.52s0 .89-.07 1.88a12 12 0 0 1-.31 2.73 4.78 4.78 0 0 1-.69 1.48c1.09.93 1.81 2.56 2.16 4.94.12.91.22 1.85.3 2.8s.14 1.62.21 2a1.77 1.77 0 0 1-.31 1.35 1.8 1.8 0 0 1-1.14.73z" fill="currentColor"/><path d="M7.54 2.05a.85.85 0 0 1 .31.06.74.74 0 0 1 .42.43.68.68 0 0 1 0 .59L8 3.78a7.48 7.48 0 0 0-.4 1.08c0 .18-.08.39-.12.62s-.05 1-.08 2a10.46 10.46 0 0 1-.28 2.5 3.52 3.52 0 0 1-1 1.66 2.08 2.08 0 0 1-.38.3 1.82 1.82 0 0 1 .47.21q1.78 1 2.32 4.65c.12.89.21 1.8.29 2.74s.15 1.68.23 2.11a.8.8 0 0 1-.14.6.87.87 0 0 1-.52.33h-.15a.83.83 0 0 1-.46-.14.84.84 0 0 1-.34-.52c-.07-.52-.14-1.27-.21-2.27v-.4q-.14-1.35-.18-1.83c0-.31-.11-.82-.23-1.52a4.83 4.83 0 0 0-.52-1.59 2.1 2.1 0 0 0-.81-.81 4.43 4.43 0 0 0-1.92-.31l.09 8a.77.77 0 0 1-.23.56.79.79 0 0 1-.56.23.77.77 0 0 1-.56-.23.8.8 0 0 1-.22-.56s0-2.11-.05-6.26q-.06-5.75 0-7.15c0-.21.05-1 .13-2.46a23.18 23.18 0 0 0 0-2.32.76.76 0 0 1 .18-.58.71.71 0 0 1 .54-.25h.08a.76.76 0 0 1 .5.19.71.71 0 0 1 .27.54v2.51c-.11 1.6-.17 3.48-.17 5.64a2.48 2.48 0 0 0 1.47-.5 2.31 2.31 0 0 0 .67-1.26 12 12 0 0 0 .15-1.85c0-1.05.06-1.76.1-2.14a6.52 6.52 0 0 1 .37-1.48l.27-.71.09-.24c0-.11.06-.18.08-.22s0-.09.06-.16a.51.51 0 0 1 .08-.14l.09-.1a.47.47 0 0 1 .12-.09l.16-.08a.71.71 0 0 1 .29-.05m0-2a2.75 2.75 0 0 0-1 .19 2.75 2.75 0 0 0-.33.15 3 3 0 0 0-.57.43l-.23.25c0 .06-.09.13-.14.2A3 3 0 0 0 4.87.8 2.75 2.75 0 0 0 3.08.14h-.32a2.71 2.71 0 0 0-1.93.94 2.79 2.79 0 0 0-.67 2V5.2C.04 7.12.02 7.58.02 7.76v7.17c0 4.08.05 6.17.05 6.25a2.78 2.78 0 0 0 2.78 2.78 2.8 2.8 0 0 0 2-.81 2.84 2.84 0 0 0 .66-1v.16a2.81 2.81 0 0 0 2.76 2.26 2.28 2.28 0 0 0 .45 0h.08a2.8 2.8 0 0 0 2.25-3.2c-.05-.28-.12-.82-.21-2-.07-1-.18-1.94-.3-2.85a9.67 9.67 0 0 0-1.9-5 5.57 5.57 0 0 0 .4-1.08 12.21 12.21 0 0 0 .35-3c0-1.08.05-1.58.07-1.81a3.82 3.82 0 0 1 .08-.39s.06-.21.29-.77l.27-.63a2.68 2.68 0 0 0 0-2.15A2.74 2.74 0 0 0 8.6.18a2.88 2.88 0 0 0-1.08-.21z" fill="#fff"/><path d="M14.64 23.25a3.48 3.48 0 0 1-1.95-.69 5.63 5.63 0 0 1-1.93-3.84 16.67 16.67 0 0 1-.06-5.28 9 9 0 0 1 1.76-4.6 3.78 3.78 0 0 1 3-1.49 4.8 4.8 0 0 1 2.06.51 1.82 1.82 0 0 1 .89 1 2 2 0 0 1 .12.67 1.29 1.29 0 0 1 .15.56l-1 .15h1v.53l.08 1.58v1c.07.63.11 1.53.13 2.58a28.29 28.29 0 0 0 .16 3.51v.34l.22.14a1.41 1.41 0 0 1 .34.32s.05.07.1.16a1.58 1.58 0 0 1 .16.35 2.55 2.55 0 0 1 .07.32 1.77 1.77 0 0 1-.3 1.3 1.8 1.8 0 0 1-1.14.74h-.32a1.81 1.81 0 0 1-.77-.17h-.06l-.33-.22-.06-.05h-.05l-.08-.06h.07a2.44 2.44 0 0 1-.33-.23 2.92 2.92 0 0 1-1.29.79 2.83 2.83 0 0 1-.64.08zm.29-11.73a7.24 7.24 0 0 0-.7 2.4 12.34 12.34 0 0 0 0 4 8.65 8.65 0 0 0 .25 1.19 10 10 0 0 0 .41-1.85 30.89 30.89 0 0 0 .27-3.67v-.33a16.78 16.78 0 0 1-.23-1.74z" fill="currentColor"/><path d="M15.43 8.35a3.83 3.83 0 0 1 1.64.42.73.73 0 0 1 .37.42.78.78 0 0 1 0 .58l.17.22a.35.35 0 0 1 0 .12v.64l.08 1.6v.91c.07.7.11 1.57.13 2.6a28.52 28.52 0 0 0 .17 3.64 6 6 0 0 0 .16.87l.2.11.17.09.12.08.11.08.06.1.06.13v.16a.81.81 0 0 1-.13.59.79.79 0 0 1-.52.33h-.12a.84.84 0 0 1-.47-.14l-.08-.05a.38.38 0 0 0-.13-.09 1.86 1.86 0 0 1-.85-1.14l-.16.33a2.34 2.34 0 0 1-1.39 1.25 1.35 1.35 0 0 1-.44.07 2.46 2.46 0 0 1-1.38-.51 4.8 4.8 0 0 1-1.44-3.21 15.6 15.6 0 0 1 0-5 8.16 8.16 0 0 1 1.54-4.1 2.81 2.81 0 0 1 2.2-1.13m-.83 12.34h.07a1.19 1.19 0 0 0 .42-.46 8.38 8.38 0 0 0 .8-2.84 32.17 32.17 0 0 0 .28-3.87v-.4a16.48 16.48 0 0 1-.21-1.93 1.31 1.31 0 0 0 0-.27 2.62 2.62 0 0 1 0-.91 1.72 1.72 0 0 0-.44-.06 1.34 1.34 0 0 0-1.05.54 6.87 6.87 0 0 0-1.18 3.29 13.46 13.46 0 0 0 0 4.3 3.83 3.83 0 0 0 .92 2.43.91.91 0 0 0 .42.19m.83-14.34a4.76 4.76 0 0 0-3.73 1.84 10 10 0 0 0-2 5.11 17.51 17.51 0 0 0 .06 5.6c.38 2.16 1.14 3.62 2.33 4.47a4.49 4.49 0 0 0 2.54.88 3.7 3.7 0 0 0 1-.14 3.92 3.92 0 0 0 1.06-.49l.39.26h.16a2.87 2.87 0 0 0 1 .17h.52a2.78 2.78 0 0 0 2.22-3.2c0-.13-.05-.28-.08-.4a3 3 0 0 0-.27-.6l-.15-.24a2.36 2.36 0 0 0-.44-.45 26.57 26.57 0 0 1-.14-3.25c0-1.07-.06-2-.13-2.7v-.91l-.08-1.59v-.64a2.28 2.28 0 0 0-.16-.8 3.19 3.19 0 0 0-.17-.79 2.73 2.73 0 0 0-1.36-1.51 5.93 5.93 0 0 0-2.53-.63z" fill="#fff"/><path d="M24.44 23.52a4.06 4.06 0 0 1-1.8-.45 4.78 4.78 0 0 1-2.3-3.36 20.26 20.26 0 0 1-.48-5.34 29 29 0 0 1 .55-5 8.57 8.57 0 0 1 1.34-3.56 5.59 5.59 0 0 1 1.78-1.44l1.38-.67a1 1 0 0 0 .28-.2s0-.12-.05-.29a1.77 1.77 0 0 1 .31-1.36 1.79 1.79 0 0 1 1.46-.78 1.76 1.76 0 0 1 1 .34 1.9 1.9 0 0 1 .73 1.1 3.93 3.93 0 0 1-.31 2.65 4.36 4.36 0 0 1-1.78 1.69l-.73.37a5.76 5.76 0 0 0-1 .54 2.39 2.39 0 0 0-.28.29 2.62 2.62 0 0 0-.25.57 3.59 3.59 0 0 1 1.65.4 5.3 5.3 0 0 1 2.1 2.17 9.76 9.76 0 0 1 1.21 4.41 10.54 10.54 0 0 1-.61 4.52 5.7 5.7 0 0 1-1.24 2.05 4.41 4.41 0 0 1-2.09 1.26 3.22 3.22 0 0 1-.87.09zm-1-9.66v.6a19.78 19.78 0 0 0 .3 4.06 4.22 4.22 0 0 0 .37 1.08 1 1 0 0 0 .24.34h.07a.37.37 0 0 0 .22-.09 2.05 2.05 0 0 0 .7-1 7.7 7.7 0 0 0 .38-3.08 6.66 6.66 0 0 0-.75-2.88c-.35-.61-.58-.72-.63-.74a1 1 0 0 0-.4.39 2.68 2.68 0 0 0-.4 1 1.07 1.07 0 0 1-.1.32z" fill="currentColor"/><path d="M26.91 2.05a.73.73 0 0 1 .44.15.84.84 0 0 1 .34.52 2.87 2.87 0 0 1-.2 1.93 3.39 3.39 0 0 1-1.39 1.3l-.7.36a6.34 6.34 0 0 0-1.16.62 2.79 2.79 0 0 0-.46.46 7.07 7.07 0 0 0-.89 2.62c.16-.08.35-.18.57-.27a2.57 2.57 0 0 1 .85-.14 2.64 2.64 0 0 1 1.18.29 4.33 4.33 0 0 1 1.69 1.77 8.87 8.87 0 0 1 1.09 4 9.52 9.52 0 0 1-.55 4.09 4.53 4.53 0 0 1-1 1.73 3.44 3.44 0 0 1-1.62 1 2.57 2.57 0 0 1-.62.08 3.12 3.12 0 0 1-1.36-.35 3.81 3.81 0 0 1-1.77-2.71 19 19 0 0 1-.45-5.07 28 28 0 0 1 .53-4.85 7.73 7.73 0 0 1 1.15-3.14 4.55 4.55 0 0 1 1.46-1.18l1.35-.65a1.82 1.82 0 0 0 .73-.63 1.41 1.41 0 0 0 0-1 .8.8 0 0 1 .14-.58.9.9 0 0 1 .5-.35h.13m-2.51 18.93h.1a1.76 1.76 0 0 0 .69-.27 3.16 3.16 0 0 0 1.08-1.52 8.55 8.55 0 0 0 .43-3.48 7.43 7.43 0 0 0-.87-3.3c-.48-.83-1-1.25-1.5-1.25a.91.91 0 0 0-.35.07 1.9 1.9 0 0 0-.87.74 3.65 3.65 0 0 0-.57 1.42.43.43 0 0 1-.08.21v.87a20.3 20.3 0 0 0 .32 4.26 5.37 5.37 0 0 0 .47 1.36 1.8 1.8 0 0 0 .61.72 1.14 1.14 0 0 0 .57.17M26.91.05a3.89 3.89 0 0 0-.47 0h-.12a2.85 2.85 0 0 0-1.69 1.14 2.73 2.73 0 0 0-.52 1.69l-1 .47a6.52 6.52 0 0 0-2.1 1.73 9.4 9.4 0 0 0-1.53 4 30.9 30.9 0 0 0-.56 5.19 21.41 21.41 0 0 0 .51 5.61 5.74 5.74 0 0 0 2.81 4 5.19 5.19 0 0 0 2.26.56 4.35 4.35 0 0 0 1.14-.15 5.47 5.47 0 0 0 2.56-1.54 7 7 0 0 0 1.46-2.42 11.56 11.56 0 0 0 .66-4.9 10.82 10.82 0 0 0-1.36-4.88 6.11 6.11 0 0 0-2.49-2.52h-.08l.76-.39a5.33 5.33 0 0 0 2.15-2.08 4.83 4.83 0 0 0 .42-3.24v-.11A2.88 2.88 0 0 0 28.6.53 2.75 2.75 0 0 0 26.99 0zM24.6 17.73a20.56 20.56 0 0 1-.17-3.23v-.29a6.82 6.82 0 0 1 .28 1.63 7.64 7.64 0 0 1-.11 1.89z" fill="#fff"/><path d="M31.35 23.48a2 2 0 0 1-.79-.17 1.86 1.86 0 0 1-1.05-2.06 1.68 1.68 0 0 1 .05-.41v-1.83a16.17 16.17 0 0 0 0-1.63q0-2.55-.49-8.69a1.78 1.78 0 0 1 1.68-1.9h.12a1.76 1.76 0 0 1 1.15.42 1.73 1.73 0 0 1 .62 1.27c0 .68.08 1.32.12 1.93l.09-.34c.07-.27.12-.52.15-.71a2.58 2.58 0 0 1 .1-.4 1.56 1.56 0 0 1 .17-.5 1.49 1.49 0 0 1 .41-.53 1.66 1.66 0 0 1 1.11-.43 1.53 1.53 0 0 1 .47.07 2 2 0 0 1 1.23 1 2.75 2.75 0 0 1 .27.73 14.94 14.94 0 0 1 .24 1.85v.98c.09 1.14.13 2.7.13 4.56V21.39a1.73 1.73 0 0 1-.53 1.27 1.76 1.76 0 0 1-1.25.51 1.74 1.74 0 0 1-1.26-.52 1.77 1.77 0 0 1-.51-1.26v-.57a3.62 3.62 0 0 1-.13.42l-.24.68a2.3 2.3 0 0 1-.19.47 1.28 1.28 0 0 1-.24.34 1.88 1.88 0 0 1-1 .67 1.59 1.59 0 0 1-.43.08z" fill="currentColor"/><path d="M30.93 7.79a.78.78 0 0 1 .77.73c.28 4.37.44 7.16.49 8.34q1.15-4.08 1.4-5.15l.06-.28.09-.51c0-.08 0-.19.06-.32s.06-.22.07-.25a7.91 7.91 0 0 0 .18-.86 1.32 1.32 0 0 1 .09-.3.55.55 0 0 1 .09-.29.43.43 0 0 1 .15-.2.69.69 0 0 1 .47-.2.69.69 0 0 1 .2 0 1 1 0 0 1 .63.53 1.89 1.89 0 0 1 .17.49 16.39 16.39 0 0 1 .22 1.67 4.83 4.83 0 0 0 0 .62v.29c.09 1.19.13 2.71.13 4.56V21.36a.77.77 0 0 1-.23.56.8.8 0 0 1-1.1 0 .8.8 0 0 1-.22-.56V13.8l-1 3.51c-.41 1.44-.73 2.5-.95 3.16 0 .14-.08.27-.12.4l-.14.39a2.25 2.25 0 0 1-.09.26 1.81 1.81 0 0 1-.15.38.43.43 0 0 1-.12.16.91.91 0 0 1-.48.36h-.24a.92.92 0 0 1-.39-.09.85.85 0 0 1-.45-1.05.62.62 0 0 1 .05-.33v-.11-1.85-1.75q0-2.5-.49-8.68a.75.75 0 0 1 .72-.83h.08m0-2h-.12a2.76 2.76 0 0 0-2.59 3c.29 4.05.45 6.93.48 8.55v.13a13.71 13.71 0 0 1 0 1.51v1.78a3.92 3.92 0 0 0-.05.42 2.83 2.83 0 0 0 1.57 3 2.86 2.86 0 0 0 1.2.26 2.81 2.81 0 0 0 .82-.12 2.89 2.89 0 0 0 1.38-.91 2.78 2.78 0 0 0 4.65-2.06v-4.7c0-1.85 0-3.41-.13-4.63V11.05a18.27 18.27 0 0 0-.24-1.9v-.14a3.94 3.94 0 0 0-.39-1 3 3 0 0 0-1.81-1.45 3.14 3.14 0 0 0-.74-.1 2.66 2.66 0 0 0-1.6.54 2.47 2.47 0 0 0-.53-.59 2.75 2.75 0 0 0-1.79-.66z" fill="#fff"/><path d="M40.27 23.05a1.79 1.79 0 0 1-1.26-.51 1.7 1.7 0 0 1-.53-1.27c0-1.43-.07-3.82-.21-7.11l-.24-5.65a1.86 1.86 0 0 1 .48-1.28 1.71 1.71 0 0 1 1.28-.58 1.77 1.77 0 0 1 1.25.5 1.68 1.68 0 0 1 .56 1.27c0 .46.08 2 .21 4.64h.51c0-1.51.06-3.12.17-4.81a1.79 1.79 0 0 1 3.14-1.06 1.73 1.73 0 0 1 .42 1.31 92.17 92.17 0 0 0 .06 12.41 1.81 1.81 0 0 1-.42 1.29 1.74 1.74 0 0 1-1.27.61 1.81 1.81 0 0 1-1.27-.45 1.79 1.79 0 0 1-.6-1.21c-.08-1.54-.14-3.06-.17-4.52h-.41c.06 2 .09 3.51.09 4.64a1.78 1.78 0 0 1-1.78 1.78z" fill="currentColor"/><path d="M44.29 7.56a.72.72 0 0 1 .55.27.8.8 0 0 1 .19.58 92.37 92.37 0 0 0 0 12.55.77.77 0 0 1-.19.58.7.7 0 0 1-.54.26.73.73 0 0 1-.53-.2.78.78 0 0 1-.27-.54c-.1-1.87-.16-3.69-.18-5.47l-2.43.06q.12 3.65.12 5.61a.77.77 0 0 1-.23.56.74.74 0 0 1-.55.22.76.76 0 0 1-.56-.22.77.77 0 0 1-.23-.56c0-1.45-.07-3.83-.21-7.16l-.24-5.64a.8.8 0 0 1 .22-.57.69.69 0 0 1 .54-.25.81.81 0 0 1 .57.23.71.71 0 0 1 .24.54c0 .55.1 2.43.25 5.64h2.43c0-1.76 0-3.67.16-5.72a.74.74 0 0 1 .26-.54.8.8 0 0 1 .54-.2m0-2a2.81 2.81 0 0 0-1.86.7 2.61 2.61 0 0 0-.42.46 2.7 2.7 0 0 0-.28-.31 2.82 2.82 0 0 0-1.94-.77 2.7 2.7 0 0 0-2 .91 2.8 2.8 0 0 0-.73 1.91v.08l.24 5.65c.14 3.28.21 5.66.21 7.07a2.79 2.79 0 0 0 4.76 2 1.54 1.54 0 0 0 .17-.19.23.23 0 0 1 .07.07 2.8 2.8 0 0 0 1.86.69h.12a2.71 2.71 0 0 0 2-1 2.78 2.78 0 0 0 .65-2A91 91 0 0 1 47 8.63a2.79 2.79 0 0 0-.65-2 2.76 2.76 0 0 0-2-1h-.11z" fill="#fff"/><path d="M50.76 23.15a3 3 0 0 1-1.19-.24 4 4 0 0 1-1-.51 3.37 3.37 0 0 1-.8-.84 7.72 7.72 0 0 1-.46-.83 5.33 5.33 0 0 1-.33-1.06c-.07-.36-.14-.69-.18-1s-.1-.64-.15-1.09a20.56 20.56 0 0 1 .07-6.88 5.11 5.11 0 0 1 1.52-3 3 3 0 0 1 1.8-.67 3 3 0 0 1 1.84.69 5.72 5.72 0 0 1 1.63 2.31 8.11 8.11 0 0 1 .64 2.87 3.6 3.6 0 0 1-1.1 3 2.64 2.64 0 0 1-1.61.53H50.09a12 12 0 0 0 .47 2.74 1.92 1.92 0 0 0 .14.31 1.84 1.84 0 0 1 1.15-.56H52a1.77 1.77 0 0 1 1.17.45 1.8 1.8 0 0 1 .61 1.21 1.73 1.73 0 0 1-.45 1.31 3.49 3.49 0 0 1-1.78 1.14 3.46 3.46 0 0 1-.79.12zm-.13-10.28a4.46 4.46 0 0 0-.34-1.41v-.07a11.89 11.89 0 0 0-.19 1.48 5.22 5.22 0 0 0 .52 0z" fill="currentColor"/><path d="M50.08 8.05h.05a1.9 1.9 0 0 1 1.17.46 4.71 4.71 0 0 1 1.32 1.92 6.94 6.94 0 0 1 .57 2.51 2.61 2.61 0 0 1-.75 2.18 1.83 1.83 0 0 1-1 .29H49.09a15.5 15.5 0 0 0 .6 4.08 1.42 1.42 0 0 0 .8 1 .77.77 0 0 0 .32.07.86.86 0 0 0 .66-.36.8.8 0 0 1 .54-.28h.06a.69.69 0 0 1 .5.2.8.8 0 0 1 .28.54.73.73 0 0 1-.2.57 2.44 2.44 0 0 1-1.87.91 2 2 0 0 1-.8-.16 3.34 3.34 0 0 1-.75-.4 2.22 2.22 0 0 1-.55-.59 4.26 4.26 0 0 1-.38-.68 4.17 4.17 0 0 1-.27-.86c-.07-.35-.13-.65-.18-.93s-.09-.62-.14-1a19.94 19.94 0 0 1 .05-6.54 4.19 4.19 0 0 1 1.19-2.45 1.89 1.89 0 0 1 1.16-.45m.2 5.84h1a.51.51 0 0 0 .21 0 1.36 1.36 0 0 0 .13-.83 5.42 5.42 0 0 0-.41-1.89 3.5 3.5 0 0 0-.88-1.39.49.49 0 0 0-.24-.11.16.16 0 0 0-.11.07 2.64 2.64 0 0 0-.67 1.48 13.44 13.44 0 0 0-.24 2.71h1.24m-.2-7.84a3.84 3.84 0 0 0-2.37.86 6.05 6.05 0 0 0-1.88 3.59 21.86 21.86 0 0 0-.08 7.19c.06.46.11.84.16 1.13s.11.65.2 1a6 6 0 0 0 .39 1.25 8.64 8.64 0 0 0 .54 1 4 4 0 0 0 1 1.09 5 5 0 0 0 1.19.65 4.06 4.06 0 0 0 1.54.3 4.4 4.4 0 0 0 3.39-1.61 2.68 2.68 0 0 0 .67-2 2.81 2.81 0 0 0-.93-1.86 2.71 2.71 0 0 0-1.84-.71h-.23a2.57 2.57 0 0 0-.47.08c0-.18-.07-.38-.1-.6h.35a3.59 3.59 0 0 0 2.16-.77 4.52 4.52 0 0 0 1.44-3.75 9 9 0 0 0-.72-3.22 6.64 6.64 0 0 0-1.92-2.71 3.88 3.88 0 0 0-2.36-.9z" fill="#fff"/><path d="M57.76 23.64a1.77 1.77 0 0 1-1.15-.43 1.71 1.71 0 0 1-.62-1.26 103.75 103.75 0 0 1 .12-11.23 2 2 0 0 1-1.26-.41 1.58 1.58 0 0 1-.62-1.26 2 2 0 0 1 .46-1.27A1.69 1.69 0 0 1 56 7.16l1.87-.08h.15l2.4-.14a1.77 1.77 0 0 1 1.18.46 1.82 1.82 0 0 1 .59 1.29 1.84 1.84 0 0 1-.39 1.28 1.73 1.73 0 0 1-1.29.68h-.75a104.87 104.87 0 0 0-.13 11.1 1.72 1.72 0 0 1-.43 1.29 1.7 1.7 0 0 1-1.25.6z" fill="currentColor"/><path d="M60.42 7.94a.73.73 0 0 1 .51.21.81.81 0 0 1 .26.58.87.87 0 0 1-.18.63.7.7 0 0 1-.54.29h-1.71a112.72 112.72 0 0 0-.19 12.18.76.76 0 0 1-.18.58.73.73 0 0 1-.54.25h-.09a.78.78 0 0 1-.5-.19.71.71 0 0 1-.27-.54 111.46 111.46 0 0 1 .17-12.21h-1.13a.88.88 0 0 1-.57-.2.61.61 0 0 1-.25-.48.91.91 0 0 1 .23-.62.68.68 0 0 1 .54-.27l1.91-.08H58l2.33-.13h.07m0-2h-.23l-2.23.13h-.13l-1.89.08a2.63 2.63 0 0 0-2 1 2.9 2.9 0 0 0-.7 1.91 2.57 2.57 0 0 0 1 2 3 3 0 0 0 .85.48 100 100 0 0 0-.06 10.47 2.67 2.67 0 0 0 1 1.94 2.75 2.75 0 0 0 1.79.66h.2a2.77 2.77 0 0 0 2.6-3 95.39 95.39 0 0 1 .09-10 2.69 2.69 0 0 0 1.91-1 2.88 2.88 0 0 0 .61-2 2.81 2.81 0 0 0-.91-1.95 2.73 2.73 0 0 0-1.86-.73z" fill="#fff"/></svg><svg viewBox="0 0 63.58 30.22" id="ic_cart_name" xmlns="http://www.w3.org/2000/svg"><path d="M8.28 23.57a1.79 1.79 0 0 1-1-.32 1.73 1.73 0 0 1-.75-1.14c-.09-.6-.16-1.36-.24-2.4l-.21-2.2c0-.31-.1-.78-.22-1.44a4.07 4.07 0 0 0-.4-1.27 1.25 1.25 0 0 0-.43-.45 1.5 1.5 0 0 0-.43-.11l.08 7a1.79 1.79 0 0 1-1.8 1.8 1.73 1.73 0 0 1-1.27-.53 1.79 1.79 0 0 1-.5-1.26l-.06-6.26V7.8c0-.14 0-.57.13-2.51 0-.84.05-1.6 0-2.22A1.74 1.74 0 0 1 2.86 1.2h.11a1.77 1.77 0 0 1 1.15.42 1.74 1.74 0 0 1 .63 1.27v2.6c-.09 1.21-.14 2.57-.16 4.08a2 2 0 0 0 .15-.45 13.77 13.77 0 0 0 .14-1.68c0-1.07.05-1.79.09-2.2a7.94 7.94 0 0 1 .44-1.75l.27-.71.16-.45.09-.21a1.49 1.49 0 0 1 .23-.39 1.78 1.78 0 0 1 .14-.14 1.41 1.41 0 0 1 .36-.28l.23-.12a2 2 0 0 1 .69-.13 1.89 1.89 0 0 1 .7.13 1.78 1.78 0 0 1 1 1 1.68 1.68 0 0 1 0 1.37l-.27.63c-.22.54-.31.81-.35.94s-.06.33-.1.53 0 .88-.06 1.88a11.82 11.82 0 0 1-.32 2.73 4.73 4.73 0 0 1-.69 1.49c1.1.92 1.82 2.55 2.16 4.94.12.89.22 1.83.3 2.81.09 1.16.17 1.74.22 2a1.82 1.82 0 0 1-.31 1.35 1.8 1.8 0 0 1-1.15.73z" fill="currentColor"/><path d="M7.51 2a.91.91 0 0 1 .32.06.74.74 0 0 1 .42.43.68.68 0 0 1 0 .59l-.28.65c-.2.48-.33.85-.4 1.08s-.08.39-.11.62-.06 1-.08 2a10.86 10.86 0 0 1-.29 2.5 3.59 3.59 0 0 1-.95 1.66 2.55 2.55 0 0 1-.39.3 2.9 2.9 0 0 1 .47.21c1.19.66 2 2.21 2.32 4.66.12.89.22 1.81.3 2.75s.15 1.68.22 2.11a.79.79 0 0 1-.13.6.87.87 0 0 1-.53.33h-.15a.86.86 0 0 1-.46-.14.84.84 0 0 1-.34-.52c-.07-.52-.14-1.28-.21-2.27v-.41c-.09-.9-.14-1.51-.17-1.82s-.11-.83-.24-1.53a4.83 4.83 0 0 0-.52-1.59 2.2 2.2 0 0 0-.81-.82 4.51 4.51 0 0 0-1.93-.3l.1 8a.77.77 0 0 1-.23.56.81.81 0 0 1-.57.23.77.77 0 0 1-.77-.79s0-2.12-.06-6.27V7.72c0-.21 0-1 .13-2.47 0-.89.05-1.66 0-2.32a.81.81 0 0 1 .19-.58.69.69 0 0 1 .54-.25h.07a.8.8 0 0 1 .51.19.71.71 0 0 1 .27.54v2.51c-.11 1.61-.17 3.5-.17 5.65a2.48 2.48 0 0 0 1.47-.5 2.31 2.31 0 0 0 .67-1.25 13.51 13.51 0 0 0 .16-1.87c0-1 .05-1.76.09-2.14a6.83 6.83 0 0 1 .37-1.47l.27-.72.09-.24c0-.11.07-.18.08-.22l.07-.16a.34.34 0 0 1 .08-.14l.09-.1a.47.47 0 0 1 .12-.09l.15-.08a.77.77 0 0 1 .29 0m0-2a2.79 2.79 0 0 0-1 .19 2.82 2.82 0 0 0-.34.16 2.68 2.68 0 0 0-.54.4l-.18.2a1.84 1.84 0 0 0-.17.22 3 3 0 0 0-.43-.45 2.76 2.76 0 0 0-1.8-.66h-.19a2.77 2.77 0 0 0-2.6 2.94v2.11C.21 7.05.2 7.5.2 7.69v7.18l.05 5.09v1.17a2.8 2.8 0 0 0 .79 2 2.77 2.77 0 0 0 2 .83 2.81 2.81 0 0 0 2-.81 2.87 2.87 0 0 0 .66-1v.17a2.81 2.81 0 0 0 2.76 2.26 3.55 3.55 0 0 0 .46 0H9a2.82 2.82 0 0 0 1.77-1.13 2.85 2.85 0 0 0 .48-2.07c-.05-.29-.12-.83-.21-2s-.18-2-.3-2.86a9.63 9.63 0 0 0-1.91-5 6.34 6.34 0 0 0 .41-1.08 12.89 12.89 0 0 0 .35-3c0-1.09.05-1.59.06-1.82s.05-.26.08-.38a8.32 8.32 0 0 1 .3-.78l.27-.63a2.66 2.66 0 0 0 0-2.14A2.78 2.78 0 0 0 8.79.17a2.88 2.88 0 0 0-1.08-.21z" fill="#fff"/><path d="M15.05 23.76a3.73 3.73 0 0 1-1.79-.44c-.88-.46-1.46-1.56-1.76-3.36a29.5 29.5 0 0 1-.39-4.16 34.71 34.71 0 0 1 .11-4.32 7.46 7.46 0 0 1 .83-3.29 2.79 2.79 0 0 1 1.8-1.3 3.92 3.92 0 0 1 .71 0H15a1.75 1.75 0 0 1 1.26.51 1.51 1.51 0 0 1 .26.15 3 3 0 0 1 .6.44 3.75 3.75 0 0 1 .77 1.33 10.78 10.78 0 0 1 .55 2.79c.12 1.23.19 2.55.21 4a23.56 23.56 0 0 1-.22 3.93 4.68 4.68 0 0 1-1.38 3.22 3.19 3.19 0 0 1-1.92.59zm-.26-11.92a31.54 31.54 0 0 0-.1 3.88 25.16 25.16 0 0 0 .29 3.33 30 30 0 0 0-.07-6.46c0-.33-.07-.61-.11-.84a.28.28 0 0 1-.01.09z" fill="currentColor"/><path d="M15 7.85a.78.78 0 0 1 .65.32 2.16 2.16 0 0 1 .36.19 2.39 2.39 0 0 1 .4.3 2.64 2.64 0 0 1 .54 1 9.57 9.57 0 0 1 .49 2.54c.13 1.21.19 2.5.21 3.87a21.57 21.57 0 0 1-.21 3.76 3.88 3.88 0 0 1-1 2.6 2.18 2.18 0 0 1-1.29.36h-.05a2.61 2.61 0 0 1-1.31-.31c-.61-.31-1-1.2-1.27-2.65a28.07 28.07 0 0 1-.38-4 37.12 37.12 0 0 1 .1-4.2 6.91 6.91 0 0 1 .68-2.84 1.79 1.79 0 0 1 1.15-.85 2.79 2.79 0 0 1 .52 0h.44m.06 13.35a1.67 1.67 0 0 0 .39 0 .88.88 0 0 0 .18-.39 6.33 6.33 0 0 0 .28-1.19 29.44 29.44 0 0 0 0-7.09 11.91 11.91 0 0 0-.41-2.25l-.16-.43-.1-.06-.47-.29a.06.06 0 0 1-.05 0h-.35a.15.15 0 0 0-.07.06l-.09.12a5.93 5.93 0 0 0-.41 2.11 31.48 31.48 0 0 0-.11 4 25 25 0 0 0 .36 3.77 4.55 4.55 0 0 0 .32 1.26 1.23 1.23 0 0 0 .18.34 1.43 1.43 0 0 0 .51.08m-.06-15.35h-.44a5.17 5.17 0 0 0-.91.06 3.78 3.78 0 0 0-2.42 1.7 8.35 8.35 0 0 0-1 3.78 36.78 36.78 0 0 0-.11 4.44 30.52 30.52 0 0 0 .41 4.33c.34 2.07 1.09 3.41 2.27 4a4.8 4.8 0 0 0 2.25.55h.08a4.14 4.14 0 0 0 2.44-.72h.06l.06-.05a5.6 5.6 0 0 0 1.74-3.88 24.29 24.29 0 0 0 .23-4.07c0-1.42-.09-2.78-.22-4a11.35 11.35 0 0 0-.62-3.08 4.59 4.59 0 0 0-1-1.65 4.51 4.51 0 0 0-.78-.58l-.2-.12A2.79 2.79 0 0 0 15.02 6z" fill="#fff"/><path d="M22.01 29.21a1.78 1.78 0 0 1-1.66-1.92 57.83 57.83 0 0 0-.16-9v-.67c0-.34-.05-.75-.09-1.09l-.17-2a57.3 57.3 0 0 1-.21-3.84V8.87a1.78 1.78 0 0 1 1.78-1.78 1.82 1.82 0 0 1 .89.23 2.5 2.5 0 0 1 .82-.4 3 3 0 0 1 1-.18 2.88 2.88 0 0 1 .59.06 10.16 10.16 0 0 1 1 .34h.09l.25.14a1.64 1.64 0 0 1 .88.91 1.78 1.78 0 0 1 .14.81 11.2 11.2 0 0 1 .78 4.21 50.49 50.49 0 0 1-.33 6.36 4.7 4.7 0 0 1-.83 2.42 3.15 3.15 0 0 1-1.88 1.32 2.66 2.66 0 0 1-.45 0 2.19 2.19 0 0 1-.36 0c0 1.65 0 3.08-.1 4.26a1.71 1.71 0 0 1-.6 1.22 1.77 1.77 0 0 1-1.16.43zm2.12-17.65a17.83 17.83 0 0 0-.16 3 24.59 24.59 0 0 0 .19 2.53c.07-.85.11-1.59.13-2.23a18.4 18.4 0 0 0-.12-3c-.01-.14-.03-.22-.04-.3z" fill="currentColor"/><path d="M24.16 7.68a1.47 1.47 0 0 1 .36 0 7.62 7.62 0 0 1 .84.29l.25.13a.78.78 0 0 1 .42.42.68.68 0 0 1 0 .56 9.52 9.52 0 0 1 .83 4.09 48.29 48.29 0 0 1-.32 6.23 3.68 3.68 0 0 1-.66 1.94 2.12 2.12 0 0 1-1.26.93h-.25a2 2 0 0 1-1.27-.52.34.34 0 0 1-.14-.15 51.63 51.63 0 0 1 0 5.82.74.74 0 0 1-.26.55.75.75 0 0 1-.5.18h-.07a.78.78 0 0 1-.55-.26.8.8 0 0 1-.19-.59 59.62 59.62 0 0 0-.16-9.18v-.67c0-.4-.06-.77-.09-1.12l-.17-2q-.18-1.95-.21-3.78v-1.8a.74.74 0 0 1 .22-.55.8.8 0 0 1 1.12 0 .75.75 0 0 1 .23.55v.15-.08a2 2 0 0 1 1.16-1.06 2.3 2.3 0 0 1 .75-.14m.2 13.07l.16-.15a2.36 2.36 0 0 0 .46-1.32c.17-1.78.27-3.25.31-4.4a19.35 19.35 0 0 0-.13-3.2 4.49 4.49 0 0 0-.72-2.15 1 1 0 0 1-.11-.23.74.74 0 0 0-.24 0 .4.4 0 0 0-.15 0 .65.65 0 0 0-.32.35 6.35 6.35 0 0 0-.37 1.19 16.5 16.5 0 0 0-.28 3.74 21.88 21.88 0 0 0 .44 4 4.47 4.47 0 0 0 .73 2 .38.38 0 0 0 .22.15m-.2-15.07a4.18 4.18 0 0 0-1.38.24 4.06 4.06 0 0 0-.55.23 2.72 2.72 0 0 0-.8-.12 2.77 2.77 0 0 0-2.78 2.78v1.89c0 1.21.1 2.52.22 3.86l.17 2c0 .36.06.71.09 1.09s0 .47 0 .56v.19a58.21 58.21 0 0 1 .16 8.87 2.72 2.72 0 0 0 .68 2.06 2.69 2.69 0 0 0 1.93 1h.19a2.72 2.72 0 0 0 1.81-.67 2.76 2.76 0 0 0 1-1.93c.07-1 .11-2.08.11-3.34a4.13 4.13 0 0 0 2.48-1.71 5.78 5.78 0 0 0 1-2.93 52.05 52.05 0 0 0 .33-6.47 12.49 12.49 0 0 0-.78-4.38 2.88 2.88 0 0 0-.21-1 2.81 2.81 0 0 0-1.4-1.5l-.21-.1H26.13a9.65 9.65 0 0 0-1-.35h-.11a3.66 3.66 0 0 0-.81-.09z" fill="#fff"/><path d="M31.41 23.49a4.43 4.43 0 0 1-.8-.08 3.25 3.25 0 0 1-1.65-.91 3.18 3.18 0 0 1-.88-1.75 7.68 7.68 0 0 1-.08-.9v-.89-.45a1.81 1.81 0 0 1 .51-1.19 1.71 1.71 0 0 1 1.28-.56 1.79 1.79 0 0 1 1.78 1.8v1a.71.71 0 0 0 0 .14 3.6 3.6 0 0 0 .2-.53 4.33 4.33 0 0 0 .21-1.28 2.59 2.59 0 0 0-.07-.57h-.19a1.86 1.86 0 0 1-1.18-.76 1.68 1.68 0 0 1-.22-1.7h-.31a1.64 1.64 0 0 1-1.22-.6 1.72 1.72 0 0 1-.42-1.32V12.64v-.98a6.85 6.85 0 0 1 1.1-4.21 3 3 0 0 1 1.9-1.07 3.9 3.9 0 0 1 .58 0 3.73 3.73 0 0 1 1.56.35 3.46 3.46 0 0 1 1.6 1.44 8 8 0 0 1 .65 3.74 8.68 8.68 0 0 1-.68 3.7 6.15 6.15 0 0 1 .43 2.35 8.39 8.39 0 0 1-.39 2.49 4.56 4.56 0 0 1-1.3 2.15 3.62 3.62 0 0 1-2.41.89zm.7-13.33a9 9 0 0 0-.13 1.55v1.23l-.07.17a2.41 2.41 0 0 1-.07.48h.2v-.28a12.28 12.28 0 0 0 .06-3z" fill="currentColor"/><path d="M31.98 7.32a2.79 2.79 0 0 1 1.15.26 2.47 2.47 0 0 1 1.14 1 7.35 7.35 0 0 1 .52 3.25 7.79 7.79 0 0 1-.57 3.24l-.28.37a4.61 4.61 0 0 1 .6 2.45 7.33 7.33 0 0 1-.34 2.18 3.68 3.68 0 0 1-1 1.7 2.63 2.63 0 0 1-1.78.72 3 3 0 0 1-.59-.06 2.29 2.29 0 0 1-1.15-.63 2.25 2.25 0 0 1-.61-1.22c0-.35-.07-.6-.07-.73v-.8-.54a.84.84 0 0 1 .21-.57.71.71 0 0 1 .54-.23.77.77 0 0 1 .56.23.8.8 0 0 1 .22.57v1a2.12 2.12 0 0 0 0 .81.67.67 0 0 0 .57.59h.19a1.22 1.22 0 0 0 .8-.34 2.72 2.72 0 0 0 .57-1.13 5.27 5.27 0 0 0 .25-1.56 4.84 4.84 0 0 0-.17-1.14 3.63 3.63 0 0 0-.22-.54.18.18 0 0 1-.1 0 1 1 0 0 1-.41.09h-.19a.84.84 0 0 1-.55-.36.72.72 0 0 1-.07-.78.94.94 0 0 1 .67-.58h.71a1.14 1.14 0 0 0 .21-.28 2.63 2.63 0 0 0 .23-.87 13.22 13.22 0 0 0 .05-3.2 2.25 2.25 0 0 0-.31-1 1.36 1.36 0 0 0-.86-.36h-.11a.43.43 0 0 0-.36.14 5.08 5.08 0 0 0-.51 2.7v1a.9.9 0 0 0-.06.36.71.71 0 0 1-.26.55.75.75 0 0 1-.51.19h-.07a.74.74 0 0 1-.54-.26.77.77 0 0 1-.19-.58 1.67 1.67 0 0 0 0-.39v-.98A6.07 6.07 0 0 1 30.17 8a2.35 2.35 0 0 1 1.7-.74m0-2a4.49 4.49 0 0 0-.73.06 4 4 0 0 0-2.51 1.41 7.83 7.83 0 0 0-1.34 4.83v1.24a2.77 2.77 0 0 0 .66 2 2.67 2.67 0 0 0 1.16.8.34.34 0 0 0 0 .1 2.58 2.58 0 0 0-1.39.82 2.72 2.72 0 0 0-.74 1.91V19.79a6.9 6.9 0 0 0 .09 1v.1a4.22 4.22 0 0 0 3.31 3.45 5 5 0 0 0 1 .11 4.61 4.61 0 0 0 3.11-1.23 5.56 5.56 0 0 0 1.59-2.6 9.29 9.29 0 0 0 .43-2.77 7.38 7.38 0 0 0-.35-2.32 10.46 10.46 0 0 0 .6-3.69 8.92 8.92 0 0 0-.77-4.26 4.48 4.48 0 0 0-2.06-1.88 4.75 4.75 0 0 0-2-.44z" fill="#fff"/><path d="M37.86 23.51a1.88 1.88 0 0 1-.79-.17 1.85 1.85 0 0 1-1.05-2.06 2 2 0 0 1 .05-.41v-1.83-1.64q0-2.58-.49-8.7a1.74 1.74 0 0 1 1.68-1.9h.12a1.76 1.76 0 0 1 1.15.42 1.71 1.71 0 0 1 .62 1.27c0 .69.08 1.33.12 1.94 0 0 .09-.32.1-.36a6.62 6.62 0 0 0 .14-.7 3.33 3.33 0 0 1 .1-.4 1.85 1.85 0 0 1 .17-.5 1.36 1.36 0 0 1 .42-.53 1.64 1.64 0 0 1 1.11-.43 1.58 1.58 0 0 1 .47.07 2 2 0 0 1 1.22 1 2.85 2.85 0 0 1 .28.73 16.39 16.39 0 0 1 .24 1.86v.97c.08 1.15.13 2.71.13 4.57v4.71a1.76 1.76 0 0 1-.52 1.27 1.77 1.77 0 0 1-3-1.27v-.64.07a3.62 3.62 0 0 1-.13.42l-.24.68a2.3 2.3 0 0 1-.19.47 1.28 1.28 0 0 1-.24.34 1.88 1.88 0 0 1-1 .67 1.59 1.59 0 0 1-.47.08z" fill="currentColor"/><path d="M37.43 7.8a.76.76 0 0 1 .78.73c.28 4.38.44 7.17.49 8.35q1.15-4.08 1.4-5.16l.06-.27.09-.52a2.12 2.12 0 0 1 .07-.32 1.44 1.44 0 0 1 .07-.25c.08-.35.14-.64.17-.86a1.32 1.32 0 0 1 .09-.3.48.48 0 0 1 .1-.29.33.33 0 0 1 .15-.2.67.67 0 0 1 .47-.2h.2a1 1 0 0 1 .62.53 2 2 0 0 1 .18.49 13.84 13.84 0 0 1 .21 1.67 4.37 4.37 0 0 0 0 .62v.29c.09 1.2.13 2.72.13 4.57v4.71a.75.75 0 0 1-.78.78.73.73 0 0 1-.54-.22.76.76 0 0 1-.22-.56v-7.58l-1 3.52c-.41 1.45-.72 2.5-.95 3.16a2.77 2.77 0 0 1-.12.41l-.14.39a2.25 2.25 0 0 1-.09.26 1.81 1.81 0 0 1-.15.38.43.43 0 0 1-.12.16.86.86 0 0 1-.48.36 1 1 0 0 1-.24 0 .92.92 0 0 1-.39-.09.85.85 0 0 1-.45-1 .62.62 0 0 1 .05-.33v-.11-1.86-1.75q0-2.49-.48-8.69a.73.73 0 0 1 .18-.57.7.7 0 0 1 .54-.26h.07m0-2h-.19a2.77 2.77 0 0 0-1.93.94 2.82 2.82 0 0 0-.67 2c.3 4.05.46 6.94.49 8.57V20.73a3.92 3.92 0 0 0-.05.42 2.83 2.83 0 0 0 1.57 3 3 3 0 0 0 1.19.25 2.81 2.81 0 0 0 .82-.12 2.89 2.89 0 0 0 1.38-.91 2.78 2.78 0 0 0 1.87.72 2.77 2.77 0 0 0 2.78-2.78V16.6c0-1.85 0-3.41-.13-4.64v-.49a2.94 2.94 0 0 1 0-.35v-.13a18.27 18.27 0 0 0-.24-1.9v-.14a3.94 3.94 0 0 0-.39-1 3 3 0 0 0-1.82-1.45 3.06 3.06 0 0 0-.73-.1 2.69 2.69 0 0 0-1.61.54 2.72 2.72 0 0 0-.53-.6 2.8 2.8 0 0 0-1.8-.65z" fill="#fff"/><path d="M46.79 23.07a1.76 1.76 0 0 1-1.25-.51 1.74 1.74 0 0 1-.54-1.27c0-1.43-.07-3.83-.21-7.13l-.24-5.65a1.84 1.84 0 0 1 .48-1.28 1.71 1.71 0 0 1 1.28-.58 1.83 1.83 0 0 1 1.26.49 1.75 1.75 0 0 1 .55 1.28c0 .46.09 2 .21 4.65h.52c0-1.51.06-3.12.17-4.81a1.77 1.77 0 0 1 .6-1.23 1.82 1.82 0 0 1 1.2-.45 1.77 1.77 0 0 1 1.76 1.93 92.47 92.47 0 0 0 .06 12.43 1.78 1.78 0 0 1-.42 1.29 1.74 1.74 0 0 1-1.27.61 1.81 1.81 0 0 1-1.27-.45 1.79 1.79 0 0 1-.6-1.21c-.08-1.54-.14-3.06-.17-4.53h-.4c0 2 .08 3.5.08 4.64a1.78 1.78 0 0 1-1.78 1.78z" fill="currentColor"/><path d="M50.82 7.57a.72.72 0 0 1 .55.27.8.8 0 0 1 .19.58 92.66 92.66 0 0 0 .05 12.57.73.73 0 0 1-.19.58.7.7 0 0 1-.54.26.76.76 0 0 1-.54-.2.82.82 0 0 1-.26-.54c-.1-1.87-.17-3.7-.19-5.48l-2.42.06c.07 2.43.11 4.31.11 5.62a.75.75 0 0 1-.78.78.77.77 0 0 1-.79-.78q0-2.18-.21-7.17l-.24-5.65a.85.85 0 0 1 .22-.57.69.69 0 0 1 .54-.25.81.81 0 0 1 .57.23.71.71 0 0 1 .24.54c0 .55.11 2.44.26 5.65h2.48c0-1.77 0-3.68.16-5.73a.74.74 0 0 1 .26-.54.8.8 0 0 1 .54-.2m0-2a2.76 2.76 0 0 0-1.86.7 2.61 2.61 0 0 0-.42.46 2.9 2.9 0 0 0-2.23-1.08 2.66 2.66 0 0 0-2 .91 2.81 2.81 0 0 0-.74 1.91v.08l.24 5.66c.14 3.29.21 5.67.21 7.08a2.74 2.74 0 0 0 .84 2 2.8 2.8 0 0 0 3.92 0l.18-.19a.46.46 0 0 1 .07.07 2.8 2.8 0 0 0 1.86.69h.12a2.71 2.71 0 0 0 2-1 2.79 2.79 0 0 0 .66-2 91.1 91.1 0 0 1-.05-12.24 2.77 2.77 0 0 0-2.64-3h-.12z" fill="#fff"/><path d="M57.22 23.32a3.43 3.43 0 0 1-1.95-.69 5.7 5.7 0 0 1-1.94-3.84 17 17 0 0 1-.05-5.29 9 9 0 0 1 1.76-4.61 3.79 3.79 0 0 1 3-1.49 4.84 4.84 0 0 1 2.06.51 1.82 1.82 0 0 1 .89 1 2 2 0 0 1 .12.67 1.33 1.33 0 0 1 .13.57l-1 .13h1v.53l.08 1.58v.91c.07.71.11 1.58.13 2.63a26.69 26.69 0 0 0 .16 3.52c0 .13 0 .25.05.34l.21.14a1 1 0 0 1 .36.34l.09.14a1.42 1.42 0 0 1 .15.34c0 .14.06.23.08.33a1.8 1.8 0 0 1-1.44 2h-.32a1.85 1.85 0 0 1-.78-.17h-.05l-.33-.22-.07-.06h.05-.05l-.08-.06h.06l-.32-.23a2.92 2.92 0 0 1-1.29.79 3 3 0 0 1-.71.19zm.29-11.75a7.77 7.77 0 0 0-.7 2.4 12.69 12.69 0 0 0 0 4 7.09 7.09 0 0 0 .26 1.2 10.24 10.24 0 0 0 .44-1.85 31.2 31.2 0 0 0 .28-3.69l-.05-.32c-.12-.63-.23-1.22-.23-1.78z" fill="currentColor"/><path d="M58.02 8.32a3.79 3.79 0 0 1 1.63.42.72.72 0 0 1 .38.42.78.78 0 0 1 0 .58l.17.22a.37.37 0 0 1 0 .12.68.68 0 0 1 0 .12v.53l.08 1.6v.99c.07.7.11 1.57.13 2.6a28.41 28.41 0 0 0 .17 3.64 4.88 4.88 0 0 0 .16.87l.2.12.17.09.12.08.11.08.06.1.06.13a1.57 1.57 0 0 1 0 .16.81.81 0 0 1-.13.59.79.79 0 0 1-.52.33h-.12a.82.82 0 0 1-.47-.14.09.09 0 0 0-.06 0h-.07a.34.34 0 0 0-.14-.09 1.89 1.89 0 0 1-.84-1.14l-.16.33a2.44 2.44 0 0 1-1.4 1.26 1.61 1.61 0 0 1-.44.06 2.46 2.46 0 0 1-1.38-.51 4.82 4.82 0 0 1-1.52-3.19 15.67 15.67 0 0 1-.05-5 8.23 8.23 0 0 1 1.54-4.11 2.83 2.83 0 0 1 2.21-1.13m-.83 12.36h.07c.11 0 .25-.19.41-.46a8.25 8.25 0 0 0 .8-2.84 32.15 32.15 0 0 0 .29-3.88l-.06-.4c-.1-.66-.17-1.3-.21-1.93a2.46 2.46 0 0 0 0-.26 2.69 2.69 0 0 1 0-.91 1.32 1.32 0 0 0-1.49.47 7 7 0 0 0-1.17 3.29 13.31 13.31 0 0 0 0 4.32 3.83 3.83 0 0 0 .92 2.43.89.89 0 0 0 .43.19m.83-14.36a4.79 4.79 0 0 0-3.74 1.84 10 10 0 0 0-2 5.11 17.56 17.56 0 0 0 .06 5.61c.38 2.17 1.14 3.63 2.33 4.48a4.44 4.44 0 0 0 2.54.88 3.64 3.64 0 0 0 1-.14 3.92 3.92 0 0 0 1.06-.49l.4.26h.16a2.87 2.87 0 0 0 1 .17h.51a2.8 2.8 0 0 0 2.23-3.2 2.29 2.29 0 0 0-.07-.36v-.06a2.84 2.84 0 0 0-.25-.53l-.13-.21a2.37 2.37 0 0 0-.46-.48 26.78 26.78 0 0 1-.14-3.26c0-1.09-.06-2-.13-2.7v-1.07l-.08-1.6v-.28a1.56 1.56 0 0 0 0-.25v-.06a2.09 2.09 0 0 0-.15-.79 2.82 2.82 0 0 0-.18-.79 2.72 2.72 0 0 0-1.35-1.51 5.93 5.93 0 0 0-2.53-.63z" fill="#fff"/></svg><svg viewBox="0 0 22.67 16.03" id="ic_email" xmlns="http://www.w3.org/2000/svg"><path d="M19.58 15.98c-.74 0-1.5 0-2.23-.1s-1.28-.09-1.85-.1h-12c-.37 0-.86.07-1.28.07A4 4 0 0 1 1 15.7c-.94-.3-.94-.93-.94-1.66v-.25c0-2.23 0-4.62.09-7.53 0-1.11.07-2.23.12-3.34v-.43A3.26 3.26 0 0 1 .54.64C.83.24 1.4.05 2.33.05c.42 0 .85 0 1.23.07s.53.05.71.05h11.67a.68.68 0 0 1 .7.71.7.7 0 0 1-.7.72H3.87a5.59 5.59 0 0 0-1.26.08 33.09 33.09 0 0 1 3.83 3.07 10.13 10.13 0 0 0 1.18.89 9.44 9.44 0 0 1 1 .75 7.44 7.44 0 0 1 .85.9 5.27 5.27 0 0 0 1.18 1.15.57.57 0 0 0 .29.07c.68 0 1.7-1 2-1.34a.68.68 0 0 1 .61-.61l.27-.3.1-.1a10.21 10.21 0 0 1 1.76-1.62c.89-.54 1.75-1.17 2.58-1.78.56-.41 1.13-.83 1.71-1.22a.56.56 0 0 1-.3 0h-1.62a.72.72 0 0 1 0-1.43h2.18a6.46 6.46 0 0 1 1.64.15.74.74 0 0 1 .5.5 17.79 17.79 0 0 1 .16 5c0 .76-.09 1.48-.09 2.16s0 1.42.09 2.18a19.08 19.08 0 0 1-.15 5 .7.7 0 0 1-.5.51 7.8 7.8 0 0 1-2.3.37zm-1.54-1.61h1.49a1.67 1.67 0 0 0 1.13-.29c-1.33-2.11-3.59-3.64-5.77-5.12l-1.11-.75c-.75 1-1.81 2.23-2.75 2.23a1.68 1.68 0 0 1-1.24-.84l-.21-.27a14.25 14.25 0 0 0-1.09-1.12 12.31 12.31 0 0 1-2.06 2c-.34.28-.68.56-1 .85a34.88 34.88 0 0 0-3.19 3.23H4.06zM1.7 2.97a13.08 13.08 0 0 0-.12 2.27v1c0 1.24-.06 2.5-.08 3.76 0 .32 0 .67-.06 1a9.08 9.08 0 0 0 0 2.09 21.46 21.46 0 0 1 2.6-2.76c.4-.37.84-.73 1.27-1.07a14.44 14.44 0 0 0 2.16-2c-.29-.17-.62-.42-1-.7-1-.73-2-1.55-2.87-2.34-.61-.52-1.23-1.05-1.86-1.56-.01.16-.03.23-.04.31zm19.46-.43a39.46 39.46 0 0 0-6.39 4.8l.86.51a23.23 23.23 0 0 1 5.58 4.69 9.91 9.91 0 0 1-.14-1.26V6.76c0-.7 0-1.43.08-2.14s.07-1.15.08-1.69a2.94 2.94 0 0 0-.07-.39z"/><path d="M2.33.1c.43 0 .86 0 1.23.07s.52 0 .71 0h11.67a.67.67 0 0 1 0 1.33H3.87a5.73 5.73 0 0 0-1.27.08c1.17.9 2.51 2 3.8 3.15a9.39 9.39 0 0 0 1.2.9 11.69 11.69 0 0 1 1 .75 7.48 7.48 0 0 1 .85.9 5.09 5.09 0 0 0 1.19 1.15.53.53 0 0 0 .31.08c.62 0 1.47-.76 2.07-1.35a.68.68 0 0 1 .59-.6l.4-.42a10.09 10.09 0 0 1 1.7-1.59c.9-.54 1.76-1.17 2.6-1.78.56-.42 1.14-.84 1.74-1.24h-1.99a.63.63 0 0 1-.65-.66.64.64 0 0 1 .65-.67h2.18a6.37 6.37 0 0 1 1.63.15.66.66 0 0 1 .46.47 17.58 17.58 0 0 1 .16 5c0 .77-.09 1.49-.09 2.17s0 1.42.09 2.18a19 19 0 0 1-.15 5 .66.66 0 0 1-.46.47 7.77 7.77 0 0 1-2.29.28c-.74 0-1.49 0-2.22-.1s-1.29-.09-1.85-.1H3.49c-.37 0-.86.07-1.28.07a3.9 3.9 0 0 1-1.2-.15c-.85-.28-.85-.86-.85-1.6v-.25c0-2.23 0-4.62.09-7.53 0-1.11.07-2.23.12-3.34v-.46A3.15 3.15 0 0 1 .63.67C.91.28 1.46.1 2.38.1m18.78 12.44c0-.42 0-.86-.05-1.29s0-.75 0-1.09v-3.4c0-.7 0-1.43.08-2.14 0-.56.07-1.14.08-1.69a1.74 1.74 0 0 0 0-.52 39.32 39.32 0 0 0-6.45 4.84l.9.62a23.14 23.14 0 0 1 5.44 4.67m-19.77.63a34.94 34.94 0 0 1 2.68-2.74c.4-.36.85-.72 1.27-1.06a14.58 14.58 0 0 0 2.17-2c-.3-.24-.63-.49-1-.77-1-.73-2-1.55-2.88-2.35-.62-.53-1.26-1.08-1.91-1.6l-.06.3a13.14 13.14 0 0 0-.12 2.28v1c0 1.23-.06 2.5-.08 3.76 0 .32 0 .66-.06 1a9.17 9.17 0 0 0 0 2.1m9.63-2.71h-.08a1.64 1.64 0 0 1-1.12-.82 3.17 3.17 0 0 0-.21-.27 14.46 14.46 0 0 0-1.1-1.13 15.56 15.56 0 0 1-2.12 2c-.34.28-.68.56-1 .85a35 35 0 0 0-3.24 3.26 2.68 2.68 0 0 0 .85.1H19.53a1.7 1.7 0 0 0 1.16-.3c-1.32-2.19-3.58-3.72-5.77-5.2l-1.11-.75h-.05c-.76.92-1.82 2.17-2.73 2.17M2.33-.16C1.33-.16.8.03.5.46A3.17 3.17 0 0 0 .22 2.3v.45C.22 3.86.13 4.99.1 6.1.01 9-.01 11.4.01 13.63v.26c0 .74 0 1.38 1 1.7a4.12 4.12 0 0 0 1.23.15c.43 0 .86 0 1.28-.07s.71-.05 1-.05h11.01c.57 0 1.19 0 1.85.1s1.49.1 2.23.1a8 8 0 0 0 2.32-.28.8.8 0 0 0 .53-.54 19.26 19.26 0 0 0 .15-5c0-.77-.09-1.49-.09-2.18s0-1.4.09-2.16a17.88 17.88 0 0 0-.16-5 .79.79 0 0 0-.54-.54 6.5 6.5 0 0 0-1.65-.15h-2.18a.74.74 0 0 0-.75.77.73.73 0 0 0 .75.76h1.69c-.52.35-1 .72-1.5 1.07a29 29 0 0 1-2.62 1.97 10.39 10.39 0 0 0-1.72 1.61l-.38.4a.76.76 0 0 0-.63.64c-.36.35-1.34 1.3-2 1.3a.6.6 0 0 1-.27-.06A5.28 5.28 0 0 1 9.5 7.3a8.72 8.72 0 0 0-.86-.92 11.94 11.94 0 0 0-1-.75 9.12 9.12 0 0 1-1.18-.89c-1.3-1.2-2.62-2.2-3.66-3.05a7.81 7.81 0 0 1 1 0h12.07a.75.75 0 0 0 .75-.77.74.74 0 0 0-.75-.76H3.5c-.28 0-.81-.07-1.24-.07zm12.56 7.4a39.61 39.61 0 0 1 6.27-4.7 2.06 2.06 0 0 1 0 .36c0 .55 0 1.13-.08 1.68 0 .72-.08 1.45-.08 2.15v5.49a24.4 24.4 0 0 0-5.38-4.45l-.8-.55zM1.47 12.93a10.58 10.58 0 0 1 0-1.86c0-.37.06-.72.06-1 0-1.26 0-2.52.08-3.75v-1a13.08 13.08 0 0 1 .12-2.27v-.13c.61.49 1.21 1 1.79 1.5.92.79 1.88 1.62 2.88 2.35.36.26.66.49.93.71a14.9 14.9 0 0 1-2.08 1.88c-.43.35-.87.7-1.28 1.07a32.73 32.73 0 0 0-2.54 2.58zm9.56-2.39c1 0 2-1.26 2.8-2.19l1 .7c2.15 1.46 4.38 3 5.7 5.09a1.74 1.74 0 0 1-1 .23H3.05a3.24 3.24 0 0 1-.68-.06 34.72 34.72 0 0 1 3.08-3.1c.33-.29.68-.58 1-.85a18.13 18.13 0 0 0 2.06-1.88 12.34 12.34 0 0 1 1 1 2.43 2.43 0 0 1 .2.25 1.76 1.76 0 0 0 1.2.87z"/></svg><svg viewBox="0 0 82.05 30.29" id="ic_favorite_name" xmlns="http://www.w3.org/2000/svg"><path d="M8.41 23.79a1.83 1.83 0 0 1-1.82-1.8c0-1.11 0-2.86-.11-5.22-.18.75-.38 1.49-.58 2.21l-.58 1.69-.43 1.07-.16.35a1.49 1.49 0 0 1-.12.2l-.22.35-.1.09a2 2 0 0 1-1.26.53h-.11a1.88 1.88 0 0 1-1.23-.46 2 2 0 0 1-.57-2.23l.08-.26V19.52l.16-2.94q0-.91.06-1.38a105 105 0 0 0-.18-12.21 1.78 1.78 0 0 1 .37-1.31A1.69 1.69 0 0 1 2.92 1h.11a1.86 1.86 0 0 1 1.17.43 1.69 1.69 0 0 1 .66 1.28c.1 1.14.17 2.36.23 3.64 0-.15.11-.48.32-1.21s.22-1.16.26-1.35v-.3a2.09 2.09 0 0 1 .16-1 2 2 0 0 1 3.62 0 3.52 3.52 0 0 1 .22.89 26.12 26.12 0 0 1 .17 3.67c0 2 .07 4.46.21 7.41.11 3.61.17 6.07.17 7.52a1.83 1.83 0 0 1-1.81 1.8z" fill="currentColor"/><path d="M3.03 2a.82.82 0 0 1 .54.2.74.74 0 0 1 .29.54 102.29 102.29 0 0 1 .21 12.54 4 4 0 0 1 0 .54q.6-2.31 1.36-6.09c.26-1.32.48-2.35.65-3.08A11.11 11.11 0 0 1 6.4 5.4l.3-1.53v-.43a1 1 0 0 1 .08-.57 1 1 0 0 1 1.79 0 2.88 2.88 0 0 1 .14.59 27.21 27.21 0 0 1 .16 3.56q0 3 .21 7.47.17 5.31.17 7.47a.78.78 0 0 1-.24.57.83.83 0 0 1-1.15 0 .78.78 0 0 1-.24-.57c0-1.39-.05-3.69-.17-6.91-.1-3-.16-5.08-.16-6.28l-.94 4q-.58 3.06-1.38 5.91l-.57 1.63-.41 1s0 .08-.06.14-.05.1-.07.14v.09l-.16.25a1 1 0 0 1-.64.27H3a.86.86 0 0 1-.58-.22 1 1 0 0 1-.26-1.19.87.87 0 0 0 .07-.22v-.16l.05-.08v-.87c0-.11 0-.47.06-1.07s.07-1.21.1-1.82.05-1.08.06-1.4a104.53 104.53 0 0 0-.26-12.28.85.85 0 0 1 .18-.61.68.68 0 0 1 .55-.29h.07m0-2h-.19a2.7 2.7 0 0 0-2 1.08 2.88 2.88 0 0 0-.57 2 102.44 102.44 0 0 1 .21 12.06c0 .32 0 .77-.06 1.37l-.09 1.82q0 .86-.06 1v.71l-.06.21a3 3 0 0 0 .87 3.26 2.85 2.85 0 0 0 1.89.71h.17a3 3 0 0 0 1.87-.79l.2-.18.15-.23.15-.24.15-.27a2.81 2.81 0 0 0 5.58-.51c0-1.46-.06-3.92-.17-7.54-.14-3-.21-5.43-.21-7.4a27.7 27.7 0 0 0-.18-3.83 5.09 5.09 0 0 0-.22-1V2.05a2.88 2.88 0 0 0-2.7-1.8 3 3 0 0 0-2.26 1 2.93 2.93 0 0 0-.58-.64 2.87 2.87 0 0 0-1.8-.64z" fill="#fff"/><path d="M13.77 23.57a3.7 3.7 0 0 1-.8-.09 3.22 3.22 0 0 1-2.53-2.65 7.86 7.86 0 0 1-.08-.9v-.89a3.94 3.94 0 0 0 0-.46 1.79 1.79 0 0 1 .48-1.23 1.69 1.69 0 0 1 1.28-.56 1.73 1.73 0 0 1 1.27.53 1.8 1.8 0 0 1 .51 1.26v1.15a3.41 3.41 0 0 0 .2-.54 4.32 4.32 0 0 0 .21-1.27 2.59 2.59 0 0 0-.07-.57h-.18a1.8 1.8 0 0 1-1.19-.75 1.71 1.71 0 0 1-.22-1.7h-.31a1.71 1.71 0 0 1-1.22-.6 1.77 1.77 0 0 1-.42-1.32v-.31a4.11 4.11 0 0 1 0-.55v-.43a6.85 6.85 0 0 1 1.09-4.21 3 3 0 0 1 1.91-1.07 3.66 3.66 0 0 1 .57-.05 3.73 3.73 0 0 1 1.56.35 3.36 3.36 0 0 1 1.6 1.44 8 8 0 0 1 .65 3.74 8.53 8.53 0 0 1-.68 3.7 6 6 0 0 1 .43 2.35 8.59 8.59 0 0 1-.38 2.48 4.76 4.76 0 0 1-1.3 2.16 3.64 3.64 0 0 1-2.38.99zm.7-13.34a9.17 9.17 0 0 0-.13 1.56v1.22l-.07.18a1.41 1.41 0 0 1-.07.47h.2v-.28a12.27 12.27 0 0 0 .05-3z" fill="currentColor"/><path d="M14.34 7.38a2.79 2.79 0 0 1 1.15.26 2.37 2.37 0 0 1 1.14 1 7.2 7.2 0 0 1 .52 3.25 7.79 7.79 0 0 1-.57 3.24l-.28.37a4.57 4.57 0 0 1 .6 2.44 7.44 7.44 0 0 1-.34 2.19 3.58 3.58 0 0 1-1 1.69 2.62 2.62 0 0 1-1.79.73 2.44 2.44 0 0 1-.59-.07 2.2 2.2 0 0 1-1.15-.62 2.25 2.25 0 0 1-.61-1.22c0-.36-.06-.6-.06-.73v-.81a5.25 5.25 0 0 0 0-.54.78.78 0 0 1 .22-.56.71.71 0 0 1 .54-.23.75.75 0 0 1 .55.23.79.79 0 0 1 .23.56V20.38a.66.66 0 0 0 .57.59h.18a1.28 1.28 0 0 0 .8-.34 2.78 2.78 0 0 0 .57-1.13 5.29 5.29 0 0 0 .25-1.57 4.84 4.84 0 0 0-.17-1.13 4.3 4.3 0 0 0-.21-.54h-.11a.94.94 0 0 1-.41.08h-.13a.87.87 0 0 1-.54-.36.71.71 0 0 1-.08-.78.93.93 0 0 1 .68-.58h.7a.83.83 0 0 0 .21-.28 2.28 2.28 0 0 0 .23-.86 12.73 12.73 0 0 0 .05-3.2 2.41 2.41 0 0 0-.3-1 1.29 1.29 0 0 0-.87-.36h-.08a.44.44 0 0 0-.35.14 5.1 5.1 0 0 0-.52 2.71v1.05a.92.92 0 0 0-.05.36.73.73 0 0 1-.27.55.8.8 0 0 1-.51.19h-.07a.67.67 0 0 1-.54-.26.79.79 0 0 1-.19-.58 1.62 1.62 0 0 0 0-.38 3.19 3.19 0 0 1 0-.49v-.49a6.05 6.05 0 0 1 .87-3.59 2 2 0 0 1 1.28-.71 3 3 0 0 1 .42 0m0-2a4.59 4.59 0 0 0-.73.06 4 4 0 0 0-2.51 1.41 7.77 7.77 0 0 0-1.33 4.83v.4a5.53 5.53 0 0 0 0 .61v.16a2.8 2.8 0 0 0 1.82 2.85v.1a2.71 2.71 0 0 0-1.39.81 2.81 2.81 0 0 0-.74 1.91v.37a8.92 8.92 0 0 0-.05 1 8.26 8.26 0 0 0 .08 1v.1a4.26 4.26 0 0 0 3.31 3.45 5 5 0 0 0 1 .11 4.65 4.65 0 0 0 3.11-1.23 5.53 5.53 0 0 0 1.59-2.6 9.35 9.35 0 0 0 .43-2.78 7.09 7.09 0 0 0-.35-2.31 10.55 10.55 0 0 0 .6-3.69 8.92 8.92 0 0 0-.76-4.26 4.4 4.4 0 0 0-2.07-1.88 4.75 4.75 0 0 0-2-.44z" fill="#fff"/><path d="M22.62 23.62a4.21 4.21 0 0 1-1.8-.44 4.82 4.82 0 0 1-2.3-3.37 20.3 20.3 0 0 1-.48-5.35 30 30 0 0 1 .54-5 8.49 8.49 0 0 1 1.36-3.57 5.33 5.33 0 0 1 1.77-1.45l1.39-.67a1.26 1.26 0 0 0 .28-.2s0-.12-.05-.3a1.7 1.7 0 0 1 .31-1.38 1.79 1.79 0 0 1 1.46-.78 1.76 1.76 0 0 1 1 .34 1.85 1.85 0 0 1 .73 1.1 3.88 3.88 0 0 1-.3 2.65 4.29 4.29 0 0 1-1.78 1.69l-.74.38a5.4 5.4 0 0 0-1 .53 2.22 2.22 0 0 0-.28.3 1.65 1.65 0 0 0-.26.57 3.55 3.55 0 0 1 1.64.4 5.26 5.26 0 0 1 2.11 2.17 9.76 9.76 0 0 1 1.21 4.41 10.42 10.42 0 0 1-.61 4.53 5.74 5.74 0 0 1-1.24 2.06 4.54 4.54 0 0 1-2.09 1.26 3.34 3.34 0 0 1-.87.12zm-1-9.67v.6a19.82 19.82 0 0 0 .3 4.07 4.58 4.58 0 0 0 .37 1.09 1.08 1.08 0 0 0 .25.34h.06a.48.48 0 0 0 .23-.09 2.12 2.12 0 0 0 .69-1 7.55 7.55 0 0 0 .38-3.09 6.81 6.81 0 0 0-.74-2.88c-.36-.61-.59-.72-.63-.74a1 1 0 0 0-.41.39 2.73 2.73 0 0 0-.4 1 1 1 0 0 1-.1.31z" fill="currentColor"/><path d="M25.1 2.12a.75.75 0 0 1 .44.15.84.84 0 0 1 .34.52 2.87 2.87 0 0 1-.2 1.93 3.44 3.44 0 0 1-1.4 1.31l-.7.35a6.34 6.34 0 0 0-1.16.62 3.24 3.24 0 0 0-.46.46 7 7 0 0 0-.88 2.63 5.81 5.81 0 0 1 .56-.28 2.83 2.83 0 0 1 .85-.13 2.58 2.58 0 0 1 1.19.29 4.33 4.33 0 0 1 1.69 1.77 8.91 8.91 0 0 1 1.09 4 9.55 9.55 0 0 1-.55 4.1 4.78 4.78 0 0 1-1 1.74 3.34 3.34 0 0 1-1.62 1 2.23 2.23 0 0 1-.63.09 3.12 3.12 0 0 1-1.36-.35 3.83 3.83 0 0 1-1.77-2.71 19.12 19.12 0 0 1-.45-5.08 29.07 29.07 0 0 1 .52-4.86 7.8 7.8 0 0 1 1.16-3.14 4.44 4.44 0 0 1 1.46-1.19l1.35-.65a1.79 1.79 0 0 0 .74-.63 1.43 1.43 0 0 0 0-1 .75.75 0 0 1 .14-.57.86.86 0 0 1 .52-.35h.13m-2.52 19h.1a1.46 1.46 0 0 0 .69-.27 3.07 3.07 0 0 0 1.09-1.52 8.55 8.55 0 0 0 .43-3.48 7.75 7.75 0 0 0-.87-3.31c-.49-.83-1-1.25-1.5-1.25a.92.92 0 0 0-.36.07 1.9 1.9 0 0 0-.87.74 3.88 3.88 0 0 0-.57 1.42.43.43 0 0 1-.08.21v.87a20.34 20.34 0 0 0 .32 4.27 5.23 5.23 0 0 0 .47 1.36 1.92 1.92 0 0 0 .61.73 1.14 1.14 0 0 0 .57.17m2.52-21a2.49 2.49 0 0 0-.47 0h-.13a2.82 2.82 0 0 0-1.68 1.14 2.73 2.73 0 0 0-.52 1.69l-1 .48h-.05a6.52 6.52 0 0 0-2.1 1.73 9.51 9.51 0 0 0-1.53 4 30.91 30.91 0 0 0-.56 5.2A21 21 0 0 0 17.6 20a5.7 5.7 0 0 0 2.81 4 5.07 5.07 0 0 0 2.26.57 4.43 4.43 0 0 0 1.15-.16 5.43 5.43 0 0 0 2.55-1.53 6.79 6.79 0 0 0 1.46-2.42 11.42 11.42 0 0 0 .67-4.91 10.74 10.74 0 0 0-1.36-4.88 6.18 6.18 0 0 0-2.5-2.54h-.08l.78-.39a5.37 5.37 0 0 0 2.14-2.08 4.82 4.82 0 0 0 .42-3.24V2.3A2.88 2.88 0 0 0 26.78.63 2.72 2.72 0 0 0 25.17.1zm-2.34 17.74a19.56 19.56 0 0 1-.18-3.25 3 3 0 0 1 0-.32 7.65 7.65 0 0 1 .28 1.65 7.89 7.89 0 0 1-.11 1.92z" fill="#fff"/><path d="M30.83 29.28a1.65 1.65 0 0 1-1.22-.6 1.76 1.76 0 0 1-.43-1.32 60.3 60.3 0 0 0-.16-9v-.67c0-.34-.06-.75-.09-1.09l-.18-2c-.11-1.33-.18-2.62-.21-3.84V8.94a1.78 1.78 0 0 1 1.78-1.78 1.82 1.82 0 0 1 .89.23 2.6 2.6 0 0 1 .82-.4 2.77 2.77 0 0 1 1-.19 2.88 2.88 0 0 1 .59.07 8 8 0 0 1 1 .34l.35.17a1.73 1.73 0 0 1 .88.92 1.75 1.75 0 0 1 .13.81 10.92 10.92 0 0 1 .78 4.2 48.71 48.71 0 0 1-.32 6.37 4.8 4.8 0 0 1-.84 2.42 3.14 3.14 0 0 1-1.87 1.31 2.77 2.77 0 0 1-.46 0 2.17 2.17 0 0 1-.36 0c0 1.65 0 3.07-.1 4.26a1.69 1.69 0 0 1-.6 1.22 1.77 1.77 0 0 1-1.15.43zm2.13-17.64a15.92 15.92 0 0 0-.16 3 22.07 22.07 0 0 0 .19 2.53c.06-.84.1-1.59.13-2.23a19.7 19.7 0 0 0-.13-3 4.22 4.22 0 0 0-.03-.3z" fill="currentColor"/><path d="M32.98 7.75a2.21 2.21 0 0 1 .37 0c.27.08.55.18.83.29l.25.14a.74.74 0 0 1 .42.41.73.73 0 0 1 0 .56 9.59 9.59 0 0 1 .82 4.1 46.55 46.55 0 0 1-.32 6.23 3.8 3.8 0 0 1-.65 1.94 2.11 2.11 0 0 1-1.27.92 1 1 0 0 1-.25 0 2 2 0 0 1-1.27-.52.26.26 0 0 1-.13-.14 51.31 51.31 0 0 1-.06 5.82.69.69 0 0 1-.25.54.75.75 0 0 1-.51.19h-.07a.71.71 0 0 1-.54-.27.77.77 0 0 1-.2-.58 58.49 58.49 0 0 0-.16-9.19v-.66c0-.4-.06-.77-.1-1.12l-.17-2c-.11-1.29-.18-2.55-.21-3.77v-1.8a.79.79 0 0 1 .78-.78.77.77 0 0 1 .56.23.71.71 0 0 1 .23.55v.15-.08a2 2 0 0 1 1.16-1.02 2 2 0 0 1 .74-.15m.2 13.08l.16-.15a2.34 2.34 0 0 0 .46-1.32c.17-1.79.27-3.25.32-4.4a20.45 20.45 0 0 0-.14-3.2 4.53 4.53 0 0 0-.72-2.16.64.64 0 0 1-.1-.22.59.59 0 0 0-.25 0 .39.39 0 0 0-.15 0 .77.77 0 0 0-.32.36 6.9 6.9 0 0 0-.37 1.19 16 16 0 0 0-.27 3.74 21.92 21.92 0 0 0 .43 4 4.47 4.47 0 0 0 .73 2c.1.1.17.15.22.15m-.2-15.08a4.29 4.29 0 0 0-1.38.25 3.42 3.42 0 0 0-.55.23 2.63 2.63 0 0 0-.8-.12 2.78 2.78 0 0 0-2.78 2.78v1.89c0 1.2.1 2.52.22 3.86l.17 2c0 .36.06.71.09 1.08s0 .48 0 .56v.13a58.21 58.21 0 0 1 .16 8.87 2.78 2.78 0 0 0 2.61 3h.19a2.76 2.76 0 0 0 2.76-2.6c.08-1 .11-2.09.11-3.35a4 4 0 0 0 2.48-1.71 5.71 5.71 0 0 0 1-2.92 48.44 48.44 0 0 0 .33-6.47 12.42 12.42 0 0 0-.77-4.38 2.9 2.9 0 0 0-.22-1 2.83 2.83 0 0 0-1.39-1.44l-.2-.11h-.18c-.35-.14-.69-.26-1-.36h-.1a3.23 3.23 0 0 0-.82-.1z" fill="#fff"/><path d="M41.29 23.35a3.44 3.44 0 0 1-2-.69 5.63 5.63 0 0 1-1.93-3.83 16.79 16.79 0 0 1-.06-5.3 9.16 9.16 0 0 1 1.77-4.61 3.8 3.8 0 0 1 3-1.48 4.85 4.85 0 0 1 2.07.51 1.74 1.74 0 0 1 .88 1 1.66 1.66 0 0 1 .12.68 1.14 1.14 0 0 1 .15.58l-1 .14h1v.52l.08 1.58v.91c.07.72.12 1.58.14 2.64a26.42 26.42 0 0 0 .16 3.51v.34l.22.14a1.23 1.23 0 0 1 .36.36l.09.13a2.07 2.07 0 0 1 .15.34 3.34 3.34 0 0 1 .08.35 1.81 1.81 0 0 1-1.45 2 2.21 2.21 0 0 1-.32 0 1.83 1.83 0 0 1-.77-.16h-.05l-.34-.22-.06-.06h-.05l-.07-.06h.06l-.32-.23a2.89 2.89 0 0 1-1.3.78 2.44 2.44 0 0 1-.61.13zm.29-11.75a7.4 7.4 0 0 0-.7 2.41 12.4 12.4 0 0 0 0 4 8.53 8.53 0 0 0 .25 1.2 10.09 10.09 0 0 0 .41-1.86 31.06 31.06 0 0 0 .27-3.68v-.33c-.12-.58-.19-1.16-.23-1.74z" fill="currentColor"/><path d="M42.08 8.44a3.92 3.92 0 0 1 1.64.41.77.77 0 0 1 .38.43.83.83 0 0 1 0 .58l.18.22a.37.37 0 0 1 0 .12v.69l.08 1.6v.91c.07.71.12 1.57.14 2.6a26.82 26.82 0 0 0 .17 3.65 4.09 4.09 0 0 0 .16.87l.21.11.17.09.12.08a.48.48 0 0 1 .1.09l.06.09a.49.49 0 0 1 .06.13 1 1 0 0 1-.1.76.82.82 0 0 1-.51.33h-.13a.79.79 0 0 1-.47-.14h-.08a.45.45 0 0 0-.13-.1 1.85 1.85 0 0 1-.85-1.13l-.15.33a2.42 2.42 0 0 1-1.4 1.25 1.67 1.67 0 0 1-.44.06 2.49 2.49 0 0 1-1.39-.51 4.79 4.79 0 0 1-1.51-3.19 15.6 15.6 0 0 1-.06-5 8.16 8.16 0 0 1 1.55-4.11 2.78 2.78 0 0 1 2.2-1.13m-.84 12.26h.07a1.12 1.12 0 0 0 .42-.46 8.31 8.31 0 0 0 .8-2.84 32.34 32.34 0 0 0 .28-3.88l-.05-.4a16.48 16.48 0 0 1-.21-1.93 1.31 1.31 0 0 0 0-.27 2.91 2.91 0 0 1 0-.91 1.72 1.72 0 0 0-.44-.06 1.34 1.34 0 0 0-1.05.54 6.87 6.87 0 0 0-1.18 3.29 13.53 13.53 0 0 0 0 4.31 3.82 3.82 0 0 0 .93 2.43.78.78 0 0 0 .42.19m.83-14.35a4.76 4.76 0 0 0-3.73 1.84 10 10 0 0 0-2 5.11 17.86 17.86 0 0 0 .07 5.61c.38 2.17 1.14 3.63 2.33 4.47a4.39 4.39 0 0 0 2.54.88 3.51 3.51 0 0 0 2.05-.63l.4.27h.16a2.8 2.8 0 0 0 1 .16 2.17 2.17 0 0 0 .36 0h.16a2.83 2.83 0 0 0 1.76-1.15 2.75 2.75 0 0 0 .47-2c0-.12-.05-.25-.08-.37v-.05a2.79 2.79 0 0 0-.31-.7l-.13-.21a2.15 2.15 0 0 0-.47-.48 27.7 27.7 0 0 1-.13-3.27c0-1.08-.07-2-.14-2.69v-.92l-.08-1.59v-.28-.31a2.58 2.58 0 0 0-.15-.79 2.82 2.82 0 0 0-.18-.79 2.79 2.79 0 0 0-1.36-1.52 5.91 5.91 0 0 0-2.53-.62z" fill="#fff"/><path d="M49.66 23.15a1.78 1.78 0 0 1-1.79-1.78c0-1.42-.07-3.82-.21-7.13l-.24-5.65a1.8 1.8 0 0 1 .48-1.28 1.67 1.67 0 0 1 1.28-.58 1.83 1.83 0 0 1 1.26.49 1.71 1.71 0 0 1 .55 1.27c0 .47.09 2 .21 4.66h.52c0-1.51.06-3.12.17-4.82a1.79 1.79 0 0 1 .6-1.22 1.78 1.78 0 0 1 3 1.48 92.32 92.32 0 0 0 .06 12.42 1.76 1.76 0 0 1-.43 1.29 1.71 1.71 0 0 1-1.27.62 1.83 1.83 0 0 1-1.26-.45 1.79 1.79 0 0 1-.6-1.21c-.08-1.55-.14-3.07-.17-4.54h-.41c.05 2 .08 3.52.08 4.65a1.78 1.78 0 0 1-1.78 1.78z" fill="currentColor"/><path d="M53.69 7.65a.76.76 0 0 1 .73.84 94.57 94.57 0 0 0 .06 12.57.8.8 0 0 1-.19.59.74.74 0 0 1-.54.26.8.8 0 0 1-.54-.2.74.74 0 0 1-.26-.54c-.11-1.88-.17-3.7-.19-5.48h-2.42c.07 2.44.11 4.32.11 5.63a.74.74 0 0 1-.22.55.77.77 0 0 1-.56.23.79.79 0 0 1-.56-.23.75.75 0 0 1-.23-.55q0-2.17-.21-7.17l-.24-5.65a.84.84 0 0 1 .22-.58.71.71 0 0 1 .54-.24.8.8 0 0 1 .57.22.71.71 0 0 1 .24.54c0 .56.1 2.44.26 5.66h2.48q0-2.66.15-5.73a.78.78 0 0 1 .27-.54.76.76 0 0 1 .54-.2m0-2a2.76 2.76 0 0 0-1.86.7 2.61 2.61 0 0 0-.42.46 2.13 2.13 0 0 0-.29-.31 2.77 2.77 0 0 0-1.94-.77 2.72 2.72 0 0 0-2 .9 2.84 2.84 0 0 0-.73 1.92v.08l.24 5.65c.14 3.3.21 5.68.21 7.09a2.79 2.79 0 0 0 4.76 2l.18-.2a.46.46 0 0 0 .07.07 2.76 2.76 0 0 0 1.86.7h.12a2.69 2.69 0 0 0 2-1 2.76 2.76 0 0 0 .66-2 91.25 91.25 0 0 1-.05-12.25 2.78 2.78 0 0 0-.65-2 2.75 2.75 0 0 0-2-1h-.11z" fill="#fff"/><path d="M58.52 23.15a1.79 1.79 0 0 1-1.26-.51 1.73 1.73 0 0 1-.53-1.27c0-1.43-.07-3.83-.21-7.13l-.28-5.65a1.84 1.84 0 0 1 .47-1.28A1.71 1.71 0 0 1 58 6.73a1.8 1.8 0 0 1 1.25.49 1.7 1.7 0 0 1 .56 1.27c0 .47.09 2 .21 4.66h.52c0-1.51.06-3.12.16-4.82a1.8 1.8 0 0 1 .61-1.22 1.78 1.78 0 0 1 3 1.48 92.32 92.32 0 0 0 .06 12.42 1.76 1.76 0 0 1-.43 1.29 1.68 1.68 0 0 1-1.27.62 1.83 1.83 0 0 1-1.26-.45 1.79 1.79 0 0 1-.6-1.21c-.08-1.54-.14-3.06-.17-4.54h-.4c0 2 .08 3.51.08 4.65a1.78 1.78 0 0 1-1.78 1.78z" fill="currentColor"/><path d="M62.55 7.65a.76.76 0 0 1 .73.84 94.57 94.57 0 0 0 .06 12.57.8.8 0 0 1-.19.59.74.74 0 0 1-.54.26.8.8 0 0 1-.54-.2.74.74 0 0 1-.26-.54c-.11-1.88-.17-3.7-.19-5.48H59.2c.07 2.44.11 4.32.11 5.63a.74.74 0 0 1-.22.55.8.8 0 0 1-1.12 0 .75.75 0 0 1-.23-.55q0-2.17-.21-7.17l-.24-5.65a.84.84 0 0 1 .22-.58.71.71 0 0 1 .54-.24.8.8 0 0 1 .57.22.71.71 0 0 1 .24.54c0 .56.1 2.44.26 5.66h2.42c0-1.77 0-3.68.16-5.73a.78.78 0 0 1 .27-.54.76.76 0 0 1 .54-.2m0-2a2.76 2.76 0 0 0-1.86.7 2.61 2.61 0 0 0-.42.46 2.13 2.13 0 0 0-.29-.31A2.77 2.77 0 0 0 58 5.71a2.72 2.72 0 0 0-2 .9 2.84 2.84 0 0 0-.73 1.92v.08l.24 5.65c.14 3.3.21 5.68.21 7.09a2.79 2.79 0 0 0 4.76 2l.18-.2a.46.46 0 0 0 .07.07 2.76 2.76 0 0 0 1.86.7h.12a2.69 2.69 0 0 0 2-1 2.76 2.76 0 0 0 .66-2 91.25 91.25 0 0 1-.05-12.25 2.78 2.78 0 0 0-.65-2 2.75 2.75 0 0 0-2-1h-.11z" fill="#fff"/><path d="M69.35 23.83a3.8 3.8 0 0 1-1.8-.43c-.87-.46-1.45-1.56-1.75-3.36a28.22 28.22 0 0 1-.39-4.16 37 37 0 0 1 .1-4.32 7.63 7.63 0 0 1 .84-3.3 2.81 2.81 0 0 1 1.8-1.29 3.92 3.92 0 0 1 .71 0h.44a1.76 1.76 0 0 1 1.26.5l.26.15a4.07 4.07 0 0 1 .6.44 3.91 3.91 0 0 1 .77 1.34 10.46 10.46 0 0 1 .54 2.79c.13 1.23.2 2.56.22 3.95a23.7 23.7 0 0 1-.22 3.93 4.71 4.71 0 0 1-1.39 3.22 3.2 3.2 0 0 1-1.92.58zm-.26-11.94a31.7 31.7 0 0 0-.1 3.89 23.85 23.85 0 0 0 .29 3.33 30.63 30.63 0 0 0-.07-6.46c0-.33-.08-.61-.11-.85 0 .09-.01.09-.01.09z" fill="currentColor"/><path d="M69.3 7.89a.76.76 0 0 1 .64.31 3.13 3.13 0 0 1 .37.2 2.46 2.46 0 0 1 .4.29 3 3 0 0 1 .54 1 9.91 9.91 0 0 1 .49 2.54c.12 1.21.19 2.5.21 3.86a21.69 21.69 0 0 1-.21 3.77 3.88 3.88 0 0 1-1 2.6 2.25 2.25 0 0 1-1.29.35h-.05a2.8 2.8 0 0 1-1.32-.3c-.6-.32-1-1.2-1.26-2.65a26.83 26.83 0 0 1-.38-4 34.8 34.8 0 0 1 .1-4.2 7.07 7.07 0 0 1 .67-2.84 1.86 1.86 0 0 1 1.15-.86h.97m.06 13.35a1.57 1.57 0 0 0 .38 0 .78.78 0 0 0 .19-.4 6.76 6.76 0 0 0 .28-1.19 29.43 29.43 0 0 0 0-7.09 12.83 12.83 0 0 0-.41-2.24l-.16-.44h-.11l-.46-.29h-.41l-.06.07-.1.12a6.38 6.38 0 0 0-.41 2.11 31.64 31.64 0 0 0-.1 4 22.72 22.72 0 0 0 .36 3.77 4.61 4.61 0 0 0 .31 1.25 1.05 1.05 0 0 0 .19.35 1.43 1.43 0 0 0 .51.08M69.3 5.89h-.44a5.3 5.3 0 0 0-.92.06 3.73 3.73 0 0 0-2.41 1.7 8.21 8.21 0 0 0-1 3.77 37 37 0 0 0-.11 4.45 29.25 29.25 0 0 0 .41 4.33c.34 2.07 1.08 3.4 2.27 4a4.67 4.67 0 0 0 2.24.55h.09a4.22 4.22 0 0 0 2.44-.71h.06l.06-.05a5.64 5.64 0 0 0 1.74-3.88 24.1 24.1 0 0 0 .23-4.06c0-1.42-.09-2.78-.22-4a11.75 11.75 0 0 0-.62-3.08 4.51 4.51 0 0 0-1-1.65 4 4 0 0 0-.77-.59l-.2-.11a2.77 2.77 0 0 0-1.85-.69z" fill="#fff"/><path d="M77.62 23.26a3.1 3.1 0 0 1-1.2-.24 4 4 0 0 1-.95-.52 3.17 3.17 0 0 1-.79-.84 6.33 6.33 0 0 1-.44-.77 5.44 5.44 0 0 1-.33-1.07c-.08-.36-.14-.69-.18-1s-.1-.64-.15-1.09a20.64 20.64 0 0 1 .07-6.89 5.08 5.08 0 0 1 1.52-3 3 3 0 0 1 1.8-.67 3 3 0 0 1 1.85.68 5.68 5.68 0 0 1 1.62 2.32 7.88 7.88 0 0 1 .65 2.88 3.57 3.57 0 0 1-1.11 3 2.59 2.59 0 0 1-1.61.52H77.02a11.88 11.88 0 0 0 .48 2.75 1 1 0 0 0 .14.32 1.77 1.77 0 0 1 1.15-.56h.15a1.75 1.75 0 0 1 1.17.46 1.72 1.72 0 0 1 .6 1.2 1.68 1.68 0 0 1-.45 1.32 3.49 3.49 0 0 1-1.78 1.14 3.44 3.44 0 0 1-.86.06zm-.14-10.29a4.45 4.45 0 0 0-.34-1.42v-.07a10.31 10.31 0 0 0-.18 1.49z" fill="currentColor"/><path d="M76.94 8.13h.05a2 2 0 0 1 1.18.47 4.65 4.65 0 0 1 1.32 1.92 6.94 6.94 0 0 1 .57 2.51 2.65 2.65 0 0 1-.76 2.19 1.8 1.8 0 0 1-1 .29H75.95a15.66 15.66 0 0 0 .6 4.09 1.47 1.47 0 0 0 .8 1 1 1 0 0 0 .32.06.86.86 0 0 0 .66-.36.8.8 0 0 1 .54-.28h.07a.76.76 0 0 1 .5.2.8.8 0 0 1 .28.54.73.73 0 0 1-.2.57 2.55 2.55 0 0 1-1.29.84 2.38 2.38 0 0 1-.58.08 2.06 2.06 0 0 1-.81-.17 3 3 0 0 1-.75-.39 2.38 2.38 0 0 1-.55-.59 3.94 3.94 0 0 1-.38-.69 4.06 4.06 0 0 1-.27-.85c-.07-.35-.13-.66-.18-.94s-.09-.62-.14-1a19.73 19.73 0 0 1 .05-6.55 4.23 4.23 0 0 1 1.19-2.46 2 2 0 0 1 1.16-.44m.2 5.84a8.72 8.72 0 0 0 1 0 .78.78 0 0 0 .21 0 1.38 1.38 0 0 0 .14-.84 5.22 5.22 0 0 0-.42-1.89 3.5 3.5 0 0 0-.88-1.39.45.45 0 0 0-.24-.11s-.06 0-.11.07a2.64 2.64 0 0 0-.67 1.49 13.26 13.26 0 0 0-.24 2.7h1.24M77 6.2a3.89 3.89 0 0 0-2.37.85 6 6 0 0 0-1.88 3.59 21.65 21.65 0 0 0-.08 7.2c.06.46.11.84.16 1.14s.11.64.2 1a5.49 5.49 0 0 0 .4 1.26 7.11 7.11 0 0 0 .53 1 4.2 4.2 0 0 0 1 1.1 4.68 4.68 0 0 0 1.19.64 4 4 0 0 0 1.55.31 4.37 4.37 0 0 0 3.39-1.62 2.71 2.71 0 0 0 .67-2 2.8 2.8 0 0 0-.94-1.86 2.71 2.71 0 0 0-1.83-.71h-.24a3.85 3.85 0 0 0-.47.08c0-.18-.06-.38-.1-.6h.35a3.68 3.68 0 0 0 2.17-.77 4.55 4.55 0 0 0 1.44-3.75 9.17 9.17 0 0 0-.72-3.23 6.76 6.76 0 0 0-1.93-2.72 4 4 0 0 0-2.35-.9h-.12z" fill="#fff"/></svg><svg viewBox="0 0 16.09 27.8" id="ic_pag_arrow" xmlns="http://www.w3.org/2000/svg"><rect x="126.33" y="116.99" width="20.94" height="4.38" rx="2.19" transform="rotate(-45 -61.722 219.036)"/><rect x="126.33" y="128.69" width="20.94" height="4.38" rx="2.19" transform="rotate(45 206.57 -80.106)"/></svg><svg viewBox="0 0 25 22.7" id="ic_phone" xmlns="http://www.w3.org/2000/svg"><path d="M20.05 17.17a16.09 16.09 0 0 0-3.11-3.9c-.9-.91-2-.46-2.94 0-.74.4-1.72.64-1.53 1.83.14.91-.51.64-.91.55-1.64-.37-4.76-3.81-5-5.49a4.08 4.08 0 0 1 .07-1.3c.08-.46.27-.79.88-.7a2.62 2.62 0 0 0 2.83-1.49c.62-1.19 0-2.22-.8-3.1s-1.88-2-2.76-3A1.11 1.11 0 0 0 5.19.23 12.39 12.39 0 0 0 .41 5.08 3.44 3.44 0 0 0 .01 7a11.47 11.47 0 0 0 1.66 5.08 30.1 30.1 0 0 0 5.86 7.56 13.56 13.56 0 0 0 4.56 2.79 3.81 3.81 0 0 0 4.06-.78 2.77 2.77 0 0 1 1.85-.78c2.21-.11 3.06-1.7 2.05-3.7zM5.66 1.71c.51.07 3.47 3.46 3.49 4s-.3.7-.64.91a.89.89 0 0 1-1.19-.1 21.93 21.93 0 0 1-2.79-3.63c-.32-.4.55-1.27 1.13-1.18zm9.32 19.08a3.37 3.37 0 0 1-3.49-.1 16.55 16.55 0 0 1-5.38-4.55 23.82 23.82 0 0 1-4.34-7.33 5.79 5.79 0 0 1-.33-2.11 2.29 2.29 0 0 1 .12-.73c.31-.82.65-1.81 1.53-2s1 .86 1.4 1.36c.84 1 1.51 1.92.79 3.37a3.35 3.35 0 0 0 .31 3.06 12.78 12.78 0 0 0 4.89 5 2.52 2.52 0 0 0 2.16.31c.85-.32 1.29 0 1.67.71a4.07 4.07 0 0 0 .91 1.11c.94.81.63 1.37-.24 1.9zm3.55-1.48a.9.9 0 0 1-1.1-.08 20.06 20.06 0 0 1-3.07-3.91c-.11-.18-.23-.42 0-.58a2 2 0 0 1 1.46-.47c.67.13 3.18 3.49 3.2 4.22a.75.75 0 0 1-.49.82z"/><path d="M13.83 8.27c.68-.76 1.12-1.23 1.54-1.73a18.58 18.58 0 0 0 1.31-1.65 3.43 3.43 0 0 0-.61-4.53c-1.2-.82-3.25-.16-4.22 1.35-.39.62-.74 1.42 0 1.87.91.56.86-.45 1.1-.93.48-.95 1.66-1.54 2.25-1.07a1.81 1.81 0 0 1 .33 2.5 4.19 4.19 0 0 1-.48.63 27.94 27.94 0 0 1-2.84 3.11 1.12 1.12 0 0 0-.43 1.17c.14.52.58.63 1 .64h3.82c.47 0 .92-.18.88-.75s-.46-.6-.88-.61zM24.23 5.34c-1.16.13-1.18-.55-1.09-1.37.06-.43.09-.87.14-1.38a9.57 9.57 0 0 0-.23-1.62c-.21-.73-.87-.94-1.26-.33-1.1 1.71-2.51 3.15-3.72 4.75-.62.81-.19 1.55.85 1.59a10.78 10.78 0 0 0 1.7-.1c.78-.1 1.12.15 1.06 1 0 .58-.14 1.43.73 1.41s.66-.9.64-1.45c0-.83.23-1.22 1.11-1.17a.71.71 0 0 0 .84-.64.63.63 0 0 0-.77-.69zm-4.16 0c.48-.67.81-1.37 1.63-1.73.06 1.98.06 1.98-1.63 1.72z"/><path d="M20.05 17.17a16.09 16.09 0 0 0-3.11-3.9c-.9-.91-2-.46-2.94 0-.74.4-1.72.64-1.53 1.83.14.91-.51.64-.91.55-1.64-.37-4.76-3.81-5-5.49a4.08 4.08 0 0 1 .07-1.3c.08-.46.27-.79.88-.7a2.62 2.62 0 0 0 2.83-1.49c.62-1.19 0-2.22-.8-3.1s-1.88-2-2.76-3A1.11 1.11 0 0 0 5.19.23 12.39 12.39 0 0 0 .41 5.08 3.44 3.44 0 0 0 .01 7a11.47 11.47 0 0 0 1.66 5.08 30.1 30.1 0 0 0 5.86 7.56 13.56 13.56 0 0 0 4.56 2.79 3.81 3.81 0 0 0 4.06-.78 2.77 2.77 0 0 1 1.85-.78c2.21-.11 3.06-1.7 2.05-3.7zM5.66 1.71c.51.07 3.47 3.46 3.49 4s-.3.7-.64.91a.89.89 0 0 1-1.19-.1 21.93 21.93 0 0 1-2.79-3.63c-.32-.4.55-1.27 1.13-1.18zm9.32 19.08a3.37 3.37 0 0 1-3.49-.1 16.55 16.55 0 0 1-5.38-4.55 23.82 23.82 0 0 1-4.34-7.33 5.79 5.79 0 0 1-.33-2.11 2.29 2.29 0 0 1 .12-.73c.31-.82.65-1.81 1.53-2s1 .86 1.4 1.36c.84 1 1.51 1.92.79 3.37a3.35 3.35 0 0 0 .31 3.06 12.78 12.78 0 0 0 4.89 5 2.52 2.52 0 0 0 2.16.31c.85-.32 1.29 0 1.67.71a4.07 4.07 0 0 0 .91 1.11c.94.81.63 1.37-.24 1.9zm3.55-1.48a.9.9 0 0 1-1.1-.08 20.06 20.06 0 0 1-3.07-3.91c-.11-.18-.23-.42 0-.58a2 2 0 0 1 1.46-.47c.67.13 3.18 3.49 3.2 4.22a.75.75 0 0 1-.49.82z"/><path d="M13.83 8.27h2.8c.42 0 .84.13.88.61s-.41.75-.88.75h-3.82c-.45 0-.89-.12-1-.64a1.12 1.12 0 0 1 .43-1.17 27.94 27.94 0 0 0 2.84-3.11 4.19 4.19 0 0 0 .45-.63 1.81 1.81 0 0 0-.32-2.49c-.59-.47-1.77.12-2.25 1.07-.24.48-.19 1.49-1.1.93-.75-.45-.4-1.25 0-1.87 1-1.51 3-2.17 4.22-1.35a3.43 3.43 0 0 1 .61 4.53 18.58 18.58 0 0 1-1.31 1.65c-.43.53-.85.96-1.55 1.72zM24.23 5.34c-1.16.13-1.18-.55-1.09-1.37.06-.43.09-.87.14-1.38a9.57 9.57 0 0 0-.23-1.62c-.21-.73-.87-.94-1.26-.33-1.1 1.71-2.51 3.15-3.72 4.75-.62.81-.19 1.55.85 1.59a10.78 10.78 0 0 0 1.7-.1c.78-.1 1.12.15 1.06 1 0 .58-.14 1.43.73 1.41s.66-.9.64-1.45c0-.83.23-1.22 1.11-1.17a.71.71 0 0 0 .84-.64.63.63 0 0 0-.77-.69zm-4.16 0c.48-.67.81-1.37 1.63-1.73.06 1.98.06 1.98-1.63 1.72z"/></svg><svg viewBox="0 0 32 32" id="ic_search" xmlns="http://www.w3.org/2000/svg"><path d="M20 0A12 12 0 0 0 9.39 17.61l-8.34 8.31a3.536 3.536 0 1 0 5 5l8.34-8.34a12 12 0 1 0 5.62-22.6zM4.79 29.7a1.76 1.76 0 1 1-2.49-2.49l8.07-8.07a11.58 11.58 0 0 0 2.49 2.5zM20 22a10 10 0 1 1 10-10 10 10 0 0 1-10 10z"/><path d="M20 5a7 7 0 0 0-7 7 .5.5 0 0 0 .5.5.5.5 0 0 0 .5-.5 6 6 0 0 1 6-6 .5.5 0 0 0 .5-.5.51.51 0 0 0-.5-.5z"/></svg><svg viewBox="0 0 16 15" id="ic_star" xmlns="http://www.w3.org/2000/svg"><path fill-rule="evenodd" d="M15.075 6.06a.414.414 0 0 0-.336-.283l-4.405-.64-1.97-3.99a.416.416 0 0 0-.747 0l-1.97 3.99-4.405.64a.414.414 0 0 0-.231.709l3.188 3.106-.753 4.385a.416.416 0 0 0 .604.438l3.941-2.07 3.94 2.07a.415.415 0 0 0 .604-.438l-.753-4.385 3.188-3.106a.414.414 0 0 0 .105-.426z"/></svg></svg>